<?xml version="1.0" standalone="no"?>
<!DOCTYPE svg PUBLIC "-//W3C//DTD SVG 20010904//EN"
 "http://www.w3.org/TR/2001/REC-SVG-20010904/DTD/svg10.dtd">
<svg version="1.0" xmlns="http://www.w3.org/2000/svg"
 width="1280.000000pt" height="1280.000000pt" viewBox="0 0 1280.000000 1280.000000"
 preserveAspectRatio="xMidYMid meet">

<g transform="translate(0.000000,1280.000000) scale(0.100000,-0.100000)"
fill="#000000" stroke="none">
<path d="M0 6400 l0 -6400 6400 0 6400 0 0 6400 0 6400 -6400 0 -6400 0 0
-6400z m4968 6371 c9 0 11 -9 8 -23 l-6 -23 11 23 c11 20 39 31 39 15 -2 -32
-51 -55 -66 -32 -4 7 -12 0 -20 -17 -8 -16 -19 -37 -26 -47 -11 -14 -10 -19 2
-28 11 -8 12 -12 3 -16 -10 -3 -10 -10 -2 -24 13 -25 28 -16 22 13 -5 28 22
85 32 68 4 -7 2 -16 -5 -20 -7 -4 -10 -12 -6 -18 8 -13 69 -8 74 7 2 6 10 11
18 11 8 0 14 8 15 18 0 12 3 11 10 -7 7 -19 12 -21 24 -11 11 10 18 9 30 -4
18 -18 35 -21 35 -7 0 5 8 8 18 7 14 -1 17 7 16 39 -1 22 1 30 3 17 6 -29 23
-19 23 14 0 28 15 32 29 7 10 -16 11 -16 17 5 7 24 24 30 24 8 0 -7 7 -19 15
-26 12 -10 15 -9 15 6 1 18 1 18 11 2 14 -25 45 -23 52 3 5 17 9 19 26 9 12
-6 21 -15 21 -21 0 -6 5 -7 10 -4 6 3 10 15 10 26 0 13 7 19 24 19 29 0 69
-50 60 -74 -10 -27 25 -18 38 9 8 18 17 24 30 19 14 -4 18 0 18 20 0 14 5 26
11 26 6 0 8 -9 3 -22 -14 -44 -10 -61 14 -63 21 -2 23 2 19 24 -3 14 -9 34
-13 44 -5 15 -3 18 12 16 10 -2 24 0 31 4 15 9 28 -11 28 -42 0 -13 6 -26 13
-28 7 -3 12 4 12 15 0 31 11 52 26 52 17 0 18 -32 2 -48 -14 -14 -11 -17 21
-27 22 -7 23 -5 17 34 -5 38 -4 41 18 41 14 0 26 -6 29 -12 3 -10 7 -10 19 -1
15 13 76 12 97 -1 6 -4 11 -3 11 2 0 5 32 9 71 9 58 1 72 -2 82 -18 15 -24 24
-24 32 1 6 19 14 21 132 18 90 -1 126 -5 130 -15 4 -9 10 -9 28 3 15 10 32 13
46 9 11 -4 36 -7 55 -7 19 0 36 -3 38 -6 2 -4 56 -7 120 -7 64 0 116 -3 116
-8 0 -4 19 -5 41 -2 23 3 47 0 54 -5 9 -8 15 -8 20 0 10 16 45 12 52 -6 5 -12
7 -13 14 -3 4 8 25 14 46 14 21 1 43 2 48 4 6 2 26 3 46 2 29 -1 38 -6 42 -23
6 -21 7 -21 26 -4 22 20 147 31 157 14 3 -5 19 -6 35 -3 20 5 29 3 29 -6 0
-10 3 -10 12 -1 8 8 15 9 25 1 10 -9 13 -8 13 2 0 10 3 10 12 1 17 -17 38 -15
38 3 0 8 5 15 10 15 6 0 10 -7 10 -15 0 -18 12 -19 28 -3 10 10 15 10 21 -1 5
-7 14 -10 20 -7 6 4 11 1 11 -6 1 -8 9 -4 19 10 11 12 22 22 25 22 3 0 5 -10
3 -22 -2 -19 2 -22 21 -20 17 3 22 -2 23 -20 1 -17 3 -18 6 -5 2 9 9 17 14 17
5 0 9 13 9 29 l0 29 31 -29 c45 -42 64 -36 39 12 -14 25 7 26 27 2 14 -17 14
-17 9 -1 -6 21 23 31 75 26 34 -3 34 -4 31 -48 -2 -41 -1 -43 12 -27 13 17 15
17 24 1 15 -27 34 -6 30 35 -3 35 -2 36 27 33 46 -4 55 -10 55 -32 0 -11 4
-20 9 -20 4 0 6 11 3 25 -4 24 -3 25 57 25 35 0 61 -4 61 -10 0 -10 29 -8 69
5 11 3 22 1 25 -4 4 -5 21 -7 40 -4 19 3 36 1 40 -5 4 -6 13 -9 21 -5 11 3 15
-2 16 -18 1 -24 1 -24 10 1 9 26 10 26 117 23 171 -5 193 -8 202 -23 11 -17
40 -22 40 -7 0 7 9 18 20 25 17 10 23 9 37 -8 12 -13 19 -16 24 -8 11 18 58
19 68 0 6 -11 13 -13 23 -6 14 11 78 11 96 0 6 -4 9 -12 7 -19 -3 -7 0 -25 5
-42 10 -29 10 -29 5 6 -5 35 -5 36 30 37 37 1 44 -8 21 -27 -8 -7 -12 -21 -9
-32 4 -14 9 -17 18 -9 6 5 15 6 20 2 4 -4 5 7 1 23 l-7 30 17 -25 c26 -36 42
-46 72 -45 20 0 28 6 30 22 3 17 0 21 -12 17 -9 -3 -16 -1 -16 5 0 18 -18 13
-23 -6 -3 -10 -5 1 -6 25 -1 45 19 58 38 25 9 -17 11 -17 25 2 9 12 15 15 16
7 0 -7 5 -10 11 -6 7 4 9 0 6 -12 -15 -49 -18 -74 -10 -74 5 0 15 20 22 45 8
28 20 47 33 51 25 8 34 -2 19 -20 -7 -8 -11 -27 -9 -43 4 -28 4 -28 14 7 7 25
17 36 34 38 13 2 32 15 43 28 21 27 47 32 47 8 0 -13 3 -14 14 -5 11 10 16 8
21 -9 6 -20 7 -20 27 5 13 16 26 24 36 20 8 -3 19 -1 22 6 6 8 13 8 28 0 14
-8 23 -8 27 -1 5 8 12 7 22 -2 9 -7 19 -12 22 -10 3 2 9 -7 13 -20 6 -22 6
-22 7 -2 1 18 9 22 54 27 28 3 58 0 65 -5 8 -7 17 -7 27 2 13 10 19 10 34 -4
11 -10 22 -13 25 -8 3 5 19 9 37 10 28 1 31 -2 26 -24 -2 -14 0 -43 6 -65 10
-40 1 -64 -24 -64 -12 0 -7 -19 6 -21 6 0 12 -2 15 -3 3 -1 15 -4 28 -7 25 -4
32 23 8 32 -19 7 -30 98 -15 126 l11 21 19 -24 19 -24 0 28 c0 29 9 34 28 15
8 -8 12 -8 12 -1 0 16 32 21 60 10 27 -11 36 -13 63 -15 9 -1 17 -10 17 -19 0
-15 2 -16 10 -3 8 12 10 12 10 1 0 -11 3 -11 15 -1 13 11 15 8 15 -20 0 -26 3
-30 14 -21 16 14 26 -4 26 -50 0 -31 -9 -36 -28 -17 -9 9 -12 7 -12 -11 0 -12
6 -28 13 -34 14 -14 87 -18 87 -5 0 4 -4 8 -10 8 -5 0 -10 12 -10 26 0 20 3
24 13 16 16 -14 39 3 60 47 19 39 22 61 7 61 -5 0 -10 -10 -10 -22 0 -13 -4
-30 -10 -38 -7 -12 -10 -11 -15 5 -4 11 -11 30 -16 43 -12 31 -12 31 11 25 12
-3 22 1 26 11 9 22 34 20 34 -3 0 -18 34 -51 51 -51 13 0 19 32 9 49 -20 39
40 56 77 22 16 -15 23 -17 32 -8 26 26 51 10 51 -34 0 -14 5 -30 11 -36 14
-14 3 -49 -19 -57 -9 -3 -23 -9 -29 -12 -10 -4 -13 10 -13 55 0 36 -4 61 -11
61 -7 0 -8 -16 -3 -45 6 -42 5 -45 -17 -46 -13 -1 -30 -1 -37 0 -21 3 -42 -26
-42 -59 0 -27 3 -30 20 -25 10 3 28 1 40 -5 15 -8 20 -8 20 1 0 8 4 8 15 -1
12 -10 15 -9 15 8 0 20 26 49 36 39 3 -3 0 -15 -6 -27 -6 -12 -10 -23 -8 -24
18 -14 196 -37 283 -38 33 0 65 -3 70 -8 6 -4 30 -11 55 -15 28 -4 51 -15 62
-28 14 -19 20 -20 35 -10 49 34 76 44 86 34 6 -6 21 -11 34 -11 13 0 23 -4 23
-10 0 -5 25 -17 56 -26 64 -18 154 -26 154 -13 0 5 17 9 38 9 21 0 44 6 50 12
10 10 15 10 22 -2 7 -11 14 -12 33 -3 27 13 157 -4 157 -19 0 -4 9 -8 21 -8
11 0 33 -14 48 -31 22 -24 33 -29 53 -24 14 4 29 2 32 -3 3 -6 15 -8 26 -5 12
3 20 0 20 -7 0 -7 8 -9 20 -5 14 5 36 -5 73 -31 28 -20 54 -41 55 -46 2 -4 9
-14 16 -21 35 -35 43 -64 45 -167 1 -58 6 -161 12 -230 14 -184 14 -181 6
-238 -5 -33 -4 -51 1 -48 15 9 72 -14 72 -29 0 -8 -4 -25 -10 -39 -6 -17 -6
-35 1 -53 6 -16 12 -75 14 -133 4 -89 2 -109 -15 -136 -12 -21 -15 -34 -8 -36
6 -2 12 -29 13 -59 1 -29 8 -64 15 -76 12 -19 11 -27 -15 -74 l-28 -52 31 -29
c38 -33 44 -78 12 -78 -26 0 -26 -34 0 -60 15 -15 17 -25 11 -42 -5 -13 -14
-22 -20 -20 -20 4 -11 -20 14 -40 32 -25 32 -46 -1 -59 -26 -9 -26 -10 -9 -29
13 -14 15 -27 10 -47 -3 -15 -9 -46 -12 -68 -3 -22 -9 -44 -13 -50 -8 -10 -13
-39 -11 -62 0 -7 7 -13 15 -13 20 0 29 -17 21 -38 -6 -16 -7 -16 -16 1 -12 21
-29 22 -29 1 0 -9 9 -18 20 -21 21 -6 27 -37 10 -48 -16 -10 -12 -38 5 -31 12
4 14 0 8 -22 -3 -15 -7 -67 -7 -117 -1 -53 -6 -95 -12 -102 -12 -13 -11 -125
2 -211 4 -27 2 -48 -5 -55 -6 -6 -11 -29 -11 -50 0 -30 3 -38 14 -34 14 6 26
-12 26 -39 0 -8 -11 -19 -25 -24 -24 -9 -25 -12 -23 -107 1 -54 6 -104 11
-110 6 -8 5 -25 -2 -45 -9 -24 -8 -46 1 -86 9 -43 9 -55 -1 -62 -9 -5 -11 -15
-5 -31 4 -13 8 -54 9 -90 1 -48 6 -71 18 -84 10 -9 14 -21 11 -26 -3 -6 -11
-3 -18 7 -20 27 -28 1 -11 -39 11 -26 12 -43 4 -71 -5 -20 -14 -36 -19 -36 -6
0 -1 -9 11 -21 12 -12 18 -27 14 -37 -3 -9 0 -38 7 -65 9 -38 9 -52 0 -67 -7
-11 -12 -31 -12 -45 0 -27 -15 -34 -24 -10 -3 8 -10 15 -16 15 -22 0 -8 -31
30 -69 33 -33 42 -49 47 -89 6 -53 -7 -73 -32 -52 -12 10 -13 -4 -7 -87 4 -54
6 -126 5 -161 -1 -37 2 -60 8 -57 5 4 9 15 9 26 0 10 5 19 10 19 14 0 12 -56
-2 -80 -10 -15 -10 -22 0 -32 15 -15 16 -45 1 -54 -7 -4 -16 1 -21 10 -5 9
-12 16 -16 16 -12 0 -45 -68 -38 -79 4 -6 -1 -22 -10 -36 l-17 -26 34 2 c40 3
59 -6 59 -28 0 -13 -3 -13 -15 -3 -13 11 -15 9 -15 -13 0 -16 7 -26 20 -30 22
-6 28 -54 10 -88 -8 -13 -7 -25 1 -40 12 -24 -3 -75 -20 -65 -5 3 -14 -7 -19
-23 -9 -24 -8 -29 3 -24 23 8 31 -44 10 -67 -16 -18 -16 -21 0 -63 24 -63 3
-119 -25 -67 -6 11 -14 20 -18 20 -9 0 -9 -37 1 -65 3 -11 11 -58 17 -105 9
-72 8 -93 -6 -137 -9 -29 -21 -50 -25 -47 -5 3 -9 -4 -9 -14 0 -22 23 -46 33
-35 4 3 7 -5 7 -19 0 -14 -7 -28 -15 -32 -8 -3 -15 -15 -15 -26 0 -16 4 -20
19 -15 15 4 20 -1 25 -26 3 -18 1 -38 -5 -45 -6 -7 -7 -27 -3 -48 9 -49 1 -45
-25 10 -17 35 -19 49 -11 60 7 7 10 19 7 26 -3 7 -11 -2 -20 -21 -13 -31 -13
-37 3 -65 26 -46 36 -124 16 -132 -27 -10 -19 -32 9 -26 23 4 27 -1 24 -25 -1
-5 -5 -7 -10 -6 -5 2 -16 -11 -25 -28 -12 -24 -13 -37 -5 -53 26 -53 35 -106
21 -131 -10 -19 -11 -32 0 -69 13 -47 7 -131 -12 -153 -13 -16 0 -74 20 -89
10 -7 12 -13 4 -18 -7 -4 -9 -34 -5 -90 4 -57 2 -85 -6 -90 -16 -10 -14 -35 4
-52 19 -19 19 -87 1 -123 -10 -19 -14 -50 -11 -99 2 -46 0 -72 -7 -72 -6 0 -7
-7 -3 -17 4 -10 11 -37 15 -60 6 -35 4 -42 -12 -46 -20 -6 -16 -29 10 -59 13
-15 13 -21 -2 -52 -19 -41 -20 -58 -4 -74 7 -7 13 -32 14 -55 1 -23 5 -52 9
-64 5 -17 3 -23 -8 -23 -8 0 -18 10 -22 23 -4 15 -8 18 -12 9 -3 -8 4 -27 16
-43 24 -32 27 -54 7 -46 -24 10 -26 -4 -5 -44 20 -40 20 -62 3 -238 -6 -57 -5
-63 10 -58 9 4 16 2 16 -3 0 -6 -4 -10 -10 -10 -12 0 -13 -55 -1 -78 5 -10 6
-78 1 -160 -5 -90 -4 -156 2 -176 9 -27 6 -41 -17 -85 -26 -53 -29 -75 -5 -46
7 8 16 15 20 15 9 0 5 -98 -4 -121 -4 -10 -3 -20 3 -24 15 -9 14 -42 -1 -48
-10 -3 -10 -7 1 -21 10 -12 12 -32 8 -72 -4 -43 -2 -56 9 -61 8 -3 13 -16 12
-32 -1 -15 2 -32 6 -39 13 -21 -3 -90 -22 -94 -14 -4 -17 -16 -16 -64 1 -62
23 -135 31 -101 3 9 -1 33 -7 53 -9 25 -9 39 -2 46 18 18 44 -11 37 -39 -4
-16 -1 -23 10 -23 12 0 14 -11 10 -56 -5 -65 -11 -76 -24 -43 -9 21 -10 19
-10 -18 -1 -23 -5 -45 -11 -48 -5 -3 -10 -20 -10 -37 0 -22 -4 -29 -15 -25
-24 10 -29 -14 -6 -36 l21 -21 0 22 c0 34 27 26 49 -15 14 -28 14 -46 -1 -37
-8 5 -9 2 -5 -10 4 -10 7 -26 7 -35 0 -10 11 -30 24 -44 13 -14 29 -49 35 -77
13 -62 13 -63 1 -55 -6 4 -17 2 -24 -4 -10 -9 -12 1 -9 47 3 43 1 53 -7 40
-18 -29 -29 -108 -15 -108 30 0 37 -27 19 -77 -9 -26 -18 -64 -19 -83 -1 -19
-4 -41 -6 -49 -2 -8 3 -16 12 -18 13 -3 15 5 11 51 -4 48 -2 55 18 66 21 11
22 10 15 -18 -8 -36 10 -51 33 -28 14 14 14 17 -1 34 -10 10 -17 35 -17 55 0
31 4 37 21 37 22 0 49 -22 49 -39 0 -6 -4 -11 -10 -11 -5 0 -10 -15 -10 -34 0
-19 -5 -36 -10 -38 -7 -2 -6 -15 2 -36 10 -26 10 -34 0 -41 -7 -4 -15 -24 -18
-43 -6 -33 -4 -36 19 -36 28 1 40 26 31 65 -7 26 11 32 20 7 10 -25 7 -104 -3
-104 -6 0 -13 5 -16 11 -5 6 -12 4 -21 -8 -19 -26 -17 -35 9 -32 33 5 47 -8
47 -44 1 -29 2 -30 14 -14 11 14 16 15 22 6 4 -7 2 -15 -4 -17 -7 -2 -12 -8
-12 -13 0 -6 5 -7 10 -4 6 3 10 0 10 -8 0 -8 12 -31 26 -52 27 -40 25 -64 -5
-72 -24 -6 -46 -56 -36 -80 6 -15 10 -13 21 15 8 18 19 30 25 27 5 -4 16 -2
23 4 25 21 64 -4 72 -45 6 -31 3 -39 -17 -55 -29 -22 -39 -16 -39 22 0 32 -14
37 -44 14 -17 -13 -17 -18 -6 -45 7 -16 20 -30 29 -30 9 0 25 -14 34 -30 10
-17 25 -30 33 -30 8 0 14 -10 14 -25 0 -30 -26 -34 -35 -5 -7 22 -35 26 -53 8
-9 -9 -15 -8 -27 8 -8 10 -13 26 -11 36 2 10 -4 18 -15 21 -12 3 -19 0 -19 -9
0 -8 5 -14 10 -14 6 0 10 -11 10 -25 0 -16 -6 -25 -15 -25 -17 0 -21 -45 -5
-55 6 -3 10 3 10 14 0 22 29 30 32 9 0 -7 2 -26 4 -43 1 -16 6 -51 9 -78 6
-37 4 -51 -9 -66 -9 -10 -14 -24 -11 -32 6 -19 -29 -64 -44 -55 -6 4 -11 25
-11 47 0 35 -11 51 -24 31 -6 -11 16 -92 26 -92 4 0 8 -15 8 -34 0 -19 8 -44
19 -57 15 -18 16 -27 7 -41 -10 -16 -12 -15 -26 14 -16 34 -40 49 -40 25 0 -9
5 -17 10 -19 7 -2 8 -19 4 -45 -7 -43 -26 -51 -23 -10 4 48 0 60 -16 47 -8 -7
-15 -21 -15 -31 0 -10 -12 -35 -26 -56 -17 -25 -25 -50 -24 -73 4 -73 1 -80
-24 -80 -20 0 -25 -6 -28 -35 -2 -19 0 -42 5 -51 5 -8 6 -39 3 -67 -3 -29 -6
-69 -6 -90 0 -24 -3 -36 -10 -32 -5 3 -10 15 -10 25 0 18 -19 40 -21 23 0 -4
-2 -21 -4 -38 -3 -16 0 -44 6 -61 5 -18 11 -75 13 -129 3 -95 2 -97 -23 -113
-14 -8 -36 -25 -49 -36 -23 -21 -24 -21 -37 -2 -14 18 -15 18 -25 -8 -5 -15
-10 -32 -10 -37 0 -5 -4 -9 -10 -9 -5 0 -10 -19 -10 -43 0 -24 -3 -46 -6 -50
-10 -10 -44 17 -44 35 0 30 -20 20 -26 -12 -8 -38 -29 -38 -43 0 -10 29 -25
36 -74 32 -12 -1 -19 7 -24 28 -7 39 -23 39 -23 0 0 -30 -1 -30 -44 -27 -24 2
-49 7 -55 11 -7 4 -18 2 -26 -4 -8 -6 -18 -9 -23 -6 -8 5 -98 12 -262 21 -47
3 -96 8 -110 11 -69 16 -313 18 -342 3 -11 -6 -41 -9 -66 -6 -24 3 -58 1 -74
-3 -17 -5 -69 -4 -126 4 -53 6 -119 10 -147 7 -27 -2 -84 -3 -125 -1 -81 4
-194 4 -250 1 -19 -1 -105 1 -190 5 -85 4 -194 7 -243 7 l-87 1 -9 30 c-9 29
-9 29 -10 6 -2 -22 -3 -23 -14 -8 -12 15 -14 15 -26 -5 l-14 -21 -18 23 c-16
20 -20 21 -25 6 -4 -9 -12 -14 -20 -11 -7 3 -18 -2 -24 -10 -24 -28 -90 -9
-90 27 0 8 -7 6 -20 -6 -18 -16 -20 -16 -35 -1 -19 18 -31 20 -40 6 -10 -15
-25 -2 -25 22 0 16 -3 18 -14 9 -8 -6 -18 -11 -22 -10 -5 1 -26 -5 -47 -15
-21 -9 -42 -14 -47 -11 -5 3 -11 1 -15 -5 -13 -21 -35 17 -29 52 5 33 5 33 -9
9 -15 -25 -15 -25 -22 17 -4 23 -11 44 -16 48 -5 3 -7 9 -5 13 3 4 1 13 -5 21
-7 12 -9 12 -9 -3 0 -11 -6 -17 -17 -15 -13 2 -18 -4 -18 -19 0 -32 -13 -39
-20 -10 -10 37 -33 42 -41 9 -10 -41 -24 -55 -40 -41 -11 9 -14 8 -15 -5 -3
-35 -5 -41 -17 -38 -7 1 -12 -2 -12 -8 0 -5 -7 -10 -15 -10 -8 0 -15 -5 -15
-11 0 -6 -7 -9 -15 -5 -9 3 -15 0 -15 -8 0 -8 -7 -16 -15 -20 -9 -3 -15 0 -15
9 0 21 -18 19 -25 -3 -3 -11 -22 -24 -43 -31 -34 -10 -277 -24 -347 -20 -36 3
-108 2 -150 -1 -16 -1 -81 0 -143 2 -63 2 -116 0 -118 -4 -3 -4 -12 -8 -21 -8
-9 0 -25 -7 -35 -16 -13 -13 -21 -14 -31 -5 -30 24 -350 39 -385 17 -6 -3 -13
-2 -17 4 -4 6 -11 7 -17 4 -11 -7 -189 -11 -838 -19 -206 -2 -414 -9 -461 -14
-51 -6 -102 -6 -125 -1 -22 5 -73 7 -114 4 -41 -3 -154 -5 -250 -5 -96 1 -425
2 -730 4 -305 2 -564 0 -574 -3 -11 -4 -39 -3 -63 2 -31 7 -48 6 -58 -2 -8 -7
-20 -8 -27 -3 -7 4 -71 9 -143 9 -71 1 -184 5 -250 9 -139 8 -140 8 -180 2
-16 -3 -37 -1 -45 3 -8 4 -42 3 -75 -2 -115 -18 -258 -24 -440 -18 -38 1 -87
-2 -107 -8 -24 -6 -66 -7 -115 -1 -43 5 -116 6 -163 3 -100 -8 -108 -8 -180
-5 -30 1 -98 2 -150 2 -221 -1 -416 5 -427 12 -8 5 -13 3 -13 -4 0 -6 -8 -9
-20 -6 -11 3 -23 1 -26 -4 -8 -13 -35 -11 -66 5 -15 8 -30 11 -33 6 -7 -11
-102 -1 -128 12 -13 7 -24 5 -35 -5 -10 -8 -42 -15 -72 -16 l-55 -2 -18 42
c-14 33 -21 39 -28 28 -7 -11 -9 -11 -9 4 0 9 -6 16 -12 15 -7 -2 -14 8 -16
21 l-4 23 -14 -21 c-9 -12 -13 -25 -9 -30 3 -5 1 -12 -5 -16 -5 -3 -10 -1 -10
6 0 6 -8 9 -20 6 -13 -3 -20 0 -20 10 0 8 -5 11 -11 8 -5 -4 -9 -14 -7 -23 4
-21 -46 -72 -72 -72 -10 0 -20 -5 -22 -11 -2 -6 -13 -12 -23 -13 -11 -2 -28
-5 -38 -9 -45 -18 -53 -20 -65 -18 -8 1 -20 -3 -28 -10 -7 -6 -21 -9 -29 -5
-8 3 -15 0 -15 -6 0 -6 -3 -9 -6 -5 -3 3 -23 -1 -44 -8 -21 -7 -41 -11 -43 -8
-9 8 -77 -17 -77 -28 0 -6 -9 -7 -20 -4 -12 4 -20 2 -20 -5 0 -6 -6 -10 -13
-9 -6 2 -29 -5 -51 -14 -34 -15 -53 -16 -91 -6 -5 1 -17 -1 -25 -4 -32 -13
-96 -27 -122 -27 -16 0 -28 -5 -28 -11 0 -6 -7 -8 -16 -5 -14 5 -15 1 -9 -26
13 -59 11 -73 -13 -83 -14 -6 -26 -22 -29 -38 -3 -15 -10 -30 -14 -33 -5 -3
-9 -14 -9 -25 0 -20 -30 -27 -30 -6 0 6 -7 20 -14 30 -13 17 -15 17 -28 -10
-7 -15 -21 -29 -31 -31 -14 -3 -17 4 -17 49 0 29 -3 49 -7 46 -4 -4 -14 9 -23
28 -14 31 -18 34 -29 21 -12 -14 -17 -13 -45 9 -18 14 -37 25 -43 25 -14 0
-44 35 -37 43 4 3 8 46 10 94 2 48 7 121 10 161 7 78 -5 113 -32 91 -11 -9
-15 -8 -19 4 -10 25 10 82 29 85 16 3 18 0 12 -23 -5 -20 -3 -26 6 -22 7 2 12
15 10 28 -1 13 -3 49 -3 79 -1 30 -8 64 -16 76 -13 21 -9 54 8 54 5 0 9 13 9
28 0 15 5 33 12 40 9 9 9 15 1 23 -8 8 -13 5 -18 -11 -6 -19 -10 -15 -31 30
-33 71 -32 80 11 73 41 -7 42 -2 14 37 -16 21 -20 37 -16 63 l5 35 -31 -9
c-45 -13 -87 6 -87 38 0 16 4 22 12 17 8 -5 9 3 5 30 -5 32 -4 37 10 32 13 -5
15 -1 10 29 -4 27 -2 35 9 35 8 0 19 -10 23 -22 l9 -23 10 25 c8 20 6 28 -10
41 -13 10 -22 32 -25 62 -6 48 -1 53 44 48 6 -1 19 24 28 54 15 48 16 59 5 81
-12 21 -12 31 2 69 10 26 13 47 7 50 -5 4 -9 -3 -9 -14 0 -12 -4 -21 -9 -21
-14 0 -23 51 -11 65 8 10 8 30 1 71 -15 77 -14 82 8 89 26 8 35 35 17 49 -40
30 -46 108 -11 140 14 13 25 28 25 35 0 16 -11 14 -26 -6 -16 -22 -29 -11 -17
14 6 10 9 55 8 101 -1 75 6 101 18 70 3 -7 6 -3 6 9 1 12 -5 24 -11 27 -9 3
-8 8 5 16 25 16 23 50 -3 43 -22 -6 -28 15 -9 34 6 6 11 47 12 91 1 46 6 78
11 75 5 -4 6 4 2 18 -5 13 -10 40 -13 59 -3 19 -12 39 -19 43 -25 14 -18 74
27 223 13 42 11 54 -5 48 -20 -8 -56 31 -56 60 0 13 9 35 21 49 15 20 18 35
14 59 -4 18 -1 47 5 63 9 25 8 31 -6 42 -15 11 -15 14 6 42 12 17 28 31 36 31
8 0 14 5 14 10 0 15 -26 12 -40 -5 -7 -8 -16 -12 -21 -9 -13 7 -11 42 2 46 7
2 7 12 0 31 -8 20 -7 33 2 49 9 16 9 22 0 25 -18 6 -16 33 2 33 7 0 19 -8 24
-17 22 -38 10 10 -15 59 -23 45 -25 56 -15 88 7 23 7 55 2 90 -5 29 -6 71 -3
92 2 21 -1 57 -7 80 -10 35 -9 49 3 78 15 36 24 139 14 156 -3 5 -9 52 -13
105 -5 79 -4 102 9 127 20 39 20 53 1 46 -10 -4 -15 0 -15 15 0 12 7 24 15 27
9 4 15 18 14 38 -1 28 -2 29 -8 7 -4 -14 -12 -26 -18 -28 -15 -5 -9 125 7 141
15 15 12 52 -5 87 -15 27 -14 31 6 58 25 34 20 73 -6 51 -13 -11 -14 -6 -9 36
4 27 11 57 15 66 7 12 4 20 -8 27 -15 8 -16 13 -6 30 14 22 9 71 -14 149 -16
56 -11 117 10 125 9 3 9 11 0 37 -8 20 -11 65 -9 111 3 53 0 80 -7 83 -8 3 -6
10 5 19 21 16 24 71 7 114 -12 30 -20 171 -9 152 16 -25 19 25 3 51 -14 25
-15 34 -4 72 7 24 18 53 24 66 9 18 7 29 -6 50 -9 15 -23 26 -32 26 -8 -1 -15
4 -15 11 0 19 25 36 44 29 9 -3 16 -1 16 5 0 7 -7 14 -16 18 -12 4 -14 16 -8
62 4 31 13 65 20 76 8 11 14 29 14 40 0 28 -25 62 -34 47 -3 -6 -2 -13 4 -17
16 -10 12 -42 -10 -85 -26 -51 -34 -51 -25 0 4 24 3 46 -4 53 -15 19 2 73 21
69 25 -4 32 30 10 48 -25 20 -38 54 -18 47 17 -7 51 28 41 43 -3 5 -11 8 -16
5 -5 -4 -9 0 -9 8 0 8 -7 28 -16 46 -14 27 -14 44 -4 129 6 53 14 120 16 147
l5 50 -21 -27 c-12 -16 -25 -28 -30 -28 -18 0 -21 43 -5 90 15 45 15 51 1 66
-18 18 -20 42 -6 64 9 13 11 13 21 0 9 -12 10 -11 4 5 -4 11 -10 28 -12 37 -3
10 -9 15 -14 13 -15 -10 -31 36 -25 70 4 18 1 44 -5 58 -15 33 -5 73 21 80 12
3 20 13 20 27 0 18 -3 20 -14 11 -8 -7 -17 -8 -20 -3 -10 16 25 37 55 34 28
-3 39 10 19 23 -6 3 -10 21 -10 38 0 18 -9 43 -19 57 -19 24 -20 24 -40 6 -19
-17 -21 -17 -27 -2 -4 10 -2 28 5 42 9 20 8 30 -5 49 -10 16 -14 34 -10 50 8
32 26 33 26 1 0 -14 3 -27 8 -29 4 -3 7 68 7 158 0 127 -3 161 -12 153 -24
-20 -36 3 -30 59 5 48 11 60 46 92 27 25 41 46 41 62 l-1 24 -18 -22 c-25 -29
-31 -29 -31 2 0 14 -7 36 -15 49 -13 19 -13 29 -4 52 7 16 12 49 13 74 1 36 5
47 24 56 22 11 22 12 3 17 -26 6 -37 64 -21 111 13 39 4 70 -12 42 -5 -9 -14
-14 -19 -11 -5 4 -1 17 10 31 16 20 20 40 19 92 -1 37 2 77 6 90 5 13 3 22 -3
22 -14 0 -14 62 0 93 8 18 7 32 -5 62 -13 30 -14 40 -4 49 9 8 12 41 10 114
-3 99 -4 103 -28 112 -31 12 -35 60 -4 60 17 0 20 7 20 39 0 22 -5 43 -10 46
-13 8 -13 102 -1 110 6 3 8 36 6 73 -3 37 -5 78 -5 91 0 14 -5 21 -12 18 -10
-3 -13 17 -13 82 0 47 -4 106 -8 131 -5 30 -4 40 2 30 14 -20 25 -6 13 17 -5
10 -12 42 -16 71 -6 47 -5 52 13 52 28 0 32 23 11 64 -10 20 -20 53 -23 74 -3
20 -9 52 -13 69 -5 25 -2 34 10 39 23 9 20 23 -9 34 -24 9 -36 40 -16 40 5 0
12 9 16 19 4 13 12 18 22 14 11 -4 14 -2 11 8 -3 8 -10 13 -16 12 -20 -5 -35
37 -23 63 6 13 15 24 21 24 5 0 10 11 10 25 0 20 -5 24 -22 22 -38 -4 -36 43
2 71 35 26 37 43 10 92 l-20 35 5 -40 c6 -43 -6 -72 -24 -61 -14 9 -14 69 -1
96 6 11 15 30 22 43 6 12 13 49 15 81 1 34 8 63 15 68 10 6 10 10 1 16 -25 16
-32 63 -26 174 3 62 5 141 5 175 -1 49 2 62 16 68 18 7 104 18 134 17 10 0 20
3 23 8 3 4 14 6 24 3 10 -3 21 0 25 5 8 14 -23 84 -34 77 -11 -7 -22 15 -24
48 -1 24 -26 36 -26 13 0 -21 -19 -21 -27 0 -4 11 2 23 18 35 21 16 25 28 31
116 10 130 10 133 2 171 -4 21 -2 32 5 32 6 0 11 -7 11 -15 0 -21 13 -19 28 5
7 11 16 20 21 20 5 0 13 -9 16 -20 3 -11 10 -20 15 -20 17 0 19 33 4 63 -28
52 -26 217 1 217 9 0 13 18 13 63 -1 53 -5 67 -30 99 -22 28 -27 43 -22 62 8
32 17 33 37 4 8 -13 18 -20 22 -16 4 4 0 19 -9 32 -27 42 -18 90 11 61 24 -24
35 -18 28 16 -7 29 -6 30 14 20 18 -10 41 -40 41 -55 0 -3 -7 -6 -15 -6 -21 0
-19 -13 4 -27 18 -11 20 -9 23 15 2 22 8 27 31 27 16 1 27 -4 27 -12 0 -7 7
-13 16 -13 12 0 15 6 10 24 -9 36 3 38 43 7 59 -46 121 -77 129 -64 5 8 12 8
25 -2 14 -10 15 -14 5 -19 -7 -3 -3 -3 8 -1 16 4 23 0 29 -17 7 -22 8 -22 12
6 3 16 -1 32 -7 36 -7 4 -11 13 -9 19 3 8 12 5 26 -9 12 -11 32 -20 43 -20 14
0 19 -4 14 -12 -5 -9 -2 -9 9 1 15 12 17 11 17 -4 0 -10 6 -15 18 -13 10 2 17
12 16 26 -1 26 18 29 37 6 7 -8 30 -24 51 -35 21 -11 38 -24 38 -29 0 -6 9
-10 20 -10 11 0 20 -4 20 -9 0 -10 39 -27 53 -23 4 1 10 -5 13 -13 11 -28 24
-15 24 25 l0 40 30 -27 c17 -14 30 -31 30 -38 0 -9 88 -90 99 -90 11 0 6 74
-7 102 -9 22 -12 47 -8 76 6 38 3 48 -24 86 -20 27 -29 49 -25 59 5 14 9 13
20 -8 7 -14 11 -28 9 -32 -3 -5 1 -8 9 -8 18 0 27 -21 27 -63 0 -23 3 -28 9
-17 6 8 8 17 5 21 -2 4 0 10 6 14 5 3 10 -2 10 -13 0 -10 2 -21 5 -24 6 -6 70
14 81 25 4 4 16 7 27 7 11 0 18 3 15 6 -4 3 -2 19 2 35 10 34 -2 39 -19 7 -11
-21 -11 -20 -6 10 2 17 3 32 1 32 -3 0 -11 3 -20 6 -12 4 -16 0 -16 -16 0 -11
-4 -18 -10 -15 -5 3 -10 26 -10 51 0 41 2 45 22 42 13 -2 28 -9 34 -17 14 -18
34 -6 34 20 0 24 11 24 38 -1 12 -11 24 -20 28 -20 4 0 22 -11 40 -25 18 -14
36 -25 39 -25 4 0 20 -9 36 -21 16 -11 29 -17 29 -12 0 4 7 -1 16 -12 12 -16
16 -17 23 -6 5 7 6 21 4 31 -3 10 0 21 6 24 10 6 24 -6 53 -47 14 -19 62 -25
91 -12 14 6 20 2 24 -14 6 -23 23 -29 23 -7 0 19 40 28 47 10 4 -11 8 -12 20
-2 8 6 43 12 79 12 35 1 64 5 64 9 0 5 9 6 19 2 21 -7 51 18 51 43 0 8 -5 30
-12 49 -12 34 -4 58 12 33 5 -8 12 -38 16 -66 l6 -51 46 2 c26 1 55 5 65 10
11 4 23 3 30 -4 8 -8 14 -6 23 11 13 23 13 23 26 -9 12 -28 15 -30 32 -18 10
8 35 17 57 20 21 4 39 10 39 13 1 4 3 32 6 62 5 45 3 53 -7 43 -7 -7 -16 -13
-19 -13 -6 0 -6 46 -1 83 1 4 9 7 19 5 11 -2 17 4 17 17 0 14 7 20 21 20 11 0
28 8 38 18 10 9 22 15 27 12 5 -3 18 -1 30 5 14 8 29 8 49 1 19 -6 32 -6 35 0
10 15 25 0 25 -24 1 -21 1 -22 15 -3 8 11 16 18 18 15 2 -2 11 -15 21 -29 l17
-25 -3 35 c-3 31 0 35 22 35 14 0 31 -4 38 -9 9 -6 16 -6 21 2 4 6 20 12 36
12 108 1 131 -2 143 -17 11 -16 12 -16 12 0 0 9 6 18 13 18 46 5 57 7 71 12 8
3 18 2 22 -4 3 -5 13 -7 23 -4 11 3 22 -4 33 -22 15 -25 16 -26 22 -5 4 13 13
19 22 15 7 -3 14 0 14 6 0 20 28 12 48 -14 11 -14 29 -25 40 -25 15 0 22 -9
27 -30 4 -16 11 -30 17 -30 10 0 6 27 -8 65 -5 13 -2 16 12 13 29 -5 55 -69
44 -107 -5 -17 -5 -31 0 -31 15 0 22 40 16 85 -8 48 7 68 28 40 12 -16 13 -16
19 -1 4 9 13 16 22 16 11 0 15 -11 14 -42 -1 -36 -2 -39 -9 -18 -6 22 -8 23
-15 7 -6 -14 -10 -15 -23 -5 -13 11 -14 9 -10 -17 3 -17 9 -39 13 -50 5 -11 5
-17 0 -13 -10 10 -35 -10 -35 -27 0 -16 38 -27 43 -12 5 15 47 19 47 5 0 -9 3
-9 11 -1 8 8 8 17 -1 32 -9 17 -8 29 2 51 14 32 28 39 28 14 0 -8 5 -12 10 -9
6 3 10 -3 10 -14 0 -11 5 -23 10 -26 14 -9 13 68 -2 83 -9 9 -9 15 1 25 10 9
15 9 18 0 2 -7 11 -9 19 -6 11 4 15 -1 13 -18 -4 -41 1 -73 9 -65 4 4 7 31 7
59 l0 52 42 2 c24 1 45 -3 49 -8 4 -7 12 -5 22 4 27 23 61 27 72 9 9 -16 11
-16 20 1 14 22 26 22 47 -3 21 -24 36 -25 53 -5 7 8 24 15 39 15 14 0 44 2 66
4 60 5 139 8 150 6 6 -1 14 -2 20 0 5 1 15 -7 23 -17 8 -11 16 -14 20 -8 13
19 51 35 67 29 14 -6 14 -8 1 -23 -13 -15 -14 -22 -3 -44 14 -32 33 -30 30 4
-5 58 4 69 55 68 26 0 73 3 105 7 l57 6 0 -28 1 -29 12 25 c9 18 21 26 45 29
30 2 32 0 32 -28 0 -28 -2 -30 -20 -19 -27 17 -35 4 -18 -32 l15 -30 29 25
c31 27 44 31 44 14 0 -5 5 -7 11 -3 6 4 8 20 5 38 -4 18 -4 34 -2 37 4 4 62 4
94 0z m-2627 -59 c-13 -25 2 -46 26 -38 15 5 19 13 16 34 -3 23 -2 24 6 7 8
-17 10 -18 10 -2 1 21 27 23 34 2 4 -9 16 -13 36 -10 35 4 46 -7 32 -32 -9
-16 -11 -16 -19 6 -10 27 -16 21 -26 -23 -6 -23 -9 -27 -17 -15 -5 7 -9 24 -9
37 0 12 -4 22 -10 22 -15 0 -12 -22 7 -61 21 -44 44 -61 60 -47 23 19 15 -27
-8 -48 -20 -18 -21 -18 -35 1 -8 10 -14 29 -14 43 0 13 -4 21 -9 18 -12 -8
-20 -56 -10 -56 5 0 9 -10 9 -22 -1 -22 -1 -23 -15 -4 -11 14 -15 16 -15 5 0
-12 -2 -12 -11 1 -8 11 -12 12 -16 3 -10 -25 -23 -12 -23 23 0 46 -17 62 -58
56 l-32 -4 0 53 c-1 43 -3 50 -11 36 -6 -10 -9 -35 -7 -55 3 -41 -1 -45 -38
-36 -27 7 -27 12 -11 79 3 11 6 28 6 38 1 19 31 23 49 5 9 -9 16 -8 29 4 39
35 95 20 74 -20z m2739 42 c0 -16 -23 -44 -35 -44 -19 0 -19 6 3 29 17 19 32
26 32 15z m90 -23 c7 -17 10 -36 7 -43 -3 -9 -7 -6 -12 7 -3 11 -11 28 -16 37
-11 22 -11 28 0 28 5 0 14 -13 21 -29z m390 25 c0 -3 -4 -8 -10 -11 -5 -3 -10
-1 -10 4 0 6 5 11 10 11 6 0 10 -2 10 -4z m-3395 -65 c-7 -23 -25 -29 -25 -8
0 14 21 39 28 33 2 -3 1 -14 -3 -25z m8392 -3 c-3 -7 -5 -2 -5 12 0 14 2 19 5
13 2 -7 2 -19 0 -25z m-6887 12 c0 -5 -4 -10 -10 -10 -5 0 -10 5 -10 10 0 6 5
10 10 10 6 0 10 -4 10 -10z m7128 -38 c-3 -14 -6 -14 -16 6 -7 12 -10 27 -6
33 9 15 27 -16 22 -39z m-1548 18 c0 -5 -4 -10 -10 -10 -5 0 -10 5 -10 10 0 6
5 10 10 10 6 0 10 -4 10 -10z m1200 -17 c-1 -24 -2 -26 -11 -10 -5 9 -7 22 -4
27 10 17 15 11 15 -17z m-7960 -22 c0 -6 -4 -13 -10 -16 -5 -3 -10 1 -10 9 0
9 5 16 10 16 6 0 10 -4 10 -9z m30 -34 c0 -18 -2 -19 -10 -7 -13 20 -13 43 0
35 6 -3 10 -16 10 -28z m1110 13 c0 -5 -4 -10 -10 -10 -5 0 -10 5 -10 10 0 6
5 10 10 10 6 0 10 -4 10 -10z m6840 -5 c0 -8 -4 -15 -10 -15 -5 0 -10 7 -10
15 0 8 5 15 10 15 6 0 10 -7 10 -15z m-44 -31 c-4 -14 -9 -24 -12 -21 -3 2 -2
17 2 31 3 15 9 25 11 22 3 -3 2 -17 -1 -32z m-9061 -1 c3 -10 1 -19 -4 -21
-16 -5 -13 -28 4 -42 21 -17 19 -25 -6 -27 -12 -1 -23 7 -29 20 -8 19 -9 18
-11 -13 -1 -28 -3 -30 -6 -10 -3 14 -12 33 -20 42 -9 10 -13 25 -9 33 5 15 7
15 22 0 21 -21 40 -14 37 14 -3 25 12 28 22 4z m905 -88 c0 -17 -2 -17 -10 -5
-5 8 -10 24 -10 35 0 17 2 17 10 5 5 -8 10 -24 10 -35z m48 3 c-11 -31 -12
-31 -21 -10 -7 15 -6 26 3 37 19 23 30 8 18 -27z m-1031 -260 c-3 -8 -6 -5 -6
6 -1 11 2 17 5 13 3 -3 4 -12 1 -19z m11143 -1202 c0 -16 -18 -31 -27 -22 -8
8 5 36 17 36 5 0 10 -6 10 -14z m-2 -182 c-2 -22 -7 -39 -13 -39 -12 0 -19 60
-10 83 10 28 27 -3 23 -44z m-12383 23 c0 -26 -20 -25 -23 2 -3 16 1 22 10 19
7 -3 13 -12 13 -21z m12342 -1739 c-3 -8 -6 -5 -6 6 -1 11 2 17 5 13 3 -3 4
-12 1 -19z m-12280 -220 c-3 -8 -6 -5 -6 6 -1 11 2 17 5 13 3 -3 4 -12 1 -19z
m12323 -879 c0 -5 -4 -9 -10 -9 -5 0 -10 7 -10 16 0 8 5 12 10 9 6 -3 10 -10
10 -16z m-12343 -271 c-3 -7 -5 -2 -5 12 0 14 2 19 5 13 2 -7 2 -19 0 -25z
m12301 -7 c3 -16 -1 -22 -10 -19 -7 3 -15 15 -16 27 -3 16 1 22 10 19 7 -3 15
-15 16 -27z m-12228 -250 c0 -21 -13 -41 -26 -41 -14 0 -19 31 -7 43 10 10 33
8 33 -2z m12230 -455 c0 -8 -4 -18 -10 -21 -5 -3 -10 3 -10 14 0 12 5 21 10
21 6 0 10 -6 10 -14z m-12230 -303 c0 -7 -4 -13 -10 -13 -5 0 -10 12 -10 28 0
21 2 24 10 12 5 -8 10 -21 10 -27z m12197 -823 c-8 -12 -17 -17 -21 -12 -3 5
2 19 11 32 10 14 18 19 21 12 2 -6 -3 -21 -11 -32z m-12159 -292 c7 -7 12 -21
12 -32 0 -18 -1 -19 -20 -1 -20 18 -27 45 -12 45 4 0 13 -5 20 -12z m-1 -750
c-3 -8 -6 -5 -6 6 -1 11 2 17 5 13 3 -3 4 -12 1 -19z m12203 -23 c0 -14 -4
-25 -10 -25 -5 0 -10 11 -10 25 0 14 5 25 10 25 6 0 10 -11 10 -25z m-12214
-340 c8 -21 -6 -41 -17 -24 -12 19 -11 39 1 39 6 0 13 -7 16 -15z m12191 -97
c-3 -8 -6 -5 -6 6 -1 11 2 17 5 13 3 -3 4 -12 1 -19z m-12147 -309 c0 -5 -4
-9 -10 -9 -5 0 -10 7 -10 16 0 8 5 12 10 9 6 -3 10 -10 10 -16z m-33 -51 c-3
-8 -6 -5 -6 6 -1 11 2 17 5 13 3 -3 4 -12 1 -19z m12223 -639 c0 -7 7 -17 15
-23 9 -7 12 -19 9 -33 -7 -27 -24 -20 -24 9 0 12 -7 30 -17 40 -15 17 -15 18
0 18 10 0 17 -5 17 -11z m50 -169 c0 -5 -4 -10 -10 -10 -5 0 -10 5 -10 10 0 6
5 10 10 10 6 0 10 -4 10 -10z m-52 -165 c3 -25 2 -27 -12 -16 -19 16 -22 55
-3 49 6 -3 14 -17 15 -33z m66 0 c6 -18 -2 -45 -15 -45 -5 0 -9 14 -9 30 0 32
14 40 24 15z m-14 -96 c0 -11 -4 -17 -10 -14 -5 3 -10 13 -10 21 0 8 5 14 10
14 6 0 10 -9 10 -21z m100 -54 c0 -8 -4 -15 -10 -15 -5 0 -10 7 -10 15 0 8 5
15 10 15 6 0 10 -7 10 -15z m-110 -16 c0 -5 -4 -9 -10 -9 -5 0 -10 7 -10 16 0
8 5 12 10 9 6 -3 10 -10 10 -16z m63 -94 c-7 -21 -13 -19 -13 6 0 11 4 18 10
14 5 -3 7 -12 3 -20z m17 -96 c0 -5 -4 -9 -10 -9 -5 0 -10 7 -10 16 0 8 5 12
10 9 6 -3 10 -10 10 -16z m162 -311 c-9 -9 -12 -7 -12 12 0 19 3 21 12 12 9
-9 9 -15 0 -24z m-2 -189 c0 -11 -4 -17 -10 -14 -5 3 -10 13 -10 21 0 8 5 14
10 14 6 0 10 -9 10 -21z m55 -69 c17 -32 19 -50 7 -50 -9 0 -42 54 -42 69 0
21 20 11 35 -19z m-12548 -212 c-3 -8 -6 -5 -6 6 -1 11 2 17 5 13 3 -3 4 -12
1 -19z m12580 -30 c-3 -8 -6 -5 -6 6 -1 11 2 17 5 13 3 -3 4 -12 1 -19z m-77
-111 c0 -7 9 -18 20 -25 31 -19 25 -42 -11 -42 -19 0 -28 4 -24 11 4 5 -1 19
-10 29 -9 10 -14 24 -10 29 9 15 35 14 35 -2z m46 -114 c-11 -11 -19 6 -11 24
8 17 8 17 12 0 3 -10 2 -21 -1 -24z m-12549 -45 c-3 -8 -6 -5 -6 6 -1 11 2 17
5 13 3 -3 4 -12 1 -19z m12497 -13 c20 -15 20 -15 0 -30 -28 -21 -34 -18 -34
15 0 33 6 36 34 15z m83 -7 c-3 -8 -6 -5 -6 6 -1 11 2 17 5 13 3 -3 4 -12 1
-19z m-121 -94 c-3 -8 -10 -13 -15 -10 -5 3 -12 -1 -15 -10 -3 -8 -10 -12 -16
-9 -17 11 -11 25 15 35 14 5 25 15 26 22 0 10 2 10 6 0 3 -7 2 -20 -1 -28z
m-136 -220 c0 -14 -5 -24 -11 -22 -6 2 -10 7 -10 11 1 4 1 14 1 22 0 8 5 15
10 15 6 0 10 -12 10 -26z m-78 -386 c-9 -9 -12 -7 -12 12 0 19 3 21 12 12 9
-9 9 -15 0 -24z m-9226 -774 c-3 -9 -6 -18 -6 -20 0 -3 -4 -3 -10 1 -11 7 -2
35 12 35 6 0 7 -7 4 -16z m6534 -110 c0 -8 -4 -12 -10 -9 -5 3 -10 13 -10 21
0 8 5 12 10 9 6 -3 10 -13 10 -21z"/>
<path d="M3190 12711 c0 -11 -4 -23 -10 -26 -5 -3 -10 -16 -10 -28 0 -22 1
-22 20 3 21 27 26 55 10 65 -5 3 -10 -3 -10 -14z"/>
<path d="M4240 12713 c0 -25 15 -38 25 -22 4 6 0 18 -9 27 -15 15 -16 15 -16
-5z"/>
<path d="M4535 12717 c-4 -10 -5 -21 -1 -24 10 -10 18 4 13 24 -4 17 -4 17
-12 0z"/>
<path d="M4645 12693 c0 -21 5 -37 10 -36 13 4 12 65 -1 70 -7 2 -10 -11 -9
-34z"/>
<path d="M4280 12701 c0 -12 5 -21 10 -21 6 0 10 6 10 14 0 8 -4 18 -10 21 -5
3 -10 -3 -10 -14z"/>
<path d="M8073 12703 c-20 -7 -15 -29 7 -30 11 -1 20 4 20 12 0 17 -11 24 -27
18z"/>
<path d="M8368 12685 c-7 -33 8 -42 33 -19 19 17 19 19 3 31 -25 18 -31 16
-36 -12z"/>
<path d="M9710 12691 c0 -10 6 -31 14 -46 21 -39 31 -11 11 31 -18 38 -25 43
-25 15z"/>
<path d="M4743 12687 c3 -8 -3 -20 -14 -28 -10 -7 -19 -21 -19 -31 0 -20 20
-25 20 -5 1 6 6 2 13 -10 11 -19 12 -15 13 33 0 30 -4 54 -9 54 -5 0 -7 -6 -4
-13z"/>
<path d="M8200 12685 c0 -8 5 -15 10 -15 6 0 10 7 10 15 0 8 -4 15 -10 15 -5
0 -10 -7 -10 -15z"/>
<path d="M8316 12692 c-3 -6 -1 -14 5 -17 15 -10 25 3 12 16 -7 7 -13 7 -17 1z"/>
<path d="M8616 12684 c-9 -22 -8 -24 9 -24 8 0 15 9 15 20 0 24 -15 27 -24 4z"/>
<path d="M2640 12682 c0 -4 5 -13 11 -19 8 -8 8 -17 1 -30 -10 -16 -11 -16
-21 10 -14 37 -27 34 -36 -10 -5 -29 -3 -40 11 -50 24 -17 34 -16 40 5 3 9 12
29 20 45 14 24 14 29 0 42 -16 17 -26 19 -26 7z"/>
<path d="M8580 12676 c0 -8 5 -18 10 -21 6 -3 10 3 10 14 0 12 -4 21 -10 21
-5 0 -10 -6 -10 -14z"/>
<path d="M2780 12665 c-18 -21 -14 -79 6 -111 10 -15 14 -33 10 -49 -6 -23 -4
-25 11 -16 22 11 53 48 53 61 0 22 21 19 32 -4 13 -30 28 -34 28 -8 -1 24 -25
53 -41 50 -9 -2 -16 11 -20 37 l-6 40 -2 -36 c0 -22 -7 -39 -15 -42 -8 -3 -17
-16 -19 -29 -3 -13 -5 0 -5 27 0 28 -4 61 -9 73 -8 22 -10 22 -23 7z m16 -42
c-10 -10 -19 5 -10 18 6 11 8 11 12 0 2 -7 1 -15 -2 -18z"/>
<path d="M4340 12671 c0 -6 5 -13 10 -16 6 -3 10 1 10 9 0 9 -4 16 -10 16 -5
0 -10 -4 -10 -9z"/>
<path d="M7006 12671 c-4 -7 -5 -15 -2 -18 9 -9 19 4 14 18 -4 11 -6 11 -12 0z"/>
<path d="M10266 12654 c-4 -15 -2 -32 3 -37 6 -6 11 -25 11 -42 0 -39 31 -45
54 -10 12 19 13 30 5 54 -13 36 -25 40 -34 11 -3 -11 -10 -20 -15 -20 -15 0
-23 21 -11 33 13 13 15 37 2 37 -5 0 -12 -12 -15 -26z"/>
<path d="M3370 12661 c0 -6 5 -13 10 -16 6 -3 10 1 10 9 0 9 -4 16 -10 16 -5
0 -10 -4 -10 -9z"/>
<path d="M3428 12658 c-7 -18 2 -39 13 -32 12 7 12 44 0 44 -5 0 -11 -6 -13
-12z"/>
<path d="M4827 12663 c-4 -3 -7 -11 -7 -17 0 -6 5 -5 12 2 6 6 9 14 7 17 -3 3
-9 2 -12 -2z"/>
<path d="M4867 12655 c-4 -8 -2 -17 3 -20 6 -4 10 3 10 14 0 25 -6 27 -13 6z"/>
<path d="M7790 12655 c0 -9 5 -15 11 -13 6 2 11 8 11 13 0 5 -5 11 -11 13 -6
2 -11 -4 -11 -13z"/>
<path d="M7915 12645 c4 -16 9 -48 13 -69 6 -36 8 -38 21 -22 12 14 12 22 3
36 -7 12 -8 21 -2 25 5 3 6 13 3 21 -5 12 -7 13 -14 3 -6 -10 -11 -7 -19 11
-10 24 -10 24 -5 -5z"/>
<path d="M3850 12644 c0 -8 5 -12 10 -9 6 4 8 11 5 16 -9 14 -15 11 -15 -7z"/>
<path d="M4070 12640 c0 -19 3 -21 12 -12 9 9 9 15 0 24 -9 9 -12 7 -12 -12z"/>
<path d="M4610 12645 c0 -8 -4 -15 -10 -15 -5 0 -10 -9 -10 -20 0 -11 7 -20
15 -20 8 0 15 6 15 13 0 6 3 22 6 35 4 13 2 22 -5 22 -6 0 -11 -7 -11 -15z"/>
<path d="M10130 12648 c0 -8 5 -19 11 -25 8 -8 8 -13 0 -17 -6 -4 -11 0 -11 8
0 9 -5 16 -11 16 -6 0 -8 -7 -5 -16 3 -9 6 -34 6 -56 0 -39 1 -40 18 -24 24
21 28 98 7 116 -12 10 -15 10 -15 -2z"/>
<path d="M9460 12625 c0 -14 5 -25 10 -25 6 0 10 11 10 25 0 14 -4 25 -10 25
-5 0 -10 -11 -10 -25z"/>
<path d="M9520 12634 c0 -8 5 -12 10 -9 6 4 8 11 5 16 -9 14 -15 11 -15 -7z"/>
<path d="M3110 12630 c0 -5 5 -10 11 -10 5 0 7 5 4 10 -3 6 -8 10 -11 10 -2 0
-4 -4 -4 -10z"/>
<path d="M8110 12619 c0 -11 5 -17 10 -14 6 3 10 13 10 21 0 8 -4 14 -10 14
-5 0 -10 -9 -10 -21z"/>
<path d="M9030 12625 c0 -8 5 -15 10 -15 6 0 10 7 10 15 0 8 -4 15 -10 15 -5
0 -10 -7 -10 -15z"/>
<path d="M7970 12616 c0 -16 27 -29 41 -20 15 9 10 27 -6 20 -8 -3 -15 -1 -15
4 0 6 -4 10 -10 10 -5 0 -10 -6 -10 -14z"/>
<path d="M8031 12614 c0 -11 3 -14 6 -6 3 7 2 16 -1 19 -3 4 -6 -2 -5 -13z"/>
<path d="M4970 12605 c0 -8 4 -15 10 -15 5 0 7 7 4 15 -4 8 -8 15 -10 15 -2 0
-4 -7 -4 -15z"/>
<path d="M9795 12610 c-3 -5 -1 -10 4 -10 6 0 11 5 11 10 0 6 -2 10 -4 10 -3
0 -8 -4 -11 -10z"/>
<path d="M2980 12591 c0 -11 5 -23 10 -26 6 -4 10 5 10 19 0 14 -4 26 -10 26
-5 0 -10 -9 -10 -19z"/>
<path d="M3467 12603 c-4 -3 -7 -13 -7 -22 1 -13 3 -13 11 2 11 19 8 33 -4 20z"/>
<path d="M3945 12601 c-3 -5 -1 -12 5 -16 5 -3 10 1 10 9 0 18 -6 21 -15 7z"/>
<path d="M4040 12600 c0 -5 5 -10 10 -10 6 0 10 5 10 10 0 6 -4 10 -10 10 -5
0 -10 -4 -10 -10z"/>
<path d="M2930 12580 c0 -19 3 -21 12 -12 9 9 9 15 0 24 -9 9 -12 7 -12 -12z"/>
<path d="M3860 12584 c0 -8 5 -12 10 -9 6 4 8 11 5 16 -9 14 -15 11 -15 -7z"/>
<path d="M10572 12580 c0 -14 2 -19 5 -12 2 6 2 18 0 25 -3 6 -5 1 -5 -13z"/>
<path d="M9927 12583 c-11 -10 -8 -43 3 -43 6 0 10 11 10 25 0 26 -2 29 -13
18z"/>
<path d="M10503 12553 c-12 -40 -6 -66 9 -39 12 22 25 20 31 -4 6 -24 27 -27
27 -4 0 8 -4 12 -10 9 -5 -3 -10 1 -10 9 0 9 -4 16 -10 16 -5 0 -10 11 -10 25
0 37 -13 31 -27 -12z"/>
<path d="M3120 12560 c0 -11 2 -20 4 -20 2 0 6 9 9 20 3 11 1 20 -4 20 -5 0
-9 -9 -9 -20z"/>
<path d="M2650 12555 c-19 -22 4 -102 25 -85 10 8 15 8 21 -1 5 -9 10 -7 20 5
8 12 14 14 19 6 5 -8 11 -8 21 1 16 13 19 39 4 39 -5 0 -10 -5 -10 -11 0 -19
-24 -3 -40 27 -19 34 -42 41 -60 19z"/>
<path d="M7800 12551 c0 -11 5 -23 10 -26 6 -3 10 3 10 14 0 11 -4 23 -10 26
-5 3 -10 -3 -10 -14z"/>
<path d="M9980 12560 c0 -5 5 -10 10 -10 6 0 10 5 10 10 0 6 -4 10 -10 10 -5
0 -10 -4 -10 -10z"/>
<path d="M10240 12539 c0 -12 5 -19 12 -17 18 6 20 25 3 31 -10 5 -15 0 -15
-14z"/>
<path d="M2586 12543 c-12 -12 -6 -61 8 -66 15 -6 36 10 36 28 0 14 -37 45
-44 38z"/>
<path d="M4910 12501 c0 -14 5 -19 15 -14 17 6 15 25 -3 31 -7 2 -12 -5 -12
-17z"/>
<path d="M7931 12498 c0 -10 -9 -18 -18 -18 -17 -1 -17 -1 0 -11 23 -14 30 -7
24 23 -3 14 -5 16 -6 6z"/>
<path d="M3012 12460 c0 -14 2 -19 5 -12 2 6 2 18 0 25 -3 6 -5 1 -5 -13z"/>
<path d="M4965 12440 c3 -5 8 -10 11 -10 2 0 4 5 4 10 0 6 -5 10 -11 10 -5 0
-7 -4 -4 -10z"/>
<path d="M10170 12439 c0 -5 5 -7 10 -4 6 3 10 8 10 11 0 2 -4 4 -10 4 -5 0
-10 -5 -10 -11z"/>
<path d="M1630 12425 c0 -8 7 -15 15 -15 8 0 15 4 15 9 0 5 -7 11 -15 15 -9 3
-15 0 -15 -9z"/>
<path d="M1536 12415 c-5 -14 1 -16 36 -13 23 2 43 9 46 16 5 16 -30 16 -46 0
-10 -10 -15 -10 -21 0 -7 11 -10 10 -15 -3z"/>
<path d="M7817 12424 c-8 -8 1 -24 14 -24 5 0 9 7 9 15 0 15 -12 20 -23 9z"/>
<path d="M2401 12374 c0 -11 3 -14 6 -6 3 7 2 16 -1 19 -3 4 -6 -2 -5 -13z"/>
<path d="M860 12336 c0 -20 91 -108 107 -102 7 3 22 -3 33 -14 26 -26 42 -25
38 2 -2 18 -11 22 -46 25 -37 3 -50 11 -87 51 -25 26 -45 43 -45 38z"/>
<path d="M1054 12232 c2 -38 21 -61 37 -45 7 7 6 14 -4 24 -7 8 -18 23 -24 33
-9 17 -11 16 -9 -12z"/>
<path d="M10538 12161 c-11 -11 -14 -21 -8 -31 7 -11 11 -8 20 14 13 35 10 39
-12 17z"/>
<path d="M370 12049 c0 -5 5 -7 10 -4 6 3 10 8 10 11 0 2 -4 4 -10 4 -5 0 -10
-5 -10 -11z"/>
<path d="M332 11551 c-19 -26 -20 -34 -10 -56 6 -14 17 -25 23 -25 16 0 26 50
17 84 l-7 27 -23 -30z"/>
<path d="M12334 11414 c3 -8 6 -18 6 -20 0 -3 5 -2 10 1 15 9 12 22 -6 29 -12
5 -15 2 -10 -10z"/>
<path d="M103 11293 c-14 -5 -18 -33 -5 -33 4 0 13 9 20 20 12 20 8 23 -15 13z"/>
<path d="M12365 10030 c-3 -5 -1 -10 4 -10 6 0 11 5 11 10 0 6 -2 10 -4 10 -3
0 -8 -4 -11 -10z"/>
<path d="M84 10015 c-8 -21 6 -41 17 -24 12 19 11 39 -1 39 -6 0 -13 -7 -16
-15z"/>
<path d="M85 9840 c3 -5 10 -10 16 -10 5 0 9 5 9 10 0 6 -7 10 -16 10 -8 0
-12 -4 -9 -10z"/>
<path d="M12340 8925 c0 -8 5 -15 10 -15 6 0 10 7 10 15 0 8 -4 15 -10 15 -5
0 -10 -7 -10 -15z"/>
<path d="M132 8696 c1 -10 8 -17 13 -17 15 1 12 24 -3 29 -9 3 -13 -2 -10 -12z"/>
<path d="M12340 8310 c0 -5 7 -10 15 -10 8 0 15 5 15 10 0 6 -7 10 -15 10 -8
0 -15 -4 -15 -10z"/>
<path d="M135 8060 c-3 -5 1 -10 9 -10 9 0 16 5 16 10 0 6 -4 10 -9 10 -6 0
-13 -4 -16 -10z"/>
<path d="M12310 8011 c0 -6 5 -13 10 -16 6 -3 10 1 10 9 0 9 -4 16 -10 16 -5
0 -10 -4 -10 -9z"/>
<path d="M12266 7771 c-4 -7 -5 -15 -2 -18 9 -9 19 4 14 18 -4 11 -6 11 -12 0z"/>
<path d="M180 7745 c0 -8 5 -15 10 -15 6 0 10 7 10 15 0 8 -4 15 -10 15 -5 0
-10 -7 -10 -15z"/>
<path d="M161 7664 c0 -11 3 -14 6 -6 3 7 2 16 -1 19 -3 4 -6 -2 -5 -13z"/>
<path d="M240 7495 c0 -8 5 -15 10 -15 6 0 10 7 10 15 0 8 -4 15 -10 15 -5 0
-10 -7 -10 -15z"/>
<path d="M12310 7295 c0 -48 19 -64 21 -17 0 15 3 21 6 14 2 -6 9 -10 14 -7
10 7 -18 55 -32 55 -5 0 -9 -20 -9 -45z"/>
<path d="M180 7041 c-16 -31 -13 -46 6 -30 15 12 16 11 11 -6 -4 -11 -2 -27 3
-35 7 -11 10 0 10 38 0 54 -12 67 -30 33z"/>
<path d="M12306 6956 c-9 -15 -16 -32 -13 -39 2 -6 11 1 21 15 10 15 16 33 14
39 -2 6 -12 0 -22 -15z"/>
<path d="M200 6679 c0 -9 9 -27 20 -40 26 -32 27 -3 0 31 -15 19 -20 21 -20 9z"/>
<path d="M980 6064 c0 -8 5 -12 10 -9 6 4 8 11 5 16 -9 14 -15 11 -15 -7z"/>
<path d="M11500 5080 c0 -5 5 -10 10 -10 6 0 10 5 10 10 0 6 -4 10 -10 10 -5
0 -10 -4 -10 -10z"/>
<path d="M11290 4940 c0 -5 5 -10 10 -10 6 0 10 5 10 10 0 6 -4 10 -10 10 -5
0 -10 -4 -10 -10z"/>
<path d="M1100 4765 c0 -8 7 -15 16 -15 14 0 14 3 4 15 -7 8 -14 15 -16 15 -2
0 -4 -7 -4 -15z"/>
<path d="M12322 4220 c0 -14 2 -19 5 -12 2 6 2 18 0 25 -3 6 -5 1 -5 -13z"/>
<path d="M12290 3975 c0 -8 5 -15 10 -15 6 0 10 7 10 15 0 8 -4 15 -10 15 -5
0 -10 -7 -10 -15z"/>
<path d="M247 3860 c3 -11 7 -20 9 -20 2 0 4 9 4 20 0 11 -4 20 -9 20 -5 0 -7
-9 -4 -20z"/>
<path d="M12302 3768 c3 -7 13 -15 22 -16 12 -3 17 1 14 10 -3 7 -13 15 -22
16 -12 3 -17 -1 -14 -10z"/>
<path d="M272 3619 c2 -7 10 -15 17 -17 8 -3 12 1 9 9 -2 7 -10 15 -17 17 -8
3 -12 -1 -9 -9z"/>
<path d="M12344 3139 c-3 -6 -1 -16 5 -22 8 -8 11 -5 11 11 0 24 -5 28 -16 11z"/>
<path d="M12340 2980 c0 -5 5 -10 11 -10 5 0 7 5 4 10 -3 6 -8 10 -11 10 -2 0
-4 -4 -4 -10z"/>
<path d="M12380 2886 c0 -24 25 -43 35 -26 7 12 -12 50 -25 50 -6 0 -10 -11
-10 -24z"/>
<path d="M12367 2782 c-21 -23 -21 -32 -3 -32 8 0 18 9 21 21 9 28 2 33 -18
11z"/>
<path d="M12362 2705 c0 -16 2 -22 5 -12 2 9 2 23 0 30 -3 6 -5 -1 -5 -18z"/>
<path d="M12360 2610 c-9 -16 -8 -18 5 -14 8 4 15 12 15 20 0 20 -7 17 -20 -6z"/>
<path d="M12385 2490 c3 -5 8 -10 11 -10 2 0 4 5 4 10 0 6 -5 10 -11 10 -5 0
-7 -4 -4 -10z"/>
<path d="M12434 2471 c-22 -27 -22 -51 1 -51 7 0 15 16 17 38 3 20 5 38 4 38
-1 1 -10 -10 -22 -25z"/>
<path d="M12355 2399 c-11 -17 1 -21 15 -4 8 9 8 15 2 15 -6 0 -14 -5 -17 -11z"/>
<path d="M12455 2387 c-11 -9 -14 -16 -7 -21 6 -3 13 -2 17 4 4 6 11 8 16 5 5
-4 9 1 9 9 0 20 -10 20 -35 3z"/>
<path d="M12535 2320 c-4 -7 -1 -16 6 -21 17 -10 26 8 11 23 -6 6 -12 6 -17
-2z"/>
<path d="M12460 2295 c0 -8 4 -15 9 -15 5 0 16 -3 25 -6 10 -4 16 -1 16 9 0
14 -20 27 -41 27 -5 0 -9 -7 -9 -15z"/>
<path d="M12383 2240 c0 -25 2 -35 4 -22 2 12 2 32 0 45 -2 12 -4 2 -4 -23z"/>
<path d="M12417 2218 c-3 -29 -2 -69 2 -88 6 -22 9 -27 10 -13 1 12 7 24 14
27 10 5 10 7 0 12 -19 8 -16 71 3 78 14 5 14 8 0 21 -8 8 -17 15 -19 15 -2 0
-7 -24 -10 -52z"/>
<path d="M12600 2256 c0 -8 5 -18 10 -21 14 -9 12 -26 -2 -24 -47 6 -69 -23
-27 -36 38 -13 65 50 34 81 -13 14 -15 14 -15 0z"/>
<path d="M12481 2188 c-1 -34 15 -45 29 -18 8 16 8 20 -4 20 -8 0 -17 6 -19
13 -3 6 -6 0 -6 -15z"/>
<path d="M12354 2146 c-3 -8 -1 -23 5 -33 9 -16 10 -16 11 5 0 12 5 22 10 22
6 0 10 5 10 10 0 15 -30 12 -36 -4z"/>
<path d="M12517 2133 c-4 -3 -7 -20 -7 -36 l0 -30 20 26 c11 14 20 30 20 36 0
12 -23 15 -33 4z"/>
<path d="M12456 2094 c-3 -9 -4 -20 -1 -24 3 -5 0 -12 -6 -16 -6 -3 -15 0 -20
7 -6 10 -9 5 -9 -17 0 -17 3 -33 6 -36 10 -11 44 31 50 61 6 31 -10 51 -20 25z"/>
<path d="M12571 2053 c-7 -8 -11 -16 -8 -19 2 -2 10 2 17 11 17 20 9 27 -9 8z"/>
<path d="M12496 2032 c-2 -4 -1 -14 5 -22 7 -12 9 -10 9 8 0 23 -5 28 -14 14z"/>
<path d="M12597 2006 c-6 -16 2 -28 14 -20 12 7 11 34 0 34 -5 0 -11 -6 -14
-14z"/>
<path d="M12475 1966 c-16 -12 -17 -16 -6 -30 16 -20 41 -4 41 25 0 23 -9 24
-35 5z"/>
<path d="M12370 1951 c0 -6 5 -13 10 -16 6 -3 10 1 10 9 0 9 -4 16 -10 16 -5
0 -10 -4 -10 -9z"/>
<path d="M12576 1927 c3 -10 9 -15 12 -12 3 3 0 11 -7 18 -10 9 -11 8 -5 -6z"/>
<path d="M12440 1839 c0 -18 2 -19 15 -9 15 12 12 30 -6 30 -5 0 -9 -10 -9
-21z"/>
<path d="M12531 1834 c0 -11 3 -14 6 -6 3 7 2 16 -1 19 -3 4 -6 -2 -5 -13z"/>
<path d="M12518 1776 c-25 -50 -22 -68 3 -27 11 18 19 40 17 49 -2 9 -10 0
-20 -22z"/>
<path d="M12432 1788 c-17 -17 -15 -33 3 -18 8 6 19 9 24 5 7 -3 8 0 5 9 -7
19 -16 20 -32 4z"/>
<path d="M12577 1794 c-4 -4 -7 -18 -7 -31 0 -21 3 -23 23 -17 30 9 33 13 21
31 -12 20 -27 26 -37 17z"/>
<path d="M12470 1690 c0 -14 39 -42 50 -35 21 13 6 40 -23 40 -15 1 -27 -2
-27 -5z"/>
<path d="M12516 1611 c-16 -16 -25 -34 -22 -40 10 -16 23 -13 29 7 4 9 14 27
23 40 24 32 3 27 -30 -7z"/>
<path d="M12435 1580 c-4 -6 -3 -16 3 -22 6 -6 12 -6 17 2 4 6 3 16 -3 22 -6
6 -12 6 -17 -2z"/>
<path d="M12550 1541 c-8 -6 -18 -7 -23 -4 -8 5 -26 -14 -27 -28 0 -3 13 -6
28 -6 20 0 31 7 39 24 12 24 7 28 -17 14z"/>
<path d="M12371 1504 c0 -11 3 -14 6 -6 3 7 2 16 -1 19 -3 4 -6 -2 -5 -13z"/>
<path d="M12432 1498 c-18 -18 -14 -36 9 -43 26 -9 41 12 28 37 -11 21 -20 23
-37 6z"/>
<path d="M12386 1375 c4 -8 8 -15 10 -15 2 0 4 7 4 15 0 8 -4 15 -10 15 -5 0
-7 -7 -4 -15z"/>
<path d="M12431 1244 c0 -11 3 -14 6 -6 3 7 2 16 -1 19 -3 4 -6 -2 -5 -13z"/>
<path d="M12372 1095 c0 -16 2 -22 5 -12 2 9 2 23 0 30 -3 6 -5 -1 -5 -18z"/>
<path d="M9726 723 c-11 -11 -7 -61 6 -69 6 -4 14 -2 16 4 2 7 8 10 13 6 5 -3
9 0 9 5 0 6 -4 11 -10 11 -5 0 -10 9 -10 19 0 21 -13 34 -24 24z"/>
<path d="M9770 720 c0 -3 7 -15 15 -26 14 -18 14 -18 15 7 0 16 -5 26 -15 26
-8 0 -15 -3 -15 -7z"/>
<path d="M11990 661 c-17 -33 -11 -47 10 -21 11 14 20 28 20 33 0 14 -20 7
-30 -12z"/>
<path d="M12040 655 c0 -8 5 -15 10 -15 6 0 10 7 10 15 0 8 -4 15 -10 15 -5 0
-10 -7 -10 -15z"/>
<path d="M2140 594 c0 -14 4 -23 10 -19 6 3 10 15 10 26 0 10 -4 19 -10 19 -5
0 -10 -12 -10 -26z"/>
<path d="M277 527 c-10 -26 -9 -57 2 -57 13 0 18 22 11 50 -5 22 -7 23 -13 7z"/>
<path d="M2362 12600 c0 -14 2 -19 5 -12 2 6 2 18 0 25 -3 6 -5 1 -5 -13z"/>
</g>
</svg>
