<?xml version="1.0" standalone="no"?>
<!DOCTYPE svg PUBLIC "-//W3C//DTD SVG 20010904//EN"
 "http://www.w3.org/TR/2001/REC-SVG-20010904/DTD/svg10.dtd">
<svg version="1.0" xmlns="http://www.w3.org/2000/svg"
 width="1280.000000pt" height="1280.000000pt" viewBox="0 0 1280.000000 1280.000000"
 preserveAspectRatio="xMidYMid meet">

<g transform="translate(0.000000,1280.000000) scale(0.100000,-0.100000)"
fill="#000000" stroke="none">
<path d="M0 6400 l0 -6400 6400 0 6400 0 0 6400 0 6400 -6400 0 -6400 0 0
-6400z m738 6374 c100 -2 187 -6 193 -9 5 -4 47 -9 92 -11 45 -2 129 -7 187
-10 58 -3 136 -6 174 -5 38 0 74 -3 80 -7 6 -4 29 -7 51 -8 22 -1 85 -4 140
-7 203 -13 471 -28 560 -31 247 -10 411 -18 417 -22 4 -3 76 -5 160 -5 84 -1
171 -5 194 -10 64 -13 399 -27 449 -18 6 1 62 -3 125 -9 123 -12 341 -20 720
-27 129 -3 325 -9 435 -15 110 -6 297 -13 415 -15 118 -2 330 -9 470 -15 140
-6 392 -13 560 -16 168 -2 348 -6 400 -9 52 -2 183 -6 290 -9 107 -3 220 -8
250 -11 30 -3 237 -8 460 -10 223 -3 479 -7 570 -11 91 -3 262 -7 380 -7 192
-2 218 -4 242 -21 21 -13 37 -17 63 -12 l35 7 -6 -43 c-9 -58 -20 -77 -52 -89
-17 -7 -22 -13 -15 -17 7 -4 142 -9 300 -11 158 -2 335 -4 393 -6 282 -8 520
-16 565 -20 28 -3 253 -7 500 -10 248 -4 529 -10 625 -15 154 -7 391 -11 700
-10 54 0 96 4 98 10 5 14 39 12 46 -2 5 -10 7 -10 12 0 7 15 40 16 49 2 4 -6
12 -7 18 -3 7 5 38 8 69 7 45 -2 63 -7 92 -30 20 -16 36 -36 36 -44 0 -9 4
-20 9 -25 8 -9 20 -108 23 -192 1 -18 6 -29 11 -26 6 4 7 -5 3 -22 -5 -19 -2
-33 10 -46 14 -16 15 -27 7 -71 -13 -66 -7 -426 8 -533 7 -48 19 -88 29 -100
26 -30 36 -200 15 -262 -9 -25 -13 -59 -11 -77 3 -17 8 -55 11 -85 3 -30 17
-88 32 -130 24 -69 27 -93 29 -246 4 -193 18 -305 40 -305 10 0 14 -13 15 -42
0 -24 4 -65 8 -91 4 -26 4 -71 0 -99 -6 -34 -4 -58 3 -72 7 -11 11 -29 10 -38
-2 -9 4 -31 13 -48 8 -16 17 -47 19 -68 2 -20 6 -44 9 -52 17 -44 24 -237 13
-340 -11 -102 2 -149 49 -174 21 -11 38 -30 42 -44 10 -40 -18 -311 -34 -323
-7 -6 -13 -15 -13 -20 0 -5 -11 -33 -25 -63 -14 -30 -25 -64 -25 -76 0 -12 -5
-31 -12 -43 -6 -13 -12 -79 -14 -157 -3 -161 -22 -319 -41 -341 -16 -19 -17
-45 -2 -54 5 -4 7 -19 4 -34 -3 -15 -1 -48 5 -72 31 -124 41 -188 35 -236 -7
-67 -28 -95 -62 -82 -13 5 -26 9 -29 9 -8 0 -4 -48 8 -80 9 -26 9 -35 0 -38
-18 -6 -14 -48 5 -63 15 -13 16 -11 10 21 l-6 35 16 -31 c19 -39 12 -76 -19
-89 -17 -7 -24 -20 -26 -48 -4 -44 -22 -40 -22 5 0 17 -3 28 -7 25 -9 -9 -10
-317 -1 -317 5 0 8 7 8 15 0 14 3 13 25 -2 13 -10 25 -28 25 -40 0 -12 5 -25
10 -28 6 -3 10 1 10 9 0 9 5 16 10 16 6 0 10 -7 10 -15 0 -8 8 -15 19 -15 20
0 31 -25 31 -72 0 -18 5 -28 15 -28 23 0 18 -16 -11 -35 -26 -17 -27 -16 -37
0 -9 17 -11 17 -24 -1 -10 -14 -17 -16 -30 -8 -14 8 -21 6 -34 -10 -17 -21
-17 -21 -29 9 -11 28 -13 28 -20 10 -14 -34 -12 -147 3 -143 6 3 14 18 17 34
l6 29 18 -27 c15 -23 21 -25 36 -15 16 9 24 7 45 -13 22 -21 28 -22 36 -10 8
13 10 13 19 0 5 -8 7 -22 4 -30 -3 -8 -10 -30 -16 -47 -9 -33 -22 -42 -33 -23
-5 8 -11 7 -21 -1 -21 -17 -27 -6 -13 25 14 31 5 45 -19 29 -11 -6 -17 -23
-17 -44 0 -29 -3 -34 -25 -35 -42 -2 -43 -3 -28 -26 21 -32 30 -76 18 -83 -6
-3 -14 5 -20 19 -6 17 -17 26 -32 27 -13 0 -40 2 -60 4 -21 2 -38 0 -38 -4 0
-16 -49 -18 -63 -3 -13 13 -16 12 -26 -7 -12 -22 -55 -29 -66 -11 -3 6 3 10
14 10 18 0 38 17 30 25 -11 10 -56 -10 -65 -28 -5 -12 -17 -21 -27 -21 -21 2
-23 -22 -2 -30 8 -3 26 0 40 6 18 8 28 8 39 -1 11 -9 24 -10 52 -2 23 6 42 7
49 1 6 -5 21 -7 33 -3 16 4 22 1 22 -10 0 -20 -17 -26 -57 -19 -33 5 -93 -16
-93 -33 0 -5 5 -17 10 -25 7 -12 11 -10 18 9 l8 24 21 -27 c12 -15 24 -46 28
-69 8 -48 31 -97 45 -97 6 0 10 -15 10 -32 0 -33 0 -33 18 -12 9 12 27 25 40
29 17 5 22 2 22 -13 0 -26 10 -33 32 -21 23 12 58 3 58 -16 0 -7 -13 -23 -29
-34 -25 -18 -30 -19 -41 -6 -17 20 -25 19 -55 -9 -17 -16 -36 -23 -57 -22 -25
1 -35 -5 -47 -28 -19 -34 -65 -44 -77 -18 -6 12 -9 4 -13 -28 -6 -43 -7 -45
-38 -43 -17 2 -35 -2 -38 -7 -3 -6 -17 -10 -30 -10 -12 0 -26 -7 -29 -16 -3
-9 -12 -14 -20 -11 -8 3 -22 -3 -32 -14 -10 -11 -25 -18 -34 -17 -9 2 -25 -3
-34 -11 -14 -12 -19 -12 -25 -2 -6 9 -14 6 -31 -12 -23 -24 -47 -25 -62 -3 -4
6 -8 1 -8 -11 0 -21 5 -23 58 -25 31 0 64 -1 72 0 8 1 43 4 76 8 41 4 64 2 69
-5 3 -6 10 -9 15 -6 4 2 27 5 51 5 89 0 139 -7 157 -23 10 -9 28 -17 40 -17
15 0 22 -6 22 -20 0 -11 5 -20 10 -20 6 0 8 11 4 25 -5 19 -2 25 10 25 13 0
15 -7 10 -42 -4 -24 -13 -54 -21 -67 -11 -17 -12 -29 -5 -45 10 -23 3 -82 -13
-106 -20 -31 -50 -40 -80 -24 -35 18 -45 18 -45 -1 0 -10 -10 -15 -29 -15 -17
0 -33 -4 -36 -10 -3 -5 -24 -8 -45 -7 -34 3 -44 -1 -72 -31 -18 -19 -27 -32
-20 -28 7 4 20 2 28 -5 13 -10 17 -10 24 1 7 11 11 11 24 1 12 -10 18 -9 36 9
17 17 24 19 36 9 8 -7 13 -18 10 -25 -3 -7 -1 -16 4 -19 6 -4 10 5 10 19 0 14
2 26 4 26 2 0 11 3 20 6 23 9 20 -20 -6 -67 -17 -31 -19 -41 -8 -54 13 -16 55
-21 64 -6 14 22 143 35 171 17 12 -8 33 -12 48 -9 16 3 27 1 27 -6 0 -19 18
-12 25 9 6 18 8 19 22 4 22 -21 46 -143 34 -169 -5 -11 -12 -28 -15 -37 -3
-11 -11 -15 -21 -12 -8 4 -15 1 -15 -6 0 -7 -8 -10 -19 -7 -11 3 -28 -3 -40
-14 -23 -21 -47 -25 -53 -7 -7 21 -38 0 -38 -26 0 -25 -12 -38 -40 -42 -8 -1
-25 -5 -37 -9 -17 -6 -26 -1 -40 22 -16 26 -22 29 -47 22 -16 -5 -33 -6 -37
-3 -4 2 -11 -5 -14 -16 -5 -16 -14 -20 -33 -18 -23 3 -27 7 -26 35 1 24 -2 30
-13 26 -11 -4 -14 -15 -10 -39 4 -25 2 -34 -9 -34 -8 0 -14 7 -14 15 0 8 -7
15 -15 15 -13 0 -19 -11 -17 -32 1 -3 -5 -12 -13 -18 -8 -7 -15 -24 -15 -39 1
-25 1 -25 15 -7 13 17 15 17 15 4 0 -9 -4 -20 -10 -23 -5 -3 -10 -13 -10 -21
0 -16 40 -63 41 -48 5 72 19 116 19 60 0 -30 25 -123 39 -145 5 -8 14 -10 22
-5 26 16 83 4 104 -22 28 -33 48 -33 33 1 -9 19 -9 28 0 37 9 9 12 8 12 -5 0
-23 17 -22 29 2 14 24 61 16 69 -12 4 -17 7 -18 16 -5 18 24 76 31 97 12 13
-11 22 -13 35 -6 32 18 85 -31 116 -106 46 -111 32 -182 -36 -182 -19 0 -39 7
-46 15 -24 28 -32 16 -26 -37 6 -50 6 -52 -8 -28 -21 34 -21 4 -1 -43 20 -49
18 -67 -5 -39 -10 12 -21 19 -23 15 -7 -12 0 -151 9 -164 24 -40 45 -277 26
-305 -12 -17 -39 -23 -51 -11 -6 6 -11 9 -12 7 -6 -58 -6 -96 1 -109 31 -63
32 -67 15 -107 -9 -21 -13 -49 -10 -61 3 -12 1 -24 -4 -27 -5 -4 -12 7 -16 24
-4 17 -11 28 -16 24 -13 -8 -11 -52 3 -56 8 -3 13 -26 15 -57 1 -36 -2 -51
-10 -48 -7 2 -12 20 -12 41 0 20 -5 40 -11 44 -6 4 -16 16 -23 27 -10 17 -12
13 -8 -27 3 -33 0 -51 -9 -59 -21 -17 -40 -4 -47 30 -9 45 -27 38 -27 -11 0
-24 -4 -50 -9 -57 -8 -12 -13 -11 -30 10 -11 13 -21 31 -21 39 -1 12 -3 12
-14 -3 -13 -16 -14 -16 -20 8 -9 37 -23 30 -30 -16 -5 -34 -9 -39 -21 -29 -19
16 -35 4 -35 -27 0 -18 4 -24 15 -20 8 4 17 2 21 -4 3 -5 14 -7 25 -4 21 7 26
-14 8 -32 -6 -6 -8 -17 -4 -24 6 -9 12 -7 22 7 13 17 15 18 26 3 7 -9 22 -19
35 -23 17 -6 22 -3 22 11 0 11 -5 24 -11 30 -7 7 -9 19 -5 29 6 15 8 15 24 2
9 -9 23 -13 30 -11 6 3 12 0 12 -6 0 -6 7 -8 17 -4 14 5 15 1 10 -30 -6 -41
-2 -45 23 -22 16 15 20 13 44 -15 14 -18 24 -36 20 -41 -3 -5 0 -9 5 -9 6 0
11 8 12 18 0 14 3 13 16 -6 8 -12 21 -22 28 -22 16 0 25 -23 25 -66 0 -24 5
-34 15 -34 25 0 17 -34 -12 -47 -20 -10 -30 -10 -41 -1 -11 10 -16 8 -24 -6
-8 -14 -13 -15 -24 -5 -12 10 -18 8 -29 -7 -14 -18 -15 -18 -34 6 l-19 25 -6
-25 c-3 -14 -5 -34 -3 -45 1 -16 -3 -19 -20 -17 -31 4 -29 -10 6 -36 24 -17
30 -19 35 -7 3 8 3 22 0 30 -9 23 12 18 33 -8 15 -19 22 -22 35 -13 13 8 23 5
43 -14 22 -21 28 -22 35 -10 7 12 12 12 22 2 10 -10 10 -22 0 -60 -13 -45 -42
-91 -42 -64 0 16 -19 15 -54 -3 -15 -8 -39 -15 -52 -15 -28 0 -30 -8 -9 -36 8
-10 15 -31 15 -46 0 -21 -5 -28 -20 -28 -11 0 -20 -4 -20 -8 0 -5 -6 -9 -12
-9 -7 0 -20 -2 -28 -4 -9 -3 -16 5 -18 19 -3 20 0 23 24 20 21 -2 29 2 32 15
3 15 -3 18 -40 16 -24 -2 -49 0 -55 4 -6 4 -16 0 -23 -8 -15 -18 -56 -20 -64
-2 -3 8 -9 6 -21 -8 -9 -11 -20 -21 -25 -21 -6 -1 -13 -2 -16 -3 -4 0 -1 -8 6
-16 9 -11 16 -12 25 -5 7 5 23 10 36 9 88 -2 89 -2 89 -20 0 -27 -27 -38 -66
-26 -29 9 -37 7 -68 -17 -19 -14 -37 -22 -41 -16 -3 5 -13 6 -21 3 -10 -4 -17
2 -21 16 -6 22 -19 28 -25 11 -2 -6 -22 -12 -46 -13 -38 -1 -42 -4 -42 -26 0
-13 5 -40 12 -58 10 -28 16 -33 35 -29 16 5 23 1 28 -14 4 -11 11 -18 16 -14
6 3 21 -2 35 -11 13 -9 29 -13 34 -10 5 3 22 -1 37 -9 24 -12 31 -12 48 0 34
25 48 18 40 -22 -4 -24 -3 -34 4 -29 6 3 11 13 11 21 0 8 5 14 10 14 6 0 10
-11 10 -25 0 -28 8 -32 24 -11 6 8 21 17 33 20 17 6 22 2 25 -16 2 -15 9 -21
18 -19 20 6 60 4 67 -3 12 -11 -8 -52 -30 -62 -18 -8 -29 -8 -42 2 -16 12 -22
10 -43 -11 -18 -18 -36 -25 -62 -25 -33 0 -39 -4 -49 -30 -9 -28 -22 -34 -68
-33 -7 0 -15 -12 -18 -28 -6 -25 -11 -29 -40 -29 -19 0 -37 -5 -41 -11 -3 -6
-15 -9 -25 -6 -10 3 -23 -1 -30 -9 -6 -8 -16 -14 -21 -14 -5 0 -22 -10 -37
-21 -16 -12 -34 -18 -41 -14 -6 4 -20 -1 -31 -11 -11 -10 -19 -12 -19 -6 0 21
-20 13 -38 -15 -9 -16 -26 -28 -37 -28 -13 0 -20 -7 -20 -20 0 -26 35 -33 51
-10 16 21 34 11 34 -19 0 -29 -28 -56 -39 -38 -4 7 -15 10 -24 6 -10 -3 -17
-1 -17 5 0 6 -4 11 -9 11 -5 0 -12 -22 -16 -49 -6 -45 -4 -54 26 -100 34 -51
46 -59 64 -42 17 16 88 18 93 3 2 -7 -5 -16 -17 -19 -16 -4 -20 -11 -15 -32 5
-23 4 -24 -8 -10 -20 24 -58 34 -58 15 0 -9 3 -16 8 -16 4 0 22 -14 41 -30 18
-17 36 -28 41 -25 4 3 10 -2 14 -10 8 -21 26 -19 26 3 0 18 49 62 70 62 17 0
11 -25 -11 -43 -16 -14 -18 -21 -9 -32 14 -16 62 -14 83 3 7 6 29 11 49 10 19
-1 40 2 45 5 15 9 25 -20 14 -41 -27 -52 -34 -73 -27 -79 11 -11 48 -14 60 -4
12 9 53 20 107 26 18 3 47 -3 66 -11 25 -13 36 -14 47 -5 10 8 16 9 21 1 10
-17 25 -11 25 10 0 56 42 -9 61 -93 7 -32 16 -60 21 -63 16 -10 8 -42 -9 -40
-12 0 -19 -7 -21 -21 -2 -15 -10 -23 -23 -23 -10 0 -19 -5 -19 -11 0 -6 -9 -8
-20 -4 -15 5 -30 -3 -55 -28 -31 -31 -34 -32 -37 -14 -4 26 -28 35 -28 10 -1
-26 -27 -56 -44 -50 -8 3 -20 -1 -26 -9 -19 -22 -37 -17 -56 15 -15 26 -20 28
-47 20 -16 -5 -33 -6 -38 -3 -4 2 -13 -4 -18 -15 -6 -11 -21 -21 -33 -23 -18
-2 -23 -9 -23 -33 0 -17 -5 -30 -12 -30 -17 0 -17 -2 -9 -60 13 -92 30 -128
50 -108 12 12 80 2 98 -14 15 -14 18 -14 18 -2 0 8 5 20 12 27 9 9 14 7 24 -6
12 -16 13 -16 19 1 10 23 75 24 75 1 0 -12 4 -14 13 -7 22 18 81 23 100 9 10
-8 26 -12 36 -9 9 2 33 -5 52 -16 28 -16 41 -36 66 -98 27 -67 31 -84 24 -121
-5 -24 -14 -49 -20 -55 -15 -15 -84 -14 -89 1 -5 17 -32 15 -32 -3 0 -17 -9
-19 -30 -5 -10 6 -21 3 -37 -12 -18 -17 -31 -20 -71 -16 -44 4 -49 3 -44 -14
2 -10 -1 -18 -7 -18 -6 0 -11 -6 -11 -13 0 -7 -7 -22 -15 -33 -14 -18 -15 -16
-9 19 4 23 2 37 -4 37 -14 0 -24 -33 -28 -87 -3 -49 -10 -63 -30 -63 -8 0 -14
-8 -15 -17 -2 -47 -19 -86 -19 -45 0 12 -4 22 -9 22 -11 0 -21 -35 -21 -76 0
-26 -5 -33 -25 -38 -30 -8 -33 -22 -6 -29 13 -3 18 -11 15 -23 -4 -16 -16 -19
-65 -21 -37 -2 -59 2 -59 8 0 8 -4 8 -13 0 -8 -6 -17 -8 -21 -4 -4 4 -114 9
-244 10 -130 2 -262 3 -292 4 -30 1 -64 0 -75 -1 -22 -3 -155 9 -165 15 -5 3
-155 7 -190 4 -8 0 -60 2 -115 5 -55 4 -176 9 -270 11 -239 7 -409 13 -415 15
-3 2 -9 1 -15 0 -16 -3 -125 0 -185 5 -30 2 -113 7 -185 9 -71 3 -173 8 -226
12 -61 4 -99 3 -103 -4 -4 -6 -20 -7 -48 0 -77 17 -606 32 -642 18 -19 -7 -26
-17 -27 -37 -1 -17 -3 -21 -6 -10 -11 41 -36 2 -37 -58 -1 -21 -8 -33 -23 -40
-26 -11 -32 -38 -7 -28 12 4 15 0 12 -18 -2 -19 -10 -24 -33 -25 -16 -1 -39
-4 -50 -7 -11 -2 -24 -2 -30 2 -5 3 -21 7 -35 8 -26 2 -536 14 -580 14 -88 -1
-139 0 -170 4 -19 2 -69 7 -110 10 -41 3 -76 8 -78 10 -3 2 -12 1 -21 -4 -9
-5 -68 -5 -131 0 -63 5 -221 12 -350 15 -370 10 -417 12 -555 19 -71 4 -218 9
-325 12 -194 4 -245 6 -435 19 -109 7 -116 7 -160 4 -16 -2 -88 1 -160 4 -71
4 -220 9 -330 11 -110 2 -261 6 -335 10 -74 5 -144 7 -155 6 -11 -1 -47 -1
-80 0 -33 1 -87 1 -120 0 -83 -2 -124 -1 -165 5 -38 5 -412 16 -540 16 -78 0
-450 18 -485 24 -16 3 -39 5 -50 4 -107 -3 -219 1 -260 9 -28 5 -51 6 -53 1
-2 -5 -9 -7 -15 -5 -7 3 -68 7 -137 9 -69 2 -125 5 -125 5 0 2 -209 3 -215 1
-21 -7 -129 -6 -154 1 -51 15 -150 20 -351 19 -284 -2 -287 -2 -465 5 -183 7
-339 12 -600 20 -352 11 -360 12 -401 54 -36 37 -39 49 -55 200 -7 73 -19 140
-25 147 -9 11 -9 28 0 72 7 37 10 148 9 312 -3 240 -4 257 -23 281 -17 22 -21
43 -23 128 -2 64 2 109 9 123 16 31 13 153 -7 231 -9 34 -21 85 -28 112 -9 34
-12 97 -8 200 4 152 -7 262 -30 276 -8 5 -12 53 -14 146 -1 76 -4 145 -7 153
-3 8 -8 33 -12 55 -4 22 -11 63 -16 90 -22 120 -26 236 -14 397 l8 96 -48 46
-47 47 6 57 c15 146 32 239 48 262 56 85 86 198 92 355 6 144 22 216 66 300
20 38 28 65 24 80 -3 13 2 55 11 92 11 41 18 117 20 193 2 69 8 147 15 173 11
41 10 50 -3 65 -15 17 -15 19 3 35 24 20 22 0 21 257 0 113 -6 228 -12 255 -5
28 -19 118 -29 200 -16 132 -17 161 -5 240 17 122 12 152 -36 195 -34 31 -39
40 -40 85 -2 91 24 258 46 290 57 82 75 153 86 332 5 85 17 170 29 215 11 40
20 75 20 78 0 4 -23 6 -50 6 -43 0 -55 5 -83 32 -41 39 -55 88 -63 222 -4 58
-13 117 -21 133 -10 21 -11 36 -3 66 5 21 12 138 13 259 4 217 -5 313 -30 343
-6 8 -15 58 -19 111 -5 80 -4 104 11 140 19 49 15 147 -12 240 -31 113 -34
139 -36 339 -2 186 -4 209 -21 227 -15 18 -18 41 -21 169 -3 146 -5 166 -24
227 -11 36 -33 237 -27 244 3 2 1 14 -4 26 -4 13 -2 59 6 111 19 125 11 170
-37 214 -36 31 -39 38 -38 85 1 93 24 251 40 276 38 60 59 103 59 121 0 11 6
34 14 52 7 19 16 93 20 172 8 158 23 227 67 311 20 40 29 68 25 85 -3 14 2 50
10 80 8 30 17 113 19 184 3 72 10 154 17 183 9 43 9 58 -1 74 -10 17 -9 22 6
33 16 12 18 30 18 152 1 89 6 149 14 168 8 19 10 48 6 81 -3 27 -1 62 4 77 6
15 13 56 15 92 3 35 10 73 15 84 6 11 11 40 11 65 0 60 28 91 74 83 18 -3 39
-1 47 4 8 5 23 7 34 3 11 -3 102 -8 203 -10z m8180 -337 c2 -11 -3 -17 -17
-17 -23 0 -35 15 -26 31 10 15 39 6 43 -14z m3639 -4419 c-3 -8 -6 -5 -6 6 -1
11 2 17 5 13 3 -3 4 -12 1 -19z m-72 -578 c3 -5 1 -10 -4 -10 -6 0 -11 5 -11
10 0 6 2 10 4 10 3 0 8 -4 11 -10z m2 -252 c-3 -7 -5 -2 -5 12 0 14 2 19 5 13
2 -7 2 -19 0 -25z m173 2 c0 -5 -5 -10 -11 -10 -5 0 -7 5 -4 10 3 6 8 10 11
10 2 0 4 -4 4 -10z m-50 -51 c0 -20 -4 -29 -12 -27 -15 5 -22 33 -14 54 9 24
26 6 26 -27z m-138 -11 c-9 -9 -12 -7 -12 12 0 19 3 21 12 12 9 -9 9 -15 0
-24z m168 -23 c0 -8 -4 -15 -10 -15 -5 0 -10 7 -10 15 0 8 5 15 10 15 6 0 10
-7 10 -15z m-160 -25 c0 -5 -4 -10 -10 -10 -5 0 -10 5 -10 10 0 6 5 10 10 10
6 0 10 -4 10 -10z m215 -169 c3 -5 1 -12 -5 -16 -5 -3 -10 1 -10 9 0 18 6 21
15 7z m-55 -177 c0 -16 -16 -19 -25 -4 -8 13 4 32 16 25 5 -4 9 -13 9 -21z
m-163 -395 c0 -22 6 -43 16 -53 18 -19 24 -51 7 -41 -5 3 -10 12 -10 20 0 8
-6 18 -14 22 -13 8 -28 97 -18 108 10 10 20 -19 19 -56z m-106 -14 c-1 -15
-24 -12 -29 3 -3 9 2 13 12 10 10 -1 17 -7 17 -13z m347 -48 c4 -29 -12 -37
-22 -11 -10 26 -7 46 7 42 6 -3 13 -17 15 -31z m-418 -53 c0 -21 -18 -54 -30
-54 -14 0 -12 44 2 58 17 17 28 15 28 -4z m140 -589 c0 -21 -19 -28 -35 -15
-20 16 -19 28 3 33 22 5 32 -1 32 -18z m-110 -325 c0 -5 -4 -10 -10 -10 -5 0
-10 5 -10 10 0 6 5 10 10 10 6 0 10 -4 10 -10z m-40 -17 c0 -9 -6 -13 -14 -10
-7 3 -19 0 -25 -6 -8 -8 -11 -6 -11 10 0 15 6 21 25 21 15 0 25 -6 25 -15z
m330 -122 c0 -21 -13 -41 -26 -41 -15 0 -17 10 -8 34 7 17 34 22 34 7z m-50
-956 c0 -8 -4 -17 -10 -20 -6 -4 -10 5 -10 20 0 15 4 24 10 20 6 -3 10 -12 10
-20z m60 -769 c0 -8 -4 -18 -10 -21 -5 -3 -10 3 -10 14 0 12 5 21 10 21 6 0
10 -6 10 -14z m-52 -57 c-3 -39 -13 -40 -29 -4 -8 19 -8 29 2 41 17 21 31 3
27 -37z m28 -46 c-11 -11 -19 6 -11 24 8 17 8 17 12 0 3 -10 2 -21 -1 -24z
m-350 -120 c-11 -12 -27 13 -20 32 7 17 8 17 17 -3 6 -12 7 -25 3 -29z m414
-63 c0 -11 -7 -20 -15 -20 -15 0 -21 21 -8 33 12 13 23 7 23 -13z m-57 -156
c9 -10 -12 -46 -24 -39 -14 9 -11 45 4 45 8 0 17 -3 20 -6z m53 -236 c3 -4 3
-12 -1 -18 -5 -8 -11 -5 -20 7 -13 17 -14 17 -20 1 -8 -21 -25 -24 -25 -4 0
22 48 32 66 14z m-213 -181 c-4 -18 0 -34 11 -46 10 -11 16 -30 14 -43 -4 -22
-5 -22 -17 7 -7 16 -18 33 -24 37 -12 7 -19 95 -9 112 9 16 30 -39 25 -67z
m90 6 c-7 -2 -19 -2 -25 0 -7 3 -2 5 12 5 14 0 19 -2 13 -5z m-23 -174 c0 -5
-4 -9 -10 -9 -5 0 -10 7 -10 16 0 8 5 12 10 9 6 -3 10 -10 10 -16z m-400 -464
c0 -8 -4 -15 -10 -15 -5 0 -10 7 -10 15 0 8 5 15 10 15 6 0 10 -7 10 -15z
m-177 -7 c5 -18 -3 -48 -14 -48 -5 0 -9 14 -9 30 0 30 15 41 23 18z m-53 -40
c0 -18 -5 -40 -10 -48 -7 -11 -10 -2 -10 33 0 26 5 47 10 47 6 0 10 -15 10
-32z m91 -230 c24 -12 53 -21 64 -19 11 1 29 -5 40 -13 17 -12 21 -12 32 3 12
15 14 15 27 -2 21 -28 3 -61 -34 -64 -21 -2 -31 3 -35 17 -9 29 -25 24 -25 -7
0 -14 -3 -23 -7 -19 -5 4 -8 20 -8 34 0 24 -4 27 -32 28 -18 0 -35 3 -39 6 -3
4 -12 4 -20 1 -16 -6 -29 20 -20 42 7 19 4 19 57 -7z m283 -17 c3 -5 -6 -17
-20 -26 -20 -13 -28 -14 -34 -5 -5 9 -9 9 -14 1 -9 -15 -26 -4 -26 16 0 11 7
14 24 11 14 -3 31 -1 38 3 17 11 26 11 32 0z m76 -86 c0 -8 -4 -15 -9 -15 -13
0 -22 16 -14 24 11 11 23 6 23 -9z m-40 -15 c0 -11 -4 -20 -10 -20 -5 0 -10 9
-10 20 0 11 5 20 10 20 6 0 10 -9 10 -20z m-40 -10 c0 -20 -39 -35 -54 -20
-15 15 0 35 28 36 19 1 26 -3 26 -16z m330 -128 c0 -10 -6 -26 -13 -37 -18
-23 -32 -4 -23 31 7 28 36 33 36 6z m-390 -318 c0 -8 -4 -12 -10 -9 -5 3 -10
10 -10 16 0 5 5 9 10 9 6 0 10 -7 10 -16z m170 -649 c0 -8 -4 -17 -10 -20 -6
-4 -10 5 -10 20 0 15 4 24 10 20 6 -3 10 -12 10 -20z m-190 -295 c0 -5 -2 -10
-4 -10 -3 0 -8 5 -11 10 -3 6 -1 10 4 10 6 0 11 -4 11 -10z m-3393 -26 c-3 -3
-12 -4 -19 -1 -8 3 -5 6 6 6 11 1 17 -2 13 -5z m-17 -84 c0 -5 -4 -10 -10 -10
-5 0 -10 5 -10 10 0 6 5 10 10 10 6 0 10 -4 10 -10z"/>
<path d="M5245 12491 c-3 -5 -1 -12 5 -16 5 -3 10 1 10 9 0 18 -6 21 -15 7z"/>
<path d="M5395 12491 c-3 -5 -1 -12 5 -16 5 -3 10 1 10 9 0 18 -6 21 -15 7z"/>
<path d="M5625 12470 c-3 -5 -1 -10 4 -10 6 0 11 5 11 10 0 6 -2 10 -4 10 -3
0 -8 -4 -11 -10z"/>
<path d="M5820 12470 c0 -5 5 -10 11 -10 5 0 7 5 4 10 -3 6 -8 10 -11 10 -2 0
-4 -4 -4 -10z"/>
<path d="M6022 12430 c0 -14 2 -19 5 -12 2 6 2 18 0 25 -3 6 -5 1 -5 -13z"/>
<path d="M8810 12409 c0 -5 5 -7 10 -4 6 3 10 8 10 11 0 2 -4 4 -10 4 -5 0
-10 -5 -10 -11z"/>
<path d="M8500 12335 l-23 -25 49 0 c27 -1 91 -3 142 -6 61 -3 92 -2 92 5 0
11 -27 16 -64 12 -11 -1 -26 5 -35 12 -25 21 -47 27 -60 14 -8 -8 -14 -8 -23
1 -19 19 -53 14 -78 -13z"/>
<path d="M12465 7780 c-3 -5 -1 -10 4 -10 6 0 11 5 11 10 0 6 -2 10 -4 10 -3
0 -8 -4 -11 -10z"/>
<path d="M12367 6523 c-11 -10 -8 -51 3 -58 6 -4 10 8 10 29 0 37 -2 41 -13
29z"/>
<path d="M12410 6490 c0 -13 5 -20 13 -17 6 2 12 10 12 17 0 7 -6 15 -12 18
-8 2 -13 -5 -13 -18z"/>
<path d="M12050 6380 c0 -5 11 -10 25 -10 14 0 25 5 25 10 0 6 -11 10 -25 10
-14 0 -25 -4 -25 -10z"/>
<path d="M12074 6290 c-6 -6 -30 -12 -52 -13 -34 -1 -42 -5 -42 -20 0 -14 4
-17 13 -10 20 14 86 7 106 -12 21 -18 41 -13 41 11 0 8 -9 14 -20 14 -12 0
-24 9 -28 20 -5 15 -11 17 -18 10z"/>
<path d="M12255 6051 c-3 -5 -1 -12 5 -16 5 -3 10 1 10 9 0 18 -6 21 -15 7z"/>
<path d="M11955 5307 c-4 -10 -5 -21 -1 -24 10 -10 18 4 13 24 -4 17 -4 17
-12 0z"/>
<path d="M12130 5193 c0 -10 4 -24 9 -32 12 -19 24 3 16 29 -8 25 -25 26 -25
3z"/>
<path d="M12400 4261 c0 -6 5 -13 10 -16 6 -3 10 1 10 9 0 9 -4 16 -10 16 -5
0 -10 -4 -10 -9z"/>
<path d="M12420 4040 c0 -5 5 -10 11 -10 5 0 7 5 4 10 -3 6 -8 10 -11 10 -2 0
-4 -4 -4 -10z"/>
<path d="M12220 3664 c-6 -14 -10 -30 -10 -35 0 -5 -4 -9 -10 -9 -5 0 -10 11
-10 25 0 14 -4 25 -10 25 -16 0 -12 -67 5 -74 10 -4 15 -20 15 -51 0 -39 3
-45 21 -45 19 0 20 4 13 71 -6 66 -5 71 14 76 18 4 19 8 9 24 -16 26 -26 24
-37 -7z"/>
<path d="M12286 3495 c-3 -8 -1 -15 4 -15 6 0 10 7 10 15 0 8 -2 15 -4 15 -2
0 -6 -7 -10 -15z"/>
<path d="M12360 3476 c0 -8 4 -17 9 -20 5 -4 7 3 4 14 -6 23 -13 26 -13 6z"/>
<path d="M12140 3394 c0 -14 4 -23 10 -19 6 3 10 15 10 26 0 10 -4 19 -10 19
-5 0 -10 -12 -10 -26z"/>
<path d="M12040 3320 c0 -5 5 -10 11 -10 5 0 7 5 4 10 -3 6 -8 10 -11 10 -2 0
-4 -4 -4 -10z"/>
<path d="M12076 3309 c-7 -16 10 -76 19 -67 3 3 1 23 -3 44 -7 27 -11 34 -16
23z"/>
<path d="M12016 3228 c-5 -22 -14 -38 -22 -38 -8 0 -14 -9 -14 -20 0 -11 7
-20 15 -20 21 0 37 36 33 78 l-4 37 -8 -37z"/>
<path d="M11926 3215 c-9 -24 5 -41 16 -20 7 11 7 20 0 27 -6 6 -12 3 -16 -7z"/>
<path d="M12317 2982 c-19 -20 -23 -42 -7 -42 12 0 32 38 28 51 -2 6 -11 2
-21 -9z"/>
<path d="M12242 2935 c-15 -33 -15 -35 3 -35 8 0 15 6 15 14 0 8 3 21 6 30 10
27 -12 18 -24 -9z"/>
<path d="M12190 2920 c0 -5 5 -10 10 -10 6 0 10 5 10 10 0 6 -4 10 -10 10 -5
0 -10 -4 -10 -10z"/>
<path d="M12120 2904 c0 -8 5 -12 10 -9 6 3 10 10 10 16 0 5 -4 9 -10 9 -5 0
-10 -7 -10 -16z"/>
<path d="M12283 2775 c-12 -8 -50 -15 -93 -17 -48 -2 -75 -7 -78 -15 -2 -8 6
-13 22 -13 13 0 28 -4 31 -10 3 -5 19 -10 35 -10 16 0 32 -5 36 -11 9 -15 62
-3 86 18 23 20 23 36 0 56 -16 15 -21 15 -39 2z"/>
<path d="M12447 2769 c-18 -11 -23 -34 -8 -43 5 -3 16 5 25 19 18 27 10 38
-17 24z"/>
<path d="M12380 2745 c0 -8 5 -15 10 -15 6 0 10 7 10 15 0 8 -4 15 -10 15 -5
0 -10 -7 -10 -15z"/>
<path d="M12083 2665 c-6 -17 11 -35 35 -35 12 0 29 27 21 34 -2 2 -14 7 -27
10 -16 5 -24 3 -29 -9z"/>
<path d="M12060 2595 c-7 -9 -10 -18 -7 -21 9 -9 48 16 42 27 -9 13 -21 11
-35 -6z"/>
<path d="M455 2340 c-3 -5 -1 -10 4 -10 6 0 11 5 11 10 0 6 -2 10 -4 10 -3 0
-8 -4 -11 -10z"/>
<path d="M11956 1541 c-4 -7 -5 -15 -2 -18 9 -9 19 4 14 18 -4 11 -6 11 -12 0z"/>
<path d="M12102 1441 c4 -13 18 -16 19 -4 0 4 -5 9 -11 12 -7 2 -11 -2 -8 -8z"/>
<path d="M12000 1083 c0 -23 -5 -54 -10 -68 -8 -20 -7 -26 2 -23 7 3 14 14 16
25 2 12 12 29 23 39 20 18 26 36 10 32 -5 -2 -17 6 -25 17 -15 19 -15 18 -16
-22z"/>
<path d="M1831 727 c0 -10 -8 -31 -16 -47 -9 -17 -11 -30 -6 -30 17 0 33 39
28 68 -2 15 -5 19 -6 9z"/>
<path d="M834 645 c-6 -20 -8 -38 -4 -40 4 -3 10 5 13 18 2 12 8 30 12 40 4 9
3 17 -1 17 -5 0 -14 -16 -20 -35z"/>
<path d="M990 638 c0 -19 2 -20 10 -8 13 19 13 30 0 30 -5 0 -10 -10 -10 -22z"/>
<path d="M12179 429 c-9 -13 -14 -30 -11 -37 2 -9 9 -3 18 14 19 36 13 54 -7
23z"/>
<path d="M9682 410 c0 -14 2 -19 5 -12 2 6 2 18 0 25 -3 6 -5 1 -5 -13z"/>
<path d="M986 386 c-20 -31 -20 -36 -1 -36 8 0 15 5 15 10 0 6 7 10 15 10 19
0 19 14 1 29 -10 9 -17 6 -30 -13z"/>
<path d="M2410 370 c0 -21 -20 -29 -20 -7 -1 12 -30 -21 -30 -34 0 -4 11 -9
25 -12 18 -3 29 1 35 14 13 23 13 59 0 59 -5 0 -10 -9 -10 -20z"/>
<path d="M1526 363 c-11 -11 -6 -23 9 -23 8 0 15 4 15 9 0 13 -16 22 -24 14z"/>
<path d="M1645 360 c-4 -6 -3 -16 3 -22 13 -13 23 4 13 21 -7 10 -10 10 -16 1z"/>
<path d="M2030 355 c0 -8 5 -15 10 -15 6 0 10 7 10 15 0 8 -4 15 -10 15 -5 0
-10 -7 -10 -15z"/>
<path d="M2221 349 c-11 -19 -11 -21 2 -16 8 3 20 0 27 -6 9 -9 11 -7 8 12 -4
32 -20 36 -37 10z"/>
<path d="M1951 344 c0 -11 3 -14 6 -6 3 7 2 16 -1 19 -3 4 -6 -2 -5 -13z"/>
<path d="M1995 351 c-3 -5 -1 -12 5 -16 5 -3 10 1 10 9 0 18 -6 21 -15 7z"/>
<path d="M2632 343 c-8 -14 -9 -24 -2 -28 12 -7 24 18 18 37 -3 8 -9 5 -16 -9z"/>
<path d="M2935 340 c-11 -18 13 -37 47 -38 l33 -1 -28 25 c-31 26 -42 29 -52
14z"/>
<path d="M2150 330 c0 -5 5 -10 10 -10 6 0 10 5 10 10 0 6 -4 10 -10 10 -5 0
-10 -4 -10 -10z"/>
<path d="M9060 331 c0 -5 10 -11 23 -15 33 -9 37 -8 37 9 0 10 -10 15 -30 15
-16 0 -30 -4 -30 -9z"/>
<path d="M3150 299 c0 -11 5 -17 10 -14 6 3 10 13 10 21 0 8 -4 14 -10 14 -5
0 -10 -9 -10 -21z"/>
<path d="M3201 304 c0 -11 3 -14 6 -6 3 7 2 16 -1 19 -3 4 -6 -2 -5 -13z"/>
<path d="M3250 300 c0 -11 5 -20 10 -20 6 0 10 9 10 20 0 11 -4 20 -10 20 -5
0 -10 -9 -10 -20z"/>
<path d="M3406 303 c-13 -14 -5 -33 14 -33 11 0 20 6 20 14 0 15 -24 28 -34
19z"/>
<path d="M3563 303 c-26 -10 -13 -33 17 -33 23 0 30 4 30 20 0 20 -19 25 -47
13z"/>
<path d="M6260 295 c0 -8 5 -15 10 -15 6 0 10 7 10 15 0 8 -4 15 -10 15 -5 0
-10 -7 -10 -15z"/>
<path d="M3760 281 c0 -12 6 -21 16 -21 9 0 14 7 12 17 -5 25 -28 28 -28 4z"/>
<path d="M11022 280 c-8 -21 -6 -26 12 -31 22 -6 36 9 19 20 -6 3 -12 13 -15
21 -4 11 -8 8 -16 -10z"/>
<path d="M3827 279 c-9 -6 -17 -13 -17 -17 0 -11 59 -12 65 -2 9 15 -28 30
-48 19z"/>
<path d="M10190 267 c0 -14 3 -17 13 -10 6 6 19 12 27 15 9 3 4 7 -12 10 -23
4 -28 2 -28 -15z"/>
<path d="M10513 283 c-18 -7 -16 -23 2 -23 8 0 15 7 15 15 0 8 -1 15 -2 14 -2
0 -9 -3 -15 -6z"/>
<path d="M4110 260 c0 -19 3 -21 12 -12 9 9 9 15 0 24 -9 9 -12 7 -12 -12z"/>
<path d="M4505 269 c-5 -7 -21 -9 -41 -6 -29 5 -34 3 -34 -15 0 -15 4 -18 13
-11 6 5 31 8 55 7 35 -2 43 1 40 14 -4 20 -24 27 -33 11z"/>
<path d="M10740 260 c0 -22 7 -25 29 -11 16 10 6 31 -15 31 -8 0 -14 -9 -14
-20z"/>
<path d="M4340 255 c0 -8 4 -15 9 -15 5 0 17 -3 26 -6 15 -6 15 -4 4 15 -16
24 -39 28 -39 6z"/>
<path d="M4265 250 c3 -5 8 -10 11 -10 2 0 4 5 4 10 0 6 -5 10 -11 10 -5 0 -7
-4 -4 -10z"/>
<path d="M10885 250 c3 -5 8 -10 11 -10 2 0 4 5 4 10 0 6 -5 10 -11 10 -5 0
-7 -4 -4 -10z"/>
<path d="M4570 235 c0 -9 6 -12 15 -9 8 4 15 7 15 9 0 2 -7 5 -15 9 -9 3 -15
0 -15 -9z"/>
<path d="M4815 230 c3 -5 8 -10 11 -10 2 0 4 5 4 10 0 6 -5 10 -11 10 -5 0 -7
-4 -4 -10z"/>
<path d="M5190 220 c0 -5 5 -10 10 -10 6 0 10 5 10 10 0 6 -4 10 -10 10 -5 0
-10 -4 -10 -10z"/>
<path d="M5645 221 c-7 -13 17 -24 40 -19 9 1 16 8 16 13 0 14 -48 19 -56 6z"/>
<path d="M12030 200 c0 -5 5 -10 10 -10 6 0 10 5 10 10 0 6 -4 10 -10 10 -5 0
-10 -4 -10 -10z"/>
<path d="M7607 175 c-12 -30 -8 -40 18 -41 30 -2 31 3 6 35 -16 21 -19 21 -24
6z"/>
<path d="M6770 153 c0 -10 6 -13 16 -9 9 3 20 6 25 6 21 0 7 15 -16 16 -16 1
-25 -3 -25 -13z"/>
<path d="M7087 164 c-4 -4 -4 -10 -1 -15 6 -10 34 0 34 12 0 10 -24 12 -33 3z"/>
<path d="M7327 155 c-8 -18 11 -31 25 -17 11 11 3 32 -12 32 -4 0 -10 -7 -13
-15z"/>
<path d="M7470 140 c0 -5 5 -10 10 -10 6 0 10 5 10 10 0 6 -4 10 -10 10 -5 0
-10 -4 -10 -10z"/>
<path d="M8620 84 c0 -8 5 -12 10 -9 6 4 8 11 5 16 -9 14 -15 11 -15 -7z"/>
</g>
</svg>
