<?xml version="1.0" standalone="no"?>
<!DOCTYPE svg PUBLIC "-//W3C//DTD SVG 20010904//EN"
 "http://www.w3.org/TR/2001/REC-SVG-20010904/DTD/svg10.dtd">
<svg version="1.0" xmlns="http://www.w3.org/2000/svg"
 width="1280.000000pt" height="1280.000000pt" viewBox="0 0 1280.000000 1280.000000"
 preserveAspectRatio="xMidYMid meet">

<g transform="translate(0.000000,1280.000000) scale(0.100000,-0.100000)"
fill="#000000" stroke="none">
<path d="M0 6400 l0 -6400 6400 0 6400 0 0 6400 0 6400 -6400 0 -6400 0 0
-6400z m10750 6367 c19 -7 41 -16 49 -21 8 -5 42 -11 75 -13 34 -1 63 -8 68
-15 6 -10 10 -10 16 -1 16 25 63 32 174 26 62 -3 141 -5 175 -5 49 1 62 -2 68
-16 7 -18 18 -104 17 -134 0 -10 3 -20 8 -23 4 -3 6 -14 3 -24 -3 -10 0 -21 5
-25 14 -9 82 22 79 36 -1 7 13 15 32 18 35 5 56 30 26 30 -21 0 -14 24 9 28
11 2 19 -4 23 -17 3 -12 6 -21 7 -22 2 -2 206 -19 231 -20 11 0 35 3 53 7 21
4 32 2 32 -5 0 -6 -7 -11 -15 -11 -21 0 -19 -13 5 -28 11 -7 20 -16 20 -21 0
-5 -9 -13 -20 -16 -11 -3 -20 -10 -20 -15 0 -17 33 -19 63 -4 52 28 217 26
217 -1 0 -9 18 -13 63 -13 53 1 67 5 99 30 28 22 43 27 62 22 32 -8 33 -17 4
-37 -13 -8 -20 -18 -16 -22 4 -4 19 0 32 9 42 27 90 18 61 -11 -24 -24 -18
-35 15 -28 24 5 29 4 24 -9 -5 -14 -46 -46 -59 -46 -3 0 -5 7 -5 15 0 21 -17
19 -30 -4 -9 -17 -6 -20 18 -23 22 -2 27 -8 27 -30 1 -17 -4 -28 -12 -28 -7 0
-13 -7 -13 -16 0 -12 6 -15 24 -10 36 9 38 -3 7 -43 -46 -59 -77 -121 -64
-129 8 -5 8 -12 -2 -25 -10 -14 -14 -15 -19 -5 -3 7 -3 3 -1 -8 4 -16 0 -23
-17 -29 -22 -7 -22 -8 6 -12 16 -3 32 1 36 7 4 7 13 11 19 9 8 -3 5 -12 -9
-26 -11 -12 -20 -32 -20 -43 0 -14 -4 -19 -12 -14 -9 5 -9 2 1 -9 12 -15 11
-17 -4 -17 -24 0 -15 -35 10 -36 11 -1 24 -2 29 -3 6 -1 -2 -13 -16 -28 -14
-16 -33 -41 -42 -58 -23 -43 -39 -66 -59 -89 -10 -11 -15 -26 -12 -34 2 -7 -2
-15 -10 -18 -28 -11 -15 -24 25 -24 l40 0 -27 -30 c-14 -16 -32 -30 -38 -30
-11 0 -82 -78 -88 -96 -4 -13 68 -11 100 4 22 9 47 12 76 8 38 -6 48 -3 86 24
26 19 49 29 59 25 14 -5 14 -7 2 -15 -8 -6 -23 -10 -32 -10 -10 0 -18 -7 -18
-15 0 -8 -5 -15 -11 -15 -5 0 -8 -3 -5 -8 2 -4 -14 -6 -37 -4 -30 2 -38 0 -27
-7 8 -5 18 -7 22 -5 4 3 8 0 8 -5 0 -6 -7 -11 -16 -11 -13 0 -15 -7 -9 -37 3
-21 11 -42 16 -48 5 -5 9 -18 9 -29 0 -10 3 -17 6 -14 3 4 19 2 35 -2 23 -7
29 -5 29 6 0 8 -4 13 -8 10 -4 -2 -14 0 -22 6 -11 7 -7 8 17 4 23 -4 33 -1 37
11 4 9 3 19 0 22 -4 3 -9 0 -11 -6 -8 -21 -22 -15 -16 7 4 16 14 20 50 20 40
0 44 -2 41 -22 -2 -13 -9 -28 -17 -34 -18 -14 -6 -34 20 -34 24 0 24 -11 0
-36 -10 -11 -21 -30 -25 -41 -4 -11 -15 -28 -26 -38 -11 -10 -20 -22 -20 -28
0 -5 -9 -22 -21 -38 -11 -16 -17 -29 -12 -29 4 0 -1 -7 -11 -15 -22 -17 -16
-28 16 -29 39 -2 38 -26 -1 -49 -31 -18 -43 -59 -29 -97 6 -17 4 -23 -12 -27
-23 -6 -27 -23 -6 -23 19 0 28 -40 10 -47 -11 -4 -12 -9 -3 -19 6 -8 12 -34
13 -59 1 -25 5 -48 9 -51 4 -4 2 -13 -4 -21 -9 -10 -8 -13 0 -13 8 0 10 -8 6
-19 -3 -11 1 -26 10 -35 18 -18 70 -22 80 -6 8 12 45 13 45 1 0 -12 -21 -19
-78 -27 l-49 -6 2 -47 c1 -25 5 -54 10 -64 4 -10 2 -23 -4 -31 -9 -10 -8 -15
4 -20 23 -8 18 -25 -10 -32 -22 -5 -23 -8 -10 -27 7 -12 17 -39 20 -59 4 -21
10 -38 14 -38 3 -1 31 -3 61 -6 45 -5 53 -3 43 7 -7 7 -13 16 -13 19 0 6 46 6
83 1 4 -1 7 -9 5 -18 -2 -12 4 -18 17 -18 14 0 20 -7 20 -21 0 -11 8 -28 18
-38 9 -10 15 -22 12 -27 -3 -5 -1 -18 5 -30 8 -14 8 -29 1 -49 -6 -19 -6 -32
0 -35 15 -10 0 -25 -24 -25 -21 -1 -22 -1 -3 -15 11 -8 18 -16 15 -18 -2 -2
-15 -11 -29 -21 l-25 -17 35 3 c31 3 35 0 35 -22 0 -14 -4 -31 -9 -38 -6 -9
-6 -16 2 -21 6 -4 11 -20 11 -36 -1 -17 0 -37 2 -45 1 -8 1 -32 1 -53 -2 -29
-7 -40 -24 -47 l-23 -9 23 0 c12 -1 23 -7 23 -13 5 -47 7 -58 12 -72 3 -8 2
-18 -4 -22 -5 -3 -7 -13 -4 -23 3 -11 -4 -22 -22 -33 -25 -15 -26 -16 -5 -22
13 -4 19 -13 15 -22 -3 -7 0 -14 6 -14 20 0 12 -28 -14 -48 -14 -11 -25 -29
-25 -40 0 -15 -9 -22 -30 -27 -16 -4 -30 -11 -30 -17 0 -10 27 -6 65 8 13 5
16 2 13 -12 -5 -29 -69 -55 -107 -44 -17 5 -31 5 -31 0 0 -15 40 -22 85 -16
48 8 68 -7 40 -28 -16 -12 -16 -13 -1 -19 9 -4 16 -13 16 -22 0 -11 -11 -15
-42 -14 -36 1 -39 2 -18 9 22 6 23 8 7 15 -14 6 -15 10 -5 23 11 13 9 14 -17
10 -17 -3 -39 -9 -50 -13 -11 -5 -17 -5 -13 0 10 10 -10 35 -27 35 -16 0 -27
-38 -12 -43 15 -5 19 -47 5 -47 -9 0 -9 -3 -1 -11 8 -8 17 -8 32 1 17 9 29 8
51 -2 32 -14 39 -28 14 -28 -8 0 -12 -4 -9 -10 3 -5 -3 -10 -14 -10 -11 0 -23
-4 -26 -10 -9 -14 68 -13 83 2 9 9 15 9 25 -1 9 -10 9 -15 0 -18 -7 -2 -9 -11
-6 -20 4 -10 0 -14 -13 -13 -38 4 -77 0 -70 -7 4 -5 31 -8 59 -8 l52 0 2 -42
c1 -24 -3 -45 -8 -49 -7 -4 -5 -12 4 -22 23 -27 27 -61 9 -72 -16 -9 -16 -11
1 -20 22 -14 22 -26 -3 -47 -24 -21 -25 -36 -5 -53 8 -7 15 -24 15 -39 0 -14
2 -44 4 -66 5 -60 8 -139 6 -150 -1 -5 -2 -14 0 -20 1 -5 -7 -15 -17 -23 -11
-8 -14 -16 -8 -20 19 -13 35 -51 29 -67 -6 -14 -8 -14 -23 -1 -15 13 -22 14
-44 3 -32 -14 -30 -33 4 -30 58 5 69 -4 68 -55 0 -26 3 -73 7 -104 l6 -58 -28
0 -29 -1 25 -12 c18 -9 26 -21 29 -44 2 -31 0 -33 -28 -33 -28 0 -30 2 -19 20
17 27 4 35 -32 18 l-30 -15 25 -29 c27 -31 31 -44 14 -44 -5 0 -7 -5 -4 -10 4
-6 23 -9 42 -8 34 3 36 2 38 -32 4 -55 -3 -72 -28 -65 -21 5 -21 5 1 -6 19
-11 32 -39 16 -39 -33 0 -58 50 -33 66 7 4 -1 12 -20 20 -17 7 -31 18 -31 24
0 14 -37 13 -44 -2 -5 -10 -7 -10 -12 -1 -4 10 -11 10 -25 2 -25 -13 -16 -28
13 -22 28 5 85 -22 68 -32 -7 -4 -16 -2 -20 5 -4 7 -12 10 -18 6 -13 -8 -8
-69 7 -74 6 -2 11 -10 11 -18 0 -8 8 -14 18 -15 12 0 11 -3 -7 -10 -19 -7 -21
-12 -11 -24 10 -11 9 -18 -4 -30 -18 -18 -21 -35 -7 -35 5 0 8 -8 7 -17 -1
-15 7 -18 39 -17 22 1 30 -1 17 -3 -29 -6 -19 -23 14 -23 28 0 32 -15 7 -29
-16 -10 -16 -11 5 -17 24 -7 30 -24 8 -24 -7 0 -19 -7 -26 -15 -10 -12 -9 -15
6 -15 18 -1 18 -1 2 -11 -25 -14 -23 -45 3 -52 17 -5 19 -9 9 -26 -6 -12 -15
-21 -21 -21 -6 0 -7 -4 -4 -10 3 -5 15 -10 26 -10 13 0 19 -7 19 -24 0 -29
-50 -69 -74 -60 -27 10 -18 -25 9 -38 18 -8 24 -17 19 -30 -4 -14 0 -18 20
-18 14 0 26 -4 26 -10 0 -12 -2 -12 -36 0 -36 14 -54 6 -47 -20 6 -22 19 -22
68 -4 12 5 16 2 14 -12 -2 -10 0 -24 4 -31 9 -15 -11 -28 -42 -28 -13 0 -26
-6 -28 -12 -3 -8 4 -13 15 -13 31 0 52 -11 52 -26 0 -17 -32 -18 -48 -2 -14
14 -17 11 -27 -21 -7 -22 -5 -23 34 -17 38 5 41 4 41 -18 0 -14 -6 -26 -12
-29 -10 -3 -10 -7 -1 -19 13 -15 12 -76 -1 -97 -4 -6 -3 -11 2 -11 5 0 9 -32
9 -71 1 -58 -2 -72 -18 -82 -24 -15 -24 -24 1 -32 19 -6 21 -14 18 -132 -1
-86 -5 -126 -14 -130 -9 -3 -9 -11 2 -31 9 -19 10 -38 5 -64 -5 -20 -6 -39 -4
-42 3 -3 2 -13 -2 -23 -4 -10 -7 -37 -6 -59 1 -23 -2 -44 -7 -48 -5 -3 -5 -31
0 -67 5 -40 5 -65 -2 -69 -5 -3 -7 -23 -5 -44 3 -21 0 -44 -5 -51 -8 -9 -8
-15 0 -20 16 -10 12 -45 -6 -52 -12 -5 -13 -7 -3 -14 8 -4 14 -25 14 -46 1
-21 2 -42 4 -48 2 -5 3 -26 2 -46 -1 -29 -6 -38 -23 -42 -21 -6 -21 -7 -4 -26
20 -22 31 -147 14 -157 -5 -3 -6 -19 -3 -35 5 -20 3 -29 -6 -29 -10 0 -10 -3
-1 -12 8 -8 9 -15 1 -25 -9 -10 -8 -13 2 -13 10 0 10 -3 1 -12 -17 -17 -15
-38 3 -38 8 0 15 -4 15 -10 0 -5 -7 -10 -15 -10 -18 0 -19 -12 -3 -28 10 -10
10 -15 -1 -21 -7 -5 -10 -14 -7 -20 4 -6 1 -11 -6 -11 -8 -1 -4 -9 10 -19 12
-11 22 -22 22 -25 0 -3 -10 -5 -22 -3 -19 2 -22 -2 -20 -20 3 -18 -2 -23 -20
-24 -17 -1 -18 -3 -5 -6 9 -2 17 -9 17 -14 0 -5 13 -9 29 -9 l29 0 -29 -31
c-42 -45 -36 -64 12 -39 25 14 26 -7 2 -27 -17 -14 -17 -14 -1 -9 21 6 31 -23
26 -75 -3 -34 -4 -34 -48 -31 -42 2 -44 2 -26 -12 17 -14 17 -16 3 -22 -16 -6
-18 -36 -5 -50 4 -3 4 -12 1 -20 -5 -14 18 -20 30 -8 10 10 -4 34 -22 35 -9 1
0 5 19 9 44 11 51 4 41 -40 -4 -23 -13 -36 -26 -38 -11 -2 -24 -8 -30 -13 -6
-6 3 -7 23 -3 l32 7 0 -62 c0 -35 -4 -61 -10 -61 -10 0 -8 -29 5 -69 3 -11 1
-22 -4 -25 -5 -4 -7 -21 -4 -40 3 -19 1 -36 -5 -40 -6 -4 -8 -14 -5 -23 4 -9
2 -14 -3 -10 -6 3 -16 2 -23 -2 -9 -6 -6 -10 11 -14 24 -6 24 -8 21 -114 -5
-172 -8 -194 -23 -203 -17 -11 -22 -40 -7 -40 7 0 18 -9 25 -20 10 -17 9 -23
-8 -37 -13 -12 -16 -19 -8 -24 18 -11 19 -58 0 -68 -11 -6 -13 -13 -6 -23 11
-14 11 -78 0 -96 -4 -6 -12 -9 -19 -7 -7 3 -25 0 -42 -5 -29 -10 -29 -10 6 -5
35 5 36 5 37 -30 1 -37 -8 -44 -27 -21 -17 20 -50 9 -44 -15 3 -10 12 -19 21
-19 11 0 8 -7 -10 -24 -32 -32 -32 -80 -1 -84 17 -3 21 0 17 12 -3 9 -1 16 5
16 18 0 13 18 -6 23 -10 3 1 5 25 6 45 1 58 -19 25 -38 -17 -9 -17 -11 2 -25
15 -12 16 -15 5 -16 -13 0 -13 -1 0 -11 15 -11 3 -9 -65 7 -44 11 -27 -11 20
-25 28 -8 47 -20 51 -33 8 -25 -2 -34 -20 -19 -8 7 -27 11 -43 9 -28 -4 -28
-4 7 -14 25 -7 36 -17 38 -34 2 -13 15 -32 28 -43 27 -21 32 -47 8 -47 -13 0
-14 -3 -5 -14 10 -11 8 -16 -9 -21 -20 -6 -20 -7 5 -27 16 -13 24 -26 20 -36
-3 -8 -1 -19 6 -22 8 -6 8 -13 0 -28 -8 -14 -8 -23 -1 -27 7 -4 8 -11 1 -18
-5 -7 -9 -16 -10 -22 0 -5 -10 -13 -23 -17 -22 -6 -22 -6 -2 -7 18 -1 22 -9
27 -53 3 -29 0 -59 -5 -65 -7 -9 -7 -18 2 -28 10 -13 10 -19 -4 -34 -10 -11
-13 -22 -8 -25 5 -3 9 -19 10 -37 1 -28 -2 -31 -24 -26 -14 2 -43 0 -65 -5
-29 -8 -43 -7 -54 2 -8 6 -13 15 -12 18 1 4 -2 8 -8 9 -5 2 -10 -3 -11 -10 0
-6 -2 -14 -3 -17 -1 -3 -4 -15 -7 -27 -4 -26 23 -33 32 -9 7 19 98 30 126 15
l21 -11 -24 -19 -24 -19 28 0 c29 0 34 -9 15 -28 -8 -8 -8 -12 -1 -12 16 0 21
-32 10 -60 -11 -27 -13 -36 -15 -62 -1 -10 -10 -18 -19 -18 -15 0 -16 -2 -3
-10 12 -8 12 -10 1 -10 -11 0 -11 -3 -1 -15 11 -13 8 -15 -18 -15 -22 0 -29
-4 -28 -17 1 -14 -8 -19 -36 -21 -39 -3 -47 5 -26 26 9 9 6 12 -14 12 -33 0
-42 -14 -43 -62 -1 -25 4 -38 12 -38 7 0 13 5 13 10 0 6 10 10 21 10 16 0 19
-3 11 -13 -14 -16 3 -39 47 -60 39 -19 61 -22 61 -7 0 6 -10 10 -22 10 -13 0
-30 4 -38 10 -12 7 -11 10 5 15 11 4 30 11 43 16 31 12 31 12 25 -11 -3 -12 1
-22 11 -26 22 -9 20 -34 -3 -34 -18 0 -51 -34 -51 -51 0 -13 32 -19 49 -9 39
20 56 -40 22 -77 -15 -16 -17 -23 -8 -32 26 -26 10 -51 -33 -51 -15 0 -31 -5
-37 -11 -14 -14 -49 -3 -57 19 -3 9 -9 23 -12 30 -4 9 10 12 55 12 36 0 61 4
61 11 0 7 -16 8 -45 3 -42 -6 -45 -5 -46 17 -1 13 -1 30 0 37 3 21 -26 42 -59
42 -27 0 -30 -3 -25 -20 3 -10 1 -28 -5 -40 -8 -15 -8 -20 1 -20 8 0 8 -4 -1
-15 -10 -12 -9 -15 8 -15 20 0 49 -26 39 -36 -3 -3 -15 0 -27 6 -12 6 -23 10
-24 8 -14 -18 -37 -196 -38 -283 0 -33 -3 -64 -8 -70 -4 -5 -11 -30 -15 -55
-4 -28 -15 -51 -28 -62 -19 -14 -20 -20 -10 -35 34 -49 44 -76 34 -86 -6 -6
-11 -21 -11 -34 0 -13 -4 -23 -10 -23 -5 0 -17 -25 -26 -56 -18 -64 -26 -154
-13 -154 5 0 9 -17 9 -38 0 -21 6 -44 12 -50 10 -10 10 -15 -1 -21 -11 -7 -12
-15 -4 -38 11 -29 11 -78 0 -90 -4 -3 -7 -19 -7 -35 0 -15 -4 -28 -10 -28 -5
0 -10 -9 -10 -21 0 -11 -14 -33 -31 -48 -24 -22 -29 -33 -24 -53 4 -14 2 -29
-3 -32 -6 -3 -8 -15 -5 -26 3 -12 0 -20 -7 -20 -7 0 -9 -8 -5 -20 10 -33 -65
-129 -136 -172 -17 -10 -59 -16 -134 -17 -60 -2 -164 -7 -230 -12 -66 -5 -133
-11 -150 -12 -16 -1 -54 2 -83 6 -33 5 -51 4 -48 -1 9 -15 -14 -72 -29 -72 -8
0 -25 4 -39 10 -17 6 -35 6 -53 -1 -16 -6 -75 -12 -133 -14 -89 -4 -109 -2
-136 15 -21 12 -34 15 -36 8 -2 -6 -29 -12 -59 -13 -29 -1 -64 -8 -76 -15 -19
-12 -27 -11 -74 15 l-52 28 -29 -31 c-33 -38 -78 -44 -78 -12 0 26 -34 26 -60
0 -15 -15 -25 -17 -42 -11 -13 5 -22 14 -20 20 4 20 -20 11 -40 -14 -25 -32
-46 -32 -59 1 -9 26 -10 26 -29 9 -14 -12 -27 -15 -47 -11 -15 4 -44 10 -63
12 -19 3 -49 12 -67 20 -36 16 -59 11 -66 -17 -3 -10 -12 -19 -20 -19 -22 0
-30 17 -12 24 20 7 19 26 -1 26 -9 0 -18 -9 -21 -20 -6 -21 -37 -27 -48 -10
-9 15 -38 12 -32 -3 4 -11 -9 -11 -67 -4 -39 5 -91 6 -115 4 -29 -3 -49 0 -57
8 -14 13 -120 13 -212 -1 -27 -4 -48 -2 -55 5 -6 6 -29 11 -50 11 -30 0 -38
-3 -34 -14 7 -17 -18 -29 -43 -21 -10 3 -20 14 -23 25 -5 18 -14 20 -104 18
-54 -1 -104 -6 -110 -11 -8 -6 -25 -5 -45 2 -24 9 -46 8 -86 -1 -43 -9 -55 -9
-62 1 -5 9 -15 11 -31 5 -13 -4 -54 -8 -90 -9 -48 -1 -71 -6 -84 -18 -9 -10
-21 -14 -26 -11 -6 3 -3 11 7 18 27 20 1 28 -39 11 -26 -11 -43 -12 -71 -4
-20 5 -36 14 -36 19 0 6 -9 1 -20 -10 -12 -12 -26 -18 -32 -14 -5 4 -35 1 -65
-7 -43 -10 -59 -10 -74 -1 -10 7 -30 12 -44 12 -27 0 -34 15 -10 24 20 7 19
26 -2 26 -9 0 -33 -18 -53 -40 -31 -34 -46 -42 -87 -47 -54 -6 -74 6 -53 32
10 12 -4 13 -87 7 -54 -4 -126 -6 -161 -5 -37 1 -60 -2 -57 -8 4 -5 15 -9 26
-9 10 0 19 -4 19 -10 0 -14 -56 -12 -80 2 -15 10 -22 10 -32 0 -15 -15 -45
-16 -54 -1 -4 7 1 16 10 21 9 5 16 12 16 16 0 12 -68 45 -79 38 -6 -4 -22 1
-36 10 l-26 17 2 -34 c3 -40 -6 -59 -28 -59 -12 0 -13 3 -4 13 6 8 8 16 5 19
-11 11 -42 -4 -47 -23 -6 -21 -55 -26 -88 -9 -13 8 -25 7 -40 -1 -24 -12 -75
3 -65 20 3 5 -7 14 -23 19 -24 9 -29 8 -24 -3 8 -22 -45 -31 -64 -12 -14 13
-13 17 11 32 38 25 32 35 -19 35 -25 0 -45 -4 -45 -10 0 -5 12 -10 26 -10 23
0 24 -2 10 -15 -24 -25 -87 -47 -112 -41 -32 8 -30 22 4 40 15 8 25 16 22 16
-24 6 -58 6 -70 0 -8 -4 -56 -13 -106 -19 -78 -10 -99 -9 -142 5 -28 9 -49 21
-46 25 3 5 -4 9 -14 9 -22 0 -46 -23 -35 -33 3 -4 -5 -7 -19 -7 -14 0 -28 7
-32 15 -3 8 -15 15 -26 15 -16 0 -20 -4 -15 -19 4 -15 -1 -20 -26 -25 -18 -3
-38 -1 -45 5 -7 6 -27 7 -48 3 -49 -9 -45 -1 10 25 35 17 49 19 60 11 7 -7 19
-10 26 -7 7 3 -2 11 -21 20 -31 13 -37 13 -65 -3 -46 -26 -124 -36 -132 -16
-10 27 -32 19 -26 -9 4 -23 -1 -27 -25 -24 -5 1 -7 5 -6 10 2 5 -11 16 -28 25
-24 12 -37 13 -53 5 -53 -26 -106 -35 -131 -21 -19 10 -32 11 -69 0 -47 -13
-131 -7 -153 12 -16 13 -74 0 -89 -20 -7 -10 -13 -12 -18 -4 -4 7 -34 9 -90 5
-57 -4 -85 -2 -90 6 -10 16 -35 14 -52 -4 -19 -19 -87 -19 -123 -1 -19 10 -50
14 -99 11 -46 -2 -72 0 -72 7 0 6 -7 7 -17 3 -10 -4 -37 -11 -60 -15 -35 -6
-42 -4 -46 12 -6 20 -29 16 -59 -10 -15 -13 -21 -13 -52 2 -41 19 -58 20 -74
4 -7 -7 -32 -13 -55 -14 -23 -1 -52 -5 -64 -9 -18 -6 -23 -3 -23 9 0 9 8 16
20 16 11 0 20 5 20 10 0 16 -25 11 -53 -10 -29 -23 -52 -26 -44 -6 10 24 -4
26 -44 5 -40 -20 -62 -20 -238 -3 -57 6 -63 5 -58 -10 4 -9 2 -16 -3 -16 -6 0
-10 5 -10 10 0 12 -55 13 -78 1 -10 -5 -78 -6 -160 -1 -90 5 -156 4 -176 -2
-27 -9 -41 -6 -85 17 -53 26 -75 29 -46 5 8 -7 15 -16 15 -20 0 -9 -98 -5
-121 4 -10 4 -20 3 -24 -3 -9 -15 -42 -14 -48 2 -3 9 -7 9 -21 -2 -12 -10 -32
-12 -72 -8 -43 4 -56 2 -61 -9 -3 -8 -16 -13 -32 -12 -15 1 -32 -2 -39 -6 -21
-13 -90 3 -94 22 -4 14 -16 17 -64 16 -62 -1 -135 -23 -101 -31 9 -3 33 1 53
7 25 9 39 9 46 2 18 -18 -11 -44 -39 -37 -16 4 -23 1 -23 -10 0 -12 -11 -14
-56 -10 -65 5 -76 11 -43 24 21 9 19 10 -18 10 -23 1 -45 6 -48 11 -3 6 -20
10 -37 10 -22 0 -29 4 -25 15 10 24 -14 29 -36 6 l-21 -21 22 0 c34 0 26 -27
-15 -49 -28 -14 -46 -14 -37 1 5 8 2 9 -10 5 -10 -4 -26 -7 -35 -7 -10 0 -30
-11 -44 -24 -14 -13 -49 -29 -77 -35 -62 -13 -63 -13 -55 -1 4 6 2 17 -4 24
-9 10 1 12 47 9 43 -3 53 -1 40 7 -29 18 -108 29 -108 15 0 -7 -7 -18 -15 -25
-11 -9 -26 -8 -70 8 -31 12 -62 19 -69 16 -7 -3 -24 0 -38 5 -22 8 -29 6 -41
-12 l-15 -22 -24 22 c-21 20 -27 21 -43 10 -34 -26 24 -35 137 -21 51 6 57 4
68 -16 11 -21 10 -22 -18 -15 -36 8 -51 -10 -28 -33 14 -14 17 -14 34 1 26 24
92 23 92 0 -1 -33 -50 -75 -50 -43 0 6 -15 10 -34 10 -19 0 -36 5 -38 10 -2 7
-15 6 -36 -2 -26 -10 -34 -10 -41 0 -4 7 -24 15 -43 18 -33 6 -36 4 -36 -19 1
-28 26 -40 65 -31 26 7 32 -11 7 -20 -25 -10 -104 -7 -104 3 0 6 5 13 11 16 6
5 4 12 -8 21 -26 19 -35 17 -32 -8 5 -34 -8 -48 -44 -48 -29 -1 -30 -2 -14
-14 14 -11 15 -16 6 -22 -7 -4 -15 -2 -17 4 -2 7 -8 12 -13 12 -6 0 -8 -4 -5
-9 3 -5 -6 -12 -22 -16 -15 -3 -37 -16 -49 -27 -25 -23 -52 -18 -60 11 -6 24
-56 46 -80 36 -15 -6 -13 -10 15 -21 18 -8 30 -19 27 -25 -4 -5 -2 -16 4 -23
21 -25 -4 -64 -45 -72 -31 -6 -39 -3 -55 17 -22 29 -16 39 22 39 32 0 37 14
14 44 -13 17 -18 17 -45 6 -16 -7 -30 -20 -30 -29 0 -9 -14 -25 -30 -34 -17
-10 -30 -25 -30 -33 0 -8 -10 -14 -25 -14 -30 0 -34 26 -5 35 22 7 26 35 8 53
-9 9 -8 15 8 27 10 8 26 13 36 11 10 -2 18 4 21 15 3 12 0 19 -9 19 -8 0 -14
-4 -14 -10 0 -5 -11 -10 -25 -10 -16 0 -25 6 -25 15 0 17 -45 21 -55 5 -3 -5
3 -10 14 -10 22 0 30 -29 9 -32 -7 0 -26 -2 -43 -4 -16 -1 -51 -6 -78 -9 -37
-6 -51 -4 -66 9 -10 9 -24 14 -32 11 -19 -6 -64 29 -55 44 4 6 25 11 47 11 35
0 51 11 31 24 -11 6 -92 -16 -92 -26 0 -4 -15 -8 -34 -8 -19 0 -44 -8 -57 -19
-18 -15 -27 -16 -41 -7 -16 10 -15 12 14 26 34 16 49 40 25 40 -9 0 -17 -5
-19 -10 -2 -7 -19 -8 -45 -4 -24 3 -40 11 -37 16 4 5 16 7 28 5 11 -3 30 -2
41 2 19 8 19 8 -2 19 -12 7 -26 12 -32 12 -6 0 -27 12 -48 26 -25 17 -50 25
-73 24 -73 -4 -80 -1 -80 24 0 20 -6 25 -35 28 -19 2 -42 0 -51 -5 -8 -5 -39
-6 -67 -3 -29 3 -69 6 -90 6 -24 0 -36 3 -32 10 3 5 15 10 25 10 18 0 40 19
23 21 -4 0 -21 2 -38 4 -16 3 -44 0 -61 -6 -18 -5 -75 -11 -129 -13 -95 -3
-97 -2 -113 23 -8 14 -25 36 -36 49 -21 23 -21 24 -2 37 18 14 18 15 -8 25
-15 5 -32 10 -37 10 -5 0 -9 5 -9 10 0 6 -20 10 -43 10 -24 0 -46 3 -50 6 -10
10 17 44 35 44 30 0 20 20 -12 27 -38 7 -38 28 0 42 29 10 36 25 32 74 -1 12
7 19 28 24 39 7 39 23 0 23 -30 0 -30 1 -27 44 2 24 7 49 11 55 4 7 2 18 -4
26 -6 8 -9 18 -6 23 5 8 12 98 21 262 3 47 8 96 11 110 16 69 18 313 3 342 -6
11 -9 41 -6 66 3 24 1 58 -3 74 -5 17 -4 69 4 126 6 53 10 120 8 147 -5 56 -5
83 -1 235 1 58 2 121 0 140 -1 19 1 105 5 190 4 85 7 194 7 243 l1 87 30 9
c29 9 29 9 6 10 -22 2 -23 3 -8 14 15 12 15 14 -5 26 l-21 14 23 18 c20 16 21
20 6 25 -9 4 -14 12 -12 18 3 7 -1 20 -9 31 -25 34 -9 85 27 85 8 0 6 7 -6 20
-16 18 -16 20 -1 35 18 19 20 31 6 40 -15 10 -2 25 22 25 16 0 18 3 9 14 -6 8
-11 18 -10 22 1 5 -6 26 -15 48 -9 21 -15 41 -12 44 3 3 1 11 -5 19 -9 10 -8
13 5 13 10 0 14 5 11 11 -5 7 6 8 32 4 36 -6 37 -5 15 8 -23 13 -22 14 30 25
59 14 96 32 66 32 -11 0 -18 8 -18 21 0 15 -4 19 -19 14 -11 -3 -22 -1 -26 4
-3 6 5 13 19 17 36 9 41 32 8 40 -41 10 -55 24 -41 40 9 11 8 14 -5 15 -35 3
-41 5 -39 17 2 7 -2 12 -7 12 -6 0 -10 7 -10 15 0 8 -5 15 -11 15 -6 0 -9 7
-5 15 3 9 0 15 -8 15 -8 0 -16 7 -20 15 -3 9 0 15 9 15 22 0 18 21 -4 27 -10
3 -23 20 -30 41 -10 34 -24 277 -20 347 3 36 2 108 -1 150 -1 17 0 81 2 143 2
63 0 116 -4 118 -4 3 -8 12 -8 21 0 9 -7 25 -16 35 -13 14 -14 21 -5 32 24 28
38 350 17 384 -3 6 -2 13 4 17 6 4 7 11 4 17 -7 11 -10 177 -18 838 -3 195 -9
398 -15 452 -5 56 -6 112 -1 135 5 21 7 72 4 113 -6 82 -6 151 -1 980 2 305 0
564 -3 574 -4 11 -3 39 2 63 7 31 6 48 -2 58 -7 8 -8 20 -3 27 4 7 9 69 9 138
2 160 12 368 18 378 3 5 1 26 -4 47 -5 21 -5 46 -1 54 5 9 4 43 -1 76 -18 116
-24 249 -18 435 1 41 -2 92 -8 112 -6 25 -6 66 0 120 5 46 6 119 3 163 -8 90
-9 98 -6 175 2 30 2 98 2 150 -1 221 5 416 12 428 5 6 4 12 -1 12 -18 0 -23
80 -8 111 8 16 10 31 6 34 -11 7 -1 102 12 128 7 13 5 24 -5 35 -8 10 -15 42
-16 75 -2 52 -1 57 18 57 12 0 21 4 21 9 0 5 10 11 23 15 18 5 20 8 7 16 -13
8 -12 10 3 10 9 0 16 6 15 12 -2 7 8 14 21 16 l23 4 -21 14 c-12 9 -25 13 -30
9 -5 -3 -12 -1 -16 5 -3 5 -1 10 6 10 6 0 9 8 6 20 -3 13 0 20 10 20 8 0 11 5
8 10 -4 6 -15 10 -25 8 -21 -3 -70 48 -70 74 0 9 -5 18 -11 20 -6 2 -12 13
-13 23 -2 11 -6 29 -10 40 -18 45 -19 51 -17 63 1 8 -3 20 -10 28 -6 7 -9 21
-5 29 3 8 0 15 -6 15 -6 0 -9 3 -5 6 3 3 1 18 -4 32 -5 14 -11 43 -13 64 -3
22 -11 47 -20 57 -9 10 -14 25 -10 35 3 9 1 16 -5 16 -7 0 -11 6 -10 13 2 6
-5 29 -14 51 -15 34 -16 53 -6 91 1 6 -1 17 -4 25 -13 32 -27 96 -27 123 0 15
-5 27 -11 27 -6 0 -8 7 -5 16 5 14 1 15 -26 9 -59 -13 -73 -11 -83 13 -6 14
-22 26 -38 29 -15 3 -30 10 -33 14 -3 5 -14 9 -25 9 -20 0 -27 30 -6 30 6 0
20 7 30 14 17 13 17 15 -10 28 -15 7 -29 21 -31 31 -3 14 4 17 49 17 29 0 49
3 46 7 -4 4 9 14 28 23 31 14 34 18 21 29 -14 12 -13 17 9 45 14 18 25 37 25
43 0 14 35 44 43 37 3 -4 46 -8 94 -10 48 -2 121 -7 161 -10 78 -7 113 5 91
32 -9 11 -8 15 4 19 25 10 82 -10 85 -29 3 -16 0 -18 -23 -12 -20 5 -26 3 -22
-6 2 -7 15 -12 28 -10 13 1 49 3 79 3 30 1 64 8 76 16 21 13 54 9 54 -8 0 -5
13 -9 28 -9 15 0 33 -5 40 -12 9 -9 15 -9 23 -1 8 8 5 13 -11 18 -19 6 -15 10
30 31 73 34 79 32 72 -18 l-5 -43 33 29 c28 23 41 27 71 23 l37 -5 -9 32 c-13
44 6 86 38 86 16 0 22 -4 17 -12 -5 -8 5 -9 36 -4 40 6 42 5 29 -10 -13 -16
-11 -17 23 -11 30 4 38 2 38 -9 0 -8 -10 -19 -22 -23 l-23 -9 25 -10 c20 -8
28 -6 41 10 10 13 32 22 62 25 48 6 53 1 48 -44 -1 -6 24 -19 54 -28 48 -15
59 -16 81 -5 21 12 31 12 69 -2 26 -10 47 -13 50 -7 4 5 -3 9 -14 9 -12 0 -21
4 -21 9 0 14 51 23 65 11 10 -8 30 -8 71 -1 77 15 82 14 89 -8 8 -26 35 -35
49 -17 30 40 108 46 140 11 13 -14 32 -25 42 -25 17 0 16 3 -6 20 -27 21 -23
37 7 23 10 -6 55 -9 101 -8 75 1 101 -6 70 -18 -7 -3 -3 -6 9 -6 12 -1 24 5
27 12 3 8 8 7 16 -5 16 -26 50 -24 43 2 -6 22 15 28 34 9 6 -6 47 -11 91 -12
46 -1 78 -6 75 -11 -4 -5 4 -6 18 -2 13 5 40 10 59 13 19 3 39 12 43 19 14 25
74 18 223 -27 39 -12 57 -11 49 1 -11 18 14 48 46 55 24 5 38 2 60 -14 22 -16
38 -20 62 -16 18 4 46 1 62 -5 25 -9 31 -8 42 6 11 15 14 15 42 -6 17 -12 31
-28 31 -36 0 -8 5 -14 10 -14 15 0 12 26 -5 40 -8 7 -12 16 -9 21 7 13 42 11
46 -2 2 -7 12 -7 31 0 20 8 33 7 47 -1 15 -10 22 -10 32 0 16 16 28 15 28 -3
0 -7 -8 -19 -18 -24 -37 -22 11 -10 60 15 45 23 56 25 88 15 23 -7 55 -7 90
-2 29 5 71 6 92 3 21 -2 57 1 80 7 35 10 49 9 78 -3 36 -15 139 -24 156 -14 5
3 52 9 105 13 79 5 102 4 127 -9 39 -20 53 -20 46 -1 -4 10 0 15 15 15 12 0
24 -7 27 -15 4 -9 18 -15 38 -14 28 1 29 2 7 8 -14 4 -26 12 -28 18 -5 15 125
9 141 -7 14 -14 56 -12 86 5 22 12 29 11 58 -7 37 -23 73 -18 52 7 -11 13 -6
14 36 9 27 -4 57 -11 66 -15 12 -7 20 -4 27 8 8 15 13 16 30 6 22 -14 71 -9
149 14 56 16 117 11 125 -10 3 -9 11 -9 36 0 18 7 66 10 109 8 50 -2 80 1 85
9 5 8 11 6 21 -6 15 -21 70 -24 113 -7 30 12 171 20 152 9 -24 -16 19 -17 50
-3 33 16 75 10 139 -20 18 -9 29 -7 50 6 15 9 26 23 26 32 -1 8 4 15 11 15 19
0 36 -25 29 -44 -3 -9 -1 -16 5 -16 7 0 14 7 18 16 4 12 16 14 62 8 31 -4 65
-13 76 -20 11 -8 29 -14 40 -14 28 0 62 25 47 34 -6 3 -13 2 -17 -4 -10 -16
-42 -12 -85 10 -51 26 -51 34 0 25 24 -4 46 -3 53 4 19 15 73 -2 69 -21 -4
-25 30 -32 48 -10 20 25 54 38 47 18 -7 -17 28 -51 43 -41 5 3 8 11 5 16 -4 5
0 9 8 9 8 0 28 7 46 16 27 14 44 14 129 4 53 -6 120 -14 147 -16 l50 -5 -27
21 c-16 12 -28 25 -28 30 0 18 43 21 90 5 45 -15 51 -15 66 -1 18 18 42 20 64
6 13 -9 13 -11 0 -21 -12 -9 -11 -10 5 -4 11 4 28 10 37 12 10 3 15 9 13 14
-10 15 36 31 70 25 18 -4 44 -1 58 5 33 15 73 5 80 -21 3 -12 13 -20 27 -20
18 0 20 3 11 14 -7 8 -8 17 -3 20 16 10 37 -25 34 -55 -3 -28 10 -39 23 -19 3
6 21 10 38 10 18 0 43 9 57 19 24 19 24 20 6 40 -17 19 -17 21 -2 27 10 4 28
2 42 -5 20 -9 30 -8 49 5 16 10 34 14 50 10 32 -8 33 -26 1 -26 -14 0 -27 -3
-29 -7 -3 -5 68 -8 158 -8 127 0 161 3 153 12 -20 24 3 36 59 30 48 -5 60 -11
92 -46 25 -27 46 -41 62 -41 l24 1 -22 18 c-29 25 -29 31 2 31 14 0 36 7 49
15 19 13 29 13 52 4 16 -7 49 -12 74 -13 36 -1 47 -5 56 -24 11 -22 12 -22 17
-3 6 26 64 37 111 21 39 -13 70 -4 42 12 -9 5 -14 14 -11 19 4 5 17 1 31 -10
20 -16 40 -20 92 -19 37 1 77 -2 90 -6 13 -5 22 -3 22 3 0 14 62 14 93 0 18
-8 32 -7 62 5 30 13 40 14 49 4 8 -9 41 -12 114 -10 99 3 103 4 112 28 12 30
50 33 57 4 4 -16 14 -20 44 -20 21 0 41 5 44 10 8 13 102 13 110 1 3 -6 36 -8
73 -6 37 3 78 5 91 5 14 0 21 5 18 13 -3 9 17 12 82 12 47 0 106 4 131 8 30 5
40 4 30 -2 -20 -14 -6 -25 17 -13 10 5 42 12 71 16 48 6 52 5 52 -14 0 -15 7
-20 28 -20 15 0 36 6 47 14 11 7 38 16 60 19 22 3 55 9 72 13 25 5 34 2 39
-10 9 -23 23 -20 34 9 9 24 40 36 40 16 0 -5 9 -12 19 -16 13 -4 18 -12 14
-22 -4 -11 -2 -14 8 -11 8 3 13 10 12 16 -5 20 37 35 63 23 13 -6 24 -15 24
-21 0 -5 12 -10 26 -10 20 0 25 4 22 23 -2 17 2 23 22 25 19 2 32 -5 48 -28
26 -35 43 -37 92 -10 l35 20 -40 -5 c-43 -6 -72 6 -61 24 9 14 52 14 96 -2z
m150 4 c0 -6 -5 -13 -10 -16 -15 -9 -43 3 -35 15 8 13 45 13 45 1z m-3107 -58
c-7 -2 -19 -2 -25 0 -7 3 -2 5 12 5 14 0 19 -2 13 -5z m1144 -19 c-3 -3 -12
-4 -19 -1 -8 3 -5 6 6 6 11 1 17 -2 13 -5z m-1420 -29 c3 -9 3 -18 0 -21 -10
-10 -47 7 -47 22 0 19 39 18 47 -1z m-737 -15 c-20 -13 -40 -13 -40 0 0 6 12
10 28 10 21 0 24 -2 12 -10z m-2240 -19 c0 -15 -19 -23 -38 -16 -14 5 -14 7
-2 15 19 12 40 13 40 1z m1110 -9 c0 -15 -24 -32 -44 -32 -18 0 -19 1 -1 20
18 20 45 27 45 12z m-1563 -18 c-3 -3 -12 -4 -19 -1 -8 3 -5 6 6 6 11 1 17 -2
13 -5z m820 0 c-3 -3 -12 -4 -19 -1 -8 3 -5 6 6 6 11 1 17 -2 13 -5z m-3230
-10 c-3 -3 -12 -4 -19 -1 -8 3 -5 6 6 6 11 1 17 -2 13 -5z m300 0 c-3 -3 -12
-4 -19 -1 -8 3 -5 6 6 6 11 1 17 -2 13 -5z m2158 -14 c-3 -5 -10 -10 -16 -10
-5 0 -9 5 -9 10 0 6 7 10 16 10 8 0 12 -4 9 -10z m8438 -1066 c3 -4 -1 -13 -9
-21 -20 -20 -12 -39 15 -36 25 3 28 -12 5 -21 -10 -4 -21 0 -28 9 -10 15 -14
14 -30 -4 -24 -26 -31 -26 -33 -1 -1 11 7 22 20 27 20 6 18 8 -13 14 -29 5
-30 7 -9 8 15 0 32 8 39 16 13 16 32 20 43 9z m137 -869 c8 -9 8 -15 2 -15
-18 0 -42 12 -42 21 0 14 26 10 40 -6z m-10 -31 c32 -7 44 -19 37 -37 -4 -11
-22 -13 -74 -11 -37 1 -69 3 -71 3 -1 1 5 15 14 32 13 26 20 30 42 25 15 -3
38 -9 52 -12z m-170 -74 c-8 -5 -24 -10 -35 -10 -17 0 -17 2 -5 10 8 5 24 10
35 10 17 0 17 -2 5 -10z m202 -7 c35 -41 20 -96 -20 -74 -25 13 -46 -2 -38
-26 5 -15 13 -19 34 -16 23 3 24 2 7 -6 -17 -8 -18 -10 -2 -10 21 -1 23 -27 2
-34 -9 -4 -13 -16 -10 -36 4 -35 -7 -46 -32 -32 -16 9 -16 11 6 19 27 10 21
16 -23 26 -23 6 -27 9 -15 17 7 5 24 9 37 9 12 0 22 5 22 10 0 15 -22 12 -61
-7 -44 -21 -61 -44 -47 -60 19 -23 -27 -15 -48 8 -18 20 -18 21 1 35 10 8 29
14 43 14 13 0 20 4 17 10 -3 6 -15 10 -25 10 -10 0 -21 6 -23 13 -3 7 -6 5 -6
-5 -1 -12 -9 -18 -23 -18 -20 1 -21 2 -8 13 18 14 25 47 10 47 -5 0 -10 5 -10
10 0 6 16 10 36 10 40 0 67 21 58 44 -12 33 3 46 54 46 34 0 53 -5 64 -17z
m-203 -36 c16 -20 3 -27 -31 -15 -22 8 -26 13 -16 19 19 12 34 11 47 -4z m121
-177 c0 -5 -4 -10 -9 -10 -6 0 -13 5 -16 10 -3 6 1 10 9 10 9 0 16 -4 16 -10z
m-15 -30 c-3 -5 -16 -10 -28 -10 -18 0 -19 2 -7 10 20 13 43 13 35 0z m-12455
-712 c0 -6 -7 -7 -16 -4 -9 3 -18 6 -20 6 -3 0 -3 4 1 10 7 11 35 2 35 -12z
m12450 -392 c0 -3 -4 -8 -10 -11 -5 -3 -10 -1 -10 4 0 6 5 11 10 11 6 0 10 -2
10 -4z m80 -46 c0 -5 -4 -10 -10 -10 -5 0 -10 5 -10 10 0 6 5 10 10 10 6 0 10
-4 10 -10z m31 -1391 c11 -11 18 -23 16 -26 -9 -9 -47 17 -47 32 0 20 6 19 31
-6z m19 -98 c0 -12 -56 -34 -72 -28 -9 3 -6 7 7 12 11 3 27 10 35 15 20 12 30
12 30 1z m0 -401 c0 -5 -2 -10 -4 -10 -3 0 -8 5 -11 10 -3 6 -1 10 4 10 6 0
11 -4 11 -10z m-70 -3690 c0 -5 -4 -10 -10 -10 -5 0 -10 5 -10 10 0 6 5 10 10
10 6 0 10 -4 10 -10z m-12615 -510 c-3 -5 -13 -10 -21 -10 -8 0 -12 5 -9 10 3
6 13 10 21 10 8 0 12 -4 9 -10z m12530 -670 l20 -9 -20 0 c-11 0 -27 4 -35 9
-13 9 -13 10 0 9 8 0 24 -4 35 -9z m80 -20 c4 -6 -6 -10 -22 -10 -22 0 -25 2
-13 10 19 12 27 12 35 0z m-55 -20 c0 -5 -7 -10 -15 -10 -8 0 -15 5 -15 10 0
6 7 10 15 10 8 0 15 -4 15 -10z m83 -97 c-7 -2 -19 -2 -25 0 -7 3 -2 5 12 5
14 0 19 -2 13 -5z m-9 -222 c6 -10 -16 -21 -42 -21 -13 0 -12 3 4 15 22 17 31
18 38 6z m-6739 -1581 c3 -6 0 -10 -7 -10 -18 1 -49 26 -42 33 8 7 40 -8 49
-23z m1823 -12 c-5 -15 -48 -24 -48 -10 0 14 12 22 33 22 10 0 17 -5 15 -12z
m-3341 -4 c-3 -3 -12 -4 -19 -1 -8 3 -5 6 6 6 11 1 17 -2 13 -5z m2623 -4 c0
-5 -6 -10 -14 -10 -8 0 -18 5 -21 10 -3 6 3 10 14 10 12 0 21 -4 21 -10z
m-2180 -10 c0 -5 -11 -10 -25 -10 -14 0 -25 5 -25 10 0 6 11 10 25 10 14 0 25
-4 25 -10z m4267 4 c-3 -3 -12 -4 -19 -1 -8 3 -5 6 6 6 11 1 17 -2 13 -5z
m-6029 -16 c-3 -7 -17 -15 -33 -16 -25 -3 -27 -2 -16 12 16 19 55 22 49 4z
m312 -3 c0 -8 -5 -15 -11 -15 -7 0 -17 -7 -23 -15 -7 -9 -19 -12 -33 -9 -28 8
-20 24 11 24 13 0 29 7 36 15 7 8 14 15 16 15 2 0 4 -7 4 -15z m7465 -10 c0
-11 -59 -19 -82 -11 -8 3 -11 11 -8 16 8 14 90 9 90 -5z m143 -3 c3 -9 -2 -13
-14 -10 -9 1 -19 9 -22 16 -3 9 2 13 14 10 9 -1 19 -9 22 -16z m-2993 -2 c-3
-5 -10 -10 -16 -10 -5 0 -9 5 -9 10 0 6 7 10 16 10 8 0 12 -4 9 -10z m-7093
-32 c-9 -9 -15 -9 -24 0 -9 9 -7 12 12 12 19 0 21 -3 12 -12z m1983 2 c-3 -5
-10 -10 -16 -10 -5 0 -9 5 -9 10 0 6 7 10 16 10 8 0 12 -4 9 -10z m75 -10 c0
-5 -9 -10 -21 -10 -11 0 -17 5 -14 10 3 6 13 10 21 10 8 0 14 -4 14 -10z m250
0 c0 -5 -4 -10 -10 -10 -5 0 -10 5 -10 10 0 6 5 10 10 10 6 0 10 -4 10 -10z
m-160 -9 c0 -13 -27 -21 -45 -15 -25 10 -17 24 15 24 17 0 30 -4 30 -9z
m-1760 -52 c0 -5 -11 -9 -25 -9 -24 0 -32 10 -19 22 8 8 44 -3 44 -13z m1505
1 c-3 -5 -12 -7 -20 -3 -21 7 -19 13 6 13 11 0 18 -4 14 -10z m-100 -10 c-3
-5 -10 -10 -16 -10 -5 0 -9 5 -9 10 0 6 7 10 16 10 8 0 12 -4 9 -10z m205 -30
c0 -5 -7 -10 -15 -10 -8 0 -15 5 -15 10 0 6 7 10 15 10 8 0 15 -4 15 -10z
m-1410 -74 c5 -13 15 -27 22 -30 7 -3 3 -4 -10 -3 -12 1 -23 7 -23 12 0 6 -7
14 -15 18 -8 5 -12 12 -9 18 11 16 25 10 35 -15z m110 -43 c0 -5 -7 -17 -15
-27 -15 -20 -15 -20 -30 0 -21 28 -18 34 15 34 17 0 30 -3 30 -7z m168 -16 c2
-9 -3 -17 -10 -17 -7 0 -19 -9 -26 -20 -19 -31 -42 -25 -42 10 0 20 4 28 13
24 8 -3 20 2 27 11 16 19 34 15 38 -8z m432 3 c0 -5 -9 -10 -21 -10 -11 0 -17
5 -14 10 3 6 13 10 21 10 8 0 14 -4 14 -10z m192 -12 c-9 -9 -15 -9 -24 0 -9
9 -7 12 12 12 19 0 21 -3 12 -12z m-252 -28 c0 -10 -52 -40 -70 -40 -18 0 -11
15 18 32 30 20 52 23 52 8z m-465 -20 c3 -6 -3 -10 -14 -10 -12 0 -21 5 -21
10 0 6 6 10 14 10 8 0 18 -4 21 -10z m212 -36 c-3 -3 -12 -4 -19 -1 -8 3 -5 6
6 6 11 1 17 -2 13 -5z"/>
<path d="M9836 12711 c-4 -7 -5 -15 -2 -18 9 -9 19 4 14 18 -4 11 -6 11 -12 0z"/>
<path d="M9985 12711 c-3 -5 4 -13 16 -16 23 -8 34 -1 24 14 -8 13 -32 14 -40
2z"/>
<path d="M11260 12702 c0 -4 10 -13 21 -21 19 -11 21 -11 15 4 -3 9 -6 19 -6
21 0 2 -7 4 -15 4 -8 0 -15 -3 -15 -8z"/>
<path d="M8050 12656 c0 -9 5 -16 10 -16 6 0 10 4 10 9 0 6 -4 13 -10 16 -5 3
-10 -1 -10 -9z"/>
<path d="M8675 12661 c-3 -5 -1 -12 5 -16 12 -7 30 2 30 16 0 12 -27 12 -35 0z"/>
<path d="M7658 12633 c7 -3 16 -2 19 1 4 3 -2 6 -13 5 -11 0 -14 -3 -6 -6z"/>
<path d="M7011 12614 c12 -15 11 -16 -6 -11 -11 4 -27 2 -35 -3 -11 -7 3 -10
45 -10 l60 1 -24 19 c-30 26 -60 28 -40 4z"/>
<path d="M7730 12610 c0 -5 7 -10 15 -10 8 0 15 5 15 10 0 6 -7 10 -15 10 -8
0 -15 -4 -15 -10z"/>
<path d="M6639 12580 c-32 -26 -3 -27 31 0 19 15 21 20 9 20 -9 0 -27 -9 -40
-20z"/>
<path d="M3855 12550 c-19 -8 -19 -9 3 -9 12 -1 22 4 22 9 0 6 -1 10 -2 9 -2
0 -12 -4 -23 -9z"/>
<path d="M7480 12550 c0 -5 7 -10 15 -10 8 0 15 5 15 10 0 6 -7 10 -15 10 -8
0 -15 -4 -15 -10z"/>
<path d="M470 12521 c0 -13 20 -18 48 -13 18 4 20 7 10 13 -18 12 -58 11 -58
0z"/>
<path d="M3605 12519 c-4 -6 -5 -13 -2 -16 7 -7 27 6 27 18 0 12 -17 12 -25
-2z"/>
<path d="M11493 12478 c-13 -6 -23 -17 -23 -23 0 -16 50 -26 85 -16 l29 7 -31
22 c-17 12 -33 22 -35 21 -1 0 -13 -5 -25 -11z"/>
<path d="M12045 12420 c3 -5 8 -10 11 -10 2 0 4 5 4 10 0 6 -5 10 -11 10 -5 0
-7 -4 -4 -10z"/>
<path d="M12030 12370 c-18 -12 -2 -12 25 0 13 6 15 9 5 9 -8 0 -22 -4 -30 -9z"/>
<path d="M12310 11925 c-8 -8 -30 -29 -48 -47 -18 -17 -31 -39 -30 -47 2 -9
-5 -24 -14 -33 -24 -24 -23 -40 4 -36 18 2 22 11 25 46 3 37 11 50 51 87 26
25 42 45 37 45 -6 0 -17 -7 -25 -15z"/>
<path d="M6061 11821 c-8 -6 -9 -11 -3 -15 6 -3 14 -1 17 5 9 14 2 20 -14 10z"/>
<path d="M12189 11734 c-17 -21 3 -40 22 -21 8 7 22 18 32 24 17 9 15 10 -11
11 -17 0 -36 -6 -43 -14z"/>
<path d="M4750 11684 c0 -14 3 -14 15 -4 8 7 15 14 15 16 0 2 -7 4 -15 4 -8 0
-15 -7 -15 -16z"/>
<path d="M12230 11430 c0 -5 5 -10 11 -10 5 0 7 5 4 10 -3 6 -8 10 -11 10 -2
0 -4 -4 -4 -10z"/>
<path d="M12404 11246 c0 -38 6 -61 14 -64 16 -5 16 30 0 46 -10 10 -10 15 2
22 9 6 10 10 3 10 -6 0 -14 10 -16 23 -3 12 -4 -5 -3 -37z"/>
<path d="M12410 11154 c0 -9 5 -14 12 -12 18 6 21 28 4 28 -9 0 -16 -7 -16
-16z"/>
<path d="M575 10650 c3 -5 15 -10 26 -10 10 0 19 5 19 10 0 6 -12 10 -26 10
-14 0 -23 -4 -19 -10z"/>
<path d="M12368 10393 c7 -3 16 -2 19 1 4 3 -2 6 -13 5 -11 0 -14 -3 -6 -6z"/>
<path d="M12477 10206 c-6 -15 10 -36 28 -36 14 0 45 37 38 44 -12 12 -61 6
-66 -8z"/>
<path d="M12580 10191 c-15 -29 -12 -41 10 -41 12 0 32 -7 45 -16 22 -15 26
-15 41 0 20 20 11 34 -10 17 -11 -9 -20 -10 -33 -2 -16 9 -15 11 10 20 36 14
34 27 -4 35 -45 9 -47 8 -59 -13z"/>
<path d="M12485 10146 c-20 -8 -25 -15 -17 -20 10 -6 10 -11 1 -22 -9 -11 -8
-15 5 -20 13 -5 14 -9 4 -21 -9 -11 -9 -16 3 -24 8 -5 20 -9 27 -9 15 0 16 17
0 22 -16 6 -1 28 28 38 30 12 40 35 24 55 -15 18 -35 18 -75 1z"/>
<path d="M12606 10032 c-16 -2 -40 -11 -53 -19 -14 -9 -33 -13 -48 -9 -23 6
-25 4 -16 -11 11 -22 48 -53 61 -53 22 0 19 -21 -4 -32 -30 -13 -34 -28 -8
-28 24 1 53 25 50 41 -2 9 11 16 37 20 l40 6 -36 2 c-22 0 -39 7 -42 15 -3 8
-16 17 -29 19 -13 3 0 5 27 5 28 0 60 4 72 7 41 13 -1 43 -51 37z m39 -22 c3
-5 -1 -10 -9 -10 -9 0 -16 5 -16 10 0 6 4 10 9 10 6 0 13 -4 16 -10z"/>
<path d="M12568 9858 c9 -9 15 -9 24 0 9 9 7 12 -12 12 -19 0 -21 -3 -12 -12z"/>
<path d="M12565 9810 c-4 -6 5 -10 19 -10 14 0 26 5 26 10 0 6 -9 10 -19 10
-11 0 -23 -4 -26 -10z"/>
<path d="M12448 9783 c6 -2 18 -2 25 0 6 3 1 5 -13 5 -14 0 -19 -2 -12 -5z"/>
<path d="M12518 9773 c7 -3 16 -2 19 1 4 3 -2 6 -13 5 -11 0 -14 -3 -6 -6z"/>
<path d="M12620 9679 c0 -5 5 -7 10 -4 6 3 10 8 10 11 0 2 -4 4 -10 4 -5 0
-10 -5 -10 -11z"/>
<path d="M12550 9670 c19 -13 30 -13 30 0 0 6 -10 10 -22 10 -19 0 -20 -2 -8
-10z"/>
<path d="M12660 9610 c27 -21 55 -26 65 -10 3 6 -3 10 -14 10 -11 0 -23 5 -26
10 -3 6 -16 10 -28 10 -22 0 -22 -1 3 -20z"/>
<path d="M12645 9420 c-3 -5 1 -10 9 -10 9 0 16 5 16 10 0 6 -4 10 -9 10 -6 0
-13 -4 -16 -10z"/>
<path d="M12632 9373 c-6 -3 -10 -9 -6 -14 7 -12 44 -12 44 0 0 11 -21 19 -38
14z"/>
<path d="M12580 9330 c20 -13 33 -13 25 0 -3 6 -14 10 -23 10 -15 0 -15 -2 -2
-10z"/>
<path d="M12635 8940 c4 -6 11 -8 16 -5 14 9 11 15 -7 15 -8 0 -12 -5 -9 -10z"/>
<path d="M12575 8930 c4 -6 11 -8 16 -5 14 9 11 15 -7 15 -8 0 -12 -5 -9 -10z"/>
<path d="M12585 8850 c-3 -5 1 -10 10 -10 9 0 13 5 10 10 -3 6 -8 10 -10 10
-2 0 -7 -4 -10 -10z"/>
<path d="M12590 8750 c0 -5 5 -10 10 -10 6 0 10 5 10 10 0 6 -4 10 -10 10 -5
0 -10 -4 -10 -10z"/>
<path d="M12628 8718 c9 -9 15 -9 24 0 9 9 7 12 -12 12 -19 0 -21 -3 -12 -12z"/>
<path d="M12685 8551 c-10 -18 17 -23 33 -7 15 15 15 16 -5 16 -12 0 -24 -4
-28 -9z"/>
<path d="M12680 8510 c0 -5 6 -10 14 -10 8 0 18 5 21 10 3 6 -3 10 -14 10 -12
0 -21 -4 -21 -10z"/>
<path d="M12655 8450 c-3 -5 1 -10 9 -10 9 0 16 5 16 10 0 6 -4 10 -9 10 -6 0
-13 -4 -16 -10z"/>
<path d="M12690 8260 c0 -5 9 -10 21 -10 11 0 17 5 14 10 -3 6 -13 10 -21 10
-8 0 -14 -4 -14 -10z"/>
<path d="M12590 8195 c0 -8 6 -15 13 -15 6 0 22 -3 35 -6 13 -4 22 -2 22 5 0
6 -7 11 -15 11 -8 0 -15 5 -15 10 0 6 -9 10 -20 10 -11 0 -20 -7 -20 -15z"/>
<path d="M12654 8149 c-6 -10 6 -15 40 -14 16 0 31 5 33 11 4 11 -66 14 -73 3z"/>
<path d="M12610 8080 c0 -5 6 -10 13 -10 6 -1 2 -6 -10 -13 -19 -11 -15 -12
33 -13 30 0 54 4 54 9 0 5 -6 7 -13 4 -8 -3 -20 3 -28 14 -14 20 -49 26 -49 9z"/>
<path d="M12645 7970 c3 -5 11 -10 16 -10 6 0 7 5 4 10 -3 6 -11 10 -16 10 -6
0 -7 -4 -4 -10z"/>
<path d="M12630 7930 c0 -5 10 -10 23 -10 18 0 19 2 7 10 -19 13 -30 13 -30 0z"/>
<path d="M12483 7878 c2 -7 10 -13 17 -13 7 0 15 6 18 13 2 7 -5 12 -18 12
-13 0 -20 -5 -17 -12z"/>
<path d="M12435 7830 c-3 -5 -1 -10 4 -10 6 0 11 5 11 10 0 6 -2 10 -4 10 -3
0 -8 -4 -11 -10z"/>
<path d="M12590 7820 c0 -5 7 -7 15 -4 8 4 15 8 15 10 0 2 -7 4 -15 4 -8 0
-15 -4 -15 -10z"/>
<path d="M12650 5790 c0 -5 7 -10 15 -10 8 0 15 5 15 10 0 6 -7 10 -15 10 -8
0 -15 -4 -15 -10z"/>
<path d="M12642 4999 c2 -6 8 -10 13 -10 5 0 11 4 13 10 2 6 -4 11 -13 11 -9
0 -15 -5 -13 -11z"/>
<path d="M12525 4990 c-3 -5 3 -10 14 -10 11 0 23 5 26 10 3 6 -3 10 -14 10
-11 0 -23 -4 -26 -10z"/>
<path d="M12406 4983 c-11 -11 -6 -23 9 -23 8 0 15 4 15 9 0 13 -16 22 -24 14z"/>
<path d="M12467 4887 c-10 -27 -10 -27 21 -26 15 1 20 3 10 6 -9 2 -18 12 -20
21 -3 15 -4 15 -11 -1z"/>
<path d="M12620 4880 c-8 -5 -31 -10 -50 -10 -32 0 -33 -1 -17 -17 14 -15 21
-15 37 -6 11 8 21 9 25 3 3 -5 13 -6 21 -3 12 5 13 7 3 14 -10 6 -7 11 11 18
21 8 22 10 5 10 -11 0 -27 -4 -35 -9z"/>
<path d="M12596 4814 c-7 -18 0 -34 16 -34 5 0 8 7 4 15 -3 8 -1 15 4 15 6 0
10 5 10 10 0 16 -27 11 -34 -6z"/>
<path d="M12608 4763 c7 -3 16 -2 19 1 4 3 -2 6 -13 5 -11 0 -14 -3 -6 -6z"/>
<path d="M12608 4678 c9 -9 15 -9 24 0 9 9 7 12 -12 12 -19 0 -21 -3 -12 -12z"/>
<path d="M12670 4590 c0 -5 7 -10 15 -10 8 0 15 5 15 10 0 6 -7 10 -15 10 -8
0 -15 -4 -15 -10z"/>
<path d="M12675 4479 c-10 -15 3 -25 16 -12 7 7 7 13 1 17 -6 3 -14 1 -17 -5z"/>
<path d="M12654 4428 c-3 -5 2 -18 12 -29 17 -19 19 -19 31 -3 7 10 13 21 13
25 0 11 -50 17 -56 7z"/>
<path d="M12650 4210 c0 -5 9 -10 20 -10 11 0 20 5 20 10 0 6 -9 10 -20 10
-11 0 -20 -4 -20 -10z"/>
<path d="M12660 4175 c0 -8 9 -15 20 -15 24 0 27 15 4 24 -22 9 -24 8 -24 -9z"/>
<path d="M12610 3760 c0 -5 7 -10 15 -10 8 0 15 5 15 10 0 6 -7 10 -15 10 -8
0 -15 -4 -15 -10z"/>
<path d="M12600 3330 c0 -5 11 -10 25 -10 14 0 25 5 25 10 0 6 -11 10 -25 10
-14 0 -25 -4 -25 -10z"/>
<path d="M12625 3270 c3 -5 10 -10 16 -10 5 0 9 5 9 10 0 6 -7 10 -16 10 -8 0
-12 -4 -9 -10z"/>
<path d="M12642 3075 c-37 -20 -7 -29 34 -10 18 9 34 18 34 20 0 10 -46 3 -68
-10z"/>
<path d="M654 3069 c-4 -7 -2 -15 4 -17 7 -2 10 -8 6 -13 -3 -5 0 -9 5 -9 6 0
11 4 11 9 0 5 10 11 23 13 12 2 22 8 22 13 0 15 -62 18 -71 4z"/>
<path d="M694 3015 c-18 -14 -18 -14 7 -15 16 0 26 5 26 15 0 19 -8 19 -33 0z"/>
<path d="M12595 3000 c3 -5 11 -10 16 -10 6 0 7 5 4 10 -3 6 -11 10 -16 10 -6
0 -7 -4 -4 -10z"/>
<path d="M12540 2870 c0 -5 12 -10 26 -10 14 0 23 4 19 10 -3 6 -15 10 -26 10
-10 0 -19 -4 -19 -10z"/>
<path d="M12595 2820 c-3 -6 1 -7 9 -4 18 7 21 14 7 14 -6 0 -13 -4 -16 -10z"/>
<path d="M12550 2810 c0 -5 5 -10 10 -10 6 0 10 5 10 10 0 6 -4 10 -10 10 -5
0 -10 -4 -10 -10z"/>
<path d="M12605 2790 c3 -5 8 -10 11 -10 2 0 4 5 4 10 0 6 -5 10 -11 10 -5 0
-7 -4 -4 -10z"/>
<path d="M12566 2681 c-46 -6 -47 -7 -30 -22 26 -21 97 -24 114 -4 10 12 10
15 -2 15 -8 0 -19 -5 -25 -11 -8 -8 -13 -8 -17 0 -4 6 0 11 8 11 9 0 16 5 16
10 0 6 -3 9 -7 8 -5 0 -30 -4 -57 -7z"/>
<path d="M12435 2620 c3 -5 8 -10 11 -10 2 0 4 5 4 10 0 6 -5 10 -11 10 -5 0
-7 -4 -4 -10z"/>
<path d="M12522 2548 c6 -18 25 -20 31 -3 5 10 0 15 -14 15 -12 0 -19 -5 -17
-12z"/>
<path d="M12616 2531 c-4 -6 -22 -11 -39 -11 -42 0 -47 -31 -10 -55 21 -14 30
-15 54 -5 34 14 37 26 9 35 -11 3 -20 10 -20 15 0 17 19 21 39 8 17 -11 42 -6
30 6 -11 12 -58 16 -63 7z"/>
<path d="M12506 2302 c-3 -6 1 -12 9 -16 21 -8 19 -23 -5 -29 -24 -6 -27 -27
-4 -27 8 0 12 5 9 10 -3 6 1 10 9 10 9 0 16 5 16 10 0 6 11 10 25 10 31 0 33
16 3 23 -13 2 -30 8 -39 11 -10 4 -20 3 -23 -2z"/>
<path d="M12130 2270 c-11 -7 -8 -11 14 -20 35 -13 39 -10 17 12 -11 11 -21
14 -31 8z"/>
<path d="M12556 2221 c-3 -4 6 -6 19 -3 14 2 25 6 25 8 0 8 -39 4 -44 -5z"/>
<path d="M4930 1500 c0 -5 5 -10 10 -10 6 0 10 5 10 10 0 6 -4 10 -10 10 -5 0
-10 -4 -10 -10z"/>
<path d="M5070 1290 c0 -5 5 -10 10 -10 6 0 10 5 10 10 0 6 -4 10 -10 10 -5 0
-10 -4 -10 -10z"/>
<path d="M640 800 c28 -22 40 -25 40 -10 0 11 -33 30 -52 30 -7 0 -2 -9 12
-20z"/>
<path d="M640 750 c0 -5 7 -10 15 -10 8 0 15 5 15 10 0 6 -7 10 -15 10 -8 0
-15 -4 -15 -10z"/>
<path d="M7750 530 c0 -5 7 -10 16 -10 8 0 12 5 9 10 -3 6 -10 10 -16 10 -5 0
-9 -4 -9 -10z"/>
<path d="M3960 500 c0 -5 7 -10 15 -10 8 0 15 5 15 10 0 6 -7 10 -15 10 -8 0
-15 -4 -15 -10z"/>
<path d="M6929 490 c13 -11 31 -20 40 -20 12 1 11 5 -8 20 -13 11 -31 20 -40
20 -12 -1 -11 -5 8 -20z"/>
<path d="M3753 485 c-3 -9 -3 -18 0 -21 9 -9 27 6 27 22 0 19 -19 18 -27 -1z"/>
<path d="M7995 480 c-3 -5 1 -10 9 -10 9 0 16 5 16 10 0 6 -4 10 -9 10 -6 0
-13 -4 -16 -10z"/>
<path d="M4208 473 c6 -2 18 -2 25 0 6 3 1 5 -13 5 -14 0 -19 -2 -12 -5z"/>
<path d="M11402 463 c-6 -2 -10 -9 -6 -14 8 -14 21 -11 28 6 6 15 1 17 -22 8z"/>
<path d="M2970 449 c0 -5 5 -7 10 -4 6 3 10 8 10 11 0 2 -4 4 -10 4 -5 0 -10
-5 -10 -11z"/>
<path d="M3101 449 c18 -11 52 -11 45 0 -3 5 -17 9 -32 9 -18 0 -22 -3 -13 -9z"/>
<path d="M8300 445 c0 -8 5 -15 10 -15 6 0 10 7 10 15 0 8 -4 15 -10 15 -5 0
-10 -7 -10 -15z"/>
<path d="M8910 450 c0 -5 7 -10 15 -10 8 0 15 5 15 10 0 6 -7 10 -15 10 -8 0
-15 -4 -15 -10z"/>
<path d="M2110 440 c-12 -8 -11 -10 7 -10 12 0 23 -6 26 -12 2 -7 8 -10 12 -6
11 10 -2 38 -17 38 -7 0 -20 -5 -28 -10z"/>
<path d="M2390 435 c7 -9 15 -13 17 -11 7 7 -7 26 -19 26 -6 0 -6 -6 2 -15z"/>
<path d="M2596 435 c4 -8 12 -15 20 -15 20 0 17 7 -6 20 -16 9 -18 8 -14 -5z"/>
<path d="M2750 436 c0 -8 7 -17 16 -20 30 -11 37 -6 19 14 -21 23 -35 26 -35
6z"/>
<path d="M2693 433 c9 -2 23 -2 30 0 6 3 -1 5 -18 5 -16 0 -22 -2 -12 -5z"/>
<path d="M10020 430 c0 -5 5 -10 11 -10 5 0 7 5 4 10 -3 6 -8 10 -11 10 -2 0
-4 -4 -4 -10z"/>
<path d="M1083 423 c9 -2 23 -2 30 0 6 3 -1 5 -18 5 -16 0 -22 -2 -12 -5z"/>
<path d="M1498 423 c7 -3 16 -2 19 1 4 3 -2 6 -13 5 -11 0 -14 -3 -6 -6z"/>
<path d="M1935 420 c-3 -5 1 -10 9 -10 9 0 16 5 16 10 0 6 -4 10 -9 10 -6 0
-13 -4 -16 -10z"/>
<path d="M1370 410 c-13 -8 -12 -10 3 -10 9 0 17 5 17 10 0 12 -1 12 -20 0z"/>
<path d="M2218 413 c12 -2 32 -2 45 0 12 2 2 4 -23 4 -25 0 -35 -2 -22 -4z"/>
<path d="M2485 410 c-3 -5 -1 -10 4 -10 6 0 11 5 11 10 0 6 -2 10 -4 10 -3 0
-8 -4 -11 -10z"/>
<path d="M2857 405 c-4 -8 -2 -17 3 -20 12 -7 50 12 50 25 0 16 -47 11 -53 -5z"/>
<path d="M2040 383 c-8 -3 -21 -6 -28 -9 -19 -6 23 -44 57 -50 16 -3 31 -2 35
4 7 11 -21 25 -34 17 -5 -3 -12 0 -16 6 -3 6 -1 15 6 19 15 9 0 19 -20 13z"/>
<path d="M2125 380 c-23 -6 -25 -8 -8 -9 12 0 24 -7 27 -13 5 -10 7 -10 12 0
8 18 71 15 78 -4 5 -14 7 -14 22 1 9 9 15 17 13 19 -10 9 -117 13 -144 6z"/>
<path d="M1455 359 c-9 -26 12 -41 37 -28 21 11 23 20 6 37 -18 18 -36 14 -43
-9z"/>
<path d="M1770 365 c6 -8 9 -19 5 -24 -3 -7 0 -8 9 -5 19 7 20 16 4 32 -17 17
-33 15 -18 -3z"/>
<path d="M1238 363 c7 -3 16 -2 19 1 4 3 -2 6 -13 5 -11 0 -14 -3 -6 -6z"/>
<path d="M1555 361 c-7 -12 12 -24 25 -16 11 7 4 25 -10 25 -5 0 -11 -4 -15
-9z"/>
<path d="M1830 345 c12 -15 30 -12 30 6 0 5 -10 9 -21 9 -18 0 -19 -2 -9 -15z"/>
<path d="M2366 352 c-3 -6 -2 -13 4 -17 6 -4 8 -11 5 -16 -4 -5 1 -9 9 -9 20
0 20 10 3 35 -9 11 -16 14 -21 7z"/>
<path d="M1932 328 c-15 -15 3 -38 29 -38 22 0 23 4 9 31 -12 22 -21 24 -38 7z"/>
<path d="M2280 331 c0 -5 -3 -16 -6 -25 -4 -10 -1 -16 9 -16 14 0 27 20 27 41
0 5 -7 9 -15 9 -8 0 -15 -4 -15 -9z"/>
<path d="M1666 311 c-20 -22 -13 -44 12 -39 11 2 17 13 17 31 1 32 -6 34 -29
8z"/>
<path d="M2155 311 c-3 -6 4 -15 15 -21 16 -8 20 -8 20 4 0 8 6 17 13 19 6 3
0 6 -15 6 -15 1 -29 -3 -33 -8z"/>
<path d="M1563 303 c-18 -7 -16 -23 3 -23 9 0 27 -9 41 -20 37 -29 42 -15 8
20 -30 31 -32 32 -52 23z"/>
<path d="M2010 300 c-12 -8 -10 -10 8 -10 13 0 20 4 17 10 -7 12 -6 12 -25 0z"/>
<path d="M1503 272 c0 -20 7 -31 25 -40 21 -10 23 -9 17 6 -4 9 -8 24 -8 32 0
14 -15 29 -28 30 -3 0 -6 -13 -6 -28z"/>
<path d="M1748 280 c18 -11 40 -20 50 -20 10 1 3 8 -18 20 -47 25 -74 25 -32
0z"/>
<path d="M2092 271 c32 -26 51 -27 46 -3 -2 11 -14 18 -38 20 l-35 4 27 -21z"/>
<path d="M1828 263 c7 -3 16 -2 19 1 4 3 -2 6 -13 5 -11 0 -14 -3 -6 -6z"/>
<path d="M2008 263 c7 -3 16 -2 19 1 4 3 -2 6 -13 5 -11 0 -14 -3 -6 -6z"/>
<path d="M2296 255 c-4 -12 -1 -16 11 -13 18 3 21 20 5 26 -5 1 -12 -4 -16
-13z"/>
<path d="M2040 225 c7 -8 17 -15 22 -15 5 0 3 7 -6 15 -8 8 -18 15 -22 15 -3
0 -1 -7 6 -15z"/>
<path d="M2175 219 c-13 -38 50 -65 81 -34 14 13 14 15 0 15 -8 0 -18 -4 -21
-10 -9 -14 -26 -12 -24 3 6 46 -23 68 -36 26z"/>
<path d="M1745 208 c10 -32 13 -34 33 -22 26 17 20 39 -11 42 -26 3 -28 1 -22
-20z"/>
<path d="M1920 220 c-9 -6 -10 -10 -3 -10 6 0 15 5 18 10 8 12 4 12 -15 0z"/>
<path d="M1986 203 c-3 -3 -3 -10 0 -14 7 -12 34 -11 34 0 0 11 -26 22 -34 14z"/>
<path d="M12583 10433 c9 -2 23 -2 30 0 6 3 -1 5 -18 5 -16 0 -22 -2 -12 -5z"/>
</g>
</svg>
