<?xml version="1.0" standalone="no"?>
<!DOCTYPE svg PUBLIC "-//W3C//DTD SVG 20010904//EN"
 "http://www.w3.org/TR/2001/REC-SVG-20010904/DTD/svg10.dtd">
<svg version="1.0" xmlns="http://www.w3.org/2000/svg"
 width="1280.000000pt" height="1280.000000pt" viewBox="0 0 1280.000000 1280.000000"
 preserveAspectRatio="xMidYMid meet">

<g transform="translate(0.000000,1280.000000) scale(0.100000,-0.100000)"
fill="#000000" stroke="none">
<path d="M0 6400 l0 -6400 6400 0 6400 0 0 6400 0 6400 -6400 0 -6400 0 0
-6400z m1963 6365 c-4 -15 -36 -12 -41 3 -3 9 3 13 19 10 13 -1 23 -7 22 -13z
m222 0 c0 -5 -20 -12 -44 -15 -41 -5 -42 -6 -25 -21 38 -33 54 -31 96 11 23
22 42 40 44 40 18 0 34 -17 34 -36 0 -31 39 -33 58 -4 18 29 82 24 82 -6 0
-21 9 -17 40 16 34 37 48 38 60 5 9 -24 40 -36 40 -15 0 18 48 22 72 6 12 -9
37 -16 54 -16 17 0 45 -7 60 -15 42 -21 63 -19 74 10 5 14 16 25 25 25 17 0
20 -25 4 -36 -16 -10 5 -26 24 -18 9 3 15 10 12 14 -3 4 2 14 11 21 12 10 20
10 35 1 22 -14 49 -16 49 -3 0 15 238 3 264 -14 16 -11 35 -14 63 -9 24 4 49
1 62 -5 17 -10 26 -9 43 4 29 20 89 19 125 -2 36 -20 78 -12 86 17 8 30 51 27
65 -5 7 -15 20 -25 34 -26 96 -4 190 0 201 9 13 11 53 6 73 -10 7 -5 23 -4 38
2 34 13 93 13 101 1 3 -6 18 -6 37 0 34 9 58 -2 58 -27 0 -8 7 -14 16 -14 11
0 14 6 9 20 -5 17 -2 20 23 20 16 0 41 9 55 20 28 22 60 29 39 8 -29 -29 -2
-37 55 -16 27 10 39 9 69 -5 33 -16 38 -17 54 -2 12 11 26 14 44 9 16 -4 42 0
67 10 37 15 44 15 65 1 13 -8 32 -15 43 -15 25 0 37 -18 17 -26 -9 -3 -16 -12
-16 -20 0 -27 33 -13 72 31 60 68 169 89 154 29 l-6 -24 112 6 c141 7 135 7
181 -1 25 -5 37 -4 37 4 0 6 -11 11 -25 11 -16 0 -25 6 -25 15 0 18 50 21 68
3 9 -9 20 -9 48 1 45 16 67 2 41 -27 -21 -23 -21 -32 -3 -32 7 0 19 -6 25 -14
6 -8 26 -16 44 -18 18 -3 39 -7 47 -9 11 -3 15 4 15 28 0 39 21 65 31 40 8
-21 44 -22 44 -2 0 25 44 40 78 26 17 -7 44 -10 65 -6 30 6 38 3 52 -18 21
-33 49 -39 64 -16 15 25 46 24 64 -2 13 -18 18 -19 37 -9 40 21 75 27 100 18
l25 -9 -24 -20 c-34 -28 -14 -48 32 -32 17 7 61 15 97 19 36 3 72 10 80 14 17
10 103 -21 131 -46 15 -14 21 -14 34 -4 8 7 15 19 15 26 0 21 38 17 50 -6 15
-27 37 -25 44 5 7 29 49 44 71 25 9 -7 27 -10 45 -6 27 5 29 4 21 -13 -13 -23
-53 -34 -95 -26 l-31 6 32 -21 33 -22 32 20 c40 25 123 39 132 23 13 -20 36
-12 33 11 -1 14 4 23 16 26 10 2 17 -3 17 -12 0 -9 12 -23 26 -33 22 -14 29
-14 46 -4 11 7 42 18 69 25 40 11 51 10 73 -3 21 -13 30 -13 46 -3 28 17 107
15 161 -4 42 -16 48 -15 81 0 27 13 41 15 56 7 11 -6 22 -8 24 -5 11 10 105
12 140 2 32 -9 41 -8 56 5 22 20 74 22 105 5 33 -18 128 -28 149 -17 13 7 23
7 32 -1 10 -8 26 -7 61 2 42 11 48 11 56 -5 12 -21 42 -22 59 -2 16 19 32 19
69 -2 29 -17 32 -17 61 0 20 12 40 16 59 12 17 -3 32 -2 36 4 9 16 42 13 48
-3 3 -9 15 -12 31 -9 19 4 26 1 26 -11 0 -21 6 -20 41 5 25 17 38 20 77 14 26
-3 67 -6 91 -6 25 0 51 -4 58 -10 9 -8 21 -6 44 5 24 12 35 13 46 5 10 -9 23
-8 52 6 26 11 46 14 62 9 13 -5 65 -9 114 -11 50 -1 99 -3 110 -3 11 0 34 2
52 6 23 4 45 0 78 -16 25 -12 49 -20 52 -16 4 3 1 6 -5 6 -7 0 -12 7 -12 15 0
12 12 14 62 11 35 -2 70 0 79 5 11 6 21 4 29 -6 9 -11 17 -12 32 -4 15 8 27 8
44 -1 19 -10 26 -10 38 -1 9 8 27 10 46 6 22 -5 37 -1 56 14 15 12 36 21 48
21 23 -1 56 -22 56 -36 0 -5 4 -15 9 -23 9 -14 22 -11 124 25 51 19 116 18
123 -1 4 -9 19 -15 36 -15 16 0 39 -5 50 -11 17 -9 23 -8 30 5 7 13 13 14 29
6 11 -6 30 -8 42 -4 12 5 26 7 31 5 5 -1 23 3 39 10 26 11 31 10 43 -5 10 -14
17 -15 32 -7 12 6 28 8 36 5 9 -3 16 -2 16 4 0 5 25 12 56 16 50 6 59 4 86
-19 31 -26 59 -23 72 10 9 23 78 19 111 -7 22 -17 31 -19 44 -9 38 28 76 39
95 29 13 -7 26 -7 43 1 35 16 45 14 38 -9 -8 -25 13 -27 56 -4 28 14 33 14 55
-1 23 -15 28 -15 70 1 24 9 45 21 45 25 1 5 3 14 4 19 1 6 3 15 4 20 2 19 74
11 96 -10 13 -12 29 -18 38 -14 21 8 22 20 2 28 -24 9 -17 26 9 26 14 0 28 5
31 10 3 6 15 10 26 10 10 0 28 6 39 12 29 18 45 -3 43 -57 -1 -43 0 -45 26
-45 16 0 40 -9 54 -20 34 -27 41 -25 33 10 -8 41 11 47 58 19 24 -14 35 -27
32 -36 -5 -12 0 -13 27 -8 17 4 40 14 50 23 15 13 21 13 45 2 15 -8 47 -15 72
-16 25 -2 56 -4 69 -6 13 -2 26 3 28 10 3 7 -4 12 -16 12 -28 0 -35 17 -12 29
25 14 61 14 61 1 0 -34 16 -50 51 -50 19 0 29 -5 29 -15 0 -23 34 -18 45 8 13
29 61 36 69 10 3 -10 3 -52 0 -93 -3 -41 -7 -172 -9 -290 -2 -191 -6 -305 -20
-635 -5 -113 -21 -163 -61 -190 -26 -17 -30 -25 -22 -39 8 -13 5 -23 -12 -41
l-22 -23 21 -11 c12 -7 21 -18 21 -27 0 -8 11 -20 25 -26 31 -14 39 -42 31
-105 -3 -27 -5 -57 -5 -68 4 -89 -3 -379 -10 -398 -6 -14 -5 -30 1 -42 7 -11
8 -66 4 -154 -4 -75 -9 -190 -12 -256 -3 -66 -7 -167 -9 -225 -3 -58 -7 -179
-10 -270 -9 -300 -15 -513 -19 -667 -2 -83 -6 -156 -10 -161 -3 -5 -8 -173
-12 -373 -3 -200 -7 -382 -10 -404 -7 -71 -8 -79 -6 -117 2 -42 26 -53 37 -18
9 28 21 25 34 -10 8 -25 15 -30 44 -30 36 0 62 -20 54 -42 -2 -7 -1 -20 4 -29
7 -14 10 -59 8 -129 -1 -70 14 -511 21 -612 9 -118 10 -193 8 -668 -2 -319 13
-1561 18 -1625 3 -27 10 -67 16 -87 8 -26 8 -41 1 -50 -11 -13 -28 -77 -25
-90 4 -16 13 -216 11 -243 -2 -32 -2 -89 1 -145 1 -19 2 -104 1 -188 -1 -153
-10 -199 -45 -225 -8 -6 -7 -10 2 -14 14 -5 17 -33 3 -33 -5 0 -16 -18 -25
-39 -8 -22 -25 -45 -36 -51 -11 -6 -20 -18 -20 -28 0 -9 -14 -25 -30 -34 -35
-20 -39 -38 -10 -45 25 -7 25 -15 0 -31 -33 -20 -25 -49 14 -56 19 -4 39 -13
46 -21 7 -8 21 -15 32 -15 27 0 32 -24 15 -78 -27 -86 -29 -102 -12 -102 10 0
15 -10 15 -29 0 -17 4 -32 9 -35 5 -3 7 -15 4 -26 -3 -10 2 -26 11 -35 18 -19
21 -66 5 -82 -16 -16 -17 -132 -1 -154 7 -10 14 -62 17 -121 3 -57 7 -125 9
-153 3 -27 7 -152 10 -277 3 -132 9 -236 16 -247 7 -15 7 -34 -1 -67 -10 -37
-9 -71 1 -158 16 -128 20 -280 8 -314 -15 -43 -9 -239 12 -387 5 -38 12 -97
14 -130 3 -33 7 -79 10 -101 3 -23 7 -85 10 -139 3 -54 8 -100 11 -103 9 -9
-17 -32 -37 -32 -26 0 -18 -24 9 -28 26 -4 37 -67 16 -97 -7 -11 -13 -27 -13
-36 0 -25 -39 -69 -60 -69 -13 0 -17 -5 -14 -14 6 -15 -1 -23 -56 -61 -19 -13
-45 -32 -57 -40 -12 -9 -40 -18 -63 -19 -41 -3 -70 -19 -57 -32 4 -4 14 -1 22
6 22 19 44 -3 25 -25 -11 -13 -52 -15 -314 -13 -171 1 -306 6 -313 11 -9 6
-24 5 -44 -3 -29 -12 -32 -11 -55 16 -14 17 -24 23 -23 14 1 -8 1 -20 0 -25
-2 -14 -225 -19 -250 -5 -15 8 -26 7 -40 -2 -22 -14 -31 -9 -35 19 -2 10 -13
19 -27 21 -19 3 -22 1 -11 -9 18 -19 15 -39 -8 -39 -19 0 -24 10 -21 38 3 21
-36 14 -42 -8 -3 -14 -14 -20 -31 -20 -23 0 -26 3 -20 26 6 22 4 25 -12 22
-12 -2 -18 -11 -17 -25 2 -20 -2 -22 -84 -25 -73 -3 -88 0 -97 14 -6 10 -15
18 -21 18 -5 0 -19 13 -29 27 -19 26 -19 27 2 41 24 16 28 32 11 49 -13 13
-49 -18 -49 -42 0 -9 -9 -15 -25 -15 -23 0 -24 2 -13 20 11 17 10 22 -2 30
-23 15 -30 12 -40 -14 -7 -18 -19 -25 -54 -30 -30 -5 -46 -12 -46 -22 0 -20
79 -20 86 1 8 20 34 18 60 -3 20 -17 44 -53 44 -67 0 -3 -49 -4 -110 -2 -60 1
-113 0 -117 -3 -5 -3 -84 -4 -176 -2 -156 3 -169 5 -176 23 -7 20 -7 20 -33 0
-32 -26 -48 -27 -48 -3 0 24 -35 56 -50 47 -6 -4 -10 -19 -8 -33 3 -24 -1 -27
-31 -30 -45 -5 -63 14 -28 27 28 11 34 25 16 37 -12 7 -43 -7 -98 -43 -32 -22
-80 -30 -94 -17 -7 7 35 44 50 44 6 0 23 13 39 29 22 23 35 28 57 24 20 -4 27
-2 27 10 0 8 -9 17 -20 20 -26 7 -26 27 -1 27 25 0 34 14 26 40 -14 43 -73 10
-67 -36 4 -25 -2 -26 -103 -9 -37 6 -42 5 -53 -19 -12 -27 -45 -35 -57 -15
-10 15 49 71 68 63 9 -3 25 0 37 6 16 9 25 9 35 0 16 -13 35 -5 35 14 0 7 -13
22 -29 34 -29 21 -29 21 -46 1 -22 -23 -44 -24 -60 -3 -10 15 -14 14 -41 -10
-16 -14 -23 -26 -16 -27 6 -1 16 -2 21 -3 5 0 13 -5 18 -10 5 -5 -5 -6 -22 -3
-17 3 -37 0 -47 -7 -18 -13 -145 -15 -166 -2 -17 10 -15 24 6 31 9 3 26 17 36
32 17 23 18 26 2 35 -9 5 -16 18 -16 28 0 27 -26 26 -33 -1 -5 -17 -9 -19 -26
-10 -11 6 -28 11 -37 11 -10 0 -28 9 -40 21 -20 19 -23 19 -38 4 -9 -9 -16
-26 -16 -37 0 -16 5 -19 24 -14 34 8 42 -11 16 -39 l-21 -23 22 -16 c13 -9 29
-16 36 -16 7 0 13 -7 13 -15 0 -17 -14 -19 -40 -5 -13 7 -27 6 -44 -1 -20 -9
-29 -9 -41 1 -12 10 -18 10 -30 0 -18 -15 -45 -6 -45 14 0 7 7 16 15 20 8 3
15 15 15 27 0 19 4 21 30 15 l31 -6 -18 30 c-17 30 -17 30 15 63 38 39 41 64
8 73 -33 8 -44 -1 -39 -30 5 -24 4 -24 -63 -22 -97 2 -184 -31 -184 -71 0 -18
15 -17 30 2 9 11 16 13 24 5 15 -15 46 -12 46 5 0 19 46 30 79 19 26 -9 44
-54 22 -54 -6 0 -21 -11 -33 -25 -27 -31 -62 -34 -53 -5 12 36 -57 21 -74 -17
-10 -22 -16 -24 -42 -19 -40 8 -59 -4 -94 -56 -36 -53 -53 -68 -71 -61 -19 7
-18 42 1 49 40 16 -7 54 -66 54 -37 0 -69 16 -69 34 0 7 9 21 20 31 20 18 21
18 34 0 25 -35 59 -2 36 35 -7 12 -12 12 -22 2 -6 -6 -34 -12 -60 -12 -54 0
-68 -11 -122 -89 -23 -34 -33 -42 -55 -39 -22 3 -26 8 -26 34 0 31 -19 64 -37
64 -17 0 -20 -30 -4 -61 11 -23 13 -36 5 -50 -11 -22 -28 -24 -64 -7 -29 13
-31 29 -9 63 8 13 14 36 12 52 -2 21 2 28 17 31 25 5 55 31 55 49 0 19 -16 16
-72 -14 -41 -22 -52 -25 -66 -15 -9 7 -32 19 -49 27 -18 9 -33 20 -33 25 0 6
-6 10 -14 10 -30 0 -27 -22 5 -51 27 -24 31 -33 23 -47 -19 -30 -47 -21 -56
18 -13 54 -13 54 -21 68 -14 22 2 52 28 52 13 0 27 -4 30 -10 9 -15 22 -12 29
7 3 10 11 26 18 35 10 14 10 20 -3 33 -13 14 -18 12 -49 -20 -35 -34 -60 -45
-60 -24 0 6 7 17 15 25 21 21 19 34 -4 34 -11 0 -23 5 -26 10 -3 6 0 10 7 10
22 1 62 36 50 44 -14 8 -58 -14 -90 -44 -21 -20 -22 -23 -8 -39 9 -10 13 -21
9 -24 -3 -4 -1 -18 6 -31 10 -18 10 -28 1 -46 -10 -18 -9 -24 1 -31 8 -5 17
-9 22 -9 4 0 7 -7 7 -16 0 -13 -7 -15 -34 -10 -27 5 -40 2 -64 -19 -16 -14
-38 -25 -48 -25 -9 0 -26 -7 -36 -17 -30 -27 -32 -7 -2 32 20 26 24 39 16 47
-17 17 -68 -9 -80 -40 -23 -60 -24 -71 -3 -84 34 -21 25 -34 -43 -63 -60 -26
-65 -26 -94 -11 -17 9 -37 16 -45 16 -7 0 -22 6 -32 14 -16 11 -17 16 -6 29 9
11 10 21 2 35 -12 23 -5 32 26 32 19 0 23 -5 23 -28 0 -36 49 -69 80 -52 24
13 27 40 5 40 -9 0 -18 7 -21 15 -8 20 13 45 37 45 9 0 28 14 40 32 13 17 18
28 11 24 -8 -5 -12 3 -12 28 0 32 3 36 25 36 31 0 43 26 22 47 -20 20 -68 5
-117 -37 l-35 -30 27 -21 c24 -18 26 -23 16 -42 -6 -12 -18 -27 -27 -34 -39
-30 -76 0 -40 33 28 26 24 46 -8 42 -23 -2 -28 -7 -25 -28 3 -26 -21 -52 -42
-44 -7 3 -23 -7 -36 -21 -32 -35 -60 -33 -60 3 0 15 -5 33 -12 40 -20 20 14
24 56 7 36 -15 38 -15 55 6 10 13 16 31 13 41 -5 22 -10 22 -34 1 -16 -14 -23
-15 -38 -5 -11 7 -29 12 -40 12 -11 0 -23 7 -26 15 -9 22 -18 19 -38 -16 -18
-30 -18 -31 2 -52 14 -16 18 -32 15 -59 -4 -30 -2 -37 16 -43 12 -3 26 -15 31
-26 6 -10 21 -19 33 -19 28 0 47 -18 47 -43 0 -16 5 -19 30 -14 39 8 60 0 60
-24 0 -14 -7 -19 -29 -19 -17 0 -33 5 -36 10 -4 7 -23 8 -49 5 -38 -6 -44 -4
-73 28 -18 20 -41 38 -51 41 -11 4 -30 26 -42 49 -22 41 -22 43 -6 82 16 38
16 40 -5 56 -12 9 -19 21 -15 27 10 16 -13 25 -29 12 -19 -16 -19 -40 0 -40
19 0 20 -36 0 -44 -8 -3 -19 2 -24 12 -10 17 -23 11 -27 -12 -1 -7 -5 -23 -9
-35 -7 -23 8 -28 34 -12 17 11 41 3 41 -13 0 -16 -123 -116 -143 -116 -9 0
-22 8 -29 18 -7 11 -24 25 -37 32 l-25 13 23 18 c13 11 36 19 52 19 32 0 39
19 14 40 -19 16 -19 29 2 52 15 17 15 21 0 53 -17 35 -31 42 -56 26 -10 -7
-12 -21 -8 -56 6 -43 5 -49 -23 -73 -17 -15 -30 -36 -30 -50 0 -19 -5 -23 -22
-20 -22 3 -25 13 -17 48 5 20 -34 24 -87 9 -56 -17 -51 -34 9 -34 56 0 66 -9
41 -36 -19 -21 -19 -21 5 -40 23 -19 23 -20 6 -39 -10 -11 -28 -20 -40 -20
-47 0 -62 53 -20 72 19 9 22 14 14 24 -8 10 -16 11 -29 4 -10 -6 -46 -10 -79
-10 -60 0 -62 -1 -112 -51 l-51 -51 -84 5 c-46 2 -86 6 -88 8 -2 2 -11 19 -20
37 -14 27 -22 33 -44 30 -24 -3 -27 -7 -24 -35 1 -18 -1 -33 -5 -34 -5 0 -25
-1 -46 -3 -25 -2 -46 3 -62 16 -28 22 -41 23 -49 3 -4 -12 -25 -15 -98 -15
-51 0 -99 4 -106 9 -7 4 -12 21 -10 37 2 23 -1 29 -17 29 -16 0 -20 -7 -20
-35 l0 -35 -130 0 c-71 0 -138 3 -147 8 -28 12 -21 35 15 54 30 17 31 18 9 21
-13 2 -37 -2 -53 -8 -23 -10 -29 -19 -29 -42 0 -37 -16 -42 -73 -23 -42 14
-49 14 -70 0 -19 -12 -31 -13 -51 -6 -14 6 -26 15 -26 21 0 5 -9 10 -20 10
-11 0 -20 -6 -20 -14 0 -18 -27 -28 -52 -20 -16 5 -17 8 -7 21 10 12 10 16 -2
24 -20 13 -21 12 -53 -22 -27 -29 -33 -30 -70 -23 -23 5 -105 9 -182 9 -102 0
-149 4 -168 15 -24 12 -30 12 -57 -4 -35 -21 -59 -15 -59 14 0 24 -40 46 -66
36 -15 -6 -16 -8 0 -24 29 -33 19 -40 -50 -38 -52 2 -69 6 -80 21 -20 27 -17
53 6 60 11 3 20 11 20 17 0 19 -32 48 -52 48 -21 0 -22 -4 -6 -30 17 -27 4
-35 -60 -35 -44 0 -57 -3 -57 -15 0 -8 11 -17 25 -18 30 -5 52 -21 44 -33 -8
-14 -211 -11 -234 3 -15 10 -22 10 -32 0 -6 -6 -25 -12 -40 -12 -26 0 -33 8
-29 38 3 22 -29 12 -41 -13 -7 -16 -19 -25 -35 -25 -22 0 -23 3 -21 52 2 34
-1 53 -9 55 -8 3 -13 -5 -13 -19 0 -14 -3 -28 -7 -32 -5 -4 -8 -18 -8 -29 0
-21 -4 -22 -103 -21 -56 1 -105 4 -108 7 -3 3 2 19 11 36 14 27 14 31 0 31
-19 0 -55 -35 -55 -55 0 -17 -54 -19 -325 -15 -82 2 -207 3 -277 4 -71 0 -128
2 -128 4 0 2 7 10 15 19 14 14 14 17 -1 34 -9 10 -13 23 -9 28 3 7 -2 11 -14
11 -25 0 -36 -17 -22 -34 7 -9 6 -19 -5 -34 -18 -26 -78 -31 -88 -7 -7 19 -33
19 -43 0 -5 -9 -17 -12 -31 -8 -22 5 -31 23 -12 23 6 0 10 5 10 10 0 18 -43
11 -65 -10 -17 -16 -39 -21 -98 -24 -42 -3 -79 -1 -81 3 -8 12 -9 85 -2 102 5
11 1 18 -14 22 -20 5 -20 6 4 41 31 46 42 92 26 111 -17 20 -37 19 -62 -4 -14
-14 -29 -18 -48 -15 -36 8 -47 -19 -20 -46 11 -11 20 -29 20 -40 0 -10 9 -24
20 -30 45 -24 6 -49 -90 -55 -13 -1 -26 -7 -28 -14 -2 -6 -12 -11 -23 -11 -25
0 -24 -27 1 -35 11 -4 18 -11 15 -16 -9 -14 -55 -11 -61 5 -3 7 -23 16 -45 20
-40 6 -45 11 -30 34 6 9 19 11 44 7 28 -6 44 -2 72 15 19 12 35 23 35 24 0 2
-39 3 -87 4 -116 0 -113 0 -113 17 0 8 3 14 8 14 24 -4 42 3 42 16 0 8 6 15
13 15 7 0 28 11 47 25 19 14 47 25 62 25 18 0 28 5 28 15 0 17 -45 21 -55 4
-4 -6 -22 -8 -45 -4 -40 7 -61 -8 -41 -28 16 -16 -6 -37 -40 -37 -15 0 -31 -4
-34 -10 -3 -5 -15 -10 -26 -10 -10 0 -19 -4 -19 -9 0 -5 -10 -11 -23 -13 -29
-4 -29 -33 1 -32 24 1 31 -21 9 -29 -7 -3 -25 -3 -39 0 -19 4 -26 0 -31 -16
-3 -12 -11 -21 -17 -21 -9 0 -7 8 4 25 9 13 16 27 16 30 0 11 -61 -6 -97 -26
-19 -11 -38 -19 -43 -19 -18 0 -10 29 10 35 22 7 26 20 9 30 -7 5 -4 14 7 26
9 11 14 22 11 26 -11 11 -58 -20 -53 -34 9 -22 -4 -41 -32 -48 -25 -6 -26 -8
-9 -19 9 -7 17 -18 17 -25 0 -14 -37 -14 -46 0 -5 8 -8 8 -14 0 -5 -9 -13 -9
-33 0 -23 10 -30 9 -48 -7 -20 -18 -21 -18 -40 6 -12 16 -17 34 -13 51 4 19 0
28 -12 33 -24 9 -29 0 -16 -28 10 -23 9 -25 -16 -28 -17 -2 -31 -12 -37 -26
-8 -19 -16 -22 -50 -20 -33 2 -41 7 -43 25 -2 13 -10 23 -18 23 -19 0 -18 19
4 43 17 20 16 20 -14 14 -30 -6 -32 -4 -38 29 -5 26 -14 37 -39 48 -45 18 -63
9 -32 -16 29 -22 29 -40 0 -44 -10 -1 -21 -7 -24 -11 -3 -5 -30 -7 -59 -5 -45
3 -52 7 -47 21 5 16 -2 18 -55 16 -33 -1 -66 -7 -72 -13 -15 -15 -55 -16 -63
-2 -8 13 -35 -6 -35 -25 0 -15 -22 -25 -52 -25 -17 0 -18 3 -8 15 7 8 19 15
26 15 18 0 17 20 -2 45 -19 26 -41 13 -72 -43 -24 -43 -45 -53 -56 -27 -3 8
-16 15 -30 15 -15 0 -25 7 -29 20 -3 11 -10 20 -16 20 -17 0 -13 -37 5 -44 9
-3 14 -15 12 -27 -2 -17 -11 -22 -49 -25 -41 -3 -49 0 -79 31 -28 29 -32 38
-26 67 4 24 0 45 -14 73 -17 33 -18 45 -9 73 14 43 -1 63 -31 44 -22 -13 -73
-6 -64 10 3 5 20 8 37 6 29 -3 31 -1 31 32 l0 35 -55 0 c-30 0 -60 -4 -67 -9
-20 -14 -38 9 -22 29 14 17 46 20 55 5 9 -14 96 0 127 21 14 11 35 19 46 19
23 0 82 28 82 40 0 10 -136 8 -146 -3 -4 -4 -18 -7 -30 -7 -13 0 -27 -7 -32
-16 -5 -10 -15 -14 -21 -10 -8 5 -3 14 14 28 14 10 25 25 25 33 0 7 10 19 21
27 12 8 20 20 18 26 -3 8 -17 2 -39 -17 -40 -34 -55 -37 -77 -15 -13 12 -13
20 -4 40 14 33 15 32 -11 36 -20 3 -22 9 -24 66 -3 62 -2 64 19 56 44 -15 106
-9 127 12 l20 20 -24 23 c-24 23 -25 23 -58 5 -18 -11 -34 -22 -36 -26 -2 -5
-12 -8 -23 -8 -14 0 -19 7 -18 28 0 24 1 25 9 7 9 -21 9 -21 15 8 2 11 6 21 9
24 3 3 -5 20 -18 37 -16 22 -23 46 -24 85 -3 78 4 93 36 87 15 -3 33 -2 41 3
11 7 9 13 -8 30 -17 17 -25 19 -41 11 -24 -13 -36 7 -27 42 4 12 2 27 -3 33
-6 7 -6 34 -1 66 4 30 9 135 11 234 1 99 4 198 6 220 3 39 12 428 14 637 1 74
6 112 15 125 19 24 19 54 0 81 -13 18 -14 34 -7 89 5 37 7 75 5 84 -6 21 24
118 43 140 10 12 14 72 15 270 1 139 3 292 5 339 1 47 5 229 8 405 4 176 8
428 11 560 2 132 7 305 9 385 9 241 16 504 21 705 5 250 14 492 25 695 5 91
12 262 15 380 3 118 9 228 12 244 6 33 10 88 17 251 6 144 6 161 5 188 -2 54
10 218 17 229 4 7 7 71 6 143 -1 71 3 166 8 209 7 54 7 83 -1 92 -5 6 -7 23
-4 37 4 15 0 38 -10 57 -9 18 -14 42 -11 54 3 12 8 139 11 283 3 143 10 275
15 294 6 19 10 92 10 164 0 72 4 200 10 285 5 85 12 220 15 300 5 149 6 174
26 515 6 110 11 214 11 230 -1 17 2 37 5 45 3 8 7 62 8 120 7 234 15 374 24
409 5 20 9 71 10 113 0 66 18 171 51 298 5 19 15 60 21 90 7 30 16 59 21 65 4
5 8 17 8 26 0 29 18 32 58 10 20 -11 51 -22 67 -25 17 -3 53 -10 80 -17 63
-14 124 -14 138 0 6 6 12 33 14 59 1 26 6 79 12 117 5 39 10 102 11 140 0 39
5 90 11 115 6 25 13 74 14 110 6 135 16 236 24 260 5 14 15 68 22 120 6 52 16
105 20 118 9 24 38 29 71 11 15 -8 36 -6 85 7 52 14 71 15 95 6 20 -7 37 -8
49 -2 28 16 77 12 118 -9 25 -13 41 -17 48 -10 5 5 39 11 75 13 35 1 71 7 79
12 46 30 154 43 154 19z m3320 -80 c0 -5 -10 -11 -22 -13 -16 -2 -23 2 -23 13
0 11 7 15 23 13 12 -2 22 -7 22 -13z m725 -5 c0 -5 -4 -10 -9 -10 -6 0 -13 5
-16 10 -3 6 1 10 9 10 9 0 16 -4 16 -10z m2205 1 c3 -5 1 -12 -4 -15 -13 -8
-42 4 -35 15 7 12 31 12 39 0z m-1081 -27 c19 -19 21 -34 3 -34 -14 0 -39 35
-30 44 9 8 10 8 27 -10z m4966 -39 c0 -8 -9 -15 -20 -15 -20 0 -26 11 -13 23
12 13 33 7 33 -8z m-12 -66 c-2 -6 -8 -10 -13 -10 -5 0 -11 4 -13 10 -2 6 4
11 13 11 9 0 15 -5 13 -11z m-8 -98 c0 -5 -3 -17 -6 -26 -5 -12 -9 -14 -14 -4
-5 7 -6 18 -3 26 6 15 23 18 23 4z m4 -57 c21 -8 20 -27 -3 -48 -23 -21 -36
-7 -27 30 7 26 7 27 30 18z m9 -124 c-1 -14 2 -40 7 -58 6 -22 5 -36 -4 -45
-7 -6 -15 -20 -19 -29 -8 -22 -37 -24 -37 -4 0 8 4 18 10 21 5 3 7 32 5 66 -5
68 -1 82 23 77 11 -2 16 -12 15 -28z m-26 -302 c-3 -8 -6 -5 -6 6 -1 11 2 17
5 13 3 -3 4 -12 1 -19z m-3 -79 c-10 -16 -24 -9 -24 12 0 18 2 19 15 9 8 -7
12 -16 9 -21z m-11504 -834 c0 -8 -4 -15 -10 -15 -5 0 -10 7 -10 15 0 8 5 15
10 15 6 0 10 -7 10 -15z m11436 -1149 c6 -25 -1 -46 -15 -46 -10 0 -21 51 -14
62 9 16 23 7 29 -16z m-11949 -174 c-2 -14 -9 -28 -17 -30 -10 -4 -11 3 -7 28
4 18 7 42 8 54 0 20 1 20 10 -3 5 -13 8 -35 6 -49z m11943 -62 c0 -5 -4 -10
-10 -10 -5 0 -10 5 -10 10 0 6 5 10 10 10 6 0 10 -4 10 -10z m6 -74 c6 -25 -1
-46 -15 -46 -10 0 -19 40 -13 58 6 20 21 14 28 -12z m-1 -247 c0 -15 -7 -25
-18 -27 -22 -4 -33 24 -17 43 18 21 35 13 35 -16z m-11902 -79 c21 0 23 -18 2
-26 -18 -7 -75 17 -68 29 3 5 15 6 27 3 11 -3 29 -6 39 -6z m-45 -50 c16 -16
34 -30 41 -30 6 0 11 -4 11 -10 0 -13 -27 -13 -35 1 -4 5 -17 9 -28 8 -38 -2
-46 1 -42 16 3 8 7 22 10 30 6 21 11 19 43 -15z m11930 5 c0 -27 -13 -41 -23
-26 -4 8 14 51 21 51 1 0 2 -11 2 -25z m-11928 -94 c0 -14 -41 -41 -62 -41
-25 0 -22 25 5 38 28 13 57 15 57 3z m11950 -62 c0 -21 -35 -44 -45 -29 -3 5
-3 20 0 33 5 18 12 23 26 20 10 -3 19 -14 19 -24z m-37 -64 c4 -8 2 -17 -3
-20 -6 -4 -10 3 -10 14 0 25 6 27 13 6z m-11853 -40 c0 -8 -6 -15 -14 -15 -17
0 -28 14 -19 24 12 12 33 6 33 -9z m11860 -26 c0 -5 -4 -9 -10 -9 -5 0 -10 7
-10 16 0 8 5 12 10 9 6 -3 10 -10 10 -16z m-11822 -15 c-9 -10 -24 -14 -33
-10 -23 9 -9 26 23 26 24 0 25 -1 10 -16z m116 -8 c15 -13 26 -28 26 -34 0 -6
5 -12 11 -14 8 -3 8 -10 -2 -25 -11 -19 -11 -25 4 -41 24 -26 21 -51 -8 -64
-32 -15 -27 -30 13 -42 34 -10 44 -39 16 -50 -8 -3 -13 -10 -9 -16 9 -14 -69
-62 -88 -54 -12 4 -17 1 -17 -10 0 -9 8 -20 18 -23 20 -8 32 -23 32 -40 0 -20
-124 -17 -140 2 -10 12 -8 16 14 25 30 11 34 25 9 34 -11 5 -22 1 -30 -10 -8
-11 -18 -14 -30 -9 -15 6 -12 10 20 23 20 8 37 19 37 24 0 5 14 7 33 3 l32 -6
-25 21 c-29 25 -67 22 -108 -11 -25 -19 -27 -19 -39 -2 -8 9 -11 24 -7 33 11
29 9 34 -16 35 -22 0 -25 5 -27 37 -2 31 5 46 39 85 43 50 68 65 68 40 0 -22
29 -29 52 -13 11 8 27 12 34 9 8 -3 14 1 14 11 0 12 7 14 28 10 23 -5 30 -1
40 21 11 24 10 27 -18 36 -16 6 -30 17 -30 25 0 21 26 17 54 -10z m-95 -65
c-15 -5 -22 6 -14 19 6 9 10 9 16 -1 5 -8 4 -15 -2 -18z m11791 14 c0 -8 -7
-15 -15 -15 -16 0 -20 12 -8 23 11 12 23 8 23 -8z m-11965 -24 c3 -5 1 -12 -5
-16 -5 -3 -10 1 -10 9 0 18 6 21 15 7z m11935 -801 c0 -11 -4 -20 -10 -20 -5
0 -10 2 -10 4 0 2 -3 11 -6 20 -4 11 -1 16 10 16 9 0 16 -8 16 -20z m-12094
-4296 c-5 -13 -10 -14 -18 -6 -6 6 -8 18 -4 28 5 13 10 14 18 6 6 -6 8 -18 4
-28z m184 -20 c0 -8 -7 -14 -15 -14 -15 0 -21 21 -9 33 10 9 24 -2 24 -19z
m-170 -79 c0 -8 -7 -15 -15 -15 -8 0 -15 7 -15 15 0 8 7 15 15 15 8 0 15 -7
15 -15z m160 0 c0 -9 -85 -43 -93 -38 -13 8 5 21 37 27 16 3 31 8 34 11 7 6
22 7 22 0z m201 -207 c-6 -18 -16 -23 -42 -23 -24 0 -34 5 -34 15 0 10 8 14
28 12 15 -2 27 1 27 7 0 6 7 11 15 11 11 0 12 -6 6 -22z m19 -73 c0 -15 -34
-55 -46 -55 -14 0 -20 41 -7 53 8 8 53 9 53 2z m-92 -37 c12 -6 22 -19 22 -28
0 -9 9 -25 20 -35 17 -16 18 -20 6 -34 -7 -9 -12 -23 -11 -32 4 -25 -45 -11
-55 17 -6 16 -19 24 -40 26 -31 3 -31 3 -13 23 19 20 19 20 -10 30 -39 13 -45
32 -15 44 25 10 60 6 96 -11z m-91 -174 c-3 -3 -12 -4 -19 -1 -8 3 -5 6 6 6
11 1 17 -2 13 -5z m181 -28 c3 -13 -1 -17 -14 -14 -11 2 -20 11 -22 22 -3 13
1 17 14 14 11 -2 20 -11 22 -22z m-91 8 c-3 -3 -12 -4 -19 -1 -8 3 -5 6 6 6
11 1 17 -2 13 -5z m-57 -53 c14 -28 -4 -36 -35 -15 -32 21 -32 34 0 34 14 0
29 -8 35 -19z m120 -52 c0 -12 -24 -16 -72 -11 -69 6 -59 20 12 19 33 -1 60
-5 60 -8z m-171 -34 c20 -21 42 -35 57 -35 30 0 32 -16 3 -25 -12 -4 -30 -16
-40 -26 -25 -25 -11 -30 61 -21 51 6 56 9 65 40 10 34 13 36 32 24 10 -6 9
-16 -5 -44 -19 -42 -59 -63 -97 -54 -14 4 -34 2 -45 -4 -14 -7 -20 -7 -20 0 0
17 -35 11 -52 -9 -17 -20 -20 -20 -98 6 -18 5 -52 72 -44 85 4 5 12 7 19 4 9
-3 24 12 39 39 38 65 77 71 125 20z m58 -202 c28 5 73 -10 73 -25 0 -4 -9 -13
-20 -20 -21 -13 -29 -68 -10 -68 18 0 11 -29 -9 -40 -29 -15 -32 -13 -25 15 4
18 2 25 -8 25 -15 0 -40 35 -31 44 4 3 15 6 25 6 29 0 21 15 -22 39 -28 15
-40 29 -40 44 l1 22 19 -24 c15 -17 27 -22 47 -18z m-89 -26 c17 -18 20 -29
14 -52 -11 -39 -41 -43 -71 -11 -22 24 -22 24 -2 31 17 5 19 10 11 31 -8 20
-6 24 9 24 9 0 27 -10 39 -23z m-38 -106 c0 -23 -14 -41 -30 -41 -22 0 -32 24
-17 39 13 13 47 15 47 2z m66 -43 c-10 -6 -20 -7 -24 -3 -9 8 20 25 31 18 5
-3 2 -10 -7 -15z m74 -107 c0 -9 -24 -21 -41 -21 -5 0 -9 7 -9 15 0 9 9 15 25
15 14 0 25 -4 25 -9z m193 -1626 c-3 -13 -30 -18 -51 -10 -14 5 -14 7 -2 16
19 11 56 8 53 -6z m-43 -216 c-9 -15 -8 -24 1 -35 9 -11 8 -14 -10 -14 -11 0
-21 4 -21 8 0 15 25 62 33 62 4 0 3 -9 -3 -21z m80 -38 c0 -16 -19 -23 -43
-15 -21 7 -21 7 -2 15 28 11 45 11 45 0z m2020 -71 c0 -5 -8 -10 -17 -10 -15
0 -16 2 -3 10 19 12 20 12 20 0z m6748 -50 c-14 -4 -31 -11 -37 -14 -7 -4 -8
-1 -5 8 4 10 18 16 38 15 l31 -1 -27 -8z m-1097 -10 c25 -14 24 -36 -1 -50
-26 -14 -40 -5 -40 24 0 36 10 42 41 26z m-164 -16 c2 -7 -10 -22 -27 -34 -29
-21 -33 -21 -48 -7 -14 15 -14 18 3 37 20 22 65 24 72 4z m-6624 -31 c14 -8
-4 -23 -27 -23 -25 0 -51 22 -39 33 6 6 49 0 66 -10z m7882 -3 c-3 -5 -13 -10
-21 -10 -8 0 -12 5 -9 10 3 6 13 10 21 10 8 0 12 -4 9 -10z m-1375 -22 c0 -33
-14 -51 -36 -46 -39 7 -23 68 17 68 13 0 19 -7 19 -22z m-5730 6 c0 -16 -23
-44 -35 -44 -18 0 -18 5 -5 31 10 17 40 27 40 13z m-890 -19 c-7 -8 -16 -15
-21 -15 -5 0 -9 7 -9 15 0 9 9 15 21 15 18 0 19 -2 9 -15z m6865 -32 c0 -17 3
-35 8 -39 11 -12 8 -54 -4 -54 -7 0 -17 7 -24 16 -9 13 -16 14 -33 5 -26 -14
-40 3 -15 18 17 9 16 11 -4 26 -13 9 -23 22 -23 30 0 24 39 44 68 36 22 -6 27
-13 27 -38z m735 28 c0 -6 20 -13 45 -17 51 -7 75 -33 50 -54 -21 -17 -62 -4
-81 25 -20 30 -45 32 -62 5 -15 -24 -38 -26 -46 -4 -10 27 -7 46 7 41 8 -3 20
-1 28 4 19 12 59 11 59 0z m-6390 -5 c0 -7 -62 -36 -76 -36 -24 0 -25 20 -2
29 24 10 78 14 78 7z m6027 -12 c9 -24 -21 -48 -51 -40 -30 7 -34 30 -8 45 25
15 52 13 59 -5z m-530 -40 c-33 -29 -47 -30 -47 -6 0 23 51 55 65 41 7 -7 1
-18 -18 -35z m626 1 c-28 -34 -56 -44 -68 -25 -9 15 14 41 50 56 43 18 50 7
18 -31z m-6668 25 c3 -5 1 -10 -4 -10 -6 0 -11 5 -11 10 0 6 2 10 4 10 3 0 8
-4 11 -10z m7129 -21 c4 6 18 11 32 11 35 0 33 -37 -2 -46 -15 -4 -36 -16 -46
-26 -11 -11 -25 -17 -31 -15 -19 6 -21 46 -3 53 18 7 22 34 5 34 -5 0 -7 5 -3
11 5 8 13 4 24 -11 11 -15 19 -19 24 -11z m152 15 c-3 -9 -6 -24 -6 -35 0 -16
-3 -17 -25 -7 -29 13 -32 33 -7 47 26 16 45 13 38 -5z m152 4 c-6 -18 -28 -21
-28 -4 0 9 7 16 16 16 9 0 14 -5 12 -12z m102 -3 c0 -16 -35 -21 -44 -6 -8 12
4 21 26 21 10 0 18 -7 18 -15z m190 -3 c0 -10 -6 -26 -13 -37 -13 -17 -15 -17
-45 5 -23 17 -28 26 -20 32 7 4 20 5 30 2 9 -2 19 0 23 6 10 16 25 12 25 -8z
m-380 -7 c0 -8 -7 -15 -15 -15 -8 0 -15 7 -15 15 0 8 7 15 15 15 8 0 15 -7 15
-15z m-1446 -10 c-7 -16 -30 -20 -38 -6 -7 11 4 21 25 21 12 0 16 -5 13 -15z
m366 11 c0 -3 -4 -8 -10 -11 -5 -3 -10 -1 -10 4 0 6 5 11 10 11 6 0 10 -2 10
-4z m160 -22 c0 -20 -29 -30 -43 -15 -9 10 -8 16 7 26 21 16 36 11 36 -11z
m-1062 -6 c-4 -30 -48 -39 -48 -10 0 24 8 32 32 32 14 0 19 -6 16 -22z m1580
-21 c3 -12 -3 -17 -20 -17 -13 0 -29 -5 -35 -11 -14 -14 -133 -25 -133 -12 0
21 27 33 78 33 35 0 59 5 69 15 18 19 37 15 41 -8z m-1674 7 c9 -3 16 -13 16
-21 0 -20 -34 -12 -38 10 -4 19 -1 20 22 11z m2334 -6 c16 -16 15 -48 -2 -48
-14 0 -26 21 -26 46 0 17 12 18 28 2z m-2788 -13 c0 -8 -7 -15 -15 -15 -16 0
-20 12 -8 23 11 12 23 8 23 -8z m1020 2 c0 -21 -11 -27 -31 -16 -27 14 -23 29
6 29 14 0 25 -6 25 -13z m747 -2 c6 -18 5 -20 -22 -29 -11 -3 -27 -1 -35 4
-13 9 -12 12 4 25 25 19 45 19 53 0z m129 4 c9 -15 -11 -33 -30 -26 -9 4 -13
13 -10 22 7 17 30 20 40 4z m-749 -25 c-9 -9 -28 6 -21 18 4 6 10 6 17 -1 6
-6 8 -13 4 -17z m1293 12 c0 -17 -22 -26 -60 -26 -38 0 -60 9 -60 26 0 10 15
14 60 14 45 0 60 -4 60 -14z m108 2 c21 -21 13 -28 -27 -28 -40 0 -57 11 -46
30 9 14 58 13 73 -2z m-928 -8 c0 -5 -4 -10 -9 -10 -6 0 -13 5 -16 10 -3 6 1
10 9 10 9 0 16 -4 16 -10z m590 -5 c0 -8 -9 -15 -20 -15 -11 0 -20 7 -20 15 0
8 9 15 20 15 11 0 20 -7 20 -15z m-5415 -55 c4 -6 -5 -10 -19 -10 -14 0 -26 5
-26 10 0 6 9 10 19 10 11 0 23 -4 26 -10z m4739 -31 c-3 -5 -10 -7 -15 -3 -5
3 -7 10 -3 15 3 5 10 7 15 3 5 -3 7 -10 3 -15z m-864 7 c0 -3 -4 -8 -10 -11
-5 -3 -10 -1 -10 4 0 6 5 11 10 11 6 0 10 -2 10 -4z"/>
<path d="M1500 12680 c0 -5 4 -10 9 -10 6 0 13 5 16 10 3 6 -1 10 -9 10 -9 0
-16 -4 -16 -10z"/>
<path d="M4900 12670 c0 -5 5 -10 10 -10 6 0 10 5 10 10 0 6 -4 10 -10 10 -5
0 -10 -4 -10 -10z"/>
<path d="M5930 12635 c-18 -22 -9 -27 46 -22 39 3 44 5 27 11 -13 5 -23 12
-23 17 0 15 -37 10 -50 -6z"/>
<path d="M5220 12629 c0 -5 5 -7 10 -4 6 3 10 8 10 11 0 2 -4 4 -10 4 -5 0
-10 -5 -10 -11z"/>
<path d="M6300 12620 c0 -13 49 -44 57 -36 9 8 -27 46 -44 46 -7 0 -13 -4 -13
-10z"/>
<path d="M9038 12593 c7 -3 16 -2 19 1 4 3 -2 6 -13 5 -11 0 -14 -3 -6 -6z"/>
<path d="M9470 12585 c0 -8 4 -15 9 -15 5 0 11 7 15 15 3 9 0 15 -9 15 -8 0
-15 -7 -15 -15z"/>
<path d="M5470 12570 c0 -5 5 -10 11 -10 5 0 7 5 4 10 -3 6 -8 10 -11 10 -2 0
-4 -4 -4 -10z"/>
<path d="M9270 12570 c0 -5 5 -10 10 -10 6 0 10 5 10 10 0 6 -4 10 -10 10 -5
0 -10 -4 -10 -10z"/>
<path d="M1861 12199 c-20 -16 -23 -24 -14 -37 16 -27 40 -26 58 2 18 27 14
56 -7 56 -7 -1 -24 -10 -37 -21z"/>
<path d="M2005 12156 c-15 -11 -17 -18 -9 -26 17 -17 49 -8 49 14 0 25 -16 30
-40 12z"/>
<path d="M2452 12144 c2 -11 11 -20 22 -22 13 -3 17 1 14 14 -2 11 -11 20 -22
22 -13 3 -17 -1 -14 -14z"/>
<path d="M2390 12105 c0 -8 6 -15 14 -15 8 0 16 7 20 15 4 10 -1 15 -14 15
-11 0 -20 -7 -20 -15z"/>
<path d="M1436 12047 c-30 -24 -32 -57 -3 -57 17 0 57 45 57 65 0 22 -21 18
-54 -8z"/>
<path d="M1577 12036 c-9 -22 16 -48 43 -44 30 4 36 21 15 42 -20 20 -51 21
-58 2z"/>
<path d="M1850 11890 c0 -5 4 -10 9 -10 6 0 13 5 16 10 3 6 -1 10 -9 10 -9 0
-16 -4 -16 -10z"/>
<path d="M1480 11829 c0 -5 5 -7 10 -4 6 3 10 8 10 11 0 2 -4 4 -10 4 -5 0
-10 -5 -10 -11z"/>
<path d="M1976 11824 c-9 -24 -7 -34 7 -34 18 0 49 34 40 43 -12 13 -41 7 -47
-9z"/>
<path d="M2360 11820 c0 -5 4 -10 9 -10 6 0 13 5 16 10 3 6 -1 10 -9 10 -9 0
-16 -4 -16 -10z"/>
<path d="M1917 11713 c-4 -3 -7 -11 -7 -17 0 -6 5 -5 12 2 6 6 9 14 7 17 -3 3
-9 2 -12 -2z"/>
<path d="M8192 11701 c2 -7 7 -12 11 -12 12 1 9 15 -3 20 -7 2 -11 -2 -8 -8z"/>
<path d="M2595 11580 c3 -5 8 -10 11 -10 2 0 4 5 4 10 0 6 -5 10 -11 10 -5 0
-7 -4 -4 -10z"/>
<path d="M8335 11460 c-3 -5 -1 -10 4 -10 6 0 11 5 11 10 0 6 -2 10 -4 10 -3
0 -8 -4 -11 -10z"/>
<path d="M12077 10724 c-14 -14 -6 -24 19 -24 16 0 24 5 22 13 -5 14 -31 21
-41 11z"/>
<path d="M7750 6660 c0 -5 5 -10 10 -10 6 0 10 5 10 10 0 6 -4 10 -10 10 -5 0
-10 -4 -10 -10z"/>
<path d="M5030 5450 c0 -5 5 -10 10 -10 6 0 10 5 10 10 0 6 -4 10 -10 10 -5 0
-10 -4 -10 -10z"/>
<path d="M9607 4154 c-8 -8 1 -24 14 -24 5 0 9 7 9 15 0 15 -12 20 -23 9z"/>
<path d="M8065 4120 c-3 -5 1 -10 10 -10 9 0 13 5 10 10 -3 6 -8 10 -10 10 -2
0 -7 -4 -10 -10z"/>
<path d="M8040 3975 c0 -8 7 -15 15 -15 8 0 15 7 15 15 0 8 -7 15 -15 15 -8 0
-15 -7 -15 -15z"/>
<path d="M2320 3650 c0 -11 4 -20 9 -20 13 0 32 26 24 33 -13 14 -33 6 -33
-13z"/>
<path d="M7340 3650 c0 -13 5 -20 13 -17 6 2 12 10 12 17 0 7 -6 15 -12 18 -8
2 -13 -5 -13 -18z"/>
<path d="M670 3619 c0 -5 5 -7 10 -4 6 3 10 8 10 11 0 2 -4 4 -10 4 -5 0 -10
-5 -10 -11z"/>
<path d="M660 3331 c0 -24 18 -37 31 -24 13 13 1 43 -17 43 -8 0 -14 -9 -14
-19z"/>
<path d="M670 3220 c0 -5 5 -10 10 -10 6 0 10 5 10 10 0 6 -4 10 -10 10 -5 0
-10 -4 -10 -10z"/>
<path d="M4305 3200 c-7 -11 43 -46 52 -36 7 7 -25 46 -38 46 -4 0 -10 -4 -14
-10z"/>
<path d="M3330 3106 c0 -9 7 -16 16 -16 9 0 14 5 12 12 -6 18 -28 21 -28 4z"/>
<path d="M4420 3109 c0 -5 5 -7 10 -4 6 3 10 8 10 11 0 2 -4 4 -10 4 -5 0 -10
-5 -10 -11z"/>
<path d="M11818 3113 c7 -3 16 -2 19 1 4 3 -2 6 -13 5 -11 0 -14 -3 -6 -6z"/>
<path d="M520 3075 c0 -9 5 -15 11 -13 6 2 11 8 11 13 0 5 -5 11 -11 13 -6 2
-11 -4 -11 -13z"/>
<path d="M8395 3051 c-6 -11 9 -23 19 -14 9 9 7 23 -3 23 -6 0 -12 -4 -16 -9z"/>
<path d="M12173 2989 c-17 -17 2 -39 34 -39 20 0 24 4 21 23 -3 25 -36 35 -55
16z"/>
<path d="M12160 2920 c0 -5 9 -10 20 -10 11 0 20 5 20 10 0 6 -9 10 -20 10
-11 0 -20 -4 -20 -10z"/>
<path d="M8360 2894 c0 -17 22 -14 28 4 2 7 -3 12 -12 12 -9 0 -16 -7 -16 -16z"/>
<path d="M8370 2860 c-13 -9 -13 -11 -1 -19 17 -11 43 -3 38 12 -5 15 -20 18
-37 7z"/>
<path d="M555 2739 c-4 -6 -5 -13 -2 -16 7 -7 27 6 27 18 0 12 -17 12 -25 -2z"/>
<path d="M5490 2670 c0 -5 7 -10 15 -10 8 0 15 5 15 10 0 6 -7 10 -15 10 -8 0
-15 -4 -15 -10z"/>
<path d="M615 2610 c-3 -5 1 -10 9 -10 9 0 16 5 16 10 0 6 -4 10 -9 10 -6 0
-13 -4 -16 -10z"/>
<path d="M11910 2601 c0 -6 5 -13 10 -16 6 -3 10 1 10 9 0 9 -4 16 -10 16 -5
0 -10 -4 -10 -9z"/>
<path d="M520 2490 c0 -5 5 -10 10 -10 6 0 10 5 10 10 0 6 -4 10 -10 10 -5 0
-10 -4 -10 -10z"/>
<path d="M6635 2480 c-9 -15 4 -30 26 -30 23 0 26 25 3 34 -21 8 -22 8 -29 -4z"/>
<path d="M9930 2344 c0 -8 5 -12 10 -9 6 4 8 11 5 16 -9 14 -15 11 -15 -7z"/>
<path d="M10918 2354 c-11 -10 3 -34 19 -34 8 0 13 7 11 17 -3 18 -20 27 -30
17z"/>
<path d="M6310 2197 c0 -15 58 -39 65 -27 5 8 -38 40 -55 40 -5 0 -10 -6 -10
-13z"/>
<path d="M6300 2130 c0 -5 9 -10 21 -10 11 0 17 5 14 10 -3 6 -13 10 -21 10
-8 0 -14 -4 -14 -10z"/>
<path d="M11940 2133 c0 -4 5 -15 10 -23 7 -11 14 -12 26 -5 9 6 16 15 16 20
-2 12 -52 20 -52 8z"/>
<path d="M2300 2104 c0 -11 8 -14 27 -12 39 4 42 28 4 28 -21 0 -31 -5 -31
-16z"/>
<path d="M6295 2079 c-9 -13 -7 -15 32 -22 35 -7 55 9 32 24 -19 12 -56 11
-64 -2z"/>
<path d="M7196 1871 c-3 -5 1 -14 9 -21 12 -10 15 -10 15 3 0 19 -16 31 -24
18z"/>
<path d="M5282 1848 c-18 -18 -14 -38 7 -38 20 0 35 25 25 41 -7 12 -18 11
-32 -3z"/>
<path d="M6560 1845 c0 -10 7 -15 18 -13 21 4 19 22 -2 26 -10 2 -16 -3 -16
-13z"/>
<path d="M11300 1764 c0 -14 4 -23 10 -19 6 3 10 15 10 26 0 10 -4 19 -10 19
-5 0 -10 -12 -10 -26z"/>
<path d="M5207 1774 c-14 -14 -6 -24 19 -24 16 0 24 5 22 13 -5 14 -31 21 -41
11z"/>
<path d="M8800 1751 c0 -12 5 -21 10 -21 6 0 10 6 10 14 0 8 -4 18 -10 21 -5
3 -10 -3 -10 -14z"/>
<path d="M6460 1749 c0 -5 5 -7 10 -4 6 3 10 8 10 11 0 2 -4 4 -10 4 -5 0 -10
-5 -10 -11z"/>
<path d="M7540 1735 c-20 -24 2 -41 24 -20 9 9 16 21 16 26 0 14 -26 10 -40
-6z"/>
<path d="M8666 1727 c-14 -10 -16 -16 -7 -22 15 -9 35 8 30 24 -3 8 -10 7 -23
-2z"/>
<path d="M11126 1731 c-4 -7 -5 -15 -2 -18 9 -9 19 4 14 18 -4 11 -6 11 -12 0z"/>
<path d="M8480 1719 c0 -23 22 -49 40 -49 23 0 25 17 6 43 -14 19 -46 23 -46
6z"/>
<path d="M4455 1701 c-3 -5 -1 -12 5 -16 12 -7 30 2 30 16 0 12 -27 12 -35 0z"/>
<path d="M10750 1690 c0 -13 7 -20 20 -20 13 0 20 7 20 20 0 13 -7 20 -20 20
-13 0 -20 -7 -20 -20z"/>
<path d="M8107 1684 c-9 -10 2 -24 19 -24 8 0 14 7 14 15 0 15 -21 21 -33 9z"/>
<path d="M9825 1650 c3 -5 8 -10 11 -10 2 0 4 5 4 10 0 6 -5 10 -11 10 -5 0
-7 -4 -4 -10z"/>
<path d="M7990 1630 c0 -5 7 -10 15 -10 8 0 15 5 15 10 0 6 -7 10 -15 10 -8 0
-15 -4 -15 -10z"/>
<path d="M8140 1625 c0 -10 7 -15 18 -13 21 4 19 22 -2 26 -10 2 -16 -3 -16
-13z"/>
<path d="M10782 1601 c-29 -40 -28 -61 2 -61 29 0 41 16 41 54 0 40 -17 42
-43 7z"/>
<path d="M8822 1598 c-17 -17 -15 -38 4 -38 27 0 54 20 48 35 -7 18 -35 20
-52 3z"/>
<path d="M9317 1594 c-13 -13 -7 -24 14 -24 11 0 19 5 17 12 -5 14 -22 21 -31
12z"/>
<path d="M8022 1568 c-14 -14 -16 -38 -3 -38 5 0 14 7 21 15 17 20 0 41 -18
23z"/>
<path d="M8298 1573 c-10 -2 -18 -12 -18 -21 1 -24 27 -55 40 -47 8 5 8 10 0
20 -8 9 -7 17 5 28 25 26 17 32 -27 20z"/>
<path d="M7880 1549 c0 -5 5 -7 10 -4 6 3 10 8 10 11 0 2 -4 4 -10 4 -5 0 -10
-5 -10 -11z"/>
<path d="M8480 1550 c0 -18 40 -32 56 -20 7 7 11 16 8 21 -7 12 -64 11 -64 -1z"/>
<path d="M6700 1534 c0 -25 19 -54 36 -54 23 0 28 29 9 50 -22 24 -45 26 -45
4z"/>
<path d="M7112 1539 c2 -7 10 -15 17 -17 8 -3 12 1 9 9 -2 7 -10 15 -17 17 -8
3 -12 -1 -9 -9z"/>
<path d="M7277 1543 c-13 -12 -7 -33 8 -33 8 0 15 9 15 20 0 20 -11 26 -23 13z"/>
<path d="M7447 1543 c-3 -5 -2 -15 3 -22 10 -17 43 -6 38 12 -6 15 -34 22 -41
10z"/>
<path d="M10943 1528 c-22 -25 -20 -48 3 -48 8 0 14 10 14 23 0 13 5 28 12 35
7 7 8 12 2 12 -6 0 -20 -10 -31 -22z"/>
<path d="M8187 1493 c-19 -22 -33 -73 -19 -73 15 0 73 70 67 81 -9 14 -30 11
-48 -8z"/>
<path d="M10557 1483 c-12 -11 -8 -23 8 -23 8 0 15 7 15 15 0 16 -12 20 -23 8z"/>
<path d="M1355 1470 c3 -5 10 -10 16 -10 5 0 9 5 9 10 0 6 -7 10 -16 10 -8 0
-12 -4 -9 -10z"/>
<path d="M8942 1450 c-21 -28 -21 -30 -4 -30 20 0 52 29 52 48 0 22 -26 12
-48 -18z"/>
<path d="M11740 1460 c0 -21 22 -26 54 -14 23 9 1 34 -30 34 -17 0 -24 -6 -24
-20z"/>
<path d="M2595 1460 c-3 -5 -1 -10 4 -10 6 0 11 5 11 10 0 6 -2 10 -4 10 -3 0
-8 -4 -11 -10z"/>
<path d="M7850 1460 c-13 -9 -12 -12 5 -25 16 -13 21 -13 33 -1 26 26 -6 47
-38 26z"/>
<path d="M7775 1450 c3 -5 10 -10 16 -10 5 0 9 5 9 10 0 6 -7 10 -16 10 -8 0
-12 -4 -9 -10z"/>
<path d="M8375 1450 c3 -5 8 -10 11 -10 2 0 4 5 4 10 0 6 -5 10 -11 10 -5 0
-7 -4 -4 -10z"/>
<path d="M9098 1438 c12 -12 24 -19 28 -15 10 10 -16 37 -34 37 -13 0 -12 -4
6 -22z"/>
<path d="M7740 1391 c-25 -23 -53 -44 -63 -47 -11 -4 -17 -13 -15 -27 5 -31
27 -32 38 -2 6 15 18 29 28 32 21 6 65 59 60 74 -2 5 -24 -8 -48 -30z"/>
<path d="M8440 1415 c0 -8 9 -15 20 -15 13 0 18 5 14 15 -4 8 -12 15 -20 15
-8 0 -14 -7 -14 -15z"/>
<path d="M2475 1410 c-3 -5 1 -10 9 -10 9 0 16 5 16 10 0 6 -4 10 -9 10 -6 0
-13 -4 -16 -10z"/>
<path d="M7315 1409 c-4 -6 -4 -13 -1 -16 8 -8 36 5 36 17 0 13 -27 13 -35 -1z"/>
<path d="M8695 1411 c-3 -5 -1 -12 5 -16 12 -7 30 2 30 16 0 12 -27 12 -35 0z"/>
<path d="M9212 1393 c2 -10 10 -18 18 -18 22 0 18 29 -3 33 -14 3 -18 -1 -15
-15z"/>
<path d="M590 1385 c0 -16 16 -20 24 -6 3 5 -1 11 -9 15 -9 3 -15 0 -15 -9z"/>
<path d="M7947 1393 c-14 -4 -10 -9 20 -24 45 -23 63 -24 63 -4 0 26 -39 39
-83 28z"/>
<path d="M8600 1390 c0 -5 5 -10 10 -10 6 0 10 5 10 10 0 6 -4 10 -10 10 -5 0
-10 -4 -10 -10z"/>
<path d="M10722 1388 c6 -16 36 -34 44 -26 3 4 4 14 1 23 -7 17 -51 21 -45 3z"/>
<path d="M10818 1389 c-30 -17 -20 -27 22 -25 45 2 61 13 40 26 -19 12 -41 12
-62 -1z"/>
<path d="M11030 1380 c0 -5 4 -10 9 -10 6 0 13 5 16 10 3 6 -1 10 -9 10 -9 0
-16 -4 -16 -10z"/>
<path d="M8443 1354 c-15 -15 -23 -29 -17 -31 19 -6 64 16 64 31 0 27 -20 27
-47 0z"/>
<path d="M11737 1374 c-8 -8 1 -24 14 -24 5 0 9 7 9 15 0 15 -12 20 -23 9z"/>
<path d="M508 1342 c-12 -14 -8 -15 27 -9 22 4 46 7 53 7 6 0 12 3 12 8 0 15
-79 10 -92 -6z"/>
<path d="M8160 1350 c-8 -5 -12 -11 -10 -13 3 -2 19 -13 37 -26 32 -21 32 -21
43 -2 8 16 6 23 -12 35 -26 18 -37 19 -58 6z"/>
<path d="M8740 1350 c0 -5 5 -10 10 -10 6 0 10 5 10 10 0 6 -4 10 -10 10 -5 0
-10 -4 -10 -10z"/>
<path d="M11975 1351 c-3 -5 -1 -12 5 -16 12 -7 30 2 30 16 0 12 -27 12 -35 0z"/>
<path d="M7820 1335 c-16 -19 -5 -47 17 -43 23 4 31 58 10 58 -8 0 -20 -7 -27
-15z"/>
<path d="M8510 1333 c1 -5 11 -21 25 -37 20 -25 26 -28 39 -17 24 20 20 29
-20 46 -42 17 -44 18 -44 8z"/>
<path d="M8880 1325 c0 -8 9 -15 20 -15 11 0 20 7 20 15 0 8 -9 15 -20 15 -11
0 -20 -7 -20 -15z"/>
<path d="M7545 1320 c-3 -5 -2 -10 4 -10 5 0 13 5 16 10 3 6 2 10 -4 10 -5 0
-13 -4 -16 -10z"/>
<path d="M7940 1314 c-12 -14 -12 -18 1 -28 9 -6 19 -23 22 -37 6 -24 33 -46
44 -35 3 2 1 28 -4 58 -6 43 -12 54 -29 56 -11 2 -27 -4 -34 -14z"/>
<path d="M9117 1315 c-7 -16 8 -29 23 -20 15 9 12 35 -4 35 -8 0 -16 -7 -19
-15z"/>
<path d="M9430 1320 c0 -5 9 -10 20 -10 11 0 20 5 20 10 0 6 -9 10 -20 10 -11
0 -20 -4 -20 -10z"/>
<path d="M11048 1324 c-11 -10 3 -34 19 -34 8 0 13 7 11 17 -3 18 -20 27 -30
17z"/>
<path d="M492 1308 c-10 -13 -10 -17 3 -22 8 -3 15 -14 15 -25 0 -22 19 -31
63 -30 18 1 24 3 15 6 -22 5 -23 22 -3 29 26 10 5 24 -35 24 -28 0 -39 5 -42
17 -3 14 -4 14 -16 1z"/>
<path d="M11580 1305 c0 -8 7 -15 15 -15 8 0 15 7 15 15 0 8 -7 15 -15 15 -8
0 -15 -7 -15 -15z"/>
<path d="M8284 1295 c-4 -9 -2 -21 4 -27 16 -16 47 -5 47 17 0 26 -42 34 -51
10z"/>
<path d="M9242 1298 c5 -15 37 -18 41 -3 1 6 -9 12 -22 13 -16 3 -22 -1 -19
-10z"/>
<path d="M9332 1298 c-7 -7 -12 -16 -12 -20 0 -12 28 -10 36 3 10 17 -10 31
-24 17z"/>
<path d="M10831 1276 c-15 -16 -19 -26 -11 -31 12 -7 39 22 40 43 0 17 -3 15
-29 -12z"/>
<path d="M6693 1275 c-3 -9 -3 -18 0 -22 10 -10 37 6 37 22 0 20 -29 20 -37 0z"/>
<path d="M11875 1280 c-3 -5 -1 -10 4 -10 6 0 11 5 11 10 0 6 -2 10 -4 10 -3
0 -8 -4 -11 -10z"/>
<path d="M8667 1269 c-9 -6 -15 -14 -12 -20 11 -16 44 -10 55 11 9 17 8 20 -7
20 -10 0 -26 -5 -36 -11z"/>
<path d="M10740 1265 c0 -8 5 -15 10 -15 6 0 10 7 10 15 0 8 -4 15 -10 15 -5
0 -10 -7 -10 -15z"/>
<path d="M7512 1254 c2 -11 11 -20 22 -22 13 -3 17 1 14 14 -2 11 -11 20 -22
22 -13 3 -17 -1 -14 -14z"/>
<path d="M8805 1261 c-6 -11 9 -23 19 -14 9 9 7 23 -3 23 -6 0 -12 -4 -16 -9z"/>
<path d="M8893 1235 c-19 -39 -14 -50 17 -40 15 5 20 13 17 26 -3 10 -1 22 4
25 11 6 2 24 -12 24 -5 0 -17 -16 -26 -35z"/>
<path d="M11740 1260 c0 -5 5 -10 10 -10 6 0 10 5 10 10 0 6 -4 10 -10 10 -5
0 -10 -4 -10 -10z"/>
<path d="M4762 1243 c5 -26 38 -29 38 -4 0 15 -6 21 -21 21 -14 0 -19 -5 -17
-17z"/>
<path d="M8100 1253 c0 -5 6 -15 12 -21 10 -10 10 -17 0 -32 -9 -15 -9 -25 0
-45 12 -28 25 -31 63 -13 27 12 34 38 10 38 -20 0 -19 36 2 44 10 4 13 10 7
15 -13 13 -94 24 -94 14z"/>
<path d="M10994 1241 c-27 -12 -46 -16 -57 -10 -20 12 -31 -4 -22 -32 6 -19 4
-20 -29 -14 -29 6 -36 4 -36 -9 0 -23 26 -31 53 -15 29 18 62 18 62 -1 0 -21
51 -26 58 -6 3 9 2 18 -3 21 -14 9 -12 21 6 39 25 25 32 19 39 -34 6 -46 9
-50 34 -50 31 0 51 16 51 41 0 27 -39 69 -65 69 -13 0 -27 5 -30 10 -8 13 -13
13 -61 -9z"/>
<path d="M8275 1239 c-10 -15 3 -25 16 -12 7 7 7 13 1 17 -6 3 -14 1 -17 -5z"/>
<path d="M8465 1239 c-4 -6 -4 -13 -1 -16 8 -8 36 5 36 17 0 13 -27 13 -35 -1z"/>
<path d="M9530 1236 c0 -8 4 -17 9 -20 11 -7 33 18 24 27 -12 12 -33 7 -33 -7z"/>
<path d="M7245 1230 c3 -5 10 -10 16 -10 5 0 9 5 9 10 0 6 -7 10 -16 10 -8 0
-12 -4 -9 -10z"/>
<path d="M7791 1221 c-6 -10 -23 -21 -39 -24 -21 -4 -33 -16 -47 -46 -10 -23
-15 -44 -12 -48 4 -3 24 9 46 28 21 19 51 42 65 52 28 19 35 57 11 57 -8 0
-19 -8 -24 -19z"/>
<path d="M8531 1211 c-24 -34 -26 -41 -8 -41 16 0 57 42 57 58 0 22 -28 12
-49 -17z"/>
<path d="M8780 1210 c-9 -16 -8 -22 5 -26 8 -3 22 -3 30 0 13 4 14 10 5 26 -6
11 -15 20 -20 20 -5 0 -14 -9 -20 -20z"/>
<path d="M9440 1220 c0 -5 5 -10 11 -10 5 0 7 5 4 10 -3 6 -8 10 -11 10 -2 0
-4 -4 -4 -10z"/>
<path d="M10722 1208 c2 -12 11 -24 21 -26 14 -3 18 1 15 20 -2 12 -11 24 -21
26 -14 3 -18 -1 -15 -20z"/>
<path d="M9290 1211 c0 -9 74 -51 90 -51 22 0 8 30 -20 45 -32 17 -70 20 -70
6z"/>
<path d="M9140 1190 c-20 -20 -27 -50 -12 -50 5 0 18 10 30 23 39 41 21 66
-18 27z"/>
<path d="M5981 1186 c-9 -10 -9 -16 -1 -21 12 -7 40 11 40 26 0 14 -26 10 -39
-5z"/>
<path d="M8940 1180 c0 -15 7 -20 25 -20 18 0 25 5 25 20 0 15 -7 20 -25 20
-18 0 -25 -5 -25 -20z"/>
<path d="M9022 1178 c-7 -7 -12 -19 -12 -28 0 -25 29 -60 50 -60 16 0 18 6 14
38 -3 20 -7 43 -10 50 -4 15 -26 16 -42 0z"/>
<path d="M11606 1181 c-4 -7 -5 -15 -2 -18 9 -9 19 4 14 18 -4 11 -6 11 -12 0z"/>
<path d="M11670 1181 c0 -6 5 -13 10 -16 6 -3 10 1 10 9 0 9 -4 16 -10 16 -5
0 -10 -4 -10 -9z"/>
<path d="M7869 1178 c0 -2 -2 -21 -4 -43 -3 -38 0 -41 38 -61 26 -13 44 -30
47 -45 4 -15 14 -25 28 -27 29 -4 28 12 -3 32 -15 10 -25 26 -25 41 0 13 -4
27 -10 30 -5 3 -10 15 -10 25 0 22 -55 65 -61 48z"/>
<path d="M11163 1168 c2 -7 10 -13 17 -13 7 0 15 6 18 13 2 7 -5 12 -18 12
-13 0 -20 -5 -17 -12z"/>
<path d="M11235 1170 c-3 -5 -1 -10 4 -10 6 0 11 5 11 10 0 6 -2 10 -4 10 -3
0 -8 -4 -11 -10z"/>
<path d="M11770 1168 c0 -7 4 -19 9 -27 7 -11 11 -10 20 7 8 16 7 21 -5 26
-22 8 -24 8 -24 -6z"/>
<path d="M8383 1122 c-24 -23 -43 -45 -43 -48 0 -3 16 -4 36 -2 32 3 38 8 52
41 21 55 3 59 -45 9z"/>
<path d="M8697 1153 c-2 -5 -4 -20 -5 -35 -1 -20 3 -28 14 -28 9 0 18 -9 21
-20 6 -22 18 -26 29 -9 3 6 22 9 40 7 30 -4 34 -1 34 19 0 16 -6 23 -19 23
-11 0 -23 -4 -26 -10 -11 -17 -37 -11 -33 8 2 9 -6 25 -18 35 -24 19 -31 21
-37 10z"/>
<path d="M11270 1150 c0 -5 7 -10 15 -10 8 0 15 5 15 10 0 6 -7 10 -15 10 -8
0 -15 -4 -15 -10z"/>
<path d="M10765 1140 c-4 -7 -3 -16 3 -22 14 -14 45 -2 40 15 -6 16 -34 21
-43 7z"/>
<path d="M11835 1130 c-3 -5 1 -10 10 -10 9 0 13 5 10 10 -3 6 -8 10 -10 10
-2 0 -7 -4 -10 -10z"/>
<path d="M6977 1118 c-10 -5 -15 -13 -12 -19 4 -5 8 -19 10 -30 6 -28 11 -33
30 -26 19 8 21 73 2 80 -7 3 -21 1 -30 -5z"/>
<path d="M7267 1123 c-12 -11 -7 -43 6 -43 22 0 51 26 43 38 -8 13 -39 16 -49
5z"/>
<path d="M8222 1120 c-27 -12 -24 -37 4 -32 10 2 37 5 59 5 28 2 40 6 40 17 0
18 -68 24 -103 10z"/>
<path d="M10900 1126 c0 -13 50 -57 59 -52 19 12 -10 56 -36 56 -12 0 -23 -2
-23 -4z"/>
<path d="M2555 1110 c3 -5 8 -10 11 -10 2 0 4 5 4 10 0 6 -5 10 -11 10 -5 0
-7 -4 -4 -10z"/>
<path d="M7555 1098 c-10 -15 -11 -24 -5 -26 14 -5 51 28 44 39 -9 15 -22 10
-39 -13z"/>
<path d="M10820 1100 c0 -13 5 -20 13 -17 6 2 12 10 12 17 0 7 -6 15 -12 18
-8 2 -13 -5 -13 -18z"/>
<path d="M6488 1103 c7 -3 16 -2 19 1 4 3 -2 6 -13 5 -11 0 -14 -3 -6 -6z"/>
<path d="M6642 1083 c2 -20 9 -29 26 -31 24 -4 28 -12 12 -28 -7 -7 -5 -17 5
-30 15 -19 15 -19 36 6 l21 24 -26 21 c-14 11 -26 26 -26 33 0 10 -30 32 -45
32 -3 0 -5 -12 -3 -27z"/>
<path d="M11286 1094 c-4 -11 -1 -14 11 -12 9 2 18 9 21 16 6 18 -25 15 -32
-4z"/>
<path d="M11690 1099 c0 -5 5 -7 10 -4 6 3 10 8 10 11 0 2 -4 4 -10 4 -5 0
-10 -5 -10 -11z"/>
<path d="M11765 1099 c-11 -17 1 -21 15 -4 8 9 8 15 2 15 -6 0 -14 -5 -17 -11z"/>
<path d="M6445 1090 c3 -5 8 -10 11 -10 2 0 4 5 4 10 0 6 -5 10 -11 10 -5 0
-7 -4 -4 -10z"/>
<path d="M9270 1078 c-50 -34 -49 -47 2 -45 43 2 43 2 40 34 -2 18 -5 33 -7
33 -1 0 -17 -10 -35 -22z"/>
<path d="M11950 1085 c0 -10 7 -15 18 -13 21 4 19 22 -2 26 -10 2 -16 -3 -16
-13z"/>
<path d="M1010 1066 c0 -8 5 -18 10 -21 13 -8 42 14 34 26 -9 15 -44 10 -44
-5z"/>
<path d="M7763 1068 c-24 -12 -38 -41 -28 -58 7 -11 64 -14 89 -4 19 7 20 33
2 57 -15 19 -31 21 -63 5z"/>
<path d="M10740 1070 c-13 -9 -13 -11 -1 -19 18 -12 41 -3 41 15 0 16 -18 18
-40 4z"/>
<path d="M10870 1070 c-13 -8 -12 -11 3 -23 17 -12 17 -14 3 -26 -13 -11 -23
-11 -58 1 -24 7 -51 12 -60 10 -27 -5 -22 -41 7 -52 27 -10 34 -40 10 -40 -11
0 -15 -11 -15 -40 0 -22 4 -40 8 -40 15 0 32 24 32 47 0 30 77 106 102 100 25
-7 35 13 15 28 -10 7 -17 20 -17 29 0 18 -8 20 -30 6z"/>
<path d="M2090 1057 c-8 -8 -41 -19 -72 -26 -62 -13 -93 -36 -63 -47 9 -4 39
5 68 20 29 14 61 26 73 26 20 0 44 17 44 32 0 13 -34 9 -50 -5z"/>
<path d="M8574 1053 c4 -11 -4 -28 -25 -50 -34 -34 -34 -49 -1 -39 27 9 75 73
68 91 -3 8 -15 15 -27 15 -16 0 -19 -4 -15 -17z"/>
<path d="M11020 1054 c-27 -12 -32 -17 -20 -24 23 -15 45 -12 63 8 32 35 15
41 -43 16z"/>
<path d="M11830 1060 c0 -5 5 -10 10 -10 6 0 10 5 10 10 0 6 -4 10 -10 10 -5
0 -10 -4 -10 -10z"/>
<path d="M6034 1045 c-19 -14 -18 -14 4 -15 13 0 22 6 22 15 0 19 -1 19 -26 0z"/>
<path d="M8167 1036 c-9 -14 -30 -26 -50 -30 -42 -8 -72 -29 -63 -44 5 -9 21
-4 53 14 34 19 48 22 54 13 4 -8 -6 -21 -29 -37 -43 -28 -54 -44 -43 -55 12
-12 80 35 87 60 3 12 15 25 25 28 22 7 23 14 9 49 -12 32 -23 33 -43 2z"/>
<path d="M11374 1049 c-10 -17 13 -36 27 -22 12 12 4 33 -11 33 -5 0 -12 -5
-16 -11z"/>
<path d="M570 1040 c0 -5 -11 -12 -25 -16 -14 -3 -25 -10 -25 -15 0 -12 15
-11 61 3 44 13 53 38 14 38 -14 0 -25 -4 -25 -10z"/>
<path d="M1770 1040 c0 -5 5 -10 10 -10 6 0 10 5 10 10 0 6 -4 10 -10 10 -5 0
-10 -4 -10 -10z"/>
<path d="M7120 1034 c0 -9 7 -14 17 -12 25 5 28 28 4 28 -12 0 -21 -6 -21 -16z"/>
<path d="M7366 1030 c-24 -16 -27 -20 -14 -25 17 -7 68 21 68 36 0 14 -22 9
-54 -11z"/>
<path d="M8417 1043 c-14 -13 -6 -30 18 -41 14 -7 27 -12 29 -12 1 0 1 14 -2
30 -4 29 -28 41 -45 23z"/>
<path d="M9066 1031 c-11 -12 -14 -21 -7 -25 15 -10 51 12 51 29 0 21 -24 19
-44 -4z"/>
<path d="M9425 1040 c3 -5 10 -10 16 -10 5 0 9 5 9 10 0 6 -7 10 -16 10 -8 0
-12 -4 -9 -10z"/>
<path d="M9526 1033 c-11 -27 32 -44 62 -24 10 6 7 12 -12 24 -32 21 -42 21
-50 0z"/>
<path d="M11235 1040 c-8 -13 20 -24 41 -16 20 8 9 26 -16 26 -10 0 -22 -5
-25 -10z"/>
<path d="M8280 1020 c-12 -7 -12 -12 -3 -21 9 -9 16 -9 27 1 26 21 5 39 -24
20z"/>
<path d="M11455 1019 c-4 -6 -1 -15 6 -20 21 -13 31 -11 27 8 -4 20 -24 28
-33 12z"/>
<path d="M978 1013 c7 -3 16 -2 19 1 4 3 -2 6 -13 5 -11 0 -14 -3 -6 -6z"/>
<path d="M1343 1006 c-4 -7 -18 -18 -30 -25 -32 -17 -29 -33 3 -21 19 7 31 7
40 -1 20 -16 31 -2 17 20 -9 14 -9 21 0 30 8 8 7 11 -6 11 -9 0 -20 -6 -24
-14z"/>
<path d="M7230 1005 c-10 -12 -10 -15 3 -15 8 0 17 7 21 15 3 8 2 15 -3 15 -5
0 -14 -7 -21 -15z"/>
<path d="M10293 1013 c-21 -7 -15 -33 7 -33 11 0 20 6 20 14 0 18 -11 25 -27
19z"/>
<path d="M11766 1013 c-3 -3 -1 -14 5 -25 8 -15 13 -17 25 -7 8 6 14 15 14 19
0 9 -37 20 -44 13z"/>
<path d="M1055 1000 c-8 -13 20 -24 41 -16 20 8 9 26 -16 26 -10 0 -22 -5 -25
-10z"/>
<path d="M1610 1001 c0 -5 -9 -11 -21 -14 -26 -7 -20 -31 8 -35 14 -2 22 4 27
20 8 32 8 38 -4 38 -5 0 -10 -4 -10 -9z"/>
<path d="M2757 1004 c-14 -14 -7 -25 13 -22 12 2 21 8 21 13 0 12 -24 18 -34
9z"/>
<path d="M9370 1000 c-12 -8 -12 -10 3 -16 21 -8 35 2 21 16 -5 5 -15 6 -24 0z"/>
<path d="M11200 995 c0 -8 7 -15 15 -15 8 0 15 7 15 15 0 8 -7 15 -15 15 -8 0
-15 -7 -15 -15z"/>
<path d="M11920 995 c0 -11 7 -15 23 -13 12 2 22 8 22 13 0 6 -10 11 -22 13
-16 2 -23 -2 -23 -13z"/>
<path d="M5682 988 c-17 -17 -15 -28 6 -28 19 0 42 18 42 32 0 12 -35 9 -48
-4z"/>
<path d="M10945 980 c-10 -11 -33 -25 -51 -32 -50 -18 -42 -32 15 -24 37 5 52
3 58 -7 9 -15 69 -47 87 -47 15 0 80 59 73 66 -3 3 -14 1 -26 -5 -12 -6 -29
-15 -39 -20 -13 -6 -25 -3 -43 10 -13 10 -30 19 -36 19 -16 0 -17 12 -2 27 11
11 5 33 -10 33 -4 0 -16 -9 -26 -20z"/>
<path d="M1450 980 c0 -10 32 -30 49 -30 17 0 13 27 -5 34 -23 9 -44 7 -44 -4z"/>
<path d="M2885 980 c3 -5 8 -10 11 -10 2 0 4 5 4 10 0 6 -5 10 -11 10 -5 0 -7
-4 -4 -10z"/>
<path d="M7284 945 c-60 -46 -78 -53 -89 -35 -18 29 -84 -3 -71 -35 7 -19 26
-20 26 0 0 8 4 15 9 15 5 0 17 3 26 6 13 5 16 2 13 -17 -2 -16 2 -25 14 -27
11 -2 18 5 20 20 2 17 11 24 31 26 15 2 32 12 37 23 8 13 21 19 45 19 39 0 44
9 17 33 -17 15 -22 14 -78 -28z"/>
<path d="M8697 972 c-18 -19 -22 -44 -10 -55 8 -8 53 55 46 66 -7 12 -19 8
-36 -11z"/>
<path d="M1720 971 c0 -6 5 -13 10 -16 6 -3 10 1 10 9 0 9 -4 16 -10 16 -5 0
-10 -4 -10 -9z"/>
<path d="M6080 966 c0 -9 -11 -21 -25 -26 -14 -5 -25 -16 -25 -24 0 -21 56 -1
62 22 3 9 6 21 7 27 1 5 -2 11 -8 13 -6 2 -11 -4 -11 -12z"/>
<path d="M7680 964 c0 -26 40 -74 61 -74 23 0 25 13 4 30 -8 7 -15 23 -15 36
0 19 -5 24 -25 24 -16 0 -25 -6 -25 -16z"/>
<path d="M9186 955 c24 -36 54 -42 76 -15 23 28 14 42 -18 28 -18 -9 -27 -9
-36 0 -7 7 -18 12 -25 12 -10 0 -10 -6 3 -25z"/>
<path d="M11855 970 c4 -6 11 -8 16 -5 14 9 11 15 -7 15 -8 0 -12 -5 -9 -10z"/>
<path d="M7890 956 c0 -11 -9 -16 -29 -16 -33 0 -56 -22 -47 -46 6 -15 9 -15
29 5 28 25 40 26 73 5 17 -12 23 -22 18 -36 -3 -12 2 -24 16 -36 l21 -17 -35
-42 c-20 -22 -36 -51 -36 -62 0 -12 -5 -30 -12 -41 -17 -26 7 -70 38 -70 33 0
38 16 15 46 -26 33 -26 38 1 64 12 11 23 30 25 42 4 28 22 39 50 31 29 -7 31
17 3 35 -11 7 -20 21 -20 32 0 11 -5 20 -10 20 -6 0 -20 21 -33 48 -15 32 -29
48 -45 50 -15 2 -22 -2 -22 -12z"/>
<path d="M9130 960 c0 -5 5 -10 10 -10 6 0 10 5 10 10 0 6 -4 10 -10 10 -5 0
-10 -4 -10 -10z"/>
<path d="M11057 964 c-9 -10 2 -24 19 -24 8 0 14 7 14 15 0 15 -21 21 -33 9z"/>
<path d="M1170 945 c0 -21 30 -31 40 -14 11 17 3 29 -21 29 -10 0 -19 -7 -19
-15z"/>
<path d="M5270 940 c-14 -11 -20 -20 -14 -20 16 0 64 24 64 33 0 13 -25 7 -50
-13z"/>
<path d="M7490 944 c0 -9 7 -14 17 -12 25 5 28 28 4 28 -12 0 -21 -6 -21 -16z"/>
<path d="M9372 944 c17 -9 25 -20 22 -29 -7 -18 41 -21 52 -3 11 17 -34 48
-70 48 l-31 -1 27 -15z"/>
<path d="M11330 950 c0 -5 9 -10 21 -10 11 0 17 5 14 10 -3 6 -13 10 -21 10
-8 0 -14 -4 -14 -10z"/>
<path d="M1095 940 c3 -5 13 -10 21 -10 8 0 12 5 9 10 -3 6 -13 10 -21 10 -8
0 -12 -4 -9 -10z"/>
<path d="M8315 939 c-4 -6 -4 -13 -1 -16 8 -8 36 5 36 17 0 13 -27 13 -35 -1z"/>
<path d="M8423 937 c-4 -8 -17 -16 -28 -19 -11 -2 -21 -11 -23 -20 -3 -15 2
-15 47 5 49 21 60 39 28 45 -8 2 -19 -3 -24 -11z"/>
<path d="M9583 943 c-18 -6 -16 -23 1 -23 17 0 30 16 19 23 -5 2 -14 2 -20 0z"/>
<path d="M11227 943 c-12 -11 -8 -23 8 -23 8 0 15 7 15 15 0 16 -12 20 -23 8z"/>
<path d="M2414 926 c-5 -13 -14 -15 -40 -10 -39 7 -42 2 -14 -26 22 -22 40
-26 40 -10 0 6 11 16 25 22 26 12 29 28 7 36 -7 2 -15 -4 -18 -12z"/>
<path d="M9786 924 c-4 -9 -4 -19 -1 -22 6 -6 35 18 35 29 0 16 -28 10 -34 -7z"/>
<path d="M11590 931 c0 -18 26 -31 38 -19 19 19 14 28 -13 28 -14 0 -25 -4
-25 -9z"/>
<path d="M5373 923 c-25 -10 -12 -24 19 -21 37 4 52 28 16 27 -12 0 -29 -3
-35 -6z"/>
<path d="M6840 909 c0 -24 23 -21 28 4 2 10 -3 17 -12 17 -10 0 -16 -9 -16
-21z"/>
<path d="M6665 910 c-3 -5 1 -10 9 -10 9 0 16 5 16 10 0 6 -4 10 -9 10 -6 0
-13 -4 -16 -10z"/>
<path d="M9627 914 c-15 -15 -6 -24 24 -24 20 0 29 4 27 13 -5 14 -40 21 -51
11z"/>
<path d="M11150 911 c0 -6 -18 -22 -40 -36 -41 -26 -53 -55 -22 -55 27 0 44
15 40 36 -2 14 5 20 27 24 33 6 41 33 13 38 -10 2 -18 -1 -18 -7z"/>
<path d="M5539 893 c31 -53 61 -70 61 -34 0 21 -35 51 -58 51 -9 0 -10 -5 -3
-17z"/>
<path d="M6280 900 c0 -5 4 -10 9 -10 6 0 13 5 16 10 3 6 -1 10 -9 10 -9 0
-16 -4 -16 -10z"/>
<path d="M8196 883 c-41 -22 -52 -23 -72 -13 -12 7 -30 10 -38 7 -23 -9 -19
-44 6 -58 18 -10 33 -6 99 27 43 22 78 45 79 52 0 17 -18 14 -74 -15z"/>
<path d="M9015 899 c-4 -6 -4 -13 -1 -16 8 -8 36 5 36 17 0 13 -27 13 -35 -1z"/>
<path d="M10340 899 c0 -5 5 -7 10 -4 6 3 10 8 10 11 0 2 -4 4 -10 4 -5 0 -10
-5 -10 -11z"/>
<path d="M11653 881 c-18 -15 -33 -33 -33 -39 0 -19 25 -14 45 8 10 11 24 20
32 20 16 0 14 32 -2 36 -5 2 -25 -9 -42 -25z"/>
<path d="M2560 882 c0 -12 9 -22 22 -25 28 -8 35 -1 22 21 -16 25 -44 28 -44
4z"/>
<path d="M2646 891 c-3 -5 1 -11 9 -15 15 -6 29 7 18 18 -9 9 -21 8 -27 -3z"/>
<path d="M5877 894 c-14 -14 -7 -25 13 -22 12 2 21 8 21 13 0 12 -24 18 -34 9z"/>
<path d="M8461 881 c-6 -10 -23 -22 -38 -26 -34 -7 -69 -32 -60 -42 9 -8 75
14 97 32 8 7 28 15 43 19 34 8 31 30 -6 34 -17 2 -29 -3 -36 -17z"/>
<path d="M9120 890 c0 -5 7 -10 16 -10 8 0 12 5 9 10 -3 6 -10 10 -16 10 -5 0
-9 -4 -9 -10z"/>
<path d="M11264 889 c-8 -14 18 -31 30 -19 9 9 0 30 -14 30 -5 0 -12 -5 -16
-11z"/>
<path d="M1720 882 c0 -14 35 -42 53 -42 23 0 21 27 -2 40 -24 12 -51 13 -51
2z"/>
<path d="M2705 879 c-4 -6 -5 -12 -2 -15 7 -7 37 7 37 17 0 13 -27 11 -35 -2z"/>
<path d="M11340 881 c0 -5 6 -14 14 -20 16 -13 32 2 21 19 -8 12 -35 13 -35 1z"/>
<path d="M1330 870 c-37 -3 -48 -7 -35 -12 27 -9 104 -7 110 2 8 13 -16 16
-75 10z"/>
<path d="M1455 871 c-3 -5 4 -12 15 -16 11 -3 20 -11 20 -16 0 -5 10 -9 22 -9
l21 0 -23 25 c-24 26 -45 32 -55 16z"/>
<path d="M2774 869 c-9 -15 12 -33 30 -26 9 4 16 13 16 22 0 17 -35 21 -46 4z"/>
<path d="M5420 870 c-12 -8 -11 -12 7 -32 20 -21 21 -28 12 -67 -11 -50 -7
-71 15 -71 21 0 30 41 22 103 -10 69 -24 87 -56 67z"/>
<path d="M7420 865 c0 -8 9 -15 20 -15 25 0 27 -30 3 -31 -15 0 -15 -2 2 -9
62 -26 86 3 38 45 -32 28 -63 32 -63 10z"/>
<path d="M9047 862 c-21 -23 -22 -52 -3 -52 17 0 49 47 41 60 -9 15 -20 12
-38 -8z"/>
<path d="M9243 872 c-5 -4 -12 -15 -16 -24 -4 -11 -17 -18 -31 -18 -14 0 -28
-4 -31 -10 -3 -5 -15 -10 -26 -10 -12 0 -19 -5 -17 -11 2 -6 6 -9 10 -7 3 2
14 -4 24 -13 11 -9 33 -18 49 -21 28 -3 30 -2 31 29 0 20 10 43 23 57 17 18
19 25 8 29 -8 3 -18 2 -24 -1z"/>
<path d="M10820 853 c-25 -24 -24 -24 25 -27 11 -1 20 -8 20 -16 0 -11 -11
-15 -42 -14 -35 1 -43 -3 -43 -18 0 -28 4 -33 20 -31 8 1 27 -2 42 -8 22 -9
33 -7 61 10 19 12 43 21 54 21 11 0 28 10 39 21 l19 22 -40 -7 c-22 -4 -50
-14 -62 -22 -32 -20 -38 -17 -19 11 15 23 15 26 1 31 -22 9 -19 22 7 26 41 6
30 25 -14 25 -31 0 -50 -7 -68 -24z"/>
<path d="M11196 871 c-3 -5 1 -12 10 -15 20 -8 29 -1 19 13 -8 13 -22 14 -29
2z"/>
<path d="M2018 859 c-18 -10 -25 -39 -10 -39 5 0 16 8 25 18 28 31 19 42 -15
21z"/>
<path d="M2185 859 c-4 -6 -5 -13 -2 -16 8 -7 47 7 47 18 0 13 -37 11 -45 -2z"/>
<path d="M6587 856 c-3 -7 -1 -18 5 -24 7 -7 2 -22 -15 -47 -49 -71 -6 -88 45
-18 28 39 30 43 17 72 -14 32 -43 41 -52 17z"/>
<path d="M6715 850 c12 -13 22 -17 28 -11 13 13 -1 31 -25 31 -21 0 -21 -1 -3
-20z"/>
<path d="M8800 861 c0 -11 26 -22 34 -14 12 12 5 23 -14 23 -11 0 -20 -4 -20
-9z"/>
<path d="M9335 860 c-3 -5 -12 -7 -19 -4 -25 9 -31 -19 -8 -34 12 -8 22 -21
22 -28 0 -8 8 -14 18 -14 9 0 26 -7 36 -15 30 -23 53 -18 58 10 5 22 2 24 -19
19 -32 -9 -62 19 -55 51 3 18 0 25 -11 25 -9 0 -18 -4 -22 -10z"/>
<path d="M10970 855 c0 -8 7 -15 15 -15 8 0 15 7 15 15 0 8 -7 15 -15 15 -8 0
-15 -7 -15 -15z"/>
<path d="M11902 859 c2 -6 8 -10 13 -10 5 0 11 4 13 10 2 6 -4 11 -13 11 -9 0
-15 -5 -13 -11z"/>
<path d="M2302 853 c-10 -4 -8 -11 9 -29 25 -27 48 -31 51 -9 0 8 1 20 2 26 1
12 -40 20 -62 12z"/>
<path d="M5204 848 c-9 -14 23 -38 53 -38 28 0 29 11 5 33 -22 20 -48 22 -58
5z"/>
<path d="M6027 854 c-13 -13 -7 -24 14 -24 11 0 19 5 17 12 -5 14 -22 21 -31
12z"/>
<path d="M7537 854 c-9 -10 2 -24 19 -24 8 0 14 7 14 15 0 15 -21 21 -33 9z"/>
<path d="M11435 850 c-4 -7 -3 -16 3 -22 14 -14 45 -2 40 15 -6 16 -34 21 -43
7z"/>
<path d="M1655 840 c-3 -5 1 -10 9 -10 8 0 18 5 21 10 3 6 -1 10 -9 10 -8 0
-18 -4 -21 -10z"/>
<path d="M2238 839 c-10 -5 -18 -16 -18 -22 0 -7 -16 -19 -35 -26 -19 -7 -35
-17 -35 -22 0 -17 -63 -49 -87 -43 -36 9 -28 -17 12 -43 43 -28 48 -28 40 -3
-4 14 -2 20 9 20 8 0 18 -4 21 -10 10 -16 33 -12 53 8 10 10 27 22 38 26 18 7
17 9 -9 29 l-27 21 42 38 c40 34 37 51 -4 27z m-38 -94 c10 -12 10 -15 -4 -15
-9 0 -16 7 -16 15 0 8 2 15 4 15 2 0 9 -7 16 -15z"/>
<path d="M6455 842 c-28 -20 -36 -40 -24 -60 11 -17 8 -24 -25 -58 -20 -20
-35 -42 -33 -48 6 -18 45 -19 69 -2 19 13 22 24 20 71 -1 45 2 56 18 65 11 6
17 16 14 25 -7 16 -23 19 -39 7z"/>
<path d="M7080 832 c0 -10 5 -23 12 -30 9 -9 7 -17 -10 -35 -26 -27 -29 -52
-6 -43 9 3 18 6 20 6 2 0 4 9 4 19 0 11 5 23 10 26 14 9 13 48 -2 63 -17 17
-28 15 -28 -6z"/>
<path d="M1886 823 c-22 -9 -48 -25 -58 -35 -25 -25 0 -23 32 2 14 11 35 20
48 20 13 0 22 6 22 15 0 8 -1 15 -2 14 -2 0 -21 -7 -42 -16z"/>
<path d="M2435 830 c-11 -18 5 -31 26 -20 11 6 17 15 14 21 -8 12 -32 12 -40
-1z"/>
<path d="M2514 815 c-1 -18 3 -25 16 -25 25 0 35 18 20 35 -19 23 -35 18 -36
-10z"/>
<path d="M5327 833 c-12 -11 -8 -23 8 -23 8 0 15 7 15 15 0 16 -12 20 -23 8z"/>
<path d="M6957 822 c-22 -24 -21 -32 4 -32 29 0 59 18 59 35 0 21 -43 19 -63
-3z"/>
<path d="M8720 825 c0 -9 5 -15 11 -13 6 2 11 8 11 13 0 5 -5 11 -11 13 -6 2
-11 -4 -11 -13z"/>
<path d="M9612 815 c-6 -14 -18 -25 -27 -25 -9 0 -15 -9 -15 -21 0 -19 -4 -20
-39 -14 -22 4 -42 2 -45 -3 -3 -6 -15 -8 -25 -5 -10 3 -22 -1 -26 -8 -6 -9 2
-11 32 -7 22 3 48 1 57 -4 28 -16 61 -1 82 37 10 19 24 35 31 35 20 0 66 20
60 27 -4 3 -22 7 -40 9 -28 3 -36 0 -45 -21z"/>
<path d="M1376 814 c-4 -11 -1 -14 11 -12 9 2 18 9 21 16 6 18 -25 15 -32 -4z"/>
<path d="M11157 823 c-12 -12 -7 -33 8 -33 7 0 18 -8 24 -17 8 -14 12 -15 25
-4 20 16 21 31 2 31 -7 0 -19 7 -26 15 -14 16 -23 19 -33 8z"/>
<path d="M1640 805 c0 -8 7 -15 15 -15 8 0 15 4 15 9 0 5 -7 11 -15 15 -9 3
-15 0 -15 -9z"/>
<path d="M7332 813 c-36 -7 -20 -28 19 -25 18 1 35 5 38 8 5 5 -20 25 -29 22
-3 0 -15 -3 -28 -5z"/>
<path d="M8238 813 c-25 -6 -22 -20 4 -27 25 -6 44 7 34 23 -7 11 -10 12 -38
4z"/>
<path d="M2085 800 c-3 -5 -1 -10 4 -10 6 0 11 5 11 10 0 6 -2 10 -4 10 -3 0
-8 -4 -11 -10z"/>
<path d="M2395 800 c-3 -5 -2 -10 4 -10 5 0 13 5 16 10 3 6 2 10 -4 10 -5 0
-13 -4 -16 -10z"/>
<path d="M7637 791 c-17 -18 -17 -19 14 -25 27 -5 30 -8 18 -22 -11 -13 -10
-17 5 -26 12 -7 16 -17 12 -34 -8 -30 13 -32 39 -4 10 11 30 20 45 20 34 0 63
39 58 77 -4 38 -27 40 -40 5 -6 -16 -24 -37 -39 -46 -23 -14 -28 -14 -39 -1
-6 8 -9 19 -6 24 9 14 -16 51 -34 50 -8 0 -23 -8 -33 -18z"/>
<path d="M8625 800 c-3 -6 5 -10 18 -10 16 0 26 -7 30 -20 6 -23 39 -27 56 -6
15 18 -11 40 -38 31 -10 -3 -22 -1 -26 5 -8 13 -32 13 -40 0z"/>
<path d="M11360 795 c-6 -8 -10 -18 -8 -23 5 -15 48 6 48 23 0 19 -24 20 -40
0z"/>
<path d="M1733 793 c9 -2 25 -2 35 0 9 3 1 5 -18 5 -19 0 -27 -2 -17 -5z"/>
<path d="M8790 785 c-6 -8 -9 -23 -5 -35 5 -15 1 -22 -19 -30 -27 -10 -32 -25
-16 -50 8 -12 15 -9 39 20 17 19 30 43 31 53 0 9 7 17 15 17 18 0 20 -21 3
-38 -10 -10 -8 -15 7 -26 36 -25 40 -22 41 25 1 44 -1 48 -33 63 -41 20 -47
20 -63 1z"/>
<path d="M11631 784 c0 -11 3 -14 6 -6 3 7 2 16 -1 19 -3 4 -6 -2 -5 -13z"/>
<path d="M1491 774 c-16 -12 -20 -19 -12 -27 7 -7 17 -5 31 8 36 33 22 47 -19
19z"/>
<path d="M2730 780 c0 -5 9 -10 21 -10 11 0 17 5 14 10 -3 6 -13 10 -21 10 -8
0 -14 -4 -14 -10z"/>
<path d="M11032 778 c5 -15 28 -18 29 -3 0 6 -7 12 -17 13 -10 3 -15 -1 -12
-10z"/>
<path d="M2290 765 c0 -8 7 -15 15 -15 8 0 15 7 15 15 0 8 -7 15 -15 15 -8 0
-15 -7 -15 -15z"/>
<path d="M7520 764 c0 -8 5 -12 10 -9 6 3 10 10 10 16 0 5 -4 9 -10 9 -5 0
-10 -7 -10 -16z"/>
<path d="M8970 765 c0 -8 5 -15 10 -15 6 0 10 7 10 15 0 8 -4 15 -10 15 -5 0
-10 -7 -10 -15z"/>
<path d="M4135 761 c-3 -5 -1 -12 5 -16 13 -8 50 3 50 16 0 12 -47 12 -55 0z"/>
<path d="M6130 756 c0 -15 37 -32 47 -22 3 3 3 12 0 21 -8 19 -47 20 -47 1z"/>
<path d="M8245 759 c-10 -15 1 -23 20 -15 9 3 13 10 10 16 -8 13 -22 13 -30
-1z"/>
<path d="M8302 758 c-17 -17 -15 -53 4 -89 13 -27 19 -30 47 -24 18 4 39 13
48 21 8 8 25 14 36 14 35 0 37 31 4 63 -34 35 -51 29 -51 -18 0 -25 -6 -37
-21 -46 -32 -17 -47 3 -31 43 16 44 -6 66 -36 36z"/>
<path d="M9065 760 c-3 -5 1 -13 9 -16 19 -7 21 -35 4 -53 -11 -10 -9 -12 6
-9 35 6 41 32 13 62 -15 16 -28 23 -32 16z"/>
<path d="M11270 751 c-12 -24 5 -71 27 -71 21 0 29 31 10 42 -9 4 -14 15 -11
22 9 23 -14 28 -26 7z"/>
<path d="M11655 760 c-3 -6 1 -13 10 -16 19 -8 30 0 20 15 -8 14 -22 14 -30 1z"/>
<path d="M11817 764 c-14 -14 -7 -35 11 -32 9 2 17 10 17 17 0 16 -18 25 -28
15z"/>
<path d="M2365 750 c-3 -6 1 -7 9 -4 18 7 21 14 7 14 -6 0 -13 -4 -16 -10z"/>
<path d="M2466 745 c-11 -8 -18 -16 -15 -18 54 -37 149 -31 149 9 0 18 -18 18
-36 -1 -12 -11 -20 -12 -35 -5 -10 6 -19 15 -19 20 0 14 -22 12 -44 -5z"/>
<path d="M2940 735 c0 -15 6 -25 14 -25 22 0 30 19 16 35 -18 22 -30 18 -30
-10z"/>
<path d="M4845 751 c-3 -5 -1 -12 5 -16 12 -7 30 2 30 16 0 12 -27 12 -35 0z"/>
<path d="M7346 733 c-8 -15 -24 -36 -35 -45 -31 -26 -27 -48 10 -48 18 0 28 4
24 10 -11 17 4 48 26 53 15 4 20 12 17 28 -5 33 -25 34 -42 2z"/>
<path d="M11993 747 c-4 -8 -16 -16 -25 -20 -19 -7 -25 -27 -8 -27 14 0 70 42
70 52 0 13 -28 9 -37 -5z"/>
<path d="M8510 740 c0 -5 10 -10 21 -10 19 0 21 -4 15 -39 -7 -47 6 -60 28
-29 23 33 20 51 -15 71 -35 19 -49 22 -49 7z"/>
<path d="M10944 735 c-10 -8 -26 -15 -35 -15 -9 0 -24 -8 -33 -19 -16 -17 -16
-19 3 -24 14 -3 18 -11 14 -26 -4 -15 -1 -21 10 -21 20 0 36 27 30 51 -3 12 0
19 9 19 7 0 24 7 37 16 18 13 20 18 10 25 -19 12 -22 11 -45 -6z"/>
<path d="M4735 730 c-3 -5 1 -10 10 -10 9 0 13 5 10 10 -3 6 -8 10 -10 10 -2
0 -7 -4 -10 -10z"/>
<path d="M5010 728 c0 -18 20 -38 38 -38 24 0 10 45 -15 48 -14 2 -23 -2 -23
-10z"/>
<path d="M5307 733 c-12 -11 -8 -23 8 -23 8 0 15 7 15 15 0 16 -12 20 -23 8z"/>
<path d="M7483 725 c-7 -20 2 -29 21 -22 9 4 13 13 10 22 -8 19 -23 19 -31 0z"/>
<path d="M10070 729 c0 -5 5 -7 10 -4 6 3 10 8 10 11 0 2 -4 4 -10 4 -5 0 -10
-5 -10 -11z"/>
<path d="M10396 723 c-23 -12 -34 -13 -47 -4 -10 6 -25 8 -34 5 -18 -7 -18 -9
-3 -34 10 -16 9 -23 -12 -45 -19 -20 -21 -28 -12 -37 10 -10 17 -10 32 0 11 6
27 12 35 12 26 0 16 -29 -15 -45 -18 -9 -30 -23 -30 -35 0 -27 16 -25 44 5 26
28 37 30 54 13 7 -7 46 -13 88 -15 71 -3 79 -1 102 22 33 33 21 43 -22 20 -30
-16 -37 -17 -52 -4 -11 9 -34 13 -66 11 -39 -3 -48 -1 -48 12 0 11 9 16 30 16
36 0 48 21 27 50 -12 18 -16 19 -27 5 -16 -19 -40 -19 -40 0 0 8 9 15 19 15
24 0 33 13 25 34 -7 19 -11 19 -48 -1z m-35 -56 c-1 -12 -15 -9 -19 4 -3 6 1
10 8 8 6 -3 11 -8 11 -12z"/>
<path d="M4576 723 c-11 -11 -6 -23 9 -23 8 0 15 4 15 9 0 13 -16 22 -24 14z"/>
<path d="M10763 715 c-3 -9 -3 -18 0 -21 9 -9 48 16 42 27 -9 14 -35 11 -42
-6z"/>
<path d="M11041 721 c-40 -11 -38 -31 3 -31 29 0 36 4 36 20 0 21 -2 22 -39
11z"/>
<path d="M957 714 c-11 -11 3 -24 24 -24 12 0 19 5 17 13 -5 14 -31 21 -41 11z"/>
<path d="M5530 710 c0 -5 9 -10 19 -10 11 0 23 5 26 10 4 6 -5 10 -19 10 -14
0 -26 -4 -26 -10z"/>
<path d="M7530 705 c0 -16 9 -19 34 -9 25 9 19 24 -9 24 -16 0 -25 -6 -25 -15z"/>
<path d="M8974 705 c-9 -23 5 -65 21 -65 19 0 40 43 32 64 -8 20 -46 21 -53 1z"/>
<path d="M9220 705 c0 -8 5 -15 10 -15 6 0 10 7 10 15 0 8 -4 15 -10 15 -5 0
-10 -7 -10 -15z"/>
<path d="M1037 704 c-11 -11 3 -24 18 -18 8 4 12 10 9 15 -6 11 -18 12 -27 3z"/>
<path d="M1878 698 c-27 -7 -38 -15 -38 -29 0 -12 7 -19 19 -19 11 0 26 -3 34
-6 10 -3 20 6 31 27 9 18 16 34 16 36 0 5 -21 2 -62 -9z"/>
<path d="M2003 703 c-18 -6 -16 -33 1 -33 19 0 31 19 20 30 -5 4 -15 5 -21 3z"/>
<path d="M2372 688 c-33 -21 -35 -38 -3 -38 20 0 34 14 44 43 8 21 0 21 -41
-5z"/>
<path d="M5882 678 c4 -43 33 -46 33 -3 0 21 -5 31 -18 33 -15 3 -18 -2 -15
-30z"/>
<path d="M6661 696 c-17 -20 2 -29 45 -22 36 7 44 20 18 30 -26 10 -51 7 -63
-8z"/>
<path d="M9310 704 c0 -20 48 -61 83 -71 38 -11 44 -10 64 9 40 38 22 68 -19
31 -16 -14 -23 -15 -58 -3 -22 7 -40 19 -40 27 0 7 -7 13 -15 13 -8 0 -15 -3
-15 -6z"/>
<path d="M9685 692 c-50 -28 -60 -52 -22 -52 24 0 67 37 67 58 0 15 -8 14 -45
-6z"/>
<path d="M11140 695 c-7 -9 -10 -18 -7 -21 10 -10 47 7 47 22 0 19 -24 18 -40
-1z"/>
<path d="M1310 690 c0 -5 5 -10 10 -10 6 0 10 5 10 10 0 6 -4 10 -10 10 -5 0
-10 -4 -10 -10z"/>
<path d="M6484 689 c-10 -17 23 -46 37 -32 7 7 9 19 6 27 -7 18 -33 21 -43 5z"/>
<path d="M7607 686 c-7 -16 1 -26 20 -26 7 0 13 9 13 20 0 23 -25 27 -33 6z"/>
<path d="M8646 667 c-15 -19 -26 -38 -26 -44 0 -5 -9 -18 -20 -28 -32 -29 -8
-42 28 -16 17 11 34 21 40 21 12 0 40 71 34 88 -7 22 -30 13 -56 -21z"/>
<path d="M2230 681 c-8 -6 -15 -16 -16 -23 -3 -41 -3 -41 -45 -34 -26 4 -46 2
-55 -5 -16 -13 -19 -33 -4 -24 6 3 26 0 46 -7 32 -11 37 -11 45 5 6 9 16 17
24 17 8 0 19 9 25 20 6 12 21 20 36 20 19 0 25 5 22 18 -4 20 -54 28 -78 13z"/>
<path d="M5725 659 c2 -18 10 -36 17 -40 19 -12 39 11 36 40 -2 20 -9 27 -30
29 -25 3 -27 1 -23 -29z"/>
<path d="M5997 683 c-13 -12 -7 -23 11 -23 11 0 27 -9 37 -20 27 -30 59 -25
37 6 -10 15 -55 44 -68 44 -6 0 -14 -3 -17 -7z"/>
<path d="M7466 674 c-10 -27 -7 -34 19 -34 30 0 34 25 6 39 -15 8 -20 7 -25
-5z"/>
<path d="M11596 683 c-11 -11 -6 -23 9 -23 8 0 15 4 15 9 0 13 -16 22 -24 14z"/>
<path d="M9797 674 c-3 -3 -3 -12 0 -19 6 -17 33 -8 33 11 0 14 -21 19 -33 8z"/>
<path d="M9995 670 c-3 -5 1 -10 9 -10 9 0 16 5 16 10 0 6 -4 10 -9 10 -6 0
-13 -4 -16 -10z"/>
<path d="M11650 671 c0 -12 29 -23 41 -15 5 3 7 10 4 15 -8 12 -45 12 -45 0z"/>
<path d="M9502 645 c-10 -21 -9 -25 4 -25 8 0 24 5 35 11 16 8 18 13 8 25 -17
21 -34 17 -47 -11z"/>
<path d="M10795 660 c-7 -12 2 -30 16 -30 5 0 9 9 9 20 0 21 -15 27 -25 10z"/>
<path d="M12273 663 c-7 -2 -13 -12 -13 -21 0 -10 -9 -23 -21 -30 -16 -10 -18
-16 -9 -27 19 -23 58 -26 97 -9 l38 17 -33 7 c-46 11 -57 23 -43 49 12 21 8
24 -16 14z"/>
<path d="M1728 653 c-33 -8 -18 -22 20 -18 20 2 43 4 50 4 6 1 12 6 12 11 0
10 -49 12 -82 3z"/>
<path d="M2512 653 c-18 -7 -4 -23 19 -23 12 0 19 5 17 12 -5 14 -18 18 -36
11z"/>
<path d="M6766 651 c-4 -5 -3 -17 0 -26 4 -10 -2 -24 -15 -36 -26 -24 -27 -35
-4 -44 26 -9 53 29 53 76 0 27 -4 39 -14 39 -8 0 -17 -4 -20 -9z"/>
<path d="M1946 635 c4 -8 10 -15 15 -15 5 0 9 7 9 15 0 8 -7 15 -15 15 -9 0
-12 -6 -9 -15z"/>
<path d="M7565 630 c20 -23 29 -21 19 4 -3 9 -13 16 -22 16 -13 0 -12 -3 3
-20z"/>
<path d="M8217 634 c-17 -9 -27 -22 -25 -32 5 -27 41 -25 68 3 21 22 22 28 10
35 -19 12 -20 12 -53 -6z"/>
<path d="M11370 627 c0 -13 -5 -28 -11 -34 -15 -15 -3 -33 23 -33 16 0 19 4
14 24 -3 14 -2 28 4 31 18 11 11 35 -10 35 -14 0 -20 -7 -20 -23z"/>
<path d="M11818 643 c-28 -4 -36 -17 -18 -28 15 -9 60 6 60 21 0 8 -3 13 -7
13 -5 -1 -20 -4 -35 -6z"/>
<path d="M2032 628 c-14 -14 -16 -38 -3 -38 5 0 22 5 36 10 23 9 25 13 15 25
-15 18 -32 19 -48 3z"/>
<path d="M6835 620 c-4 -6 -3 -14 0 -20 9 -15 35 -12 35 4 0 17 -27 29 -35 16z"/>
<path d="M6996 615 c-6 -17 17 -31 34 -20 5 3 10 13 10 21 0 19 -36 18 -44 -1z"/>
<path d="M8737 593 c-15 -22 -27 -44 -27 -50 0 -6 18 -23 40 -38 33 -23 42
-25 55 -15 22 18 18 40 -6 40 -19 0 -20 4 -15 33 4 21 1 40 -7 51 -12 16 -15
15 -40 -21z"/>
<path d="M8843 623 c-16 -6 -17 -39 -2 -49 16 -9 43 21 36 40 -7 16 -13 18
-34 9z"/>
<path d="M9290 617 c0 -19 10 -27 26 -20 21 8 17 33 -6 33 -11 0 -20 -6 -20
-13z"/>
<path d="M10570 620 c0 -5 5 -10 10 -10 6 0 10 5 10 10 0 6 -4 10 -10 10 -5 0
-10 -4 -10 -10z"/>
<path d="M11037 616 c-8 -20 2 -26 40 -26 23 0 33 -5 33 -15 0 -8 -4 -15 -10
-15 -5 0 -10 -4 -10 -9 0 -9 60 19 86 40 11 9 12 15 4 23 -8 8 -15 6 -24 -6
-16 -21 -46 -24 -46 -4 0 7 -10 16 -22 20 -35 9 -45 7 -51 -8z"/>
<path d="M1837 614 c-11 -12 3 -24 29 -24 27 0 32 15 8 24 -20 8 -29 8 -37 0z"/>
<path d="M4015 610 c-8 -13 3 -50 15 -50 12 0 23 37 15 50 -3 5 -10 10 -15 10
-5 0 -12 -5 -15 -10z"/>
<path d="M5925 609 c-4 -6 -5 -13 -2 -16 7 -7 27 6 27 18 0 12 -17 12 -25 -2z"/>
<path d="M6140 605 c0 -8 7 -15 15 -15 8 0 15 7 15 15 0 8 -7 15 -15 15 -8 0
-15 -7 -15 -15z"/>
<path d="M6500 600 c0 -14 48 -43 60 -35 15 9 12 32 -6 39 -24 9 -54 7 -54 -4z"/>
<path d="M10948 586 c-7 -38 4 -47 32 -26 20 15 22 20 11 34 -19 23 -38 20
-43 -8z"/>
<path d="M11730 596 c0 -9 7 -16 16 -16 9 0 14 5 12 12 -6 18 -28 21 -28 4z"/>
<path d="M1056 591 c-4 -7 -5 -15 -2 -18 9 -9 19 4 14 18 -4 11 -6 11 -12 0z"/>
<path d="M1703 593 c-7 -3 -13 -13 -13 -24 0 -22 37 -34 75 -25 19 5 25 3 25
-11 0 -9 -7 -24 -15 -33 -14 -15 -14 -18 0 -30 13 -11 20 -11 40 0 19 10 27
10 39 1 13 -11 13 -9 3 13 -8 17 -20 26 -35 26 -14 0 -20 4 -17 10 4 6 1 17
-5 25 -6 8 -9 19 -5 24 3 6 0 8 -9 5 -8 -3 -27 1 -43 9 -15 8 -34 12 -40 10z"/>
<path d="M6620 581 c-16 -31 -12 -51 10 -51 22 0 55 43 45 60 -10 17 -44 11
-55 -9z"/>
<path d="M9690 580 c-11 -11 -20 -26 -20 -34 0 -11 9 -9 40 7 22 12 40 28 40
35 0 19 -38 14 -60 -8z"/>
<path d="M10855 590 c-9 -15 3 -47 21 -54 20 -8 28 17 14 43 -12 23 -25 27
-35 11z"/>
<path d="M1210 580 c0 -5 5 -10 10 -10 6 0 10 5 10 10 0 6 -4 10 -10 10 -5 0
-10 -4 -10 -10z"/>
<path d="M1471 557 c6 -13 19 -29 30 -36 18 -11 21 -9 26 8 3 12 14 21 24 21
11 0 19 5 19 10 0 14 -23 13 -37 -1 -9 -9 -18 -8 -37 5 -34 21 -38 20 -25 -7z"/>
<path d="M6847 551 c-25 -43 -22 -52 14 -39 24 8 37 8 51 -1 16 -10 27 -9 55
4 47 22 37 41 -19 37 -31 -2 -49 2 -58 13 -17 21 -23 19 -43 -14z"/>
<path d="M9483 550 c-53 -31 -70 -64 -39 -76 21 -8 56 14 56 36 0 10 9 26 21
34 44 30 13 35 -38 6z"/>
<path d="M12080 560 c0 -11 5 -20 10 -20 6 0 10 9 10 20 0 11 -4 20 -10 20 -5
0 -10 -9 -10 -20z"/>
<path d="M1975 561 c-8 -15 53 -73 73 -69 24 5 28 38 4 38 -10 0 -27 9 -37 20
-20 22 -31 25 -40 11z"/>
<path d="M2071 561 c-19 -12 -6 -28 30 -36 34 -8 67 14 55 34 -8 13 -65 14
-85 2z"/>
<path d="M4320 560 c0 -5 5 -10 10 -10 6 0 10 5 10 10 0 6 -4 10 -10 10 -5 0
-10 -4 -10 -10z"/>
<path d="M6373 534 c-18 -59 0 -80 40 -49 11 8 20 28 20 47 2 28 -2 33 -23 36
-21 2 -27 -3 -37 -34z"/>
<path d="M11662 563 c-13 -5 -42 -54 -42 -73 0 -18 28 -11 43 11 13 18 18 19
36 8 25 -17 36 -7 22 20 -13 24 -41 40 -59 34z"/>
<path d="M11861 556 c-8 -9 -11 -19 -7 -23 9 -9 29 13 24 27 -2 8 -8 7 -17 -4z"/>
<path d="M5710 550 c0 -5 4 -10 9 -10 6 0 13 5 16 10 3 6 -1 10 -9 10 -9 0
-16 -4 -16 -10z"/>
<path d="M6044 545 c-8 -21 2 -45 20 -45 14 0 29 37 20 52 -8 13 -34 9 -40 -7z"/>
<path d="M1285 540 c-9 -14 3 -30 24 -30 18 0 41 18 41 32 0 12 -58 10 -65 -2z"/>
<path d="M4492 538 c-16 -16 -15 -38 1 -38 17 1 47 25 47 39 0 15 -33 14 -48
-1z"/>
<path d="M10621 536 c-9 -10 -9 -16 -1 -21 17 -10 37 12 24 25 -8 8 -15 6 -23
-4z"/>
<path d="M10800 540 c0 -5 5 -10 11 -10 5 0 7 5 4 10 -3 6 -8 10 -11 10 -2 0
-4 -4 -4 -10z"/>
<path d="M11173 543 c-7 -2 -13 -11 -13 -19 0 -11 8 -14 28 -12 16 2 27 9 27
18 0 15 -21 22 -42 13z"/>
<path d="M2317 523 c-13 -12 -7 -23 12 -23 26 0 35 16 15 24 -19 7 -19 7 -27
-1z"/>
<path d="M9860 515 c0 -8 7 -15 15 -15 8 0 15 7 15 15 0 8 -7 15 -15 15 -8 0
-15 -7 -15 -15z"/>
<path d="M11004 519 c-9 -15 36 -50 60 -46 31 3 29 20 -5 40 -36 20 -45 21
-55 6z"/>
<path d="M10454 505 c-7 -17 -60 -46 -68 -37 -3 3 -6 14 -6 24 0 19 -8 22 -34
12 -21 -8 -20 -31 0 -42 15 -8 14 -14 -11 -46 -20 -26 -25 -40 -18 -47 17 -17
61 18 65 49 2 22 7 26 26 24 26 -4 92 24 92 38 0 9 -28 40 -36 40 -3 0 -7 -7
-10 -15z"/>
<path d="M10694 509 c-10 -17 13 -36 27 -22 12 12 4 33 -11 33 -5 0 -12 -5
-16 -11z"/>
<path d="M11114 509 c-3 -6 -1 -16 5 -22 9 -9 14 -8 21 3 5 8 10 18 10 23 0
11 -28 8 -36 -4z"/>
<path d="M1540 490 c0 -11 8 -24 18 -27 9 -4 22 -13 28 -21 12 -16 34 -8 34
11 -2 43 -80 79 -80 37z"/>
<path d="M3790 485 c0 -23 2 -25 21 -15 23 13 21 33 -4 38 -12 3 -17 -4 -17
-23z"/>
<path d="M6196 494 c-12 -32 -6 -44 23 -44 21 0 32 -6 36 -20 3 -11 15 -20 25
-20 29 0 34 19 7 29 -13 5 -30 23 -37 40 -13 33 -44 42 -54 15z"/>
<path d="M10888 499 c-10 -5 -18 -17 -18 -26 0 -13 3 -14 12 -5 7 7 22 12 35
12 26 0 31 15 7 24 -19 7 -15 8 -36 -5z"/>
<path d="M4666 477 c-18 -15 -26 -28 -22 -36 6 -10 12 -9 24 2 10 8 25 17 35
20 19 7 23 37 5 37 -7 0 -26 -11 -42 -23z"/>
<path d="M10517 493 c-8 -8 -9 -43 -1 -43 16 0 44 23 44 35 0 15 -31 21 -43 8z"/>
<path d="M6634 475 c-4 -8 -11 -15 -18 -15 -7 0 -29 -18 -51 -40 -35 -36 -37
-42 -27 -65 16 -35 42 -33 42 4 0 38 20 58 69 66 49 8 69 28 51 50 -7 8 -23
15 -37 15 -13 0 -26 -7 -29 -15z"/>
<path d="M6778 483 c-50 -8 -25 -40 37 -50 30 -5 36 -3 31 8 -3 8 -9 22 -12
32 -4 9 -11 16 -18 16 -6 -1 -23 -4 -38 -6z"/>
<path d="M1980 465 c0 -8 5 -15 10 -15 6 0 10 7 10 15 0 8 -4 15 -10 15 -5 0
-10 -7 -10 -15z"/>
<path d="M6505 470 c4 -6 11 -8 16 -5 14 9 11 15 -7 15 -8 0 -12 -5 -9 -10z"/>
<path d="M8420 470 c0 -5 5 -10 10 -10 6 0 10 5 10 10 0 6 -4 10 -10 10 -5 0
-10 -4 -10 -10z"/>
<path d="M2772 450 c-17 -27 -15 -40 6 -40 23 0 42 19 42 42 0 24 -32 23 -48
-2z"/>
<path d="M4201 454 c0 -11 3 -14 6 -6 3 7 2 16 -1 19 -3 4 -6 -2 -5 -13z"/>
<path d="M10923 434 c-15 -30 -15 -36 -3 -44 8 -5 25 -6 39 -3 20 5 22 3 16
-16 -10 -32 23 -41 46 -12 13 16 24 20 42 16 31 -8 55 18 37 40 -17 21 -37 19
-50 -5 -23 -43 -105 -10 -94 37 9 36 -14 27 -33 -13z"/>
<path d="M10605 451 c-7 -12 12 -24 25 -16 11 7 4 25 -10 25 -5 0 -11 -4 -15
-9z"/>
<path d="M11201 451 c-9 -6 -11 -18 -6 -40 8 -38 30 -41 39 -5 5 20 10 23 21
14 8 -7 15 -7 19 -1 4 7 -47 43 -58 41 -1 0 -7 -4 -15 -9z"/>
<path d="M4375 440 c-8 -13 4 -32 16 -25 12 8 12 35 0 35 -6 0 -13 -4 -16 -10z"/>
<path d="M11315 432 c-6 -17 15 -24 56 -20 21 2 35 9 37 19 2 13 -6 16 -42 15
-27 -1 -48 -6 -51 -14z"/>
<path d="M1785 430 c-8 -12 20 -24 35 -15 6 3 8 11 5 16 -8 12 -32 12 -40 -1z"/>
<path d="M3075 431 c-3 -5 4 -13 16 -16 23 -8 34 -1 24 14 -8 13 -32 14 -40 2z"/>
<path d="M11583 425 c-3 -9 -3 -18 0 -22 10 -10 37 6 37 22 0 20 -29 20 -37 0z"/>
<path d="M12067 434 c-4 -4 -4 -10 -1 -15 6 -10 34 0 34 12 0 10 -24 12 -33 3z"/>
<path d="M5377 424 c-4 -4 -4 -10 -1 -15 6 -10 34 0 34 12 0 10 -24 12 -33 3z"/>
<path d="M5557 419 c-9 -6 -17 -14 -17 -19 0 -16 30 -11 37 5 8 21 1 25 -20
14z"/>
<path d="M10695 421 c-12 -11 -2 -19 35 -29 41 -10 70 4 55 28 -6 10 -80 11
-90 1z"/>
<path d="M11450 402 c0 -20 -7 -33 -25 -42 -14 -7 -25 -17 -25 -22 0 -13 29
-9 55 8 25 16 31 38 19 68 -10 26 -24 18 -24 -12z"/>
<path d="M12163 407 c5 -15 37 -22 37 -9 0 5 -9 12 -21 15 -13 3 -19 1 -16 -6z"/>
<path d="M1568 403 c7 -3 16 -2 19 1 4 3 -2 6 -13 5 -11 0 -14 -3 -6 -6z"/>
<path d="M4902 398 c6 -18 28 -21 28 -4 0 9 -7 16 -16 16 -9 0 -14 -5 -12 -12z"/>
<path d="M10425 397 c-25 -19 -3 -30 29 -16 14 7 26 16 26 21 0 13 -34 9 -55
-5z"/>
<path d="M3560 385 c0 -8 7 -15 15 -15 8 0 15 7 15 15 0 8 -7 15 -15 15 -8 0
-15 -7 -15 -15z"/>
<path d="M5191 391 c-16 -11 2 -51 24 -51 21 0 27 17 13 40 -14 22 -17 23 -37
11z"/>
<path d="M11145 390 c-7 -12 2 -30 16 -30 12 0 12 27 0 35 -5 3 -12 1 -16 -5z"/>
<path d="M4314 379 c-7 -13 23 -42 39 -36 16 5 12 20 -10 34 -16 11 -23 11
-29 2z"/>
<path d="M6122 378 c-16 -16 -15 -48 1 -48 19 0 37 21 37 42 0 21 -20 24 -38
6z"/>
<path d="M6640 374 c0 -9 7 -14 17 -12 25 5 28 28 4 28 -12 0 -21 -6 -21 -16z"/>
<path d="M9890 376 c0 -8 7 -16 15 -20 13 -4 14 -2 5 14 -13 23 -20 26 -20 6z"/>
<path d="M10040 374 c0 -17 22 -14 28 4 2 7 -3 12 -12 12 -9 0 -16 -7 -16 -16z"/>
<path d="M5810 350 c0 -24 15 -27 24 -4 9 22 8 24 -9 24 -8 0 -15 -9 -15 -20z"/>
<path d="M10337 343 c-4 -3 -7 -12 -7 -20 0 -17 26 -17 33 1 8 21 -11 35 -26
19z"/>
<path d="M10670 340 c0 -11 48 -25 56 -17 4 3 3 10 -1 16 -8 14 -55 14 -55 1z"/>
<path d="M11294 329 c-9 -15 12 -33 30 -26 9 4 16 13 16 22 0 17 -35 21 -46 4z"/>
<path d="M10077 324 c-14 -15 -6 -34 14 -34 14 0 19 5 17 17 -3 18 -20 27 -31
17z"/>
<path d="M10760 305 c0 -8 5 -15 10 -15 6 0 10 7 10 15 0 8 -4 15 -10 15 -5 0
-10 -7 -10 -15z"/>
<path d="M11219 304 c-11 -14 -10 -15 11 -12 13 1 25 9 28 16 5 17 -23 15 -39
-4z"/>
<path d="M12013 313 c-20 -8 -15 -23 7 -23 11 0 20 7 20 15 0 15 -6 17 -27 8z"/>
<path d="M10515 301 c-6 -11 9 -23 19 -14 9 9 7 23 -3 23 -6 0 -12 -4 -16 -9z"/>
<path d="M11870 300 c0 -5 5 -10 10 -10 6 0 10 5 10 10 0 6 -4 10 -10 10 -5 0
-10 -4 -10 -10z"/>
<path d="M426 8809 c-18 -22 -18 -22 15 -15 38 7 43 11 34 25 -10 17 -29 13
-49 -10z"/>
<path d="M381 8781 c-10 -7 -10 -10 -1 -16 6 -4 16 -3 22 3 13 13 -4 23 -21
13z"/>
<path d="M370 8700 c0 -11 7 -20 15 -20 8 0 15 6 15 14 0 8 -7 16 -15 20 -10
4 -15 -1 -15 -14z"/>
<path d="M215 2960 c-3 -5 -3 -14 0 -20 3 -5 -3 -10 -15 -10 -12 0 -19 4 -15
9 9 16 -15 24 -31 11 -21 -18 1 -40 35 -37 41 5 61 18 61 38 0 20 -24 26 -35
9z"/>
</g>
</svg>
