<?xml version="1.0" standalone="no"?>
<!DOCTYPE svg PUBLIC "-//W3C//DTD SVG 20010904//EN"
 "http://www.w3.org/TR/2001/REC-SVG-20010904/DTD/svg10.dtd">
<svg version="1.0" xmlns="http://www.w3.org/2000/svg"
 width="1280.000000pt" height="1280.000000pt" viewBox="0 0 1280.000000 1280.000000"
 preserveAspectRatio="xMidYMid meet">

<g transform="translate(0.000000,1280.000000) scale(0.100000,-0.100000)"
fill="#000000" stroke="none">
<path d="M0 6400 l0 -6400 6400 0 6400 0 0 6400 0 6400 -1930 0 c-1789 0
-1930 -1 -1930 -17 0 -15 -1 -15 -18 0 -12 11 -36 17 -64 17 -44 0 -44 0 -40
-30 2 -16 10 -30 18 -30 10 0 12 -8 8 -29 -5 -23 -2 -32 16 -41 24 -13 28 -11
44 22 6 12 17 23 24 26 19 6 14 -26 -8 -48 -11 -11 -20 -25 -20 -30 0 -6 -3
-9 -7 -8 -5 0 -16 -2 -26 -7 -10 -4 -24 -2 -33 6 -14 12 -19 11 -32 -9 -19
-29 -36 -28 -60 3 -26 33 -39 32 -47 -5 -9 -39 -25 -48 -44 -23 -9 11 -21 18
-26 17 -16 -5 -54 63 -48 85 8 31 -25 27 -37 -4 -6 -15 -17 -25 -30 -25 -18 0
-20 6 -20 65 l0 65 -2523 0 -2523 0 -2 -26 c-1 -15 3 -33 9 -41 17 -19 5 -27
-21 -13 -18 9 -21 19 -18 46 4 34 4 34 -38 34 -25 0 -47 -6 -54 -15 -7 -8 -17
-15 -23 -15 -6 0 -21 -10 -34 -22 -18 -17 -26 -19 -32 -10 -4 7 -17 14 -28 14
-14 2 -18 8 -15 24 4 21 1 22 -77 23 l-82 1 3 -33 c2 -17 -1 -32 -7 -32 -5 0
-9 15 -8 33 l2 32 -64 0 c-57 0 -65 -2 -65 -19 0 -19 52 -46 64 -34 9 10 7
-11 -4 -27 -7 -12 -12 -12 -22 -2 -6 6 -21 12 -33 12 -15 0 -25 10 -34 35 -11
31 -16 35 -47 35 -24 0 -34 -5 -34 -15 0 -19 -14 -19 -30 0 -10 13 -188 15
-1381 15 l-1369 0 0 -6400z m8865 6371 c3 -5 1 -12 -5 -16 -5 -3 -10 1 -10 9
0 18 6 21 15 7z m-5501 -27 c10 -25 7 -44 -6 -44 -16 0 -48 31 -48 47 0 18 47
16 54 -3z m-217 -20 c1 -5 -2 -16 -7 -24 -12 -20 -35 2 -26 25 6 17 27 16 33
-1z m-2457 -49 c0 -2 -11 0 -24 5 -15 5 -27 5 -35 -3 -8 -8 -11 -7 -11 4 0 9
3 18 6 22 6 6 64 -19 64 -28z m125 -5 c4 -12 2 -27 -4 -34 -15 -18 -4 -92 20
-134 11 -18 19 -41 19 -51 0 -25 29 -81 42 -81 7 0 8 16 4 45 -4 24 -3 52 3
62 6 13 5 24 -5 38 -8 10 -14 25 -14 34 0 8 -7 23 -17 33 -9 10 -14 21 -11 23
5 5 23 -8 85 -62 14 -13 29 -23 34 -23 10 0 -18 55 -36 70 -19 16 -19 29 1 51
22 24 64 6 64 -28 0 -30 26 -93 39 -93 18 0 17 35 -1 60 -10 14 -21 42 -25 63
-5 36 -5 37 26 37 17 0 31 -5 31 -12 0 -6 8 -4 20 7 26 24 54 13 43 -17 -14
-40 -7 -108 13 -123 26 -19 29 -19 48 10 16 24 15 27 -9 65 -31 50 -32 70 -2
69 12 0 16 -3 10 -6 -21 -8 -15 -20 14 -26 19 -3 37 2 57 16 30 21 94 30 150
20 25 -4 27 -8 22 -34 -6 -31 1 -59 15 -59 5 0 9 7 9 15 0 7 7 18 16 23 13 7
14 13 5 30 -6 11 -7 23 -3 26 5 3 67 3 138 1 71 -3 215 -8 319 -11 105 -3 228
-7 275 -9 47 -2 202 -5 345 -8 214 -4 267 -8 299 -21 34 -15 40 -16 55 -2 33
30 271 7 312 -30 13 -12 70 -16 290 -19 151 -2 337 -6 414 -9 77 -3 345 -8
595 -11 250 -3 469 -7 485 -10 46 -6 632 -23 900 -25 83 -1 211 -5 285 -10
124 -9 378 -20 560 -25 307 -9 482 -17 507 -23 15 -5 89 -9 163 -10 74 -2 147
-8 162 -13 18 -7 32 -7 46 0 13 7 39 7 82 0 34 -5 70 -7 80 -4 10 3 37 1 61
-5 35 -8 314 -21 454 -21 17 0 45 0 62 0 18 0 44 8 58 17 17 11 36 14 57 10
18 -3 143 -8 276 -11 134 -3 265 -10 290 -16 26 -6 110 -11 187 -11 77 0 199
-4 270 -8 156 -10 349 -20 465 -25 259 -12 354 -16 440 -22 52 -3 113 -6 135
-7 22 -1 45 -4 51 -8 6 -4 60 -8 120 -9 196 -2 398 -14 415 -25 7 -4 45 -7 84
-6 38 2 93 -2 120 -8 28 -6 79 -17 115 -25 91 -19 238 -60 246 -68 4 -4 16 -7
26 -7 22 0 22 -1 -1 -53 -11 -23 -22 -55 -25 -72 -17 -94 -23 -122 -30 -133
-4 -7 -5 -31 -1 -53 8 -44 34 -62 70 -49 13 5 34 2 54 -6 19 -8 85 -16 154
-19 67 -3 148 -10 180 -16 31 -7 73 -9 93 -6 19 3 47 1 62 -5 15 -6 59 -12 99
-13 39 -1 84 -7 100 -12 15 -6 71 -17 123 -24 52 -6 105 -16 118 -20 25 -10
29 -41 8 -78 -11 -20 -11 -28 2 -53 13 -26 15 -53 12 -153 0 -11 3 -39 6 -62
5 -33 1 -53 -16 -84 -15 -30 -18 -44 -10 -49 7 -4 12 -36 12 -74 1 -42 6 -70
15 -77 7 -6 13 -21 13 -33 0 -12 5 -27 11 -33 13 -13 8 -93 -6 -93 -5 0 -11
20 -13 45 l-3 46 -18 -23 c-35 -45 -34 -58 9 -104 42 -46 44 -71 7 -76 -29 -4
-33 -35 -8 -59 27 -25 27 -64 -1 -83 l-21 -15 31 -30 c39 -35 40 -48 7 -61
-28 -11 -32 -31 -10 -50 19 -16 19 -41 0 -66 -8 -10 -15 -35 -15 -55 0 -20 -7
-50 -15 -65 -21 -42 -19 -63 10 -74 14 -5 25 -16 25 -25 0 -17 -25 -20 -36 -4
-10 16 -26 -5 -18 -24 3 -9 12 -17 19 -17 22 0 28 -19 15 -51 -9 -21 -10 -33
-2 -41 15 -15 3 -247 -15 -274 -9 -14 -12 -34 -7 -61 3 -24 1 -49 -5 -62 -9
-16 -8 -27 4 -50 19 -38 19 -100 0 -125 -24 -32 -19 -75 10 -86 35 -13 35 -57
0 -70 -28 -10 -27 -10 -27 -143 0 -49 5 -94 10 -99 12 -12 4 -70 -11 -79 -6
-5 -6 -18 2 -39 14 -41 14 -83 1 -96 -6 -6 -6 -22 0 -44 10 -36 0 -60 -26 -60
-8 0 -14 -7 -14 -16 0 -11 6 -14 20 -9 17 5 20 2 20 -23 0 -16 9 -41 20 -55
25 -31 28 -56 5 -37 -28 23 -38 -3 -18 -44 16 -35 16 -40 1 -84 -15 -41 -15
-48 -2 -63 10 -11 13 -26 8 -43 -4 -16 0 -42 10 -67 15 -37 15 -44 1 -65 -8
-13 -15 -35 -15 -49 0 -29 -17 -33 -36 -7 -12 16 -13 16 -20 -2 -6 -15 3 -29
38 -61 70 -63 92 -176 32 -161 l-24 6 6 -117 c8 -145 8 -140 -1 -185 -5 -26
-4 -38 4 -38 6 0 11 11 11 25 0 16 6 25 15 25 18 0 20 -42 4 -72 -8 -14 -7
-28 2 -49 16 -40 -1 -61 -29 -36 -24 22 -32 21 -32 -2 0 -10 -7 -21 -15 -25
-8 -3 -15 -18 -15 -33 0 -15 -4 -35 -10 -43 -10 -16 7 -43 22 -34 15 10 60 -6
55 -19 -2 -7 -10 -11 -16 -9 -6 1 -11 -9 -11 -23 0 -16 6 -25 15 -25 25 0 40
-44 26 -78 -7 -17 -10 -44 -6 -64 6 -31 3 -40 -24 -67 -36 -37 -38 -47 -11
-54 26 -7 26 -41 -1 -66 -19 -18 -20 -21 -5 -49 16 -31 22 -112 9 -112 -4 0
-17 10 -30 21 -21 20 -23 21 -29 4 -4 -10 -2 -32 4 -49 7 -18 15 -61 18 -97 4
-35 11 -69 16 -75 10 -14 -26 -116 -47 -134 -22 -19 -18 -39 10 -50 30 -12 33
-46 5 -55 -29 -9 -26 -45 4 -45 29 0 43 -39 25 -71 -6 -12 -9 -32 -6 -45 6
-34 -21 -31 -34 3 -5 15 -7 45 -4 68 l6 40 -21 -34 -22 -34 20 -36 c24 -43 38
-126 22 -136 -14 -9 -13 -36 3 -34 46 6 49 -13 7 -48 -33 -27 -37 -48 -15 -77
22 -29 30 -103 14 -132 -10 -20 -10 -29 -1 -44 16 -26 14 -116 -3 -165 -20
-53 -19 -59 5 -35 12 12 26 18 32 14 7 -5 2 -16 -17 -31 -25 -22 -26 -27 -15
-48 10 -19 10 -27 1 -39 -7 -8 -10 -20 -6 -26 12 -19 14 -104 3 -141 -9 -30
-8 -41 6 -60 20 -29 21 -81 2 -117 -17 -35 -27 -137 -14 -150 6 -6 5 -16 -3
-30 -10 -16 -10 -26 -1 -47 16 -35 15 -64 -3 -71 -19 -8 -19 -48 0 -64 19 -16
19 -31 -2 -74 -15 -33 -15 -36 1 -61 11 -16 15 -36 12 -50 -3 -13 -1 -36 6
-51 10 -21 10 -28 -2 -38 -9 -6 -14 -23 -12 -38 2 -20 -1 -28 -12 -28 -21 0
-20 -5 5 -39 18 -24 20 -37 15 -82 -4 -30 -7 -72 -6 -93 0 -22 -5 -45 -11 -52
-12 -14 -3 -55 14 -66 8 -5 7 -14 -2 -31 -11 -21 -10 -29 4 -57 11 -21 14 -42
10 -59 -4 -14 -8 -69 -10 -121 -2 -52 -4 -104 -5 -115 0 -11 2 -35 6 -53 5
-25 1 -46 -16 -79 -12 -24 -19 -47 -16 -50 3 -4 6 -1 6 5 0 7 7 12 15 12 12 0
14 -13 11 -67 -2 -38 1 -76 5 -85 7 -12 4 -20 -7 -26 -14 -8 -14 -13 -4 -32 9
-18 9 -27 0 -46 -10 -18 -10 -26 -1 -38 8 -9 10 -28 6 -50 -6 -27 -2 -41 14
-62 12 -15 21 -34 21 -43 0 -26 -29 -61 -51 -61 -20 0 -27 -34 -9 -45 6 -3 10
-17 10 -29 0 -13 7 -40 15 -59 8 -20 15 -54 15 -75 0 -23 -6 -45 -15 -52 -8
-7 -15 -23 -15 -36 0 -12 -5 -35 -10 -50 -6 -15 -7 -30 -2 -33 5 -3 9 -32 10
-64 1 -31 6 -66 12 -76 15 -29 12 -51 -6 -51 -12 0 -14 -5 -9 -17 4 -10 9 -27
10 -38 1 -11 5 -27 9 -36 4 -10 6 -23 5 -30 -1 -8 1 -27 6 -42 6 -22 2 -36
-18 -64 -27 -38 -26 -57 4 -74 28 -15 26 -91 -2 -118 -12 -11 -19 -26 -15 -33
4 -7 15 -29 25 -48 14 -26 16 -41 9 -61 -6 -18 -6 -34 1 -48 17 -30 13 -43 -9
-36 -25 8 -27 -13 -5 -56 14 -27 14 -32 -1 -58 -16 -28 -16 -31 4 -74 15 -32
28 -47 44 -49 33 -4 38 -71 8 -103 -12 -13 -18 -28 -14 -38 8 -21 20 -22 28
-2 8 22 26 18 26 -5 0 -11 4 -28 9 -38 4 -9 13 -33 20 -52 10 -30 9 -37 -6
-48 -12 -9 -32 -11 -55 -8 -37 6 -38 6 -38 -26 0 -18 -9 -44 -20 -58 -27 -35
-25 -40 15 -33 41 7 43 -1 14 -58 -14 -28 -25 -39 -35 -35 -12 5 -14 -1 -8
-32 4 -20 13 -44 20 -53 18 -20 18 -34 -2 -50 -11 -9 -14 -22 -10 -42 3 -16 1
-47 -6 -69 -10 -33 -9 -41 3 -48 9 -6 15 -5 17 3 11 41 13 43 28 23 20 -28 18
-66 -4 -66 -26 0 -42 -20 -42 -52 0 -18 -5 -28 -15 -28 -10 0 -15 -10 -15 -27
0 -14 3 -23 6 -20 4 3 15 2 26 -4 13 -7 18 -19 16 -37 -4 -33 -37 -41 -128
-31 -36 5 -175 10 -310 13 -451 8 -673 17 -691 27 -10 5 -27 9 -38 9 -11 0
-33 16 -48 35 -20 25 -33 33 -46 29 -12 -4 -28 2 -42 16 l-23 22 -11 -21 c-7
-12 -18 -21 -26 -21 -8 0 -21 -13 -30 -30 -15 -30 -38 -37 -100 -32 -11 1
-117 4 -235 6 -319 7 -601 15 -725 21 -210 11 -811 31 -1161 40 -62 1 -116 5
-121 8 -6 4 -48 6 -94 6 -104 0 -76 0 -374 6 -137 3 -275 8 -305 11 -54 5 -79
6 -132 4 -33 -2 -38 -26 -7 -35 26 -9 20 -28 -12 -35 -19 -5 -25 -14 -30 -48
-3 -23 -8 -44 -11 -48 -12 -11 -101 -16 -580 -28 -92 -2 -171 -7 -176 -10 -11
-6 -1471 -20 -1932 -17 -304 1 -461 -8 -507 -31 -17 -8 -25 -7 -38 6 -18 18
-33 19 -155 17 -176 -5 -646 -6 -667 -2 -12 2 -33 13 -47 26 -17 15 -28 19
-35 12 -13 -13 -119 41 -127 66 -3 9 -13 17 -22 17 -9 0 -25 14 -34 30 -20 35
-38 39 -45 10 -3 -11 -8 -20 -12 -20 -3 0 -12 9 -19 20 -19 32 -48 25 -56 -12
-3 -17 -12 -39 -20 -47 -8 -9 -16 -25 -18 -36 -4 -26 -45 -31 -93 -11 -41 18
-85 21 -85 7 0 -8 -34 -18 -85 -25 -11 -1 -32 -10 -47 -20 -26 -17 -29 -17
-82 3 -35 13 -57 17 -61 10 -4 -5 -21 -7 -39 -4 -23 5 -36 2 -46 -10 -9 -11
-28 -15 -64 -15 -28 1 -134 -4 -236 -10 -222 -15 -456 -22 -600 -20 -58 1
-127 -4 -155 -10 -52 -12 -108 -13 -245 -5 -171 10 -306 6 -460 -14 -171 -22
-277 -32 -352 -35 -43 -1 -81 -5 -84 -9 -11 -11 -34 13 -34 35 0 26 -24 18
-28 -9 -2 -16 -12 -22 -40 -26 -21 -2 -43 1 -52 8 -8 7 -27 15 -43 19 -34 8
-67 40 -67 65 0 14 -5 18 -19 14 -13 -3 -25 7 -45 41 -15 25 -31 46 -35 46
-11 0 -37 61 -33 78 2 7 -2 29 -9 49 -8 24 -14 32 -22 24 -7 -7 -6 -15 3 -26
19 -23 -2 -44 -25 -25 -14 12 -15 49 -10 329 3 174 6 325 6 336 1 11 -2 29 -6
41 -5 16 -1 23 19 32 27 12 36 34 14 31 -31 -4 -33 5 -36 122 -3 84 0 125 9
135 9 12 9 20 -1 39 -15 27 -11 35 17 39 10 2 19 13 21 27 3 19 1 22 -9 12
-21 -21 -41 -16 -37 10 2 16 9 21 26 20 29 -3 31 33 2 42 -14 5 -20 15 -20 37
0 26 2 29 15 18 20 -16 41 1 31 25 -4 12 -10 14 -25 5 -19 -9 -20 -6 -23 81
-3 79 -1 92 15 100 9 6 17 16 17 23 0 8 12 22 27 31 26 18 27 17 41 -3 16 -24
32 -28 49 -11 13 13 -18 49 -42 49 -9 0 -15 9 -15 25 0 30 -16 33 -25 5 -3
-11 -9 -20 -13 -20 -4 0 -17 -3 -30 -6 l-23 -7 3 109 c1 60 0 114 -2 119 -3 6
-4 88 -2 183 3 162 5 174 23 180 20 8 20 8 0 34 -26 32 -27 48 -3 48 11 0 27
9 37 20 17 19 17 22 2 37 -13 13 -19 14 -31 4 -19 -16 -29 3 -24 45 4 34 25
43 30 12 2 -13 10 -23 18 -23 27 0 22 34 -14 88 -33 50 -46 103 -30 120 9 9
44 -37 44 -57 0 -8 13 -25 29 -37 25 -18 29 -26 24 -55 -4 -26 -2 -34 10 -34
8 0 18 11 21 25 8 31 24 33 28 3 2 -15 11 -24 26 -26 30 -4 38 22 17 54 -13
20 -19 23 -30 14 -8 -7 -18 -9 -23 -6 -9 5 -8 17 4 107 5 41 4 46 -20 57 -16
7 -26 20 -26 32 0 23 31 41 38 21 2 -7 13 -20 23 -30 11 -10 17 -25 13 -34 -3
-8 -1 -25 6 -36 7 -14 8 -27 1 -39 -17 -32 8 -46 36 -20 27 25 29 43 8 64 -19
19 -19 50 -1 57 18 7 10 40 -15 63 -17 16 -19 16 -20 1 -2 -30 -4 -35 -12 -43
-4 -5 -7 8 -6 27 2 19 -1 41 -6 49 -13 20 -14 152 -2 167 7 10 19 2 46 -28 33
-35 39 -38 50 -25 8 9 22 16 32 16 23 0 25 28 3 37 -20 8 -11 66 17 105 19 27
19 27 -3 48 -28 26 -43 21 -43 -15 0 -35 -20 -44 -35 -16 -16 31 -37 25 -51
-14 -7 -19 -19 -35 -26 -35 -16 0 -17 15 -3 40 7 13 6 27 -1 44 -9 19 -9 29 0
40 9 10 9 20 0 40 -17 36 2 57 29 33 10 -9 27 -17 36 -17 15 0 17 -6 14 -30
-4 -29 5 -40 17 -20 12 19 43 10 72 -20 34 -37 60 -39 69 -6 8 34 -3 47 -31
40 -25 -6 -25 -6 -21 66 4 99 -29 190 -71 190 -18 0 -17 -15 2 -30 11 -9 13
-16 5 -24 -16 -16 -12 -40 10 -54 22 -13 27 -60 10 -93 -15 -27 -27 -24 -66
18 -36 38 -41 70 -11 65 29 -5 20 36 -14 68 -25 22 -30 34 -25 54 9 38 -11 70
-65 102 -56 33 -68 53 -43 71 15 11 21 10 39 -7 12 -11 24 -20 27 -20 11 0 32
65 29 89 -3 28 17 71 34 71 7 0 20 -9 31 -21 18 -20 18 -21 0 -34 -25 -18 -14
-45 19 -45 25 0 35 23 15 35 -5 3 -10 29 -10 56 0 53 0 54 -90 128 -47 40 -52
74 -10 79 35 4 70 23 70 38 0 19 -25 23 -55 8 -35 -18 -49 -18 -65 1 -9 11 -9
22 1 50 15 40 30 44 66 15 17 -13 33 -17 54 -13 23 4 29 2 29 -12 0 -22 28
-55 47 -55 19 0 16 16 -14 71 -24 41 -26 52 -15 66 7 10 19 33 27 51 9 17 20
32 25 32 6 0 10 6 10 14 0 30 -23 27 -57 -5 -33 -33 -35 -33 -49 -14 -20 27
-14 36 34 51 24 6 49 17 57 24 10 9 19 9 35 0 22 -12 23 -30 6 -71 -5 -11 -1
-18 11 -22 10 -4 26 -12 35 -19 15 -10 20 -10 33 3 15 15 13 19 -20 53 -23 24
-34 44 -30 53 5 14 9 13 28 -6 30 -27 37 -27 37 4 0 14 5 25 10 25 6 0 10 -5
10 -12 0 -14 30 -48 42 -48 14 0 9 15 -23 63 -28 43 -59 62 -59 37 0 -5 -13
-10 -28 -10 -15 0 -33 -5 -39 -11 -8 -8 -17 -7 -32 3 -18 11 -23 10 -37 -10
-20 -28 -37 -18 -29 17 4 20 -1 38 -20 65 -14 20 -25 44 -25 53 0 9 -7 25 -17
35 -9 10 -13 21 -9 25 4 5 12 1 17 -8 10 -18 66 -45 76 -36 9 9 -5 54 -22 71
-9 8 -32 20 -53 26 -32 9 -39 8 -54 -10 -9 -11 -21 -20 -26 -20 -5 0 -21 27
-36 60 l-26 61 21 63 21 64 49 0 c48 0 49 -1 49 -30 0 -27 -3 -30 -25 -26 -37
7 -72 -43 -56 -78 13 -30 37 -31 44 -3 7 25 36 23 48 -3 28 -58 22 -54 102
-57 22 -1 27 -6 27 -26 0 -30 24 -43 46 -24 19 16 12 49 -24 106 -30 47 -46
53 -62 23 -15 -28 -45 -25 -69 6 -25 32 -27 52 -4 61 11 4 22 -1 31 -15 27
-40 58 -20 41 26 -7 18 -14 21 -33 16 -18 -4 -27 -1 -34 13 -5 10 -8 23 -5 29
2 5 -8 21 -22 34 -35 32 -33 60 3 60 15 0 33 5 40 12 20 20 25 -16 7 -57 -14
-36 -14 -39 4 -57 38 -34 78 -14 45 23 -15 17 -16 24 -6 39 7 11 12 28 12 39
0 10 7 24 15 31 13 11 12 15 -9 31 -30 24 -35 24 -62 -2 -18 -17 -26 -19 -43
-10 -25 14 -61 -1 -61 -24 0 -8 -9 -19 -19 -25 -11 -5 -21 -22 -23 -37 -2 -19
-12 -32 -31 -41 -25 -12 -28 -18 -23 -47 5 -22 2 -36 -8 -44 -24 -20 -39 -3
-31 33 4 17 7 52 6 77 -1 40 4 50 33 77 19 17 37 39 40 49 3 10 25 30 49 44
39 24 46 25 68 13 32 -18 66 -17 73 1 3 8 15 15 26 15 22 0 26 20 8 38 -18 18
-38 14 -38 -8 0 -23 -28 -27 -36 -5 -4 8 -1 22 6 30 16 19 14 21 -32 29 -40 7
-51 -7 -26 -32 10 -9 9 -16 -4 -28 -15 -15 -17 -15 -32 2 -106 130 -112 142
-78 166 11 7 25 24 32 37 l13 25 18 -23 c11 -13 19 -38 19 -57 0 -39 9 -43 35
-14 22 24 38 25 55 5 17 -20 43 -19 70 3 17 14 21 24 15 41 -7 22 -11 23 -61
17 -53 -6 -55 -5 -72 23 -10 19 -26 31 -42 33 -17 2 -25 9 -25 23 0 19 10 22
45 14 20 -5 25 36 9 85 -7 23 -16 45 -20 50 -11 12 -21 -31 -15 -62 3 -15 2
-33 -3 -41 -7 -11 -12 -10 -29 7 l-20 20 -20 -21 c-25 -24 -49 -17 -58 18 -5
20 -1 32 15 48 l22 22 22 -27 c27 -33 57 -25 38 10 -6 11 -11 48 -11 81 0 60
-1 62 -50 111 l-50 51 2 86 2 85 39 25 c31 20 38 29 35 51 -3 24 -7 27 -36 24
-17 -1 -32 1 -33 5 -6 77 -5 86 13 109 20 24 18 54 -2 54 -13 0 -13 175 1 201
7 13 19 19 37 17 21 -2 27 1 27 17 0 16 -7 20 -35 20 l-35 0 0 135 c0 74 3
143 8 153 12 27 35 20 54 -15 17 -31 18 -32 21 -10 7 43 -16 81 -51 84 -30 3
-32 5 -29 38 1 19 7 47 13 62 9 21 8 31 -4 48 -16 23 -11 69 9 77 18 7 18 43
0 43 -8 0 -17 9 -21 20 -7 24 9 58 19 41 10 -16 23 -14 30 5 4 10 -5 29 -25
51 -24 28 -29 42 -25 62 4 14 9 59 13 98 3 40 10 70 14 67 5 -3 9 0 9 5 0 6
-4 11 -9 11 -16 0 -20 152 -5 185 13 26 13 33 -3 61 -14 27 -15 35 -4 48 8 9
22 16 32 16 21 0 35 39 24 67 -6 17 -7 17 -19 1 -7 -10 -20 -18 -28 -18 -12 0
-15 12 -13 63 1 34 3 65 4 69 1 7 54 38 64 38 3 0 8 -12 11 -26 8 -32 35 -29
55 8 18 30 9 47 -14 28 -27 -22 -46 5 -43 64 2 40 0 51 -14 54 -12 2 -17 -5
-20 -30 -2 -22 -9 -34 -20 -36 -16 -3 -18 7 -18 110 0 74 4 118 12 126 9 9 9
17 -1 35 -20 37 -11 73 17 70 30 -4 29 22 -4 43 -16 11 -24 24 -22 38 3 18 10
21 52 21 33 0 51 5 54 14 3 10 -2 13 -22 9 -14 -3 -26 -1 -26 3 0 5 -11 9 -24
9 -14 0 -28 5 -31 11 -4 5 -4 57 0 114 l7 105 29 -17 c16 -9 32 -14 36 -9 11
11 -10 39 -40 54 -26 13 -27 16 -28 100 -1 48 0 157 1 242 2 85 4 215 4 287 1
73 4 133 9 133 4 0 7 -7 7 -15 0 -8 9 -15 20 -15 11 0 20 5 20 10 0 6 9 10 20
10 21 0 26 16 11 39 -8 12 -12 12 -25 2 -11 -9 -20 -10 -35 -1 -26 13 -30 84
-6 94 19 7 19 33 0 43 -9 5 -12 17 -8 31 8 34 30 25 24 -10 0 -5 3 -8 9 -8 17
0 11 61 -9 86 -22 28 -36 130 -22 166 8 22 14 24 65 23 46 -2 56 1 61 16 6 17
10 16 46 -13 21 -17 42 -28 46 -25 3 4 12 2 20 -4 10 -9 18 -8 33 6 25 22 25
39 3 65 -11 12 -16 32 -15 50 4 39 -19 49 -47 21 -12 -12 -29 -21 -40 -21 -10
0 -26 -12 -36 -26 -9 -14 -19 -23 -23 -19 -11 11 -31 99 -26 116 2 9 -2 22
-11 29 -8 7 -15 19 -15 26 0 22 -31 16 -37 -6 -7 -28 -23 -14 -23 21 0 19 5
29 15 29 14 0 19 22 18 83 0 15 3 16 21 3 16 -11 20 -23 18 -50 -2 -29 29
-116 42 -116 1 0 3 43 4 95 0 52 4 99 7 105 10 17 21 11 22 -12 1 -13 8 -27
16 -33 24 -17 67 -101 67 -128 0 -15 5 -27 10 -27 18 0 24 31 11 52 -8 12 -10
34 -6 58 5 28 3 39 -9 43 -8 3 -18 2 -22 -4 -8 -13 -34 8 -34 27 0 24 -24 94
-32 94 -5 0 -8 11 -8 24 0 37 -29 42 -37 6 -3 -17 -9 -30 -13 -30 -13 0 -18
24 -13 53 4 20 1 27 -10 27 -9 0 -19 5 -22 11 -12 19 3 21 29 3 l27 -17 -7 43
c-7 41 -6 42 16 35 17 -5 21 -4 17 6 -5 14 -11 15 -37 4 -11 -4 -19 5 -29 30
-7 20 -10 39 -7 42 8 9 36 -17 36 -33 0 -17 12 -18 29 -1 10 10 15 9 25 -5 7
-10 16 -18 20 -18 11 0 6 34 -8 53 -9 12 -16 14 -21 8 -10 -18 -42 5 -50 36
-6 26 -8 26 -19 10 -18 -23 -36 -22 -36 3 0 11 5 20 11 20 8 0 8 4 0 14 -9 10
-9 20 0 40 10 22 9 29 -7 47 -18 20 -18 21 6 40 15 12 36 18 52 16 17 -2 29 2
33 11 9 23 6 34 -7 29 -7 -3 -20 -8 -29 -12 -12 -4 -18 1 -22 23 -4 19 -14 31
-27 35 -18 5 -21 12 -18 49 2 33 7 43 20 43 10 0 24 9 33 20 14 19 16 19 29 3
20 -27 29 -21 22 14 -3 17 -4 29 0 26 14 -15 66 16 78 46 18 44 9 62 -16 31
-26 -33 -34 -32 -42 6 -3 17 -10 28 -15 25 -5 -3 -6 15 -4 42 7 68 10 77 27
63 12 -10 14 -2 11 52 -2 36 -9 74 -16 85 -10 16 -10 26 -1 46 10 23 8 27 -18
46 -20 14 -30 30 -30 47 0 21 2 24 15 13 8 -7 15 -19 15 -26 0 -21 24 -17 46
7 23 26 12 47 -39 71 -45 22 -55 38 -34 53 10 7 17 22 17 35 0 13 8 24 20 27
22 6 26 18 10 28 -6 3 -22 -3 -37 -15 -32 -25 -39 -19 -47 40 -6 41 -3 48 25
79 28 29 37 33 70 28 26 -3 51 1 78 15 34 17 46 18 72 9 35 -12 49 -7 49 15 0
12 9 15 38 12 l37 -3 -1 60 c-1 33 -5 68 -9 78 -5 13 -2 17 13 17 12 0 23 -9
27 -20z m83 -14 c3 -20 0 -27 -10 -24 -7 3 -14 17 -16 32 -3 20 0 27 10 24 7
-3 14 -17 16 -32z m-262 -53 c-11 -12 -27 13 -20 32 7 17 8 17 17 -3 6 -12 7
-25 3 -29z m84 -17 c0 -24 -16 -43 -27 -32 -8 8 6 56 17 56 6 0 10 -11 10 -24z
m10348 -217 c-2 -6 -8 -10 -13 -10 -5 0 -11 4 -13 10 -2 6 4 11 13 11 9 0 15
-5 13 -11z m-10638 -555 c0 -17 -22 -14 -28 4 -2 7 3 12 12 12 9 0 16 -7 16
-16z m32 -90 c-4 -37 -19 -53 -28 -31 -9 24 4 69 19 64 7 -2 11 -17 9 -33z
m12318 -565 c0 -10 -7 -19 -15 -19 -16 0 -19 9 -9 34 8 20 24 11 24 -15z
m-12340 -256 c0 -7 -6 -13 -14 -13 -18 0 -39 26 -31 39 8 13 45 -9 45 -26z
m-34 -288 c10 -52 -1 -64 -20 -23 -18 37 -15 75 4 63 5 -3 12 -21 16 -40z
m159 -84 c3 -5 1 -12 -5 -16 -5 -3 -10 1 -10 9 0 18 6 21 15 7z m-325 -1040
c0 -11 -4 -23 -10 -26 -6 -4 -10 5 -10 19 0 14 5 26 10 26 6 0 10 -9 10 -19z
m12458 -1970 c3 -16 -1 -22 -10 -19 -7 3 -15 15 -16 27 -3 16 1 22 10 19 7 -3
15 -15 16 -27z m-8 -756 c0 -8 -4 -15 -10 -15 -5 0 -10 7 -10 15 0 8 5 15 10
15 6 0 10 -7 10 -15z m-12372 -583 c2 -7 -3 -12 -12 -12 -9 0 -16 7 -16 16 0
17 22 14 28 -4z m52 -42 c0 -5 -2 -10 -4 -10 -3 0 -8 5 -11 10 -3 6 -1 10 4
10 6 0 11 -4 11 -10z m-42 -428 c2 -7 -4 -15 -13 -18 -20 -8 -27 -1 -19 20 7
18 25 17 32 -2z m27 -73 c8 -26 -6 -42 -28 -33 -17 6 -23 35 -10 47 13 14 32
7 38 -14z m-35 -494 c0 -16 -6 -25 -15 -25 -15 0 -21 31 -8 43 13 14 23 6 23
-18z m50 -76 c0 -24 -23 -21 -28 4 -2 10 3 17 12 17 10 0 16 -9 16 -21z m68
-21 c7 -7 12 -20 12 -30 0 -23 -58 -26 -66 -3 -14 37 26 61 54 33z m-133 -58
c-5 -8 -11 -8 -17 -2 -6 6 -7 16 -3 22 5 8 11 8 17 2 6 -6 7 -16 3 -22z m78
-62 c23 -31 15 -53 -13 -38 -24 13 -43 47 -35 61 10 14 26 7 48 -23z m99 15
c22 -19 24 -59 4 -66 -9 -4 -22 6 -34 25 -31 48 -10 77 30 41z m-66 -128 c3
-13 4 -34 2 -46 -2 -19 -9 -24 -33 -24 -16 0 -39 -5 -50 -11 -37 -21 -62 6
-29 31 13 9 14 16 5 33 -7 14 -8 23 -1 27 6 3 13 -1 16 -10 6 -14 10 -13 30 9
27 29 51 25 60 -9z m91 -81 c2 -6 -5 -21 -15 -34 l-19 -24 -17 27 c-10 14 -15
31 -11 37 9 14 57 9 62 -6z m-137 -44 c0 -5 -4 -10 -10 -10 -5 0 -10 5 -10 10
0 6 5 10 10 10 6 0 10 -4 10 -10z m-155 -90 c-3 -5 -10 -10 -16 -10 -5 0 -9 5
-9 10 0 6 7 10 16 10 8 0 12 -4 9 -10z m142 -56 c8 -22 -15 -43 -27 -24 -5 8
-10 21 -10 28 0 17 30 15 37 -4z m-57 -29 c0 -8 -4 -15 -10 -15 -5 0 -10 7
-10 15 0 8 5 15 10 15 6 0 10 -7 10 -15z m12390 -5 c0 -11 -7 -20 -15 -20 -15
0 -21 21 -8 33 12 13 23 7 23 -13z m-12280 -117 c0 -28 -24 -40 -45 -23 -20
16 -19 45 2 65 16 16 17 16 30 -1 7 -10 13 -28 13 -41z m-100 6 c7 -11 9 -27
6 -35 -9 -23 -33 -16 -40 11 -11 44 14 62 34 24z m75 -116 c18 -43 18 -43 2
-43 -7 0 -26 13 -41 29 -20 21 -26 35 -21 50 9 30 41 11 60 -36z m-70 -43 c0
-22 -29 -18 -33 3 -3 14 1 18 15 15 10 -2 18 -10 18 -18z m-11 -86 c3 -9 6
-40 6 -70 0 -30 4 -54 9 -54 16 0 24 -42 10 -51 -18 -11 -29 -2 -29 25 0 12
-5 27 -11 33 -6 6 -13 38 -16 72 -5 51 -3 61 10 61 8 0 18 -7 21 -16z m102
-73 c-3 -4 0 -22 6 -39 9 -24 9 -36 -1 -55 -7 -14 -16 -39 -20 -57 -8 -40 -37
-63 -51 -40 -17 26 -11 51 20 80 36 33 38 52 8 72 -28 19 -18 48 17 48 15 0
24 -4 21 -9z m-106 -167 c0 -8 -7 -14 -15 -14 -15 0 -21 21 -9 33 10 9 24 -2
24 -19z m35 -74 c5 -17 10 -18 27 -9 28 15 36 2 9 -17 -16 -12 -20 -19 -12
-27 14 -14 14 -44 1 -52 -14 -9 -40 13 -40 33 0 9 -10 26 -21 39 -18 18 -20
25 -9 38 17 21 37 19 45 -5z m-26 -120 c0 -44 -4 -60 -13 -60 -17 0 -26 22
-26 60 0 38 9 60 25 60 10 0 13 -17 14 -60z m73 -55 c14 -31 11 -34 -28 -28
-29 5 -30 7 -20 29 14 31 33 31 48 -1z m136 -85 c-2 -17 -5 -15 -14 15 -10 32
-10 35 3 22 8 -8 13 -24 11 -37z m-210 3 c-2 -27 -8 -39 -20 -41 -15 -3 -18 4
-18 37 0 35 3 41 21 41 17 0 20 -5 17 -37z m152 11 c0 -8 -4 -14 -10 -14 -5 0
-10 9 -10 21 0 11 5 17 10 14 6 -3 10 -13 10 -21z m-80 -9 c0 -8 -7 -15 -15
-15 -8 0 -15 7 -15 15 0 8 7 15 15 15 8 0 15 -7 15 -15z m10 -95 c0 -11 -4
-20 -9 -20 -11 0 -22 26 -14 34 12 12 23 5 23 -14z m-2 -92 c-2 -13 -7 -23
-13 -23 -5 0 -11 10 -13 23 -2 15 2 22 13 22 11 0 15 -7 13 -22z m-60 -80 c-8
-22 -36 -34 -50 -20 -10 10 -10 15 2 22 21 14 52 12 48 -2z m45 -95 c-3 -14
-1 -23 6 -23 6 0 11 -4 11 -10 0 -11 -30 -13 -54 -4 -21 8 -20 19 6 54 24 33
42 23 31 -17z m7687 -2536 c0 -19 -10 -27 -26 -20 -11 4 -12 9 -3 19 15 18 29
18 29 1z m815 -35 c0 -18 -20 -15 -23 4 -3 10 1 15 10 12 7 -3 13 -10 13 -16z
m85 -12 c0 -5 -7 -10 -15 -10 -8 0 -15 5 -15 10 0 6 7 10 15 10 8 0 15 -4 15
-10z m50 0 c12 -8 11 -10 -7 -10 -13 0 -23 5 -23 10 0 13 11 13 30 0z m90 -8
c0 -5 -6 -16 -13 -27 -15 -20 -31 -15 -47 16 -10 17 -7 19 25 19 19 0 35 -4
35 -8z m140 -2 c12 -8 9 -10 -12 -10 -15 0 -30 5 -33 10 -8 13 25 13 45 0z
m138 -13 c3 -15 -2 -18 -25 -15 -17 2 -29 10 -31 21 -3 15 2 18 25 15 17 -2
29 -10 31 -21z m235 -2 c-4 -15 -56 -12 -61 3 -3 10 5 13 29 10 19 -2 33 -7
32 -13z m62 5 c3 -5 -1 -10 -10 -10 -9 0 -13 5 -10 10 3 6 8 10 10 10 2 0 7
-4 10 -10z m253 -2 c-6 -16 -33 -22 -56 -13 -15 6 -15 8 3 15 31 13 57 12 53
-2z m1987 -67 c7 -12 -12 -24 -25 -16 -11 7 -4 25 10 25 5 0 11 -4 15 -9z
m245 -10 c0 -4 32 -6 70 -3 56 4 70 2 70 -10 0 -23 -21 -38 -40 -28 -9 5 -22
5 -31 -1 -22 -14 -59 -11 -65 6 -4 8 -15 15 -25 15 -10 0 -19 7 -19 15 0 8 9
15 20 15 11 0 20 -4 20 -9z m263 -4 c28 2 37 -1 37 -13 0 -12 -6 -15 -26 -10
-18 5 -32 2 -44 -9 -17 -15 -20 -15 -40 5 -25 25 -17 44 13 33 12 -4 39 -7 60
-6z m-433 -7 c0 -5 -4 -10 -9 -10 -6 0 -13 5 -16 10 -3 6 1 10 9 10 9 0 16 -4
16 -10z m570 -15 c0 -8 -4 -15 -9 -15 -5 0 -11 7 -15 15 -3 9 0 15 9 15 8 0
15 -7 15 -15z m70 -6 c0 -24 -23 -21 -28 4 -2 10 3 17 12 17 10 0 16 -9 16
-21z"/>
<path d="M1287 12646 c-3 -8 -16 -16 -29 -18 -20 -3 -23 -9 -25 -48 -1 -25 1
-37 4 -27 6 21 33 23 33 1 0 -8 5 -12 10 -9 6 3 10 23 10 45 0 25 5 40 16 44
8 3 12 10 9 16 -9 14 -22 12 -28 -4z"/>
<path d="M1330 12628 c0 -30 13 -87 19 -84 12 8 6 89 -6 93 -7 3 -13 -1 -13
-9z"/>
<path d="M2480 12621 c0 -6 5 -13 10 -16 6 -3 10 1 10 9 0 9 -4 16 -10 16 -5
0 -10 -4 -10 -9z"/>
<path d="M3060 12616 c0 -9 7 -16 16 -16 9 0 14 5 12 12 -6 18 -28 21 -28 4z"/>
<path d="M2726 12593 c-11 -11 -6 -23 9 -23 8 0 15 4 15 9 0 13 -16 22 -24 14z"/>
<path d="M1375 12549 c-10 -15 3 -25 16 -12 7 7 7 13 1 17 -6 3 -14 1 -17 -5z"/>
<path d="M2600 12521 c0 -5 5 -13 10 -16 6 -3 10 -2 10 4 0 5 -4 13 -10 16 -5
3 -10 2 -10 -4z"/>
<path d="M3305 12474 c-13 -13 -14 -19 -4 -25 16 -10 52 8 46 24 -6 18 -24 19
-42 1z"/>
<path d="M3216 12471 c-4 -7 -5 -15 -2 -18 9 -9 19 4 14 18 -4 11 -6 11 -12 0z"/>
<path d="M3615 12460 c3 -5 8 -10 11 -10 2 0 4 5 4 10 0 6 -5 10 -11 10 -5 0
-7 -4 -4 -10z"/>
<path d="M690 12155 c0 -17 5 -25 13 -22 6 2 12 12 12 22 0 10 -6 20 -12 23
-8 2 -13 -6 -13 -23z"/>
<path d="M1011 12144 c0 -11 3 -14 6 -6 3 7 2 16 -1 19 -3 4 -6 -2 -5 -13z"/>
<path d="M1058 12122 c-22 -4 -23 -25 -3 -42 12 -10 16 -9 21 3 9 25 1 43 -18
39z"/>
<path d="M686 12095 c-8 -22 3 -40 16 -27 7 7 7 16 1 27 -9 16 -10 16 -17 0z"/>
<path d="M575 12080 c-4 -6 -3 -16 3 -22 13 -13 23 4 13 21 -7 10 -10 10 -16
1z"/>
<path d="M984 12065 c-8 -20 3 -48 16 -40 13 8 13 55 0 55 -6 0 -13 -7 -16
-15z"/>
<path d="M937 12034 c-4 -4 -7 -14 -7 -23 0 -11 3 -12 11 -4 6 6 10 16 7 23
-2 6 -7 8 -11 4z"/>
<path d="M930 11945 c-9 -11 -10 -19 -2 -27 14 -14 32 -1 32 23 0 23 -13 25
-30 4z"/>
<path d="M570 11910 c0 -5 5 -10 10 -10 6 0 10 5 10 10 0 6 -4 10 -10 10 -5 0
-10 -4 -10 -10z"/>
<path d="M516 11843 c-13 -14 -5 -53 14 -63 18 -10 20 -8 20 24 0 31 -19 53
-34 39z"/>
<path d="M853 11820 c-6 -14 -7 -32 -2 -41 4 -9 6 -25 3 -36 -6 -22 11 -42 18
-20 2 6 1 37 -2 67 -5 50 -7 53 -17 30z"/>
<path d="M950 11838 c0 -4 5 -18 11 -32 9 -20 9 -29 -1 -41 -17 -20 -4 -32 19
-18 14 9 21 9 30 0 18 -18 14 13 -4 32 -8 9 -24 27 -35 41 -11 14 -19 22 -20
18z"/>
<path d="M680 11806 c0 -9 5 -16 10 -16 6 0 10 4 10 9 0 6 -4 13 -10 16 -5 3
-10 -1 -10 -9z"/>
<path d="M1462 11761 c2 -7 7 -12 11 -12 12 1 9 15 -3 20 -7 2 -11 -2 -8 -8z"/>
<path d="M802 11734 c1 -9 9 -19 16 -22 9 -3 13 2 10 14 -1 9 -9 19 -16 22 -9
3 -13 -2 -10 -14z"/>
<path d="M11990 11690 c0 -19 45 -69 63 -70 19 0 17 32 -3 60 -25 35 -60 41
-60 10z"/>
<path d="M845 11634 c-10 -19 -15 -37 -12 -41 9 -9 47 32 47 51 0 29 -16 24
-35 -10z"/>
<path d="M960 11651 c-5 -11 -10 -24 -10 -30 0 -17 27 -13 34 5 16 41 -4 62
-24 25z"/>
<path d="M553 11645 c-13 -9 -28 -25 -33 -36 -9 -16 -7 -19 15 -19 18 0 25 5
25 19 0 11 5 21 12 23 6 2 9 9 7 16 -3 9 -10 8 -26 -3z"/>
<path d="M740 11633 c1 -14 27 -43 39 -43 14 0 14 11 -3 33 -13 17 -36 24 -36
10z"/>
<path d="M12670 11611 c0 -6 5 -13 10 -16 6 -3 10 1 10 9 0 9 -4 16 -10 16 -5
0 -10 -4 -10 -9z"/>
<path d="M1301 11594 c0 -11 3 -14 6 -6 3 7 2 16 -1 19 -3 4 -6 -2 -5 -13z"/>
<path d="M463 11563 c-3 -10 -13 -26 -21 -36 -21 -24 -3 -43 27 -28 12 7 21
16 21 22 0 6 5 7 10 4 6 -4 10 7 10 24 0 24 -4 31 -20 31 -11 0 -23 -8 -27
-17z"/>
<path d="M550 11559 c0 -11 5 -17 10 -14 6 3 10 13 10 21 0 8 -4 14 -10 14 -5
0 -10 -9 -10 -21z"/>
<path d="M401 11544 c0 -11 3 -14 6 -6 3 7 2 16 -1 19 -3 4 -6 -2 -5 -13z"/>
<path d="M950 11522 c0 -17 47 -48 57 -38 8 8 -29 56 -43 56 -8 0 -14 -8 -14
-18z"/>
<path d="M11996 11525 c-12 -32 -7 -55 13 -55 24 0 44 24 39 47 -4 23 -43 29
-52 8z"/>
<path d="M790 11455 c0 -8 4 -15 9 -15 5 0 11 7 15 15 3 9 0 15 -9 15 -8 0
-15 -7 -15 -15z"/>
<path d="M830 11446 c0 -8 5 -18 10 -21 6 -3 10 1 10 9 0 8 -4 18 -10 21 -5 3
-10 -1 -10 -9z"/>
<path d="M549 11409 c-6 -12 -9 -35 -7 -51 6 -36 -18 -50 -39 -23 -12 18 -14
18 -30 2 -14 -14 -15 -21 -4 -43 9 -20 9 -29 0 -41 -11 -12 -9 -12 14 -2 15 7
27 20 27 30 0 15 41 35 62 31 4 -1 5 5 2 12 -3 8 2 28 11 46 13 25 14 35 4 46
-16 19 -26 18 -40 -7z"/>
<path d="M1281 11404 c0 -11 3 -14 6 -6 3 7 2 16 -1 19 -3 4 -6 -2 -5 -13z"/>
<path d="M635 11363 c2 -21 4 -44 4 -50 1 -7 6 -13 11 -13 11 0 13 42 4 78
-10 36 -23 25 -19 -15z"/>
<path d="M790 11359 c0 -16 4 -28 9 -25 8 5 3 56 -5 56 -2 0 -4 -14 -4 -31z"/>
<path d="M858 11376 c-22 -16 -24 -56 -3 -56 16 0 35 30 35 54 0 19 -9 20 -32
2z"/>
<path d="M955 11380 c-3 -5 1 -10 9 -10 9 0 16 5 16 10 0 6 -4 10 -9 10 -6 0
-13 -4 -16 -10z"/>
<path d="M1030 11330 c0 -5 5 -10 10 -10 6 0 10 5 10 10 0 6 -4 10 -10 10 -5
0 -10 -4 -10 -10z"/>
<path d="M414 11316 c-6 -17 2 -36 17 -36 12 0 12 37 -1 45 -6 3 -13 -1 -16
-9z"/>
<path d="M770 11287 c0 -4 9 -22 20 -42 11 -20 20 -42 20 -50 0 -15 18 -30 27
-22 7 8 -31 90 -50 106 -10 7 -17 11 -17 8z"/>
<path d="M597 11274 c-10 -11 -9 -54 2 -54 14 0 22 30 13 46 -4 8 -11 11 -15
8z"/>
<path d="M650 11240 c0 -16 0 -33 -1 -37 -1 -9 49 -38 56 -31 3 3 1 26 -6 52
-8 34 -16 46 -30 46 -14 0 -19 -7 -19 -30z"/>
<path d="M12156 11255 c-20 -21 -20 -28 2 -48 44 -40 82 -2 40 40 -23 23 -26
23 -42 8z"/>
<path d="M11880 11251 c0 -6 5 -13 10 -16 6 -3 10 1 10 9 0 9 -4 16 -10 16 -5
0 -10 -4 -10 -9z"/>
<path d="M11695 11180 c4 -6 11 -8 16 -5 14 9 11 15 -7 15 -8 0 -12 -5 -9 -10z"/>
<path d="M985 11158 c-7 -18 21 -104 36 -114 5 -3 9 -18 9 -33 0 -26 16 -51
32 -51 14 0 9 37 -7 50 -8 7 -15 22 -15 34 0 31 -18 89 -34 111 -13 18 -15 19
-21 3z"/>
<path d="M627 11153 c-12 -11 -8 -23 8 -23 8 0 15 7 15 15 0 16 -12 20 -23 8z"/>
<path d="M11793 11124 c-8 -20 21 -48 42 -41 12 5 14 11 6 26 -14 26 -40 34
-48 15z"/>
<path d="M517 11102 c-32 -33 -35 -58 -7 -67 17 -5 20 -12 15 -39 -5 -23 -2
-36 9 -45 23 -19 36 -4 36 41 0 31 -4 41 -20 45 -26 7 -25 28 0 53 19 19 20
40 1 40 -4 0 -19 -13 -34 -28z"/>
<path d="M674 11107 c-8 -22 11 -46 26 -31 7 7 5 17 -4 30 -14 18 -15 18 -22
1z"/>
<path d="M12120 11085 c0 -28 25 -44 42 -27 7 7 6 17 -1 31 -16 30 -41 27 -41
-4z"/>
<path d="M820 11092 c0 -13 39 -46 46 -39 9 9 -16 47 -31 47 -8 0 -15 -4 -15
-8z"/>
<path d="M590 11072 c0 -26 25 -56 38 -48 19 11 14 44 -7 56 -27 14 -31 13
-31 -8z"/>
<path d="M686 11032 c-31 -46 -33 -55 -6 -47 23 7 26 -6 8 -34 -10 -16 -7 -26
17 -61 l29 -42 22 27 22 28 18 -29 c18 -28 46 -55 52 -50 7 8 -19 56 -31 56
-7 0 -19 16 -26 35 -7 19 -16 35 -21 35 -18 0 -51 68 -44 94 9 38 -9 32 -40
-12z m74 -116 c0 -2 -7 -9 -15 -16 -12 -10 -15 -10 -15 4 0 9 7 16 15 16 8 0
15 -2 15 -4z"/>
<path d="M790 11010 c0 -5 5 -10 11 -10 5 0 7 5 4 10 -3 6 -8 10 -11 10 -2 0
-4 -4 -4 -10z"/>
<path d="M595 10990 c3 -6 0 -26 -7 -46 -11 -32 -11 -37 5 -49 9 -6 17 -19 17
-26 0 -8 9 -20 20 -27 11 -7 20 -21 20 -32 0 -14 7 -20 21 -20 17 0 20 5 17
38 -3 31 -8 39 -36 52 -32 14 -34 16 -28 53 4 24 2 45 -5 53 -13 16 -33 19
-24 4z"/>
<path d="M840 10911 c0 -18 12 -41 21 -41 15 0 10 37 -6 44 -8 3 -15 1 -15 -3z"/>
<path d="M750 10791 c0 -12 6 -21 16 -21 9 0 14 7 12 17 -5 25 -28 28 -28 4z"/>
<path d="M820 10780 c-26 -26 -26 -50 0 -50 11 0 23 0 27 0 12 0 14 58 3 65
-5 3 -18 -3 -30 -15z"/>
<path d="M2096 10793 c-11 -11 -6 -40 9 -53 13 -11 15 -8 15 18 0 31 -11 47
-24 35z"/>
<path d="M507 10784 c-10 -11 -8 -44 2 -44 6 0 13 4 16 10 8 12 -9 43 -18 34z"/>
<path d="M3635 10770 c-4 -6 -3 -14 0 -20 9 -15 35 -12 35 4 0 17 -27 29 -35
16z"/>
<path d="M900 10746 c0 -8 -10 -18 -22 -22 l-22 -7 21 -16 c11 -10 24 -27 27
-39 8 -24 21 -28 32 -10 4 6 -1 17 -10 24 -13 9 -16 20 -11 48 5 24 3 36 -4
36 -6 0 -11 -6 -11 -14z"/>
<path d="M650 10726 c0 -18 9 -29 32 -40 17 -9 33 -15 34 -13 6 6 -47 77 -56
77 -6 0 -10 -11 -10 -24z"/>
<path d="M746 10715 c4 -8 8 -15 10 -15 2 0 4 7 4 15 0 8 -4 15 -10 15 -5 0
-7 -7 -4 -15z"/>
<path d="M11810 10720 c0 -5 5 -10 10 -10 6 0 10 5 10 10 0 6 -4 10 -10 10 -5
0 -10 -4 -10 -10z"/>
<path d="M790 10695 c0 -8 4 -15 10 -15 5 0 7 7 4 15 -4 8 -8 15 -10 15 -2 0
-4 -7 -4 -15z"/>
<path d="M12088 10704 c-11 -10 3 -34 19 -34 8 0 13 7 11 17 -3 18 -20 27 -30
17z"/>
<path d="M724 10652 c3 -5 -1 -20 -9 -35 -20 -40 -18 -115 5 -127 26 -14 36 6
15 30 -13 14 -14 23 -6 38 6 11 16 22 23 24 9 3 7 14 -5 41 -10 20 -20 37 -23
37 -3 0 -3 -4 0 -8z"/>
<path d="M812 10638 c2 -13 8 -23 13 -23 6 0 11 10 13 23 2 15 -2 22 -13 22
-11 0 -15 -7 -13 -22z"/>
<path d="M12132 10638 c-18 -18 -15 -40 6 -36 9 2 18 13 20 26 4 24 -7 29 -26
10z"/>
<path d="M1400 10606 c0 -9 5 -16 10 -16 6 0 10 4 10 9 0 6 -4 13 -10 16 -5 3
-10 -1 -10 -9z"/>
<path d="M637 10584 c-10 -11 -8 -44 2 -44 6 0 13 4 16 10 8 12 -9 43 -18 34z"/>
<path d="M790 10560 c0 -25 18 -35 35 -20 23 19 18 35 -10 36 -18 1 -25 -3
-25 -16z"/>
<path d="M860 10509 c-17 -31 -7 -43 19 -22 14 11 21 25 17 31 -11 18 -24 14
-36 -9z"/>
<path d="M1108 10523 c7 -3 16 -2 19 1 4 3 -2 6 -13 5 -11 0 -14 -3 -6 -6z"/>
<path d="M11575 10490 c-3 -5 -1 -10 4 -10 6 0 11 5 11 10 0 6 -2 10 -4 10 -3
0 -8 -4 -11 -10z"/>
<path d="M875 10430 c-8 -13 4 -32 16 -25 12 8 12 35 0 35 -6 0 -13 -4 -16
-10z"/>
<path d="M860 10371 c0 -5 7 -14 15 -21 13 -10 15 -9 15 9 0 12 -6 21 -15 21
-8 0 -15 -4 -15 -9z"/>
<path d="M770 10329 c0 -11 5 -17 10 -14 6 3 10 13 10 21 0 8 -4 14 -10 14 -5
0 -10 -9 -10 -21z"/>
<path d="M982 10309 c1 -13 8 -23 13 -21 15 3 12 35 -3 40 -9 3 -13 -3 -10
-19z"/>
<path d="M410 10302 c0 -23 19 -42 42 -42 23 0 23 29 1 46 -25 19 -43 17 -43
-4z"/>
<path d="M844 10305 c-9 -21 3 -45 21 -45 16 0 19 17 9 44 -8 20 -23 21 -30 1z"/>
<path d="M976 10191 c-4 -7 -5 -15 -2 -18 9 -9 19 4 14 18 -4 11 -6 11 -12 0z"/>
<path d="M715 10130 c-4 -6 -1 -18 6 -26 12 -14 14 -14 26 2 7 10 13 21 13 26
0 12 -38 10 -45 -2z"/>
<path d="M415 9979 c-8 -23 -1 -34 14 -24 13 8 15 45 2 45 -5 0 -13 -9 -16
-21z"/>
<path d="M3097 9733 c-13 -13 -7 -32 8 -27 8 4 15 12 15 20 0 15 -12 19 -23 7z"/>
<path d="M372 9484 c4 -21 22 -23 26 -1 2 10 -3 17 -13 17 -10 0 -15 -6 -13
-16z"/>
<path d="M467 9264 c-11 -11 5 -34 24 -34 12 0 19 7 19 20 0 19 -28 28 -43 14z"/>
<path d="M570 9025 c-15 -19 -12 -24 21 -27 18 -2 24 2 24 17 0 25 -28 31 -45
10z"/>
<path d="M742 8888 c5 -32 28 -35 28 -4 0 17 -5 26 -16 26 -10 0 -14 -7 -12
-22z"/>
<path d="M445 8840 c-3 -5 1 -10 10 -10 9 0 13 5 10 10 -3 6 -8 10 -10 10 -2
0 -7 -4 -10 -10z"/>
<path d="M352 8710 c-12 -20 -9 -40 7 -40 11 0 31 47 24 54 -11 10 -18 7 -31
-14z"/>
<path d="M3172 8710 c-19 -31 -3 -47 19 -19 10 13 19 27 19 32 0 15 -26 6 -38
-13z"/>
<path d="M550 8710 c0 -5 5 -10 10 -10 6 0 10 5 10 10 0 6 -4 10 -10 10 -5 0
-10 -4 -10 -10z"/>
<path d="M416 8661 c-3 -5 1 -14 8 -20 16 -13 32 2 21 19 -8 12 -22 13 -29 1z"/>
<path d="M3100 8610 c0 -5 5 -10 10 -10 6 0 10 5 10 10 0 6 -4 10 -10 10 -5 0
-10 -4 -10 -10z"/>
<path d="M1682 8566 c1 -10 8 -17 13 -17 15 1 12 24 -3 29 -9 3 -13 -2 -10
-12z"/>
<path d="M500 8542 c0 -21 33 -56 43 -45 12 11 8 31 -9 47 -21 21 -34 20 -34
-2z"/>
<path d="M700 8445 c0 -9 5 -15 11 -13 6 2 11 8 11 13 0 5 -5 11 -11 13 -6 2
-11 -4 -11 -13z"/>
<path d="M436 8382 c-7 -12 43 -84 55 -77 14 9 11 24 -12 56 -21 29 -34 36
-43 21z"/>
<path d="M720 8286 c0 -9 5 -16 10 -16 6 0 10 4 10 9 0 6 -4 13 -10 16 -5 3
-10 -1 -10 -9z"/>
<path d="M1226 8253 c-11 -26 13 -42 29 -19 8 10 12 23 9 27 -9 15 -31 10 -38
-8z"/>
<path d="M735 8170 c-7 -12 2 -30 16 -30 5 0 9 9 9 20 0 21 -15 27 -25 10z"/>
<path d="M12660 8115 c0 -8 5 -15 10 -15 6 0 10 7 10 15 0 8 -4 15 -10 15 -5
0 -10 -7 -10 -15z"/>
<path d="M380 8105 c0 -10 7 -15 18 -13 21 4 19 22 -2 26 -10 2 -16 -3 -16
-13z"/>
<path d="M700 7995 c-6 -8 -10 -20 -8 -28 5 -23 48 -2 48 23 0 23 -22 27 -40
5z"/>
<path d="M5440 7980 c0 -5 5 -10 10 -10 6 0 10 5 10 10 0 6 -4 10 -10 10 -5 0
-10 -4 -10 -10z"/>
<path d="M351 7816 c-11 -13 -6 -46 8 -46 17 1 43 31 38 45 -8 19 -31 20 -46
1z"/>
<path d="M822 7798 c-14 -14 -16 -68 -4 -68 16 0 42 36 42 58 0 24 -19 29 -38
10z"/>
<path d="M1750 7785 c0 -17 5 -25 13 -22 6 2 12 12 12 22 0 10 -6 20 -12 23
-8 2 -13 -6 -13 -23z"/>
<path d="M12620 7790 c0 -5 5 -10 10 -10 6 0 10 5 10 10 0 6 -4 10 -10 10 -5
0 -10 -4 -10 -10z"/>
<path d="M925 7743 c4 -10 10 -26 12 -35 7 -24 23 -23 23 2 0 11 -4 20 -10 20
-5 0 -10 7 -10 15 0 8 -5 15 -11 15 -7 0 -8 -7 -4 -17z"/>
<path d="M1810 7726 c0 -26 27 -43 43 -27 7 7 5 17 -8 31 -24 26 -35 25 -35
-4z"/>
<path d="M710 7696 c0 -9 7 -16 16 -16 17 0 14 22 -4 28 -7 2 -12 -3 -12 -12z"/>
<path d="M817 7693 c-12 -12 -7 -33 8 -33 17 0 19 9 7 28 -5 7 -11 9 -15 5z"/>
<path d="M900 7615 c0 -24 5 -35 15 -35 15 0 20 26 9 54 -11 28 -24 17 -24
-19z"/>
<path d="M402 7618 c6 -18 28 -21 28 -4 0 9 -7 16 -16 16 -9 0 -14 -5 -12 -12z"/>
<path d="M838 7580 c-23 -17 -33 -19 -69 -11 -46 10 -69 6 -69 -14 0 -20 12
-24 61 -26 80 -3 131 22 112 55 -8 15 -12 15 -35 -4z"/>
<path d="M2660 7495 c0 -9 5 -15 11 -13 6 2 11 8 11 13 0 5 -5 11 -11 13 -6 2
-11 -4 -11 -13z"/>
<path d="M697 7464 c-8 -8 3 -34 14 -34 5 0 9 9 9 20 0 19 -11 26 -23 14z"/>
<path d="M880 7455 c-7 -8 -19 -15 -27 -15 -17 0 -14 -31 4 -37 13 -5 53 35
53 54 0 17 -15 16 -30 -2z"/>
<path d="M385 7451 c-6 -11 29 -34 38 -25 3 3 3 12 0 20 -6 16 -29 19 -38 5z"/>
<path d="M960 7312 c0 -19 18 -42 32 -42 12 0 9 35 -4 48 -17 17 -28 15 -28
-6z"/>
<path d="M540 7275 c0 -9 5 -15 11 -13 6 2 11 8 11 13 0 5 -5 11 -11 13 -6 2
-11 -4 -11 -13z"/>
<path d="M653 7272 c-30 -3 -49 -24 -37 -43 9 -15 64 -10 70 5 11 28 0 41 -33
38z"/>
<path d="M330 7181 c0 -5 6 -14 14 -20 16 -13 32 2 21 19 -8 12 -35 13 -35 1z"/>
<path d="M645 7110 c-10 -16 15 -41 39 -38 32 5 28 42 -6 46 -14 2 -29 -2 -33
-8z"/>
<path d="M870 7100 c0 -11 7 -20 15 -20 8 0 15 9 15 20 0 11 -7 20 -15 20 -8
0 -15 -9 -15 -20z"/>
<path d="M595 7070 c-7 -12 2 -30 16 -30 12 0 12 27 0 35 -5 3 -12 1 -16 -5z"/>
<path d="M12610 7019 c0 -31 4 -48 10 -44 6 3 10 12 10 20 0 7 7 15 15 19 12
4 13 10 3 31 -19 43 -38 31 -38 -26z"/>
<path d="M1165 7010 c-10 -16 16 -43 28 -31 11 11 2 41 -12 41 -5 0 -13 -5
-16 -10z"/>
<path d="M660 6986 c0 -7 -9 -25 -20 -39 -23 -30 -26 -47 -6 -47 19 0 60 66
52 85 -7 19 -26 20 -26 1z"/>
<path d="M830 6950 c0 -13 5 -20 13 -17 6 2 12 10 12 17 0 7 -6 15 -12 18 -8
2 -13 -5 -13 -18z"/>
<path d="M1030 6950 c0 -11 7 -20 15 -20 13 0 14 4 5 20 -6 11 -13 20 -15 20
-3 0 -5 -9 -5 -20z"/>
<path d="M910 6936 c0 -13 7 -29 15 -36 8 -7 15 -9 15 -4 0 4 5 3 12 -4 16
-16 28 -15 28 3 0 8 -7 15 -15 15 -9 0 -20 11 -25 25 -12 32 -30 32 -30 1z"/>
<path d="M503 6935 c-7 -19 13 -36 37 -32 8 1 15 11 15 22 0 26 -42 34 -52 10z"/>
<path d="M330 6871 c0 -25 14 -41 36 -41 29 0 32 25 5 40 -24 12 -41 13 -41 1z"/>
<path d="M740 6839 c-8 -14 -9 -24 -2 -31 14 -14 32 -1 32 22 0 28 -17 33 -30
9z"/>
<path d="M592 6834 c4 -21 22 -23 26 -1 2 10 -3 17 -13 17 -10 0 -15 -6 -13
-16z"/>
<path d="M450 6771 c0 -20 -7 -34 -20 -41 -23 -12 -27 -50 -6 -50 8 0 17 11
20 25 4 15 13 25 25 25 10 0 24 7 32 16 16 20 1 48 -30 52 -17 3 -21 -2 -21
-27z"/>
<path d="M945 6770 c3 -5 8 -10 11 -10 2 0 4 5 4 10 0 6 -5 10 -11 10 -5 0 -7
-4 -4 -10z"/>
<path d="M890 6691 c0 -6 5 -13 10 -16 6 -3 10 1 10 9 0 9 -4 16 -10 16 -5 0
-10 -4 -10 -9z"/>
<path d="M2057 6663 c-7 -41 8 -68 23 -43 14 22 12 56 -4 69 -11 9 -15 4 -19
-26z"/>
<path d="M2120 6670 c0 -11 5 -20 10 -20 6 0 10 9 10 20 0 11 -4 20 -10 20 -5
0 -10 -9 -10 -20z"/>
<path d="M12596 6666 c-18 -29 -21 -46 -6 -46 17 0 44 50 33 61 -7 7 -16 2
-27 -15z"/>
<path d="M2180 6655 c-6 -14 -10 -34 -10 -43 0 -13 5 -11 20 8 22 28 25 46 10
55 -6 3 -15 -6 -20 -20z"/>
<path d="M483 6613 c-36 -14 1 -64 50 -67 28 -1 32 3 35 25 2 21 -2 28 -20 31
-13 3 -30 8 -38 11 -8 3 -21 3 -27 0z"/>
<path d="M667 6603 c-12 -11 -8 -43 8 -67 13 -20 23 -22 71 -21 48 2 57 -1 61
-16 6 -23 31 -25 40 -2 4 11 -3 24 -22 40 -25 22 -29 23 -43 9 -15 -14 -20
-12 -53 24 -37 40 -49 46 -62 33z"/>
<path d="M1090 6535 c-7 -9 -8 -15 -2 -15 5 0 12 7 16 15 3 8 4 15 2 15 -2 0
-9 -7 -16 -15z"/>
<path d="M1740 6510 c0 -5 5 -10 10 -10 6 0 10 5 10 10 0 6 -4 10 -10 10 -5 0
-10 -4 -10 -10z"/>
<path d="M661 6486 c-11 -14 -5 -46 9 -46 15 0 32 30 26 45 -7 19 -20 19 -35
1z"/>
<path d="M1101 6474 c0 -11 3 -14 6 -6 3 7 2 16 -1 19 -3 4 -6 -2 -5 -13z"/>
<path d="M578 6455 c-17 -23 -15 -55 3 -55 12 0 29 35 29 59 0 27 -11 26 -32
-4z"/>
<path d="M465 6460 c3 -5 8 -10 11 -10 2 0 4 5 4 10 0 6 -5 10 -11 10 -5 0 -7
-4 -4 -10z"/>
<path d="M349 6431 c-25 -20 -19 -42 10 -34 28 7 60 -30 67 -77 4 -23 14 -45
24 -50 37 -20 55 43 23 79 -10 11 -29 34 -43 51 -37 46 -54 53 -81 31z"/>
<path d="M726 6411 c-11 -17 4 -37 46 -64 40 -26 43 -26 61 -9 10 9 22 16 26
15 3 -2 6 5 6 15 0 13 -7 16 -29 15 -16 -1 -40 6 -54 17 -27 22 -47 25 -56 11z"/>
<path d="M1830 6401 c0 -12 6 -21 16 -21 9 0 14 7 12 17 -5 25 -28 28 -28 4z"/>
<path d="M530 6341 c0 -21 45 -55 60 -46 16 10 11 52 -6 59 -31 12 -54 6 -54
-13z"/>
<path d="M1054 6314 c-5 -20 -11 -24 -29 -20 -14 4 -28 0 -36 -10 -11 -14 -10
-19 11 -36 l24 -20 21 26 c11 14 26 26 33 26 15 0 35 37 27 50 -13 20 -45 10
-51 -16z"/>
<path d="M2457 6333 c-4 -3 -7 -15 -7 -25 0 -22 26 -24 34 -2 10 25 -10 45
-27 27z"/>
<path d="M360 6315 c0 -8 7 -15 15 -15 8 0 15 7 15 15 0 8 -7 15 -15 15 -8 0
-15 -7 -15 -15z"/>
<path d="M675 6310 c-9 -15 3 -80 15 -80 12 0 23 42 18 66 -4 21 -24 29 -33
14z"/>
<path d="M900 6295 c0 -8 5 -15 10 -15 6 0 10 7 10 15 0 8 -4 15 -10 15 -5 0
-10 -7 -10 -15z"/>
<path d="M1252 6263 c4 -21 33 -25 33 -3 0 8 -8 16 -18 18 -14 3 -18 -1 -15
-15z"/>
<path d="M847 6252 c-13 -14 -15 -22 -7 -27 16 -10 33 9 28 30 -3 16 -5 15
-21 -3z"/>
<path d="M1490 6255 c-14 -17 -7 -45 13 -45 17 0 59 44 50 53 -12 12 -50 7
-63 -8z"/>
<path d="M546 6224 c-11 -29 11 -52 54 -56 48 -4 65 4 57 27 -5 11 -13 14 -28
10 -14 -5 -27 0 -40 14 -24 25 -35 26 -43 5z"/>
<path d="M452 6208 c-6 -7 -13 -30 -17 -50 -6 -31 -4 -38 9 -38 9 0 16 5 16
10 0 6 7 10 16 10 12 0 15 6 10 23 -3 12 -6 30 -6 40 0 20 -13 22 -28 5z"/>
<path d="M505 6123 c16 -39 17 -54 5 -68 -10 -12 -10 -21 -2 -38 5 -12 13 -31
16 -41 6 -18 8 -18 23 -4 12 13 13 22 6 45 -9 24 -7 33 9 53 l20 24 -29 23
c-34 28 -58 30 -48 6z"/>
<path d="M590 6109 c0 -24 23 -21 28 4 2 10 -3 17 -12 17 -10 0 -16 -9 -16
-21z"/>
<path d="M892 6118 c7 -19 38 -22 38 -4 0 10 -9 16 -21 16 -12 0 -19 -5 -17
-12z"/>
<path d="M794 5988 c7 -38 20 -53 35 -44 17 11 13 41 -7 59 -27 25 -35 21 -28
-15z"/>
<path d="M1075 5993 c-31 -8 -40 -20 -25 -38 16 -19 54 -19 70 0 10 12 10 18
0 30 -7 8 -15 14 -19 14 -3 -1 -15 -3 -26 -6z"/>
<path d="M590 5951 c0 -21 26 -36 36 -20 9 15 -3 39 -21 39 -8 0 -15 -9 -15
-19z"/>
<path d="M726 5901 c-4 -6 -5 -15 -1 -20 8 -14 65 -41 85 -41 17 0 40 18 40
32 0 12 -35 9 -48 -4 -9 -9 -18 -6 -41 16 -18 17 -31 24 -35 17z"/>
<path d="M1525 5839 c-4 -6 -5 -13 -2 -16 7 -7 27 6 27 18 0 12 -17 12 -25 -2z"/>
<path d="M867 5834 c-12 -12 -8 -24 8 -24 8 0 15 -4 15 -9 0 -5 3 -16 6 -25 5
-12 0 -16 -21 -16 -20 0 -26 -4 -23 -17 2 -10 13 -19 26 -21 17 -3 22 -10 22
-32 0 -20 6 -31 20 -35 15 -5 20 -15 20 -42 0 -36 15 -41 34 -10 8 12 5 22
-12 40 -12 13 -22 27 -22 31 0 4 -9 20 -20 36 -17 23 -18 31 -7 59 8 23 9 36
1 49 -12 19 -36 27 -47 16z"/>
<path d="M1022 5823 c5 -25 28 -28 28 -4 0 12 -6 21 -16 21 -9 0 -14 -7 -12
-17z"/>
<path d="M1847 5754 c-4 -4 -4 -10 -1 -15 6 -10 34 0 34 12 0 10 -24 12 -33 3z"/>
<path d="M992 5718 c2 -6 10 -14 16 -16 7 -2 10 2 6 12 -7 18 -28 22 -22 4z"/>
<path d="M1220 5700 c0 -5 5 -10 10 -10 6 0 10 5 10 10 0 6 -4 10 -10 10 -5 0
-10 -4 -10 -10z"/>
<path d="M1080 5678 c0 -18 20 -38 38 -38 8 0 12 9 10 23 -3 25 -48 39 -48 15z"/>
<path d="M1512 5673 c4 -21 33 -25 33 -3 0 8 -8 16 -18 18 -14 3 -18 -1 -15
-15z"/>
<path d="M640 5636 c0 -30 2 -33 25 -29 19 4 27 0 36 -21 7 -14 20 -26 31 -26
22 0 38 32 18 38 -7 3 -30 20 -50 38 -47 43 -60 43 -60 0z"/>
<path d="M785 5641 c-10 -17 5 -73 18 -68 13 4 11 57 -3 70 -4 5 -11 4 -15 -2z"/>
<path d="M1390 5638 c0 -7 4 -19 9 -27 11 -17 25 3 17 24 -7 18 -26 20 -26 3z"/>
<path d="M3634 5609 c-10 -17 13 -36 27 -22 12 12 4 33 -11 33 -5 0 -12 -5
-16 -11z"/>
<path d="M1000 5598 c0 -7 9 -26 20 -43 15 -24 20 -26 25 -13 4 9 -1 28 -10
42 -18 28 -35 34 -35 14z"/>
<path d="M1135 5551 c-3 -5 -1 -12 5 -16 5 -3 10 1 10 9 0 18 -6 21 -15 7z"/>
<path d="M856 5533 c-3 -3 -6 -15 -6 -25 0 -23 -27 -24 -33 0 -2 10 -7 1 -12
-21 -11 -57 6 -68 44 -26 30 33 39 63 22 73 -4 3 -11 3 -15 -1z"/>
<path d="M1521 5501 c-15 -10 -8 -41 9 -41 15 0 25 29 14 40 -5 5 -15 5 -23 1z"/>
<path d="M640 5465 c0 -30 25 -34 39 -6 8 15 7 20 -5 25 -27 10 -34 7 -34 -19z"/>
<path d="M700 5456 c0 -8 4 -17 8 -20 13 -8 35 11 28 23 -10 16 -36 14 -36 -3z"/>
<path d="M932 5443 c5 -25 28 -28 28 -4 0 12 -6 21 -16 21 -9 0 -14 -7 -12
-17z"/>
<path d="M1237 5433 c-14 -13 -6 -33 13 -33 13 0 20 7 20 20 0 19 -20 27 -33
13z"/>
<path d="M756 5415 c4 -8 10 -15 15 -15 5 0 9 7 9 15 0 8 -7 15 -15 15 -9 0
-12 -6 -9 -15z"/>
<path d="M696 5411 c-8 -12 3 -41 15 -41 5 0 9 11 9 25 0 25 -14 34 -24 16z"/>
<path d="M834 5406 c-4 -10 -2 -22 4 -28 8 -8 13 -7 18 6 4 10 2 22 -4 28 -8
8 -13 7 -18 -6z"/>
<path d="M1705 5410 c-8 -13 13 -40 31 -40 17 0 18 22 2 38 -15 15 -25 15 -33
2z"/>
<path d="M625 5380 c-17 -18 -17 -20 -1 -20 9 0 19 7 23 15 9 25 -2 27 -22 5z"/>
<path d="M1070 5386 c0 -22 29 -41 42 -28 8 8 8 15 -2 27 -16 19 -40 20 -40 1z"/>
<path d="M1315 5390 c3 -5 8 -10 11 -10 2 0 4 5 4 10 0 6 -5 10 -11 10 -5 0
-7 -4 -4 -10z"/>
<path d="M660 5319 c0 -14 5 -19 17 -17 26 5 29 38 4 38 -15 0 -21 -6 -21 -21z"/>
<path d="M766 5296 c-4 -17 -11 -23 -22 -19 -8 3 -21 -2 -29 -13 -12 -16 -17
-17 -34 -6 -18 10 -21 10 -21 -3 0 -8 9 -23 20 -32 12 -11 20 -30 20 -49 0
-38 37 -67 77 -62 38 4 40 27 5 40 -33 13 -65 57 -54 75 4 6 20 13 36 15 42 5
56 32 30 59 l-21 21 -7 -26z"/>
<path d="M1300 5275 c-14 -17 -5 -36 15 -29 8 3 19 -4 26 -18 14 -26 60 -77
72 -78 17 0 5 28 -28 63 -19 21 -39 47 -45 57 -13 24 -23 25 -40 5z"/>
<path d="M926 5250 c-36 -23 -47 -42 -36 -60 7 -12 12 -12 27 2 10 9 27 18 38
20 13 2 20 11 20 27 0 31 -13 34 -49 11z"/>
<path d="M1100 5247 c0 -7 16 -28 35 -47 19 -19 35 -39 35 -45 0 -17 34 -45
53 -45 23 0 21 27 -3 40 -11 6 -20 21 -20 33 0 29 -8 38 -48 60 -40 20 -52 21
-52 4z"/>
<path d="M1007 5203 c-9 -8 -9 -66 -1 -87 12 -31 74 -7 74 28 0 41 -51 82 -73
59z"/>
<path d="M6652 5191 c2 -7 7 -12 11 -12 12 1 9 15 -3 20 -7 2 -11 -2 -8 -8z"/>
<path d="M1440 5155 c0 -8 5 -15 10 -15 6 0 10 7 10 15 0 8 -4 15 -10 15 -5 0
-10 -7 -10 -15z"/>
<path d="M891 5126 c-10 -12 -9 -18 8 -33 25 -21 26 -41 5 -71 -10 -15 -22
-21 -34 -17 -12 4 -23 -1 -33 -15 -13 -19 -16 -19 -46 -4 -17 8 -36 24 -41 35
-6 11 -21 19 -36 19 -14 0 -34 5 -45 11 -26 13 -69 -12 -69 -42 0 -26 26 -35
45 -15 22 22 48 20 70 -4 10 -11 26 -20 35 -20 24 0 41 -23 38 -50 -4 -29 18
-38 25 -10 3 11 13 20 22 20 9 0 30 10 45 23 15 12 42 30 59 39 30 17 45 61
19 56 -8 -2 -14 10 -16 28 -2 18 -11 39 -21 48 -16 14 -20 15 -30 2z"/>
<path d="M1294 5115 c-8 -21 4 -35 32 -35 26 0 32 18 12 38 -16 16 -37 15 -44
-3z"/>
<path d="M1432 5083 c-11 -22 -5 -43 13 -43 19 0 27 17 20 40 -8 25 -21 26
-33 3z"/>
<path d="M1075 5039 c-12 -27 -29 -45 -47 -51 -17 -6 -28 -17 -28 -29 0 -24
16 -25 29 -1 5 9 35 25 68 34 57 17 91 47 77 69 -3 6 -17 9 -30 6 -14 -2 -27
0 -30 4 -10 17 -19 9 -39 -32z"/>
<path d="M1255 4976 c-50 -28 -62 -62 -18 -52 15 4 43 10 61 13 29 5 33 9 30
32 -4 33 -23 35 -73 7z"/>
<path d="M1367 4959 c-22 -46 -14 -69 14 -43 19 17 25 50 11 70 -4 7 -14 -3
-25 -27z"/>
<path d="M1620 4936 c0 -8 5 -18 10 -21 6 -3 10 1 10 9 0 8 -4 18 -10 21 -5 3
-10 -1 -10 -9z"/>
<path d="M1530 4916 c0 -21 29 -41 41 -29 7 7 5 16 -6 27 -20 20 -35 21 -35 2z"/>
<path d="M3966 4893 c-12 -12 -6 -33 9 -33 8 0 15 6 15 14 0 17 -14 28 -24 19z"/>
<path d="M950 4875 c0 -4 12 -27 27 -52 20 -35 23 -47 13 -53 -9 -6 -22 5 -43
36 -26 40 -57 59 -57 35 0 -21 47 -81 67 -87 12 -3 25 -15 28 -25 7 -20 16
-22 53 -13 26 7 29 29 5 43 -10 5 -27 33 -38 63 -12 31 -28 54 -38 56 -9 2
-17 1 -17 -3z"/>
<path d="M827 4852 c-10 -10 -17 -24 -17 -30 0 -18 82 -172 92 -172 15 0 9 27
-18 80 -23 45 -24 55 -14 81 10 23 10 32 0 44 -16 19 -23 19 -43 -3z"/>
<path d="M4110 4860 c0 -5 5 -10 11 -10 5 0 7 5 4 10 -3 6 -8 10 -11 10 -2 0
-4 -4 -4 -10z"/>
<path d="M1231 4823 c-8 -15 -13 -16 -30 -6 -16 10 -26 10 -46 1 -28 -12 -31
-25 -13 -63 12 -27 38 -34 38 -10 0 20 36 19 44 -2 10 -25 23 -4 30 50 7 48
-4 63 -23 30z"/>
<path d="M1660 4810 c0 -13 5 -20 13 -17 6 2 12 10 12 17 0 7 -6 15 -12 18 -8
2 -13 -5 -13 -18z"/>
<path d="M1614 4786 c-4 -10 -2 -22 4 -28 8 -8 13 -7 18 6 4 10 2 22 -4 28 -8
8 -13 7 -18 -6z"/>
<path d="M1313 4746 c-22 -34 -17 -56 14 -56 17 0 35 47 28 71 -9 27 -17 24
-42 -15z"/>
<path d="M1420 4763 c0 -15 58 -73 74 -73 21 0 20 33 -1 53 -21 18 -73 33 -73
20z"/>
<path d="M587 4733 c-18 -17 15 -83 41 -83 18 0 22 31 7 61 -15 28 -34 37 -48
22z"/>
<path d="M11685 4731 c-6 -11 9 -23 19 -14 9 9 7 23 -3 23 -6 0 -12 -4 -16 -9z"/>
<path d="M1085 4720 c-3 -5 -3 -15 1 -22 4 -6 8 -30 8 -52 1 -30 5 -42 19 -44
14 -3 17 4 17 37 0 66 -26 112 -45 81z"/>
<path d="M787 4688 c-7 -26 -1 -38 19 -38 16 0 17 5 8 38 -8 28 -20 28 -27 0z"/>
<path d="M740 4670 c0 -13 5 -20 13 -17 6 2 12 10 12 17 0 7 -6 15 -12 18 -8
2 -13 -5 -13 -18z"/>
<path d="M1225 4649 c-10 -15 3 -25 16 -12 7 7 7 13 1 17 -6 3 -14 1 -17 -5z"/>
<path d="M992 4634 c2 -11 11 -20 22 -22 13 -3 17 1 14 14 -2 11 -11 20 -22
22 -13 3 -17 -1 -14 -14z"/>
<path d="M1263 4634 c-8 -20 9 -49 28 -49 19 0 24 45 7 56 -19 13 -28 11 -35
-7z"/>
<path d="M1523 4633 c-29 -20 -30 -37 -1 -30 12 4 28 1 35 -5 20 -16 28 -2 15
27 -13 29 -19 30 -49 8z"/>
<path d="M685 4626 c-39 -12 -40 -13 -37 -52 2 -21 10 -46 18 -55 8 -8 14 -23
14 -31 0 -9 7 -21 15 -28 13 -11 21 -8 45 15 36 34 38 55 8 55 -41 0 -67 12
-74 32 -9 28 11 38 52 25 41 -13 51 -5 36 28 -13 28 -20 29 -77 11z"/>
<path d="M920 4602 c0 -11 7 -23 16 -26 11 -4 15 0 12 16 -4 28 -28 36 -28 10z"/>
<path d="M1070 4554 c0 -37 3 -41 41 -58 61 -27 64 -7 8 49 l-49 50 0 -41z"/>
<path d="M11450 4580 c0 -5 5 -10 10 -10 6 0 10 5 10 10 0 6 -4 10 -10 10 -5
0 -10 -4 -10 -10z"/>
<path d="M810 4554 c0 -25 25 -90 39 -98 4 -3 11 -20 15 -37 7 -37 30 -35 34
4 2 17 -3 29 -16 36 -11 6 -22 23 -25 39 -3 15 -15 39 -26 53 -20 23 -20 23
-21 3z"/>
<path d="M2842 4554 c-14 -26 1 -55 19 -37 9 9 9 19 2 35 -10 22 -10 22 -21 2z"/>
<path d="M2886 4563 c-11 -11 -6 -23 9 -23 8 0 15 4 15 9 0 13 -16 22 -24 14z"/>
<path d="M889 4538 c24 -60 44 -89 53 -80 11 11 9 19 -20 66 -23 38 -46 48
-33 14z"/>
<path d="M1446 4551 c-4 -7 -5 -15 -2 -18 9 -9 19 4 14 18 -4 11 -6 11 -12 0z"/>
<path d="M3037 4524 c-8 -8 1 -24 14 -24 5 0 9 7 9 15 0 15 -12 20 -23 9z"/>
<path d="M1003 4493 c-3 -10 -8 -21 -10 -25 -2 -5 10 -8 27 -8 27 0 31 3 28
22 -4 28 -36 36 -45 11z"/>
<path d="M1320 4491 c0 -24 21 -61 34 -61 25 0 27 16 5 44 -21 26 -39 34 -39
17z"/>
<path d="M1400 4471 c0 -12 6 -21 16 -21 9 0 14 7 12 17 -5 25 -28 28 -28 4z"/>
<path d="M1222 4444 c1 -9 9 -19 16 -22 9 -3 13 2 10 14 -1 9 -9 19 -16 22 -9
3 -13 -2 -10 -14z"/>
<path d="M1692 4434 c-24 -16 -30 -54 -9 -54 19 1 47 26 47 43 0 24 -14 28
-38 11z"/>
<path d="M1530 4420 c-9 -16 -8 -25 1 -36 14 -18 26 -8 31 25 4 31 -17 38 -32
11z"/>
<path d="M729 4398 c-1 -7 -1 -17 0 -22 1 -5 -16 -6 -38 -2 -22 3 -42 2 -46
-3 -7 -12 33 -41 56 -41 16 0 49 49 49 72 0 13 -20 9 -21 -4z"/>
<path d="M1170 4397 c0 -16 42 -57 58 -57 22 0 12 28 -17 49 -34 24 -41 26
-41 8z"/>
<path d="M1313 4397 c-4 -8 -16 -16 -25 -20 -24 -9 -23 -34 2 -47 17 -9 21 -8
26 7 3 10 10 28 15 41 5 13 9 25 9 27 0 10 -20 4 -27 -8z"/>
<path d="M960 4388 c1 -25 26 -59 54 -73 41 -22 58 -19 54 8 -2 15 -9 21 -21
19 -10 -2 -29 10 -43 28 -27 31 -44 39 -44 18z"/>
<path d="M566 4331 c-11 -17 43 -101 64 -101 11 0 22 -4 25 -10 11 -18 45 -11
45 8 0 17 -49 62 -67 62 -4 0 -19 12 -34 26 -17 16 -29 22 -33 15z"/>
<path d="M1380 4304 c0 -8 5 -12 10 -9 6 4 8 11 5 16 -9 14 -15 11 -15 -7z"/>
<path d="M790 4276 c0 -14 5 -26 10 -26 6 0 10 9 10 19 0 11 -4 23 -10 26 -6
4 -10 -5 -10 -19z"/>
<path d="M1240 4236 c0 -13 7 -27 16 -30 23 -9 28 -2 20 29 -8 32 -36 33 -36
1z"/>
<path d="M1700 4251 c0 -11 29 -35 35 -29 10 9 -7 38 -21 38 -8 0 -14 -4 -14
-9z"/>
<path d="M750 4215 c0 -29 27 -45 41 -24 14 22 6 44 -19 47 -18 3 -22 -1 -22
-23z"/>
<path d="M920 4230 c-8 -5 -12 -11 -10 -12 21 -16 61 -38 70 -38 16 0 12 25
-8 43 -21 19 -31 21 -52 7z"/>
<path d="M1087 4203 c-7 -12 -16 -23 -22 -25 -5 -2 -8 -7 -5 -13 2 -5 4 -27 5
-48 0 -32 3 -37 20 -35 23 3 33 37 15 48 -16 10 -4 43 13 37 15 -5 47 30 41
46 -8 21 -55 14 -67 -10z"/>
<path d="M1390 4205 c0 -8 7 -15 15 -15 8 0 15 7 15 15 0 8 -7 15 -15 15 -8 0
-15 -7 -15 -15z"/>
<path d="M503 4164 c-18 -27 -21 -40 -13 -55 14 -25 40 -25 40 0 0 26 17 36
35 21 12 -10 20 -9 40 4 26 17 26 36 1 36 -8 0 -19 7 -26 15 -21 26 -53 17
-77 -21z"/>
<path d="M810 4185 c0 -9 5 -15 11 -13 6 2 11 8 11 13 0 5 -5 11 -11 13 -6 2
-11 -4 -11 -13z"/>
<path d="M683 4170 c-23 -9 -32 -30 -14 -30 6 0 22 -11 36 -24 15 -14 33 -22
41 -19 9 3 14 -2 14 -16 0 -25 -25 -28 -38 -5 -7 13 -11 12 -25 -10 -25 -37
-22 -41 27 -42 41 -1 44 0 61 38 20 46 7 73 -31 65 -18 -3 -25 2 -33 24 -5 16
-11 29 -13 28 -2 0 -13 -4 -25 -9z"/>
<path d="M1340 4160 c0 -5 5 -10 10 -10 6 0 10 5 10 10 0 6 -4 10 -10 10 -5 0
-10 -4 -10 -10z"/>
<path d="M1180 4115 c0 -18 5 -25 19 -25 26 0 36 17 21 35 -19 23 -40 18 -40
-10z"/>
<path d="M852 4103 c-8 -15 -9 -24 -1 -28 15 -10 21 0 17 27 l-3 23 -13 -22z"/>
<path d="M1735 4109 c-10 -15 1 -23 20 -15 9 3 13 10 10 16 -8 13 -22 13 -30
-1z"/>
<path d="M1242 4099 c2 -7 10 -15 17 -17 8 -3 12 1 9 9 -2 7 -10 15 -17 17 -8
3 -12 -1 -9 -9z"/>
<path d="M1560 4082 c0 -10 6 -26 13 -36 12 -16 14 -16 26 -2 7 8 10 24 6 36
-8 25 -45 27 -45 2z"/>
<path d="M583 4083 c-20 -7 -15 -31 8 -44 25 -13 43 0 34 24 -7 18 -24 26 -42
20z"/>
<path d="M1190 4018 c0 -23 15 -36 44 -39 35 -5 49 19 17 28 -12 3 -21 9 -21
14 0 5 -9 9 -20 9 -11 0 -20 -6 -20 -12z"/>
<path d="M1310 4010 c0 -11 7 -20 15 -20 8 0 15 9 15 20 0 11 -7 20 -15 20 -8
0 -15 -9 -15 -20z"/>
<path d="M1420 3967 c0 -16 32 -47 48 -47 21 0 13 27 -13 44 -30 19 -35 20
-35 3z"/>
<path d="M1162 3943 c4 -36 33 -39 33 -3 0 16 -6 26 -18 28 -15 3 -18 -2 -15
-25z"/>
<path d="M655 3926 c-17 -12 -17 -16 -5 -30 7 -10 24 -16 39 -14 20 2 26 9 26
28 0 30 -30 38 -60 16z"/>
<path d="M750 3924 c0 -17 22 -14 28 4 2 7 -3 12 -12 12 -9 0 -16 -7 -16 -16z"/>
<path d="M1140 3892 c-32 -5 -50 -20 -50 -42 0 -15 8 -18 41 -17 49 2 74 28
49 50 -8 7 -26 11 -40 9z"/>
<path d="M880 3876 c0 -8 7 -16 15 -20 10 -4 15 1 15 14 0 11 -7 20 -15 20 -8
0 -15 -6 -15 -14z"/>
<path d="M817 3873 c-15 -14 -6 -32 24 -47 27 -13 31 -13 36 1 4 10 -3 23 -18
34 -26 20 -32 22 -42 12z"/>
<path d="M737 3829 c-15 -17 -21 -18 -33 -8 -23 19 -30 1 -8 -21 19 -19 19
-18 48 6 17 16 25 29 19 35 -5 5 -16 1 -26 -12z"/>
<path d="M1005 3839 c-7 -11 22 -49 37 -49 13 0 9 30 -6 46 -17 17 -23 17 -31
3z"/>
<path d="M1430 3805 c-7 -9 -10 -18 -7 -21 10 -11 37 5 37 21 0 19 -14 19 -30
0z"/>
<path d="M1292 3774 c2 -11 11 -20 22 -22 13 -3 17 1 14 14 -2 11 -11 20 -22
22 -13 3 -17 -1 -14 -14z"/>
<path d="M776 3748 c-16 -38 -31 -110 -17 -89 12 19 67 5 86 -22 13 -19 17
-20 25 -7 15 23 12 30 -15 40 -17 7 -25 17 -25 34 0 14 -4 28 -10 31 -5 3 -10
15 -10 26 0 29 -17 23 -34 -13z"/>
<path d="M880 3764 c0 -8 5 -12 10 -9 6 3 10 10 10 16 0 5 -4 9 -10 9 -5 0
-10 -7 -10 -16z"/>
<path d="M950 3766 c0 -9 5 -16 10 -16 6 0 10 4 10 9 0 6 -4 13 -10 16 -5 3
-10 -1 -10 -9z"/>
<path d="M1140 3771 c0 -9 52 -51 64 -51 13 0 5 28 -12 43 -20 18 -52 23 -52
8z"/>
<path d="M943 3704 c-27 -30 -29 -47 -7 -68 28 -29 48 -16 32 20 -9 18 -8 28
0 36 13 13 16 38 5 38 -5 0 -18 -12 -30 -26z"/>
<path d="M1380 3684 c-9 -10 -10 -18 -2 -26 12 -12 32 -2 32 17 0 21 -16 26
-30 9z"/>
<path d="M696 3683 c-11 -11 -6 -23 9 -23 8 0 15 4 15 9 0 13 -16 22 -24 14z"/>
<path d="M1033 3627 c2 -42 3 -43 34 -43 39 1 40 3 11 46 -34 50 -47 49 -45
-3z"/>
<path d="M1284 3645 c-3 -8 -3 -19 1 -25 11 -18 25 -11 25 15 0 27 -17 34 -26
10z"/>
<path d="M620 3625 c0 -7 -7 -18 -16 -23 -19 -10 -11 -32 12 -32 9 0 14 11 14
35 0 19 -2 35 -5 35 -3 0 -5 -7 -5 -15z"/>
<path d="M12560 3620 c0 -5 5 -10 10 -10 6 0 10 5 10 10 0 6 -4 10 -10 10 -5
0 -10 -4 -10 -10z"/>
<path d="M823 3590 c-3 -11 -14 -20 -24 -20 -13 0 -19 -7 -19 -24 0 -13 -7
-29 -15 -36 -22 -18 -15 -54 11 -58 18 -3 21 1 17 23 -8 37 13 57 50 49 l30
-6 -8 38 c-4 22 -9 42 -11 46 -9 15 -26 8 -31 -12z"/>
<path d="M1182 3568 c-23 -46 -28 -68 -13 -68 18 0 51 53 51 81 0 40 -11 36
-38 -13z"/>
<path d="M684 3578 c-5 -8 -16 -17 -25 -20 -9 -4 -19 -19 -22 -35 -3 -15 -8
-35 -12 -44 -6 -17 33 -69 53 -69 17 0 15 17 -5 50 -15 26 -15 30 0 63 10 20
23 37 30 40 9 3 9 8 1 17 -9 9 -14 9 -20 -2z"/>
<path d="M1574 3576 c-4 -10 -2 -22 4 -28 8 -8 13 -7 18 6 4 10 2 22 -4 28 -8
8 -13 7 -18 -6z"/>
<path d="M1272 3564 c1 -9 9 -19 16 -22 9 -3 13 2 10 14 -1 9 -9 19 -16 22 -9
3 -13 -2 -10 -14z"/>
<path d="M947 3527 c-6 -23 -12 -27 -28 -22 -18 6 -20 3 -17 -26 2 -18 8 -34
14 -36 18 -6 45 46 42 80 l-3 32 -8 -28z"/>
<path d="M982 3516 c1 -10 8 -17 13 -17 15 1 12 24 -3 29 -9 3 -13 -2 -10 -12z"/>
<path d="M1090 3499 c0 -5 5 -7 10 -4 6 3 10 8 10 11 0 2 -4 4 -10 4 -5 0 -10
-5 -10 -11z"/>
<path d="M1030 3455 c0 -8 5 -15 10 -15 6 0 10 7 10 15 0 8 -4 15 -10 15 -5 0
-10 -7 -10 -15z"/>
<path d="M1400 3460 c0 -5 5 -10 10 -10 6 0 10 5 10 10 0 6 -4 10 -10 10 -5 0
-10 -4 -10 -10z"/>
<path d="M473 3443 c-4 -11 1 -22 16 -32 13 -9 34 -26 48 -39 39 -36 46 -22
16 36 -21 40 -32 52 -50 52 -13 0 -27 -8 -30 -17z"/>
<path d="M732 3423 c3 -21 0 -45 -5 -54 -17 -27 0 -64 37 -84 28 -15 36 -27
41 -57 7 -40 19 -49 29 -22 13 34 6 61 -19 72 -14 6 -25 18 -25 27 0 9 -9 15
-21 15 -18 0 -21 4 -16 28 7 37 -3 112 -15 112 -6 0 -8 -17 -6 -37z"/>
<path d="M1210 3444 c0 -8 5 -12 10 -9 6 4 8 11 5 16 -9 14 -15 11 -15 -7z"/>
<path d="M1310 3445 c0 -8 5 -15 10 -15 6 0 10 7 10 15 0 8 -4 15 -10 15 -5 0
-10 -7 -10 -15z"/>
<path d="M12576 3423 c-11 -11 -6 -23 9 -23 8 0 15 4 15 9 0 13 -16 22 -24 14z"/>
<path d="M616 3393 c-3 -3 2 -19 10 -36 14 -27 17 -28 31 -14 9 8 13 22 10 30
-5 15 -42 29 -51 20z"/>
<path d="M1004 3356 c-3 -9 -3 -28 1 -43 l7 -28 19 25 c10 14 18 32 16 40 -3
21 -36 25 -43 6z"/>
<path d="M1215 3361 c-8 -15 3 -31 21 -31 9 0 14 7 12 17 -4 20 -24 28 -33 14z"/>
<path d="M922 3306 c1 -10 8 -17 13 -17 15 1 12 24 -3 29 -9 3 -13 -2 -10 -12z"/>
<path d="M4135 3280 c-4 -6 -3 -16 3 -22 6 -6 12 -6 17 2 4 6 3 16 -3 22 -6 6
-12 6 -17 -2z"/>
<path d="M897 3264 c-10 -11 -9 -52 2 -59 13 -8 24 32 14 50 -5 9 -12 12 -16
9z"/>
<path d="M647 3243 c-15 -14 -6 -43 20 -67 39 -36 50 -16 19 33 -28 44 -29 45
-39 34z"/>
<path d="M1230 3234 c0 -8 5 -12 10 -9 6 4 8 11 5 16 -9 14 -15 11 -15 -7z"/>
<path d="M553 3175 c23 -47 40 -53 45 -18 3 22 -32 63 -54 63 -9 0 -6 -14 9
-45z"/>
<path d="M900 3102 c0 -5 6 -16 13 -27 10 -13 16 -15 21 -6 4 6 2 18 -4 26
-13 16 -30 20 -30 7z"/>
<path d="M646 3081 c-7 -10 22 -37 30 -28 9 8 -3 37 -15 37 -5 0 -12 -4 -15
-9z"/>
<path d="M1646 3061 c-4 -7 -5 -15 -2 -18 9 -9 19 4 14 18 -4 11 -6 11 -12 0z"/>
<path d="M1750 3029 c0 -5 5 -7 10 -4 6 3 10 8 10 11 0 2 -4 4 -10 4 -5 0 -10
-5 -10 -11z"/>
<path d="M502 3009 c2 -6 8 -10 13 -10 5 0 11 4 13 10 2 6 -4 11 -13 11 -9 0
-15 -5 -13 -11z"/>
<path d="M356 2975 c-4 -13 -2 -14 14 -5 23 13 26 20 6 20 -8 0 -16 -7 -20
-15z"/>
<path d="M2335 2940 c3 -5 10 -10 16 -10 5 0 9 5 9 10 0 6 -7 10 -16 10 -8 0
-12 -4 -9 -10z"/>
<path d="M660 2870 c0 -19 3 -21 12 -12 9 9 9 15 0 24 -9 9 -12 7 -12 -12z"/>
<path d="M360 2825 c0 -8 7 -15 15 -15 8 0 15 7 15 15 0 8 -7 15 -15 15 -8 0
-15 -7 -15 -15z"/>
<path d="M293 2794 c-7 -18 17 -38 31 -24 11 11 1 40 -14 40 -6 0 -13 -7 -17
-16z"/>
<path d="M725 2800 c-3 -5 -1 -10 4 -10 6 0 11 5 11 10 0 6 -2 10 -4 10 -3 0
-8 -4 -11 -10z"/>
<path d="M603 2574 c-3 -8 -1 -20 6 -27 6 -6 11 -19 11 -28 0 -33 -20 -30 -41
5 -12 21 -29 36 -40 36 -27 0 -24 -25 6 -48 26 -21 33 -48 13 -54 -7 -3 -13
-34 -14 -84 -3 -71 -1 -82 21 -109 30 -36 45 -25 21 15 -16 28 -15 70 3 70 4
0 6 25 3 56 -4 45 -2 56 9 52 8 -2 15 -18 17 -34 5 -41 16 -48 46 -29 24 16
25 19 11 35 -17 19 -20 40 -5 40 6 0 15 -11 20 -25 10 -25 34 -33 45 -15 3 5
-2 24 -12 40 -14 25 -15 34 -5 50 6 10 9 26 6 35 -7 18 -9 18 -34 3 -16 -10
-23 -9 -43 10 -28 26 -36 27 -44 6z m74 -70 c-9 -9 -28 6 -21 18 4 6 10 6 17
-1 6 -6 8 -13 4 -17z"/>
<path d="M980 2570 c0 -15 5 -20 18 -18 9 2 17 10 17 18 0 8 -8 16 -17 18 -13
2 -18 -3 -18 -18z"/>
<path d="M365 2550 c-8 -13 33 -72 45 -65 19 12 40 -7 34 -31 -8 -30 16 -84
37 -84 9 0 23 7 30 16 11 13 10 17 -4 25 -9 6 -24 23 -32 39 -15 29 -15 30 10
36 18 4 24 11 21 21 -3 8 -6 19 -6 24 0 15 -30 10 -36 -6 -8 -21 -21 -19 -52
10 -29 27 -38 30 -47 15z"/>
<path d="M310 2526 c0 -21 20 -30 33 -17 9 9 8 14 -3 21 -21 14 -30 12 -30 -4z"/>
<path d="M895 2520 c3 -5 8 -10 11 -10 2 0 4 5 4 10 0 6 -5 10 -11 10 -5 0 -7
-4 -4 -10z"/>
<path d="M320 2405 c0 -25 4 -45 10 -45 5 0 16 -16 24 -35 16 -39 27 -43 47
-19 11 13 9 19 -13 37 -18 15 -29 36 -33 65 -9 59 -35 58 -35 -3z"/>
<path d="M370 2438 c0 -7 9 -24 20 -38 l20 -25 0 26 c0 24 -16 49 -32 49 -4 0
-8 -6 -8 -12z"/>
<path d="M457 2353 c-8 -14 12 -53 28 -53 18 0 20 31 3 48 -14 14 -25 15 -31
5z"/>
<path d="M282 2341 c4 -13 18 -16 19 -4 0 4 -5 9 -11 12 -7 2 -11 -2 -8 -8z"/>
<path d="M1460 2295 c0 -8 7 -15 15 -15 8 0 15 7 15 15 0 8 -7 15 -15 15 -8 0
-15 -7 -15 -15z"/>
<path d="M616 2291 c-4 -7 -5 -15 -2 -18 9 -9 19 4 14 18 -4 11 -6 11 -12 0z"/>
<path d="M435 2250 c-8 -13 4 -32 16 -25 12 8 12 35 0 35 -6 0 -13 -4 -16 -10z"/>
<path d="M516 2241 c-7 -10 18 -34 27 -25 7 8 -3 34 -13 34 -5 0 -11 -4 -14
-9z"/>
<path d="M324 2165 c-7 -29 -1 -41 15 -30 14 8 14 55 1 55 -5 0 -12 -11 -16
-25z"/>
<path d="M401 2151 c-6 -11 -11 -34 -11 -51 0 -25 4 -31 18 -28 13 2 17 14 18
46 1 48 -10 62 -25 33z"/>
<path d="M485 2161 c-8 -15 3 -31 21 -31 9 0 14 7 12 17 -4 20 -24 28 -33 14z"/>
<path d="M1183 2124 c-3 -8 -1 -20 4 -25 12 -12 48 14 39 29 -10 17 -36 15
-43 -4z"/>
<path d="M1372 2128 c-7 -7 -12 -20 -12 -31 0 -24 33 -19 38 7 5 24 -11 39
-26 24z"/>
<path d="M1046 2114 c-8 -20 1 -34 20 -34 15 0 17 9 8 34 -8 20 -20 20 -28 0z"/>
<path d="M982 2095 c-13 -27 -42 -34 -42 -10 0 11 -11 15 -41 15 -33 0 -40 -3
-35 -16 3 -9 6 -18 6 -20 0 -2 13 -4 28 -4 20 0 40 -13 71 -45 24 -25 41 -51
38 -59 -3 -7 -1 -19 4 -27 8 -12 12 -11 23 4 7 9 21 17 30 17 18 0 22 25 5 36
-7 4 -16 -1 -21 -10 -9 -16 -11 -16 -23 1 -14 18 -10 68 6 89 13 16 -1 54 -21
54 -9 0 -22 -11 -28 -25z"/>
<path d="M1252 2109 c2 -6 8 -10 13 -10 5 0 11 4 13 10 2 6 -4 11 -13 11 -9 0
-15 -5 -13 -11z"/>
<path d="M1672 2088 c2 -13 10 -23 18 -23 8 0 16 10 18 23 3 17 -2 22 -18 22
-16 0 -21 -5 -18 -22z"/>
<path d="M290 2090 c0 -5 7 -10 15 -10 8 0 15 5 15 10 0 6 -7 10 -15 10 -8 0
-15 -4 -15 -10z"/>
<path d="M690 2088 c0 -7 5 -20 10 -28 12 -19 35 2 27 24 -7 19 -37 21 -37 4z"/>
<path d="M1115 2090 c-3 -6 -3 -19 0 -30 5 -16 2 -20 -14 -20 -12 0 -21 -7
-21 -15 0 -8 6 -15 13 -15 19 0 58 56 51 74 -7 18 -20 21 -29 6z"/>
<path d="M1542 2068 c3 -29 7 -33 37 -36 50 -5 57 11 21 42 -44 36 -62 34 -58
-6z"/>
<path d="M744 2063 c4 -9 2 -31 -4 -49 -9 -27 -8 -37 10 -66 11 -18 20 -42 20
-54 0 -11 9 -29 20 -39 15 -14 20 -15 20 -4 0 27 -22 94 -33 101 -6 4 -8 10
-4 15 4 4 16 2 27 -5 12 -7 21 -8 25 -2 10 17 23 11 27 -12 2 -12 8 -23 14
-25 17 -6 11 79 -8 106 -20 29 -40 19 -32 -16 6 -21 4 -24 -12 -21 -15 3 -19
12 -17 46 2 41 1 42 -29 42 -24 0 -29 -3 -24 -17z"/>
<path d="M525 2050 c-3 -5 1 -10 10 -10 9 0 13 5 10 10 -3 6 -8 10 -10 10 -2
0 -7 -4 -10 -10z"/>
<path d="M633 2048 c2 -7 10 -13 17 -13 7 0 15 6 18 13 2 7 -5 12 -18 12 -13
0 -20 -5 -17 -12z"/>
<path d="M1357 2054 c-3 -4 -2 -15 4 -25 5 -11 9 -27 7 -37 -4 -21 26 -23 30
-1 1 8 -2 28 -7 42 -10 26 -21 33 -34 21z"/>
<path d="M1240 2032 c0 -16 39 -44 50 -37 8 5 5 13 -9 26 -21 20 -41 25 -41
11z"/>
<path d="M545 1990 c-16 -17 -17 -23 -6 -30 19 -11 62 10 59 29 -5 24 -32 24
-53 1z"/>
<path d="M1160 1995 c-10 -12 -9 -23 4 -55 20 -50 20 -47 -4 -53 -13 -3 -20
-14 -20 -30 0 -25 25 -44 35 -27 9 14 21 12 40 -6 20 -20 15 -38 -11 -40 -69
-3 -72 -4 -76 -28 -7 -35 9 -56 41 -56 32 0 71 36 71 66 0 11 5 25 11 31 8 8
5 23 -9 55 -13 31 -17 50 -10 62 11 19 -12 32 -38 22 -14 -5 -15 -1 -10 28 7
38 -5 54 -24 31z"/>
<path d="M474 1968 c3 -13 6 -32 6 -43 0 -17 2 -18 15 -4 12 12 14 21 6 42
-13 33 -36 37 -27 5z"/>
<path d="M680 1974 c0 -11 -6 -15 -20 -11 -24 6 -33 -5 -24 -28 5 -11 15 -15
31 -12 19 4 26 -2 37 -28 8 -18 18 -35 24 -39 18 -11 23 26 7 50 -8 13 -15 31
-15 41 0 10 -9 24 -20 31 -17 10 -20 10 -20 -4z"/>
<path d="M924 1940 c4 -31 3 -50 -3 -50 -12 0 -51 -76 -51 -98 0 -16 58 -77
66 -69 3 3 1 14 -5 26 -6 12 -15 29 -20 39 -6 13 -3 25 10 43 10 13 19 33 19
43 0 18 1 18 19 2 11 -10 25 -15 30 -11 17 10 13 33 -8 45 -11 5 -25 26 -31
45 -18 53 -34 44 -26 -15z"/>
<path d="M1114 1945 c-4 -8 -12 -15 -19 -15 -18 0 -28 -17 -21 -35 4 -12 10
-13 31 -3 18 8 25 19 25 40 0 31 -7 37 -16 13z"/>
<path d="M392 1937 c-11 -13 -4 -67 8 -67 4 0 11 7 14 16 3 9 15 14 28 12 34
-5 30 15 -7 34 -25 13 -36 14 -43 5z"/>
<path d="M2327 1934 c-14 -14 -7 -35 11 -32 9 2 17 10 17 17 0 16 -18 25 -28
15z"/>
<path d="M1487 1923 c-16 -16 -6 -35 15 -30 14 4 26 0 34 -11 8 -9 13 -12 13
-7 0 14 -35 55 -46 55 -6 0 -13 -3 -16 -7z"/>
<path d="M546 1902 c-2 -4 4 -18 14 -32 16 -21 20 -22 34 -10 24 19 16 42 -16
46 -15 1 -30 -1 -32 -4z"/>
<path d="M853 1883 c-18 -7 -16 -33 2 -33 8 0 15 9 15 20 0 11 -1 20 -2 19 -2
0 -9 -3 -15 -6z"/>
<path d="M343 1864 c-4 -11 1 -23 16 -35 16 -13 20 -24 16 -42 -7 -28 14 -50
39 -41 22 9 20 45 -3 51 -14 4 -21 15 -23 41 -3 40 -33 57 -45 26z"/>
<path d="M1024 1834 c-5 -19 -1 -31 14 -47 28 -28 37 -17 22 27 -15 46 -28 53
-36 20z"/>
<path d="M485 1819 c-16 -30 -14 -59 2 -59 13 0 46 67 39 79 -12 19 -25 12
-41 -20z"/>
<path d="M690 1805 c0 -28 4 -35 20 -35 17 0 19 4 14 28 -13 55 -34 59 -34 7z"/>
<path d="M765 1810 c-8 -13 4 -32 16 -25 12 8 12 35 0 35 -6 0 -13 -4 -16 -10z"/>
<path d="M1370 1811 c0 -6 5 -13 10 -16 6 -3 10 1 10 9 0 9 -4 16 -10 16 -5 0
-10 -4 -10 -9z"/>
<path d="M590 1770 c0 -40 -15 -54 -26 -25 -4 8 -10 15 -15 15 -4 0 4 -22 18
-50 14 -27 32 -50 39 -50 19 0 18 26 -1 34 -21 8 -19 28 5 49 11 9 20 28 20
42 0 18 -5 25 -20 25 -17 0 -20 -7 -20 -40z"/>
<path d="M1303 1803 c-18 -6 -16 -33 1 -33 19 0 31 19 20 30 -5 4 -15 5 -21 3z"/>
<path d="M940 1770 c0 -11 7 -20 15 -20 8 0 15 9 15 20 0 11 -7 20 -15 20 -8
0 -15 -9 -15 -20z"/>
<path d="M820 1766 c0 -29 13 -46 35 -46 18 0 24 -6 27 -27 2 -17 10 -29 21
-31 26 -5 21 12 -20 67 -37 50 -63 65 -63 37z"/>
<path d="M485 1730 c-8 -14 3 -30 21 -30 16 0 16 2 8 24 -7 18 -20 21 -29 6z"/>
<path d="M1710 1720 c0 -5 7 -10 16 -10 8 0 12 5 9 10 -3 6 -10 10 -16 10 -5
0 -9 -4 -9 -10z"/>
<path d="M670 1701 c0 -22 25 -45 40 -36 13 8 -3 40 -25 49 -10 3 -15 -1 -15
-13z"/>
<path d="M365 1700 c-10 -17 12 -37 25 -24 8 8 6 15 -4 23 -10 9 -16 9 -21 1z"/>
<path d="M793 1680 c-3 -10 -14 -22 -25 -26 -15 -4 -17 -9 -7 -20 15 -18 39
-18 39 0 0 8 7 16 15 20 20 7 19 32 -1 40 -10 4 -18 -1 -21 -14z"/>
<path d="M1154 1676 c-6 -17 2 -36 17 -36 12 0 12 37 -1 45 -6 3 -13 -1 -16
-9z"/>
<path d="M512 1658 c2 -12 11 -24 21 -26 14 -3 18 1 15 20 -2 12 -11 24 -21
26 -14 3 -18 -1 -15 -20z"/>
<path d="M403 1650 c-30 -12 -29 -28 3 -40 23 -9 24 -13 13 -26 -12 -14 -11
-16 6 -13 11 3 20 9 21 14 0 6 4 18 8 28 5 10 3 23 -4 32 -14 17 -16 17 -47 5z"/>
<path d="M855 1641 c-8 -26 1 -39 16 -24 8 8 8 17 1 29 -9 16 -10 15 -17 -5z"/>
<path d="M985 1640 c-7 -12 2 -30 16 -30 12 0 12 27 0 35 -5 3 -12 1 -16 -5z"/>
<path d="M290 1611 c0 -10 7 -21 15 -25 16 -6 19 3 9 28 -8 22 -24 20 -24 -3z"/>
<path d="M920 1605 c0 -9 5 -15 11 -13 6 2 11 8 11 13 0 5 -5 11 -11 13 -6 2
-11 -4 -11 -13z"/>
<path d="M1022 1589 c1 -12 9 -24 16 -27 9 -3 13 3 10 19 -1 12 -9 24 -16 27
-9 3 -13 -3 -10 -19z"/>
<path d="M1160 1599 c0 -5 5 -7 10 -4 6 3 10 8 10 11 0 2 -4 4 -10 4 -5 0 -10
-5 -10 -11z"/>
<path d="M708 1574 c-29 -15 -36 -38 -16 -50 6 -4 17 1 24 11 7 10 20 15 28
12 23 -9 28 8 8 26 -15 14 -20 14 -44 1z"/>
<path d="M864 1569 c-10 -17 13 -36 27 -22 12 12 4 33 -11 33 -5 0 -12 -5 -16
-11z"/>
<path d="M1140 1555 c0 -8 5 -15 10 -15 6 0 10 7 10 15 0 8 -4 15 -10 15 -5 0
-10 -7 -10 -15z"/>
<path d="M304 1546 c-8 -22 2 -46 21 -46 19 0 20 34 0 50 -12 10 -16 9 -21 -4z"/>
<path d="M1082 1544 c1 -9 9 -19 16 -22 9 -3 13 2 10 14 -1 9 -9 19 -16 22 -9
3 -13 -2 -10 -14z"/>
<path d="M1745 1541 c-3 -5 4 -13 16 -16 23 -8 34 -1 24 14 -8 13 -32 14 -40
2z"/>
<path d="M414 1517 c-10 -28 0 -82 17 -85 14 -2 16 5 15 44 -2 47 -20 70 -32
41z"/>
<path d="M937 1496 c-6 -16 2 -28 14 -20 12 7 11 34 0 34 -5 0 -11 -6 -14 -14z"/>
<path d="M857 1486 c-7 -16 1 -26 20 -26 7 0 13 9 13 20 0 23 -25 27 -33 6z"/>
<path d="M560 1464 c0 -23 3 -25 24 -20 14 3 28 2 31 -4 11 -18 35 -11 35 10
0 15 -7 20 -24 20 -14 0 -28 5 -31 10 -13 20 -35 10 -35 -16z"/>
<path d="M767 1470 c3 -10 11 -24 19 -31 19 -15 31 16 14 36 -18 22 -39 19
-33 -5z"/>
<path d="M1024 1459 c-10 -17 13 -36 27 -22 12 12 4 33 -11 33 -5 0 -12 -5
-16 -11z"/>
<path d="M330 1424 c0 -44 47 -82 80 -64 29 15 25 30 -8 30 -20 0 -33 7 -42
25 -15 28 -30 33 -30 9z"/>
<path d="M825 1400 c-3 -5 -4 -19 0 -30 8 -25 37 -14 33 13 -3 23 -23 33 -33
17z"/>
<path d="M1002 1378 c-7 -7 -12 -16 -12 -20 0 -12 28 -10 36 3 10 17 -10 31
-24 17z"/>
<path d="M1295 1250 c-4 -6 -3 -16 3 -22 6 -6 12 -6 17 2 4 6 3 16 -3 22 -6 6
-12 6 -17 -2z"/>
<path d="M402 1234 c2 -11 11 -20 22 -22 13 -3 17 1 14 14 -2 11 -11 20 -22
22 -13 3 -17 -1 -14 -14z"/>
<path d="M665 1240 c-4 -6 -3 -16 3 -22 6 -6 12 -6 17 2 4 6 3 16 -3 22 -6 6
-12 6 -17 -2z"/>
<path d="M905 1230 c-8 -13 14 -42 26 -34 5 3 9 14 9 25 0 20 -24 26 -35 9z"/>
<path d="M1160 1220 c0 -5 7 -10 15 -10 8 0 15 5 15 10 0 6 -7 10 -15 10 -8 0
-15 -4 -15 -10z"/>
<path d="M480 1195 c0 -8 9 -19 21 -26 15 -8 18 -14 10 -22 -11 -11 -15 -47
-5 -47 14 0 45 22 54 40 14 27 3 47 -32 59 -41 14 -48 14 -48 -4z"/>
<path d="M775 1200 c-3 -5 1 -10 10 -10 9 0 13 5 10 10 -3 6 -8 10 -10 10 -2
0 -7 -4 -10 -10z"/>
<path d="M830 1197 c0 -8 9 -22 20 -32 11 -10 20 -24 20 -32 0 -16 26 -18 35
-2 4 6 -2 21 -14 33 -12 12 -21 28 -21 34 0 7 -9 12 -20 12 -11 0 -20 -6 -20
-13z"/>
<path d="M656 1164 c-7 -19 2 -37 15 -29 12 8 12 45 0 45 -5 0 -12 -7 -15 -16z"/>
<path d="M745 1170 c-8 -13 4 -32 16 -25 12 8 12 35 0 35 -6 0 -13 -4 -16 -10z"/>
<path d="M1160 1150 c0 -5 6 -10 14 -10 8 0 18 5 21 10 3 6 -3 10 -14 10 -12
0 -21 -4 -21 -10z"/>
<path d="M1095 1130 c3 -5 8 -10 11 -10 2 0 4 5 4 10 0 6 -5 10 -11 10 -5 0
-7 -4 -4 -10z"/>
<path d="M290 1110 c0 -5 5 -10 11 -10 5 0 7 5 4 10 -3 6 -8 10 -11 10 -2 0
-4 -4 -4 -10z"/>
<path d="M580 1084 c0 -17 22 -14 28 4 2 7 -3 12 -12 12 -9 0 -16 -7 -16 -16z"/>
<path d="M1355 1090 c-7 -12 2 -30 16 -30 12 0 12 27 0 35 -5 3 -12 1 -16 -5z"/>
<path d="M1250 1080 c0 -5 5 -10 10 -10 6 0 10 5 10 10 0 6 -4 10 -10 10 -5 0
-10 -4 -10 -10z"/>
<path d="M1442 1058 c2 -21 8 -33 18 -33 10 0 16 12 18 33 3 27 0 32 -18 32
-18 0 -21 -5 -18 -32z"/>
<path d="M988 1059 c-19 -10 -14 -39 7 -39 14 0 28 37 16 44 -3 2 -14 0 -23
-5z"/>
<path d="M1080 1066 c0 -2 7 -9 15 -16 9 -7 15 -8 15 -2 0 5 -7 12 -15 16 -8
3 -15 4 -15 2z"/>
<path d="M1141 1046 c-9 -11 -7 -15 8 -19 17 -4 31 9 31 29 0 10 -29 3 -39
-10z"/>
<path d="M614 1027 c-3 -8 0 -26 5 -40 13 -33 36 -37 27 -4 -3 12 -6 30 -6 40
0 20 -18 23 -26 4z"/>
<path d="M730 1006 c0 -7 7 -19 15 -26 12 -10 16 -9 21 3 3 9 3 21 -1 27 -9
15 -35 12 -35 -4z"/>
<path d="M3111 1004 c0 -11 3 -14 6 -6 3 7 2 16 -1 19 -3 4 -6 -2 -5 -13z"/>
<path d="M1050 990 c0 -5 5 -10 10 -10 6 0 10 5 10 10 0 6 -4 10 -10 10 -5 0
-10 -4 -10 -10z"/>
<path d="M1120 980 c0 -5 5 -10 10 -10 6 0 10 5 10 10 0 6 -4 10 -10 10 -5 0
-10 -4 -10 -10z"/>
<path d="M530 971 c0 -13 26 -32 33 -24 8 7 -11 33 -24 33 -5 0 -9 -4 -9 -9z"/>
<path d="M965 969 c-10 -15 3 -25 16 -12 7 7 7 13 1 17 -6 3 -14 1 -17 -5z"/>
<path d="M290 946 c0 -9 5 -16 10 -16 6 0 10 4 10 9 0 6 -4 13 -10 16 -5 3
-10 -1 -10 -9z"/>
<path d="M1266 951 c-4 -5 -2 -12 3 -15 5 -4 12 -2 15 3 4 5 2 12 -3 15 -5 4
-12 2 -15 -3z"/>
<path d="M845 911 c-7 -12 12 -24 25 -16 11 7 4 25 -10 25 -5 0 -11 -4 -15 -9z"/>
<path d="M986 903 c-12 -12 -6 -43 9 -43 8 0 15 9 15 19 0 21 -13 34 -24 24z"/>
<path d="M2580 900 c0 -5 4 -10 9 -10 6 0 13 5 16 10 3 6 -1 10 -9 10 -9 0
-16 -4 -16 -10z"/>
<path d="M706 871 c-7 -11 32 -81 45 -81 15 0 10 17 -15 55 -14 19 -27 31 -30
26z"/>
<path d="M1076 873 c-12 -12 -6 -33 9 -33 8 0 15 6 15 14 0 17 -14 28 -24 19z"/>
<path d="M2104 865 c-7 -18 14 -47 27 -39 5 3 9 16 9 30 0 27 -27 34 -36 9z"/>
<path d="M1335 840 c-7 -12 2 -30 16 -30 12 0 12 27 0 35 -5 3 -12 1 -16 -5z"/>
<path d="M290 800 c0 -11 7 -20 15 -20 17 0 18 2 9 24 -9 23 -24 20 -24 -4z"/>
<path d="M417 754 c-8 -8 3 -34 14 -34 11 0 12 27 0 34 -4 3 -11 3 -14 0z"/>
<path d="M10700 725 c0 -17 5 -25 13 -22 6 2 12 12 12 22 0 10 -6 20 -12 23
-8 2 -13 -6 -13 -23z"/>
<path d="M540 730 c0 -5 9 -10 20 -10 11 0 20 5 20 10 0 6 -9 10 -20 10 -11 0
-20 -4 -20 -10z"/>
<path d="M397 653 c-10 -9 -8 -33 2 -33 5 0 11 9 14 20 5 20 -3 26 -16 13z"/>
<path d="M2910 640 c0 -11 5 -20 10 -20 6 0 10 9 10 20 0 11 -4 20 -10 20 -5
0 -10 -9 -10 -20z"/>
<path d="M2957 643 c-4 -3 -7 -17 -7 -30 0 -18 5 -23 25 -23 25 0 31 13 19 44
-6 16 -26 21 -37 9z"/>
<path d="M575 566 c-14 -34 -15 -44 -3 -74 12 -30 37 -44 30 -16 -1 7 2 24 8
38 10 26 10 26 41 11 30 -16 30 -16 19 5 -6 12 -19 24 -28 27 -9 3 -25 15 -34
27 -17 21 -17 21 -33 -18z"/>
<path d="M8530 12785 c0 -8 6 -15 14 -15 8 0 16 7 20 15 4 10 -1 15 -14 15
-11 0 -20 -7 -20 -15z"/>
<path d="M8588 12793 c9 -3 11 -16 6 -41 l-6 -37 21 30 c28 41 27 55 -6 54
-16 0 -22 -3 -15 -6z"/>
<path d="M8680 12766 c0 -8 4 -17 9 -20 11 -7 33 18 24 27 -12 12 -33 7 -33
-7z"/>
<path d="M8767 12774 c-12 -13 -8 -34 7 -34 9 0 16 -12 18 -32 3 -35 24 -49
35 -22 4 10 0 21 -9 28 -8 6 -21 24 -29 39 -8 15 -18 25 -22 21z"/>
<path d="M8631 12684 c0 -11 3 -14 6 -6 3 7 2 16 -1 19 -3 4 -6 -2 -5 -13z"/>
</g>
</svg>
