<?xml version="1.0" standalone="no"?>
<!DOCTYPE svg PUBLIC "-//W3C//DTD SVG 20010904//EN"
 "http://www.w3.org/TR/2001/REC-SVG-20010904/DTD/svg10.dtd">
<svg version="1.0" xmlns="http://www.w3.org/2000/svg"
 width="1280.000000pt" height="1280.000000pt" viewBox="0 0 1280.000000 1280.000000"
 preserveAspectRatio="xMidYMid meet">

<g transform="translate(0.000000,1280.000000) scale(0.100000,-0.100000)"
fill="#000000" stroke="none">
<path d="M0 6400 l0 -6400 6400 0 6400 0 0 6400 0 6400 -6400 0 -6400 0 0
-6400z m10877 6384 c-3 -3 -12 -4 -19 -1 -8 3 -5 6 6 6 11 1 17 -2 13 -5z
m290 0 c-3 -3 -12 -4 -19 -1 -8 3 -5 6 6 6 11 1 17 -2 13 -5z m-487 -22 c0 -9
-54 -42 -69 -42 -20 0 -11 19 17 34 30 17 52 20 52 8z m103 -16 c15 -22 15
-25 1 -30 -9 -3 -24 -6 -35 -6 -22 0 -24 -17 -4 -44 13 -17 18 -17 45 -6 16 7
30 20 30 29 0 9 14 25 30 34 17 10 30 25 30 33 0 8 10 14 25 14 30 0 34 -26 5
-35 -22 -7 -26 -35 -8 -53 9 -9 8 -15 -8 -27 -10 -8 -26 -13 -36 -11 -10 2
-18 -4 -21 -15 -3 -12 0 -19 9 -19 8 0 14 5 14 10 0 6 11 10 25 10 16 0 25 -6
25 -15 0 -17 27 -20 50 -5 12 8 11 10 -7 10 -24 0 -33 29 -10 32 6 0 26 2 42
4 17 1 51 6 78 9 37 6 51 4 66 -9 10 -9 24 -14 32 -11 19 6 64 -29 55 -44 -4
-6 -25 -11 -47 -11 -35 0 -51 -11 -31 -24 11 -6 92 16 92 26 0 4 15 8 34 8 19
0 44 8 57 19 18 15 27 16 41 7 16 -10 15 -12 -14 -26 -34 -16 -49 -40 -25 -40
9 0 17 5 19 10 2 7 19 8 45 4 24 -3 40 -11 37 -16 -4 -5 -16 -7 -28 -5 -11 3
-30 2 -41 -2 -19 -8 -19 -8 2 -19 12 -7 26 -12 32 -12 6 0 27 -12 48 -26 25
-17 50 -25 73 -24 73 4 80 2 80 -25 l0 -25 103 1 c158 2 179 1 172 -11 -3 -5
-15 -10 -25 -10 -18 0 -40 -19 -23 -21 4 0 22 -2 38 -4 17 -3 44 0 61 6 18 5
75 11 129 13 95 3 97 2 113 -23 8 -14 25 -36 36 -49 21 -23 21 -24 2 -37 -18
-14 -18 -15 8 -25 15 -5 32 -10 37 -10 5 0 9 -4 9 -10 0 -5 19 -10 43 -10 24
0 46 -3 50 -6 10 -10 -17 -44 -35 -44 -30 0 -20 -20 12 -26 17 -4 30 -12 30
-19 0 -7 -13 -18 -30 -24 -29 -10 -36 -25 -32 -74 1 -12 -7 -19 -28 -24 -39
-7 -39 -23 0 -23 30 0 30 -1 27 -44 -2 -24 -7 -49 -11 -55 -4 -7 -2 -18 4 -26
6 -8 9 -18 6 -23 -5 -8 -12 -98 -21 -262 -3 -47 -8 -96 -11 -110 -16 -69 -18
-313 -3 -342 6 -11 9 -41 6 -66 -3 -24 -1 -58 3 -74 5 -17 4 -69 -4 -126 -6
-53 -10 -119 -8 -147 5 -56 5 -83 1 -235 -1 -58 -2 -121 0 -140 1 -19 -1 -105
-5 -190 -4 -85 -7 -194 -7 -243 l-1 -87 -30 -9 c-29 -9 -29 -9 -6 -10 22 -2
23 -3 8 -14 -15 -12 -15 -14 5 -26 l21 -14 -22 -17 c-19 -15 -19 -19 -6 -24 9
-3 14 -13 11 -20 -3 -8 1 -20 9 -26 28 -24 9 -90 -27 -90 -8 0 -6 -7 6 -20 16
-18 16 -20 1 -35 -18 -19 -20 -31 -6 -40 15 -10 2 -25 -22 -25 -16 0 -18 -3
-9 -14 6 -8 11 -18 10 -22 -1 -5 6 -26 15 -48 9 -21 15 -41 12 -44 -3 -3 -1
-11 5 -19 9 -10 8 -13 -5 -13 -10 0 -14 -5 -10 -11 4 -8 -4 -9 -27 -5 -30 6
-32 5 -17 -7 16 -13 12 -15 -35 -26 -58 -13 -95 -31 -64 -31 10 0 17 -8 17
-21 0 -15 4 -19 19 -14 11 3 22 1 26 -4 3 -6 -5 -13 -19 -17 -36 -9 -41 -32
-8 -40 41 -10 55 -24 41 -40 -9 -11 -8 -14 5 -15 35 -3 41 -5 39 -17 -2 -7 2
-12 7 -12 6 0 10 -7 10 -15 0 -8 5 -15 11 -15 6 0 9 -7 5 -15 -3 -9 0 -15 8
-15 8 0 16 -7 20 -15 3 -9 0 -15 -9 -15 -21 0 -19 -18 3 -25 11 -3 24 -22 31
-43 10 -34 24 -277 20 -347 -3 -36 -2 -108 1 -150 1 -16 0 -81 -2 -143 -2 -63
0 -116 4 -118 4 -3 8 -12 8 -21 0 -9 7 -25 16 -35 13 -14 14 -21 5 -32 -24
-28 -38 -350 -17 -384 3 -6 2 -13 -4 -17 -6 -4 -7 -11 -4 -17 7 -10 11 -190
18 -828 3 -201 9 -408 15 -462 5 -56 6 -112 1 -135 -5 -21 -7 -72 -4 -113 3
-41 5 -154 5 -250 0 -96 -2 -425 -4 -730 -2 -305 0 -564 3 -574 4 -11 3 -39
-2 -63 -7 -31 -6 -48 2 -58 7 -8 8 -20 3 -27 -4 -7 -8 -71 -9 -143 -2 -160
-12 -363 -18 -374 -3 -4 -1 -25 4 -46 5 -21 5 -46 1 -54 -5 -9 -4 -43 1 -76
18 -116 24 -249 18 -435 -1 -41 2 -91 8 -111 6 -24 6 -72 -1 -138 -7 -68 -7
-126 0 -174 6 -41 7 -100 2 -137 -4 -35 -5 -68 -2 -73 3 -4 4 -49 3 -100 0
-51 -2 -162 -3 -247 -1 -85 -6 -161 -10 -167 -5 -8 -3 -13 4 -13 6 0 9 -8 6
-20 -3 -11 -1 -23 4 -26 13 -8 11 -35 -5 -66 -8 -15 -11 -30 -6 -33 11 -7 1
-102 -12 -128 -7 -13 -5 -24 5 -35 8 -10 15 -42 16 -72 l2 -55 -42 -18 c-33
-14 -39 -21 -28 -28 11 -7 11 -9 -4 -9 -9 0 -16 -6 -15 -12 2 -7 -8 -14 -21
-16 l-23 -4 21 -14 c12 -9 25 -13 30 -9 5 3 12 1 16 -5 3 -5 1 -10 -6 -10 -6
0 -9 -8 -6 -20 3 -13 0 -20 -10 -20 -8 0 -11 -5 -8 -10 4 -6 15 -10 25 -8 22
4 70 -46 70 -72 0 -10 5 -20 11 -22 6 -2 12 -13 13 -23 2 -11 5 -28 9 -37 18
-46 20 -54 18 -66 -1 -8 3 -20 10 -28 6 -7 9 -21 5 -29 -3 -8 0 -15 6 -15 6 0
9 -3 5 -6 -3 -3 1 -23 8 -44 7 -21 11 -41 8 -43 -8 -9 17 -77 28 -77 6 0 7 -9
4 -20 -4 -12 -2 -20 5 -20 6 0 10 -6 9 -12 -2 -7 5 -30 14 -52 15 -34 16 -53
6 -91 -1 -5 1 -17 4 -25 13 -32 27 -96 27 -122 0 -16 5 -28 11 -28 6 0 8 -7 5
-16 -7 -17 7 -17 71 2 18 5 25 1 34 -19 9 -19 27 -31 65 -43 31 -9 54 -23 54
-30 0 -8 -6 -14 -12 -14 -7 0 -21 -7 -31 -14 -17 -13 -17 -15 10 -28 15 -7 29
-21 31 -31 3 -14 -4 -17 -48 -17 -32 0 -49 -4 -45 -10 3 -5 2 -10 -4 -10 -5 0
-22 -5 -37 -10 -24 -10 -25 -12 -11 -28 14 -15 13 -20 -9 -47 -13 -16 -24 -35
-24 -41 0 -15 -35 -46 -43 -38 -3 4 -46 8 -94 10 -48 2 -121 7 -161 10 -78 7
-113 -5 -91 -32 9 -11 8 -15 -4 -19 -25 -10 -82 10 -85 29 -3 16 0 18 23 12
20 -5 26 -3 22 6 -2 7 -15 12 -28 10 -13 -1 -49 -3 -79 -3 -30 -1 -64 -8 -76
-16 -21 -13 -54 -9 -54 8 0 5 -13 9 -28 9 -15 0 -33 5 -39 11 -6 6 -17 8 -24
3 -9 -5 -5 -10 11 -16 23 -8 21 -10 -29 -33 -72 -34 -81 -33 -74 10 7 41 2 42
-37 14 -21 -16 -37 -20 -63 -16 l-35 5 9 -31 c13 -45 -6 -87 -38 -87 -16 0
-22 4 -17 12 5 8 -5 9 -36 4 -40 -6 -42 -5 -29 10 13 16 11 17 -23 11 -30 -4
-38 -2 -38 9 0 8 10 19 23 23 l22 9 -25 10 c-20 8 -28 6 -41 -10 -10 -13 -32
-22 -62 -25 -48 -6 -53 -1 -48 44 1 6 -24 19 -54 28 -48 15 -59 16 -81 5 -21
-12 -31 -12 -69 2 -26 10 -47 13 -50 7 -4 -5 3 -9 14 -9 12 0 21 -4 21 -9 0
-14 -51 -23 -65 -11 -10 8 -30 8 -71 1 -77 -15 -82 -14 -89 8 -8 26 -35 35
-49 17 -30 -40 -108 -46 -140 -11 -13 14 -28 25 -35 25 -16 0 -14 -11 6 -26
22 -16 11 -29 -14 -17 -10 6 -55 9 -100 8 -76 -1 -102 6 -70 18 6 3 2 6 -10 6
-12 1 -24 -5 -27 -11 -3 -9 -8 -8 -16 5 -16 25 -50 23 -43 -3 6 -22 -15 -28
-34 -9 -6 6 -47 11 -91 12 -46 1 -78 6 -75 11 4 5 -4 6 -18 2 -13 -5 -40 -10
-59 -13 -19 -3 -39 -12 -43 -19 -14 -25 -74 -18 -223 27 -39 12 -57 11 -49 -1
11 -18 -14 -48 -46 -55 -24 -5 -38 -2 -60 14 -22 16 -38 20 -62 16 -18 -4 -45
-1 -61 5 -24 9 -31 8 -41 -6 -11 -16 -14 -16 -44 5 -17 12 -31 29 -31 37 0 8
-4 14 -10 14 -15 0 -12 -26 5 -40 8 -7 12 -16 9 -21 -7 -13 -42 -11 -46 2 -2
7 -12 7 -31 0 -20 -8 -33 -7 -49 2 -16 9 -22 9 -25 0 -6 -18 -33 -16 -33 2 0
7 8 19 18 24 37 22 -11 10 -60 -15 -45 -23 -56 -25 -88 -15 -23 7 -55 7 -90 2
-29 -5 -71 -6 -92 -3 -21 2 -57 -1 -80 -7 -35 -10 -49 -9 -78 3 -36 15 -139
24 -156 14 -5 -3 -52 -9 -105 -13 -79 -5 -102 -4 -127 9 -39 20 -53 20 -46 1
4 -10 0 -15 -15 -15 -12 0 -24 7 -27 15 -4 9 -18 15 -38 14 -28 -1 -29 -2 -7
-8 14 -4 26 -12 28 -18 5 -15 -125 -9 -141 7 -14 14 -56 12 -86 -5 -22 -12
-29 -11 -58 7 -37 23 -73 18 -52 -7 11 -13 6 -14 -36 -9 -27 4 -57 11 -66 15
-12 7 -20 4 -27 -8 -8 -15 -13 -16 -30 -6 -22 14 -71 9 -149 -14 -56 -16 -117
-11 -125 10 -3 9 -11 9 -36 0 -18 -7 -66 -10 -109 -8 -50 2 -80 -1 -85 -9 -5
-8 -11 -6 -21 7 -15 20 -70 23 -113 6 -30 -12 -171 -20 -152 -9 25 16 -25 19
-51 3 -25 -14 -34 -15 -72 -4 -24 7 -53 18 -66 24 -18 9 -29 7 -50 -6 -15 -9
-26 -23 -26 -32 1 -8 -4 -15 -11 -15 -19 0 -36 25 -29 44 3 9 1 16 -5 16 -7 0
-14 -7 -18 -16 -4 -12 -16 -14 -62 -8 -31 4 -65 13 -76 20 -11 8 -28 14 -38
14 -27 0 -59 -19 -51 -31 4 -6 11 -6 20 2 18 15 72 4 104 -22 l25 -20 -43 6
c-25 4 -48 3 -55 -4 -19 -15 -73 2 -69 21 4 24 -29 31 -44 9 -16 -23 -58 -36
-50 -16 6 16 -29 49 -44 40 -5 -3 -8 -11 -5 -16 4 -5 0 -9 -8 -9 -8 0 -28 -7
-46 -16 -27 -14 -44 -14 -129 -4 -53 6 -119 14 -147 16 l-50 5 28 -21 c15 -12
27 -25 27 -30 0 -17 -49 -19 -93 -4 -43 14 -48 14 -63 0 -18 -18 -42 -20 -64
-6 -13 9 -13 11 0 21 12 9 11 10 -5 4 -11 -4 -28 -10 -37 -12 -10 -3 -15 -9
-13 -14 10 -15 -36 -31 -70 -25 -18 4 -44 1 -58 -5 -33 -15 -73 -5 -80 21 -3
12 -13 20 -27 20 -18 0 -20 -3 -11 -14 7 -8 8 -17 3 -20 -16 -10 -37 25 -34
55 3 28 -10 39 -23 19 -3 -5 -21 -10 -38 -10 -18 0 -43 -9 -57 -19 -24 -19
-24 -20 -6 -40 17 -19 17 -21 2 -27 -10 -4 -28 -2 -42 5 -20 9 -30 8 -49 -5
-16 -10 -34 -14 -50 -10 -32 8 -33 26 -1 26 14 0 27 3 29 8 3 4 -68 7 -158 7
-127 0 -161 -3 -153 -12 20 -24 -3 -36 -59 -30 -48 5 -60 11 -92 46 -25 27
-46 41 -62 41 l-24 -1 23 -18 c28 -25 28 -31 -3 -31 -14 0 -36 -7 -49 -15 -19
-13 -29 -13 -52 -4 -16 7 -49 12 -74 13 -36 1 -47 5 -56 24 -11 22 -12 22 -17
3 -6 -26 -64 -37 -111 -21 -39 13 -70 4 -42 -12 9 -5 14 -14 11 -19 -4 -5 -17
-1 -31 10 -20 16 -40 20 -92 19 -37 -1 -77 2 -89 6 -14 5 -23 3 -23 -3 0 -14
-62 -14 -93 0 -18 8 -32 7 -62 -5 -30 -13 -40 -14 -49 -4 -8 9 -41 12 -114 10
-99 -3 -103 -4 -112 -28 -12 -30 -50 -33 -57 -4 -4 16 -14 20 -44 20 -21 0
-41 -4 -44 -10 -8 -13 -102 -13 -110 -1 -3 6 -36 8 -73 6 -37 -3 -78 -5 -91
-5 -14 0 -21 -5 -18 -13 3 -9 -17 -12 -82 -12 -47 0 -106 -4 -131 -8 -30 -5
-40 -4 -30 2 20 14 6 25 -17 13 -10 -5 -42 -12 -71 -16 -48 -6 -52 -5 -52 14
0 15 -7 20 -28 20 -15 0 -36 -6 -47 -14 -11 -7 -38 -16 -60 -19 -22 -3 -55 -9
-72 -13 -25 -5 -34 -2 -39 10 -9 23 -23 20 -34 -9 -9 -24 -40 -36 -40 -16 0 5
-9 12 -19 16 -13 4 -18 12 -14 22 4 11 2 14 -8 11 -8 -3 -13 -10 -12 -16 5
-20 -37 -35 -63 -23 -13 6 -24 15 -24 21 0 5 -11 10 -25 10 -20 0 -24 -5 -22
-22 4 -38 -43 -36 -71 2 -26 35 -43 37 -92 10 l-35 -20 40 5 c43 6 72 -6 61
-24 -13 -20 -98 -7 -145 23 -8 5 -42 11 -75 13 -34 1 -62 7 -64 12 -1 4 -19 0
-39 -10 -32 -16 -51 -18 -152 -12 -64 3 -144 5 -178 5 -49 -1 -62 2 -68 16 -7
18 -18 104 -17 134 0 10 -3 20 -8 23 -4 3 -6 14 -3 24 3 10 0 21 -5 25 -14 8
-84 -23 -77 -34 7 -11 -15 -22 -48 -24 -24 -1 -36 -26 -13 -26 21 0 21 -19 0
-27 -11 -4 -23 2 -35 18 -16 21 -28 25 -116 31 -130 10 -133 10 -171 2 -21 -4
-32 -2 -32 5 0 6 7 11 15 11 21 0 19 13 -5 28 -25 16 -25 29 0 37 11 3 20 10
20 15 0 17 -33 19 -63 4 -55 -29 -217 -26 -217 3 0 12 -8 14 -36 10 -20 -4
-45 -2 -54 3 -14 7 -29 1 -64 -26 -35 -26 -51 -33 -71 -28 -31 8 -32 17 -3 37
13 8 20 18 16 22 -4 4 -19 0 -32 -9 -42 -27 -90 -18 -61 11 24 24 18 35 -16
28 -29 -7 -30 -6 -20 14 10 18 40 41 55 41 3 0 6 -7 6 -15 0 -21 17 -19 30 4
9 17 6 20 -18 23 -22 2 -27 8 -27 31 -1 16 4 27 12 27 7 0 13 7 13 16 0 12 -6
15 -24 10 -36 -9 -38 3 -7 43 46 59 77 121 64 129 -8 5 -8 12 2 25 10 14 14
15 19 5 3 -7 3 -3 1 8 -4 16 0 23 17 29 22 7 22 8 -6 12 -16 3 -32 -1 -36 -7
-4 -7 -13 -11 -19 -9 -8 3 -5 12 9 26 11 12 20 32 20 43 0 14 4 19 13 14 8 -5
8 -2 -2 9 -12 15 -11 17 4 17 10 0 15 6 13 18 -2 10 -13 17 -25 17 -33 1 -35
9 -8 35 14 13 25 28 25 33 0 6 11 25 25 43 14 18 25 37 25 43 0 6 4 11 9 11
10 0 27 39 23 53 -1 4 5 10 13 13 28 11 15 24 -25 24 l-40 0 27 30 c14 16 31
30 38 30 11 0 92 91 88 99 -7 11 -71 6 -100 -7 -22 -9 -47 -12 -76 -8 -38 6
-48 3 -86 -24 -27 -20 -49 -29 -59 -25 -14 5 -13 9 8 20 14 7 28 11 31 9 4 -2
9 6 13 19 5 20 11 22 48 20 31 -2 38 -1 23 6 -11 5 -23 7 -27 4 -5 -2 -8 -2
-8 2 0 3 11 10 24 15 23 8 23 11 12 44 -7 20 -15 39 -19 42 -4 4 -7 15 -7 24
0 9 -6 17 -12 17 -7 0 -17 2 -23 3 -30 7 -38 -2 -15 -16 l25 -15 -32 5 c-23 4
-33 1 -37 -11 -4 -9 -3 -19 0 -22 4 -3 9 0 11 7 6 16 24 16 20 0 -4 -21 -19
-28 -60 -28 -34 0 -38 3 -35 23 2 12 9 27 17 33 18 14 6 34 -20 34 -24 0 -24
11 1 38 11 12 20 24 20 28 0 4 11 22 25 40 14 18 25 36 25 39 0 4 9 20 21 36
11 16 17 29 12 29 -4 0 1 7 11 15 23 18 16 27 -21 30 -28 2 -34 23 -10 37 46
27 61 66 42 111 -6 14 -2 20 14 24 23 6 29 23 7 23 -19 0 -28 40 -10 47 11 4
12 9 3 19 -6 8 -12 34 -13 59 -1 25 -5 48 -9 51 -4 4 -2 13 4 21 9 10 8 13 0
13 -8 0 -10 8 -6 19 3 11 -1 26 -10 35 -18 18 -70 22 -80 6 -8 -12 -45 -13
-45 -1 0 12 21 19 78 27 l49 6 -2 47 c-1 25 -5 54 -10 64 -4 11 -3 23 4 30 8
8 6 14 -11 23 -23 13 -23 13 9 26 28 12 30 15 18 32 -8 10 -17 35 -20 57 -4
21 -10 39 -13 39 -4 1 -32 3 -62 6 -45 5 -53 3 -42 -7 6 -7 12 -16 12 -19 0
-6 -46 -6 -83 -1 -4 1 -7 9 -5 19 2 11 -4 17 -17 17 -14 0 -20 7 -20 21 0 11
-8 28 -18 38 -9 10 -15 22 -12 27 3 5 1 18 -5 30 -8 14 -8 29 -1 49 6 19 6 32
0 35 -15 10 0 25 24 25 21 1 22 1 3 15 -11 8 -18 16 -15 18 2 2 15 11 29 21
l25 17 -35 -3 c-31 -3 -35 0 -35 22 0 14 4 30 8 37 6 8 3 19 -7 29 -13 12 -14
19 -6 30 8 8 8 19 2 30 -13 24 -3 96 16 112 14 11 14 12 -1 12 -9 0 -18 6 -18
13 -5 46 -7 57 -12 71 -3 8 -2 18 4 22 5 3 7 13 4 23 -3 11 4 22 22 33 25 15
26 16 5 22 -13 4 -19 13 -15 22 3 7 0 14 -6 14 -20 0 -12 28 14 48 14 11 25
29 25 40 0 15 9 22 30 27 17 4 30 11 30 17 0 10 -27 6 -65 -8 -13 -5 -16 -2
-13 12 5 29 69 55 107 44 17 -5 31 -5 31 0 0 15 -40 22 -85 16 -48 -8 -68 7
-40 28 16 12 16 13 1 19 -9 4 -16 13 -16 22 0 11 11 15 43 14 35 -1 38 -2 17
-9 -22 -6 -23 -8 -7 -15 14 -6 15 -10 5 -23 -11 -13 -9 -14 17 -10 17 3 39 9
50 13 11 5 17 5 13 0 -10 -10 10 -35 27 -35 16 0 27 38 12 43 -15 5 -19 47 -5
47 9 0 9 3 1 11 -8 8 -17 8 -32 -1 -17 -9 -29 -8 -51 2 -32 14 -39 28 -14 28
8 0 12 4 9 10 -3 5 3 10 14 10 11 0 23 5 26 10 9 14 -68 13 -83 -2 -9 -9 -15
-9 -25 1 -9 10 -9 15 0 18 7 2 9 11 6 20 -4 10 0 14 13 13 38 -4 77 0 70 8 -4
4 -31 7 -59 7 l-52 0 -2 42 c-1 24 3 45 8 49 7 4 5 12 -4 22 -23 27 -27 61 -9
72 16 9 16 11 0 20 -23 14 -23 26 2 47 24 21 25 36 5 53 -8 7 -15 24 -15 39 0
14 -2 44 -4 66 -5 59 -8 139 -6 150 1 6 3 16 4 23 0 7 8 17 16 22 9 6 11 13 5
18 -19 14 -35 51 -29 67 6 14 8 14 23 1 15 -13 22 -14 44 -3 32 14 30 33 -4
30 -58 -5 -69 4 -68 55 0 26 -3 73 -7 104 l-6 58 28 0 29 1 -25 12 c-18 9 -26
21 -29 44 -2 31 0 33 28 33 28 0 30 -2 19 -20 -17 -27 -4 -35 32 -18 l30 15
-25 29 c-27 31 -31 44 -14 44 5 0 7 5 4 10 -4 6 -22 9 -42 8 -34 -3 -35 -2
-38 40 -2 28 2 47 12 57 8 8 10 15 4 15 -6 0 -11 7 -11 15 0 18 5 18 31 5 21
-12 26 -45 8 -56 -7 -4 0 -12 17 -20 16 -8 37 -19 47 -26 14 -11 19 -10 28 2
8 11 12 12 16 3 3 -10 10 -10 24 -2 25 13 16 28 -13 22 -28 -5 -85 22 -68 32
7 4 16 2 20 -5 4 -7 12 -10 18 -6 13 8 8 69 -7 74 -6 2 -11 10 -11 18 0 8 -8
14 -17 15 -13 0 -12 3 6 10 19 7 21 12 11 24 -10 11 -9 18 4 30 18 18 21 35 7
35 -5 0 -8 8 -7 18 1 14 -7 17 -39 16 -22 -1 -30 1 -17 3 29 6 19 23 -14 23
-28 0 -32 15 -6 29 15 10 15 11 -5 17 -25 7 -31 24 -9 24 7 0 19 7 26 15 10
12 9 15 -6 15 -18 1 -18 1 -1 11 24 14 22 45 -4 52 -17 5 -19 9 -9 26 6 12 15
21 21 21 6 0 7 5 4 10 -3 6 -15 10 -26 10 -13 0 -19 7 -19 24 0 29 50 69 74
60 27 -10 18 25 -9 38 -18 8 -24 17 -19 30 4 14 0 18 -20 18 -14 0 -26 5 -26
10 0 12 2 12 36 0 36 -14 54 -6 47 20 -6 22 -19 22 -68 4 -12 -5 -16 -2 -14
12 2 10 0 24 -4 31 -9 15 11 28 42 28 13 0 26 6 28 13 3 7 -4 12 -15 12 -31 0
-52 11 -52 26 0 16 36 19 45 4 11 -17 23 -11 28 16 4 24 3 25 -34 20 -36 -5
-39 -4 -39 18 0 14 6 26 13 29 9 3 9 7 0 18 -14 17 -13 91 2 101 6 5 6 8 -1 8
-7 0 -11 27 -11 71 -1 58 2 72 18 82 24 15 24 24 -1 32 -19 6 -21 14 -18 132
1 90 5 126 15 130 9 4 9 10 -3 28 -10 15 -13 32 -9 46 4 11 7 36 7 55 0 19 3
36 7 38 3 2 6 56 6 120 0 64 3 116 8 116 4 0 5 19 2 41 -3 23 0 47 5 54 8 9 8
15 0 20 -16 10 -12 45 6 52 12 5 13 7 3 14 -8 4 -14 25 -14 46 -1 21 -2 43 -4
48 -2 6 -3 26 -2 46 1 29 6 38 23 42 21 6 21 7 4 26 -20 22 -31 147 -14 157 5
3 6 19 3 35 -5 20 -3 29 6 29 10 0 10 3 1 12 -8 8 -9 15 -1 25 9 10 8 13 -2
13 -10 0 -10 3 -1 12 17 17 15 38 -3 38 -8 0 -15 5 -15 10 0 6 7 10 15 10 18
0 19 12 3 28 -10 10 -10 15 1 21 7 5 10 14 7 20 -4 6 -1 11 6 11 8 1 4 9 -9
19 -13 11 -23 22 -23 25 0 3 10 5 23 3 18 -2 21 2 19 21 -3 17 2 22 20 23 17
1 18 3 6 6 -10 2 -18 9 -18 14 0 5 -13 9 -29 9 l-29 0 29 31 c42 45 36 64 -12
39 -25 -14 -26 7 -1 27 16 14 16 14 0 9 -21 -6 -31 23 -26 75 3 34 4 34 48 31
41 -2 43 -1 27 12 -17 13 -17 15 -1 24 27 15 6 34 -35 30 -35 -3 -36 -2 -33
27 4 46 10 55 31 55 11 0 23 4 26 10 4 6 -6 7 -25 4 l-30 -6 0 61 c0 35 4 61
10 61 10 0 8 29 -5 69 -3 11 -1 22 4 25 5 4 7 21 4 40 -3 19 -1 36 5 40 6 4 9
13 5 21 -3 11 2 15 18 16 24 1 24 1 -1 10 -26 9 -26 10 -23 117 5 171 8 193
23 202 17 11 22 40 7 40 -7 0 -18 9 -25 20 -10 17 -9 23 8 37 13 12 16 19 8
24 -18 11 -19 58 0 68 11 6 13 13 6 23 -11 14 -11 78 0 96 4 6 12 9 19 7 7 -3
26 0 42 5 29 10 29 10 -6 5 -35 -5 -36 -5 -37 30 -1 37 8 44 27 21 7 -8 21
-12 32 -9 14 4 17 9 9 18 -5 6 -6 15 -2 20 4 4 -6 5 -23 1 l-30 -7 25 17 c36
26 46 42 45 72 0 20 -6 28 -22 30 -17 3 -21 0 -17 -12 3 -9 1 -16 -5 -16 -18
0 -13 -18 7 -23 9 -3 -2 -5 -25 -6 -46 -1 -59 19 -25 38 16 9 16 11 -3 25 -12
9 -15 15 -7 16 7 0 10 5 6 11 -4 7 0 9 12 6 49 -15 74 -18 74 -10 0 5 -20 15
-45 22 -28 8 -47 20 -51 33 -8 25 2 34 20 19 8 -7 27 -11 43 -9 28 4 28 4 -7
14 -25 7 -36 17 -38 34 -2 13 -15 32 -28 43 -27 21 -32 47 -8 47 13 0 14 3 5
14 -10 11 -8 16 9 21 20 6 20 7 -5 27 -16 13 -24 26 -20 36 3 8 1 19 -6 22 -8
6 -8 13 0 28 7 14 8 23 1 27 -6 4 -7 12 -3 18 4 7 8 16 8 22 0 5 11 12 25 16
22 6 22 7 4 8 -18 1 -22 9 -27 54 -3 28 0 58 5 65 7 8 7 17 -2 27 -10 13 -10
19 4 34 10 11 13 22 8 25 -5 3 -9 19 -10 37 -1 28 2 31 24 26 14 -2 43 0 65 5
38 10 72 -1 66 -22 -1 -4 2 -8 8 -9 5 0 10 5 11 12 0 6 2 14 3 17 1 3 4 15 7
28 4 25 -23 32 -32 8 -7 -19 -98 -30 -126 -15 l-21 11 24 19 24 19 -27 0 c-28
0 -42 30 -15 30 8 0 8 3 1 8 -18 12 -22 36 -11 62 11 27 13 36 15 63 1 9 10
17 20 17 14 0 15 2 2 10 -12 8 -12 10 -1 10 11 0 11 3 1 15 -11 13 -8 15 20
15 26 0 30 3 21 14 -14 16 4 26 50 26 31 0 36 -9 17 -28 -9 -9 -7 -12 11 -12
32 0 46 19 47 63 0 25 -4 37 -13 37 -8 0 -11 -4 -8 -10 4 -6 -5 -10 -21 -10
-20 0 -24 3 -16 13 14 16 -3 39 -47 60 -39 19 -61 22 -61 7 0 -5 10 -10 23
-10 12 0 29 -4 37 -10 12 -7 11 -10 -5 -15 -11 -4 -30 -11 -43 -16 -31 -12
-31 -12 -25 11 3 12 -1 22 -11 26 -22 9 -20 34 3 34 18 0 51 34 51 51 0 13
-32 19 -49 9 -39 -20 -56 40 -21 77 16 18 17 23 5 33 -27 23 -8 50 36 50 14 0
30 5 36 11 14 14 49 3 57 -19 3 -9 9 -23 12 -29 4 -10 -10 -13 -55 -13 -36 0
-61 -4 -61 -11 0 -7 16 -8 45 -3 42 6 45 5 46 -17 3 -62 15 -79 56 -79 30 0
33 3 28 20 -3 10 -1 28 5 40 8 15 8 20 -2 20 -9 0 -9 3 0 12 9 9 5 15 -18 24
-17 7 -30 18 -30 25 0 6 7 8 15 5 8 -3 21 -8 28 -11 20 -9 48 149 48 277 1 38
4 70 9 73 4 3 11 26 15 52 4 32 14 54 28 65 19 14 20 20 10 35 -34 49 -44 76
-34 86 6 6 11 21 11 34 0 13 4 23 10 23 5 0 17 25 26 56 18 64 26 154 13 154
-5 0 -9 17 -9 38 0 21 -6 44 -12 50 -10 10 -10 15 1 21 11 7 12 15 4 38 -11
29 -11 78 0 90 4 3 7 19 7 35 0 15 5 28 10 28 6 0 10 9 10 21 0 11 14 33 31
48 24 22 29 33 24 53 -4 14 -2 29 3 32 6 3 8 15 5 26 -3 12 0 20 7 20 7 0 9 8
5 20 -9 28 58 120 115 157 42 28 52 30 151 32 59 1 162 7 230 12 174 14 178
15 237 6 33 -5 51 -4 48 1 -9 15 14 72 29 72 8 0 25 -4 39 -10 17 -6 35 -6 53
1 16 6 75 12 133 14 89 4 109 2 136 -15 21 -12 34 -15 36 -8 2 6 29 12 59 13
29 1 64 8 76 15 19 12 27 11 74 -15 l52 -28 29 31 c33 38 78 44 78 12 0 -26
34 -26 60 0 15 15 25 17 42 11 13 -5 22 -14 20 -20 -4 -20 20 -11 40 14 25 32
46 32 59 -1 9 -26 10 -26 29 -9 14 13 27 15 47 10 15 -3 46 -9 68 -12 22 -3
45 -9 50 -13 10 -8 40 -13 61 -11 7 0 14 10 17 21 3 11 12 20 20 20 22 0 30
-17 12 -24 -20 -7 -19 -26 1 -26 9 0 18 9 21 20 6 21 37 27 48 10 10 -16 38
-12 31 5 -4 12 0 14 22 8 15 -3 68 -7 117 -7 53 -1 95 -6 102 -12 13 -12 125
-11 211 2 27 4 48 2 55 -5 6 -6 29 -11 50 -11 31 0 38 3 33 15 -3 10 3 17 19
21 28 7 45 -1 45 -21 0 -7 8 -16 18 -19 28 -9 186 -3 199 7 8 6 25 5 45 -2 24
-9 46 -8 86 1 43 9 55 9 62 -1 5 -9 15 -11 31 -5 13 4 54 8 90 9 48 1 71 6 84
18 9 10 21 14 26 11 6 -3 3 -11 -7 -18 -27 -20 -1 -28 39 -11 26 11 43 12 71
4 20 -5 36 -14 36 -19 0 -6 9 -1 21 11 12 12 27 18 37 14 9 -3 38 0 65 7 38 9
52 9 67 0 11 -7 31 -12 45 -12 27 0 34 -15 10 -24 -8 -3 -15 -10 -15 -16 0
-22 31 -8 69 30 33 33 49 42 89 47 52 6 73 -7 52 -32 -9 -11 4 -12 82 -7 51 3
123 6 160 5 37 0 65 3 62 8 -3 5 -14 9 -25 9 -10 0 -19 5 -19 10 0 14 56 12
80 -2 15 -10 22 -10 32 0 15 15 45 16 53 1 4 -6 -1 -16 -11 -24 -11 -7 -17
-15 -14 -17 31 -24 64 -38 80 -33 10 3 21 1 25 -5 13 -22 35 -10 33 18 -2 33
8 52 29 52 13 0 13 -3 3 -15 -11 -13 -9 -15 13 -15 16 0 26 7 30 20 6 22 54
28 87 10 14 -7 25 -7 39 2 15 9 25 9 46 0 14 -7 24 -16 21 -21 -3 -5 7 -14 23
-19 24 -9 29 -8 24 3 -8 23 44 31 67 10 18 -16 22 -16 60 -1 22 9 49 16 60 16
29 0 36 -22 12 -38 -12 -8 -22 -17 -22 -21 0 -9 38 -8 65 2 11 3 58 11 105 17
72 9 93 8 137 -6 29 -9 50 -21 47 -25 -3 -5 4 -9 14 -9 22 0 46 23 35 33 -3 4
5 7 19 7 14 0 28 -7 32 -15 3 -8 15 -15 26 -15 16 0 20 4 15 19 -4 15 1 20 26
25 18 3 38 1 45 -5 7 -6 27 -7 48 -3 49 9 45 1 -10 -25 -35 -17 -49 -19 -60
-11 -7 7 -19 10 -26 7 -7 -3 2 -11 21 -20 31 -13 37 -13 65 3 46 26 124 36
132 16 11 -28 35 -19 28 9 -4 15 -2 25 5 25 18 0 26 -4 24 -12 -2 -4 11 -15
28 -24 24 -12 37 -13 53 -5 53 26 106 35 131 21 19 -10 32 -11 69 0 47 13 131
7 153 -12 16 -13 74 0 89 20 7 10 13 12 18 4 4 -7 34 -9 90 -5 57 4 85 2 90
-6 10 -16 35 -14 52 4 19 19 87 19 123 1 19 -10 50 -14 99 -11 46 2 72 0 72
-7 0 -6 7 -7 18 -3 9 4 36 11 60 15 32 5 42 4 42 -7 0 -18 40 -16 61 3 17 15
21 15 53 0 41 -19 58 -20 74 -4 7 7 32 13 55 14 23 1 52 5 65 9 17 6 22 3 22
-9 0 -9 -8 -16 -20 -16 -11 0 -20 -4 -20 -10 0 -16 25 -11 53 10 29 23 52 26
44 6 -10 -24 4 -25 44 -4 38 19 46 20 159 9 148 -14 143 -14 136 4 -3 8 -1 15
4 15 6 0 10 -4 10 -10 0 -12 55 -13 78 -1 10 5 78 6 160 1 90 -5 156 -4 176 2
27 9 41 6 85 -17 29 -14 56 -23 59 -20 4 4 -1 11 -11 16 -9 6 -17 14 -17 18 0
10 97 7 121 -3 10 -4 20 -3 24 3 9 15 42 14 48 -1 3 -10 7 -10 21 1 12 10 32
12 72 8 43 -4 56 -2 61 9 3 8 16 13 32 12 15 -1 32 2 39 6 21 13 90 -3 94 -22
4 -14 16 -17 64 -16 62 1 135 23 101 31 -9 3 -33 -1 -53 -7 -25 -9 -39 -9 -46
-2 -18 18 11 44 39 37 16 -4 23 -1 23 10 0 12 11 14 56 10 65 -5 76 -11 43
-24 -21 -9 -19 -10 18 -10 23 -1 45 -5 48 -11 3 -5 20 -10 37 -10 22 0 29 -4
25 -15 -10 -24 14 -29 36 -6 l21 21 -22 0 c-32 0 -25 32 12 48 35 15 49 15 40
0 -5 -8 -2 -9 10 -5 10 4 26 7 35 7 10 0 30 11 44 24 14 13 49 29 77 35 62 13
63 13 55 1 -4 -6 -2 -17 4 -24 9 -10 -1 -12 -47 -9 -43 3 -53 1 -40 -7 29 -18
108 -29 108 -15 0 7 7 18 15 25 11 9 26 8 70 -8 31 -12 62 -19 69 -16 7 3 24
0 38 -5 22 -8 29 -6 41 12 l15 22 24 -22 c21 -20 27 -21 43 -10 34 26 -24 35
-137 21 -51 -6 -57 -4 -68 16 -11 21 -10 22 18 15 36 -8 51 10 28 33 -14 14
-17 14 -34 -1 -10 -10 -35 -17 -55 -17 -31 0 -37 4 -37 21 0 22 22 49 39 49 6
0 11 -4 11 -10 0 -5 15 -10 34 -10 19 0 36 -5 38 -10 2 -7 15 -6 36 2 26 10
34 10 41 0 4 -7 24 -15 43 -18 33 -6 36 -4 36 19 0 28 -26 40 -65 31 -26 -7
-32 11 -7 20 25 10 104 7 104 -3 0 -6 -5 -13 -11 -16 -6 -5 -4 -12 8 -21 26
-19 35 -17 32 9 -5 33 8 47 44 47 29 1 30 2 14 14 -14 11 -15 16 -6 22 7 4 15
2 17 -4 2 -7 8 -12 13 -12 6 0 7 5 4 10 -3 6 0 10 8 10 8 0 31 12 52 26 40 27
64 25 72 -5 6 -24 56 -46 80 -36 15 6 13 10 -15 21 -18 8 -30 19 -27 25 4 5 2
16 -4 23 -15 18 2 63 26 69 41 11 61 6 76 -17z m317 4 c0 -5 -6 -10 -14 -10
-8 0 -18 5 -21 10 -3 6 3 10 14 10 12 0 21 -4 21 -10z m-50 -31 c0 -19 -4 -28
-11 -24 -5 4 -19 -1 -29 -10 -10 -9 -24 -14 -29 -10 -15 9 -14 35 2 35 7 0 18
9 25 20 19 31 42 25 42 -11z m136 -16 c20 -27 17 -33 -16 -33 -34 0 -35 2 -18
30 16 24 17 24 34 3z m-811 -3 c3 -5 -3 -10 -15 -10 -12 0 -18 5 -15 10 3 6
10 10 15 10 5 0 12 -4 15 -10z m200 -10 c-3 -5 -13 -10 -21 -10 -8 0 -14 5
-14 10 0 6 9 10 21 10 11 0 17 -4 14 -10z m689 -35 c-1 -5 6 -15 14 -21 11 -8
12 -13 4 -18 -15 -9 -32 1 -32 19 0 8 -8 19 -17 25 -16 9 -15 10 7 8 14 -2 25
-7 24 -13z m-1394 -95 c0 -5 -7 -10 -15 -10 -8 0 -15 5 -15 10 0 6 7 10 15 10
8 0 15 -4 15 -10z m200 -30 c0 -5 -7 -10 -16 -10 -8 0 -12 5 -9 10 3 6 10 10
16 10 5 0 9 -4 9 -10z m-90 -16 c0 -2 -9 -4 -21 -4 -11 0 -18 4 -14 10 5 8 35
3 35 -6z m1518 5 c-2 -6 -7 -10 -11 -10 -4 1 -14 1 -22 1 -8 0 -15 5 -15 10 0
6 12 10 26 10 14 0 24 -5 22 -11z m-1764 -35 c26 -10 18 -24 -14 -24 -30 0
-41 14 -17 23 6 3 13 6 14 6 1 1 8 -2 17 -5z m-184 -24 c0 -5 -4 -10 -10 -10
-5 0 -10 5 -10 10 0 6 5 10 10 10 6 0 10 -4 10 -10z m265 0 c-3 -5 -13 -10
-21 -10 -8 0 -14 5 -14 10 0 6 9 10 21 10 11 0 17 -4 14 -10z m65 -10 c0 -5
-7 -10 -16 -10 -8 0 -12 5 -9 10 3 6 10 10 16 10 5 0 9 -4 9 -10z m1985 0 c3
-5 -3 -10 -15 -10 -12 0 -18 5 -15 10 3 6 10 10 15 10 5 0 12 -4 15 -10z
m-2424 -10 c6 0 7 -4 4 -10 -3 -5 -16 -10 -27 -10 -12 0 -30 -7 -40 -17 -17
-15 -18 -15 -18 0 0 10 6 17 14 17 8 0 17 7 20 16 4 10 12 14 22 10 9 -3 20
-6 25 -6z m-7653 -28 c3 -9 -2 -13 -14 -10 -9 1 -19 9 -22 16 -3 9 2 13 14 10
9 -1 19 -9 22 -16z m197 3 c0 -11 -59 -19 -82 -11 -8 3 -11 11 -8 16 8 14 90
9 90 -5z m2785 5 c0 -5 -7 -10 -16 -10 -8 0 -12 5 -9 10 3 6 10 10 16 10 5 0
9 -4 9 -10z m4950 -15 c-13 -16 -50 -21 -50 -7 0 15 13 22 38 22 21 0 22 -2
12 -15z m-1760 -15 c0 -5 -11 -10 -25 -10 -14 0 -25 5 -25 10 0 6 11 10 25 10
14 0 25 -4 25 -10z m-4293 -6 c-3 -3 -12 -4 -19 -1 -8 3 -5 6 6 6 11 1 17 -2
13 -5z m1391 -6 c-5 -15 -48 -24 -48 -10 0 14 12 22 33 22 10 0 17 -5 15 -12z
m707 2 c3 -5 -3 -10 -14 -10 -12 0 -21 5 -21 10 0 6 6 10 14 10 8 0 18 -4 21
-10z m2612 -6 c-3 -3 -12 -4 -19 -1 -8 3 -5 6 6 6 11 1 17 -2 13 -5z m-1504
-18 c10 -8 14 -17 9 -20 -6 -3 -21 3 -33 14 -28 23 -5 28 24 6z m-6741 -1572
c-12 -8 -27 -12 -33 -8 -14 8 8 24 36 24 18 0 18 -1 -3 -16z m-19 -231 c-7 -2
-19 -2 -25 0 -7 3 -2 5 12 5 14 0 19 -2 13 -5z m87 -93 c0 -5 -7 -10 -15 -10
-8 0 -15 5 -15 10 0 6 7 10 15 10 8 0 15 -4 15 -10z m-53 -21 c-14 -8 -22 -8
-30 0 -8 8 -3 11 19 11 25 -1 27 -2 11 -11z m83 -19 c13 -9 13 -10 0 -9 -8 0
-24 4 -35 9 l-20 9 20 0 c11 0 27 -4 35 -9z m12525 -670 c-3 -5 -13 -10 -21
-10 -8 0 -14 5 -14 10 0 6 9 10 21 10 11 0 17 -4 14 -10z m-12625 -510 c0 -5
-4 -10 -10 -10 -5 0 -10 5 -10 10 0 6 5 10 10 10 6 0 10 -4 10 -10z m-75
-3690 c3 -5 1 -10 -4 -10 -6 0 -11 5 -11 10 0 6 2 10 4 10 3 0 8 -4 11 -10z
m60 -380 c-3 -5 -15 -10 -25 -10 -10 0 -22 -4 -25 -10 -8 -12 -25 -13 -25 -2
0 11 39 30 63 31 10 1 15 -3 12 -9z m-44 -100 c10 -6 19 -17 19 -25 0 -20 -6
-19 -30 5 -30 30 -26 39 11 20z m39 -1410 c0 -5 -4 -10 -10 -10 -5 0 -10 5
-10 10 0 6 5 10 10 10 6 0 10 -4 10 -10z m80 -40 c0 -5 -5 -10 -11 -10 -5 0
-7 5 -4 10 3 6 8 10 11 10 2 0 4 -4 4 -10z m12454 -396 c9 -3 14 -10 11 -15
-7 -10 -35 0 -35 12 0 11 3 11 24 3z m-12444 -714 c-20 -13 -43 -13 -35 0 3 6
16 10 28 10 18 0 19 -2 7 -10z m-71 -9 c11 -7 9 -10 -8 -16 -27 -8 -18 -25 14
-25 13 0 26 -4 29 -9 7 -10 -17 -21 -45 -21 -10 0 -19 -4 -19 -10 0 -15 22
-12 61 7 44 21 61 44 47 60 -19 23 27 15 48 -8 18 -20 18 -21 -1 -35 -10 -8
-29 -14 -43 -14 -13 0 -20 -4 -17 -10 3 -5 15 -10 25 -10 10 0 21 -6 23 -12 3
-8 6 -6 6 5 1 11 9 17 24 17 21 -1 22 -1 3 -15 -14 -11 -16 -15 -5 -15 12 0
12 -2 -1 -11 -11 -8 -12 -12 -2 -16 24 -10 11 -23 -24 -23 -46 0 -62 -17 -56
-58 l4 -32 -53 0 c-44 -1 -50 -3 -35 -11 10 -6 36 -9 57 -6 48 6 52 2 33 -35
-13 -25 -20 -29 -42 -24 -15 3 -38 9 -52 12 -37 8 -47 21 -32 45 11 17 11 24
-1 37 -34 40 -19 94 21 73 25 -13 46 2 38 26 -5 15 -13 19 -34 16 -23 -3 -24
-2 -7 6 17 8 18 10 3 10 -22 1 -24 27 -4 34 9 4 14 16 12 34 -5 42 4 52 33 34z
m46 -21 c3 -5 -1 -10 -9 -10 -9 0 -16 5 -16 10 0 6 4 10 9 10 6 0 13 -4 16
-10z m144 -170 c11 -6 9 -9 -8 -15 -22 -7 -51 8 -51 27 0 9 31 3 59 -12z m-9
-50 c-8 -5 -24 -10 -35 -10 -17 0 -17 2 -5 10 8 5 24 10 35 10 17 0 17 -2 5
-10z m-196 -96 c9 -3 16 -10 16 -15 0 -14 -26 -10 -40 6 -13 16 -3 20 24 9z
m193 -805 c1 -12 -7 -23 -20 -29 -19 -8 -18 -9 13 -11 28 -1 30 -3 10 -6 -14
-3 -33 -12 -42 -20 -10 -9 -25 -13 -33 -9 -15 5 -15 7 0 22 21 21 14 40 -14
37 -11 -2 -21 1 -21 6 0 13 34 24 38 12 5 -16 28 -13 42 4 17 21 25 19 27 -6z
m83 7 c0 -2 -7 -7 -16 -10 -8 -3 -12 -2 -9 4 6 10 25 14 25 6z m177 -82 c-3
-3 -12 -4 -19 -1 -8 3 -5 6 6 6 11 1 17 -2 13 -5z m8123 -1064 c0 -5 -7 -10
-16 -10 -8 0 -12 5 -9 10 3 6 10 10 16 10 5 0 9 -4 9 -10z m-1495 -30 c-18
-20 -45 -27 -45 -12 0 15 24 32 44 32 18 0 19 -1 1 -20z m3652 14 c-3 -3 -12
-4 -19 -1 -8 3 -5 6 6 6 11 1 17 -2 13 -5z m300 0 c-3 -3 -12 -4 -19 -1 -8 3
-5 6 6 6 11 1 17 -2 13 -5z m-3230 -10 c-3 -3 -12 -4 -19 -1 -8 3 -5 6 6 6 11
1 17 -2 13 -5z m820 0 c-3 -3 -12 -4 -19 -1 -8 3 -5 6 6 6 11 1 17 -2 13 -5z
m-432 -13 c3 -5 -4 -13 -16 -16 -23 -8 -34 -1 -24 14 8 13 32 14 40 2z m-2991
-27 c9 -3 16 -13 16 -21 0 -21 -44 -12 -48 10 -4 18 6 21 32 11z m746 -4 c0
-5 -12 -10 -27 -10 -22 0 -25 2 -13 10 20 13 40 13 40 0z m-2173 -46 c-3 -3
-12 -4 -19 -1 -8 3 -5 6 6 6 11 1 17 -2 13 -5z m1146 -21 c-7 -2 -19 -2 -25 0
-7 3 -2 5 12 5 14 0 19 -2 13 -5z m-3092 -48 c0 -5 -9 -11 -21 -13 -20 -3 -27
8 -13 22 10 9 34 3 34 -9z"/>
<path d="M10542 12615 c-11 -12 -10 -15 2 -15 8 0 18 5 21 10 9 14 26 12 24
-2 -6 -47 23 -69 36 -27 13 38 -55 66 -83 34z"/>
<path d="M10780 12611 c0 -11 26 -22 34 -14 3 3 3 10 0 14 -7 12 -34 11 -34 0z"/>
<path d="M11010 12605 c-16 -19 -4 -35 27 -35 19 0 24 4 19 16 -3 9 -6 20 -6
25 0 14 -26 11 -40 -6z"/>
<path d="M10744 12575 c8 -8 18 -15 22 -15 3 0 1 7 -6 15 -7 8 -17 15 -22 15
-5 0 -3 -7 6 -15z"/>
<path d="M10865 12580 c-3 -6 1 -7 9 -4 18 7 21 14 7 14 -6 0 -13 -4 -16 -10z"/>
<path d="M11250 12570 c0 -5 5 -12 11 -15 6 -4 8 -14 4 -23 -3 -8 0 -19 7 -24
21 -13 25 -10 25 20 0 20 -7 31 -24 39 -12 6 -23 7 -23 3z"/>
<path d="M10477 12554 c-8 -8 1 -24 13 -24 4 0 10 7 14 15 5 15 -14 21 -27 9z"/>
<path d="M11160 12552 c0 -4 14 -21 30 -37 29 -27 31 -28 47 -12 16 16 16 17
-4 17 -12 0 -25 4 -28 10 -9 14 -45 32 -45 22z"/>
<path d="M10662 12533 c2 -12 14 -19 38 -21 l35 -4 -27 21 c-32 26 -51 27 -46
4z"/>
<path d="M10778 12533 c7 -3 16 -2 19 1 4 3 -2 6 -13 5 -11 0 -14 -3 -6 -6z"/>
<path d="M10958 12533 c7 -3 16 -2 19 1 4 3 -2 6 -13 5 -11 0 -14 -3 -6 -6z"/>
<path d="M11020 12520 c47 -25 74 -25 32 0 -18 11 -40 20 -50 20 -10 -1 -3 -8
18 -20z"/>
<path d="M11109 12528 c-5 -10 -4 -58 1 -58 14 0 42 39 35 49 -5 10 -33 16
-36 9z"/>
<path d="M10610 12506 c0 -8 -6 -17 -12 -19 -7 -3 -1 -6 14 -6 34 -1 45 15 18
29 -16 8 -20 8 -20 -4z"/>
<path d="M10496 12494 c-10 -25 -7 -34 9 -34 8 0 15 4 15 9 0 5 3 16 6 25 4
10 1 16 -9 16 -8 0 -18 -7 -21 -16z"/>
<path d="M10765 12500 c3 -5 12 -7 20 -3 21 7 19 13 -6 13 -11 0 -18 -4 -14
-10z"/>
<path d="M10820 12502 c0 -5 6 -17 14 -27 12 -17 15 -17 29 -3 12 11 13 18 4
27 -13 13 -47 15 -47 3z"/>
<path d="M10400 12482 c0 -18 27 -45 34 -34 3 6 2 13 -4 17 -6 4 -8 11 -5 16
4 5 -1 9 -9 9 -9 0 -16 -4 -16 -8z"/>
<path d="M10696 12472 c-7 -11 21 -25 34 -17 5 3 12 0 16 -6 3 -6 0 -15 -7
-20 -10 -6 -5 -9 17 -9 41 0 46 8 23 31 -23 23 -74 36 -83 21z"/>
<path d="M11304 12465 c-15 -11 -16 -15 -5 -29 23 -27 51 -14 51 24 0 15 -28
19 -46 5z"/>
<path d="M10945 12460 c-9 -15 -1 -23 21 -18 15 3 16 4 1 16 -11 9 -17 10 -22
2z"/>
<path d="M11011 12461 c-12 -8 -12 -12 -2 -25 8 -9 18 -16 23 -16 6 0 5 6 -2
15 -6 8 -9 19 -5 25 8 12 4 12 -14 1z"/>
<path d="M10543 12445 c-7 -8 -13 -16 -13 -18 0 -10 108 -15 140 -8 22 6 27 9
13 10 -12 1 -24 7 -27 14 -5 10 -7 10 -12 0 -8 -19 -74 -17 -74 2 0 19 -11 19
-27 0z"/>
<path d="M11215 12451 c-7 -12 12 -24 25 -16 11 7 4 25 -10 25 -5 0 -11 -4
-15 -9z"/>
<path d="M11548 12433 c7 -3 16 -2 19 1 4 3 -2 6 -13 5 -11 0 -14 -3 -6 -6z"/>
<path d="M9908 12409 c-25 -14 -22 -29 6 -29 23 0 41 22 29 34 -8 8 -15 7 -35
-5z"/>
<path d="M10300 12389 c0 -5 5 -7 10 -4 6 3 10 8 10 11 0 2 -4 4 -10 4 -5 0
-10 -5 -10 -11z"/>
<path d="M11410 12390 c0 -5 7 -7 15 -4 8 4 15 8 15 10 0 2 -7 4 -15 4 -8 0
-15 -4 -15 -10z"/>
<path d="M10015 12370 c10 -11 22 -20 27 -20 15 0 9 28 -8 34 -30 11 -37 6
-19 -14z"/>
<path d="M10538 12383 c12 -2 32 -2 45 0 12 2 2 4 -23 4 -25 0 -35 -2 -22 -4z"/>
<path d="M10640 12375 c0 -21 25 -29 47 -16 16 9 16 10 -4 11 -13 0 -23 5 -23
10 0 6 -4 10 -10 10 -5 0 -10 -7 -10 -15z"/>
<path d="M10840 12380 c0 -5 4 -10 9 -10 6 0 13 5 16 10 3 6 -1 10 -9 10 -9 0
-16 -4 -16 -10z"/>
<path d="M2765 12370 c3 -5 8 -10 11 -10 2 0 4 5 4 10 0 6 -5 10 -11 10 -5 0
-7 -4 -4 -10z"/>
<path d="M10170 12375 c0 -2 9 -9 20 -15 16 -9 18 -8 14 5 -5 13 -34 22 -34
10z"/>
<path d="M10390 12372 c0 -12 19 -26 26 -19 2 2 -2 10 -11 17 -9 8 -15 8 -15
2z"/>
<path d="M11288 12373 c7 -3 16 -2 19 1 4 3 -2 6 -13 5 -11 0 -14 -3 -6 -6z"/>
<path d="M11693 12373 c9 -2 23 -2 30 0 6 3 -1 5 -18 5 -16 0 -22 -2 -12 -5z"/>
<path d="M4480 12355 c0 -8 5 -15 10 -15 6 0 10 7 10 15 0 8 -4 15 -10 15 -5
0 -10 -7 -10 -15z"/>
<path d="M10083 12363 c9 -2 23 -2 30 0 6 3 -1 5 -18 5 -16 0 -22 -2 -12 -5z"/>
<path d="M1376 12344 c-5 -12 -2 -15 10 -10 8 3 18 6 20 6 3 0 2 5 -1 10 -9
15 -22 12 -29 -6z"/>
<path d="M3860 12350 c0 -5 7 -10 15 -10 8 0 15 5 15 10 0 6 -7 10 -15 10 -8
0 -15 -4 -15 -10z"/>
<path d="M5483 12343 c-35 -23 -28 -33 22 -33 25 0 45 5 45 10 0 6 -12 10 -27
10 -20 0 -24 3 -14 9 7 5 9 11 5 14 -5 2 -19 -2 -31 -10z"/>
<path d="M9658 12348 c9 -9 15 -9 24 0 9 9 7 12 -12 12 -19 0 -21 -3 -12 -12z"/>
<path d="M9815 12350 c-3 -5 -1 -10 4 -10 6 0 11 5 11 10 0 6 -2 10 -4 10 -3
0 -8 -4 -11 -10z"/>
<path d="M9023 12325 c-3 -9 -3 -18 0 -21 9 -9 27 6 27 22 0 19 -19 18 -27 -1z"/>
<path d="M4780 12320 c0 -5 4 -10 9 -10 6 0 13 5 16 10 3 6 -1 10 -9 10 -9 0
-16 -4 -16 -10z"/>
<path d="M5840 12310 c34 -27 63 -26 31 0 -13 11 -31 20 -40 20 -12 0 -10 -5
9 -20z"/>
<path d="M8568 12323 c6 -2 18 -2 25 0 6 3 1 5 -13 5 -14 0 -19 -2 -12 -5z"/>
<path d="M8810 12300 c0 -5 7 -10 15 -10 8 0 15 5 15 10 0 6 -7 10 -15 10 -8
0 -15 -4 -15 -10z"/>
<path d="M5025 12270 c3 -5 10 -10 16 -10 5 0 9 5 9 10 0 6 -7 10 -16 10 -8 0
-12 -4 -9 -10z"/>
<path d="M12130 12050 c0 -5 7 -10 15 -10 8 0 15 5 15 10 0 6 -7 10 -15 10 -8
0 -15 -4 -15 -10z"/>
<path d="M12120 12010 c0 -11 33 -30 52 -30 7 0 2 9 -12 20 -28 22 -40 25 -40
10z"/>
<path d="M7710 11510 c0 -5 5 -10 10 -10 6 0 10 5 10 10 0 6 -4 10 -10 10 -5
0 -10 -4 -10 -10z"/>
<path d="M7850 11300 c0 -5 5 -10 10 -10 6 0 10 5 10 10 0 6 -4 10 -10 10 -5
0 -10 -4 -10 -10z"/>
<path d="M208 10573 c6 -2 18 -2 25 0 6 3 1 5 -13 5 -14 0 -19 -2 -12 -5z"/>
<path d="M285 10560 c3 -5 -1 -10 -9 -10 -9 0 -16 -4 -16 -10 0 -5 -11 -10
-25 -10 -37 0 -31 -13 12 -27 40 -12 66 -6 39 9 -22 12 -20 25 4 31 24 6 27
27 4 27 -8 0 -12 -4 -9 -10z"/>
<path d="M636 10542 c9 -11 23 -18 31 -15 17 7 7 18 -25 28 -22 7 -23 6 -6
-13z"/>
<path d="M178 10338 c-33 -11 -36 -24 -8 -33 11 -3 20 -10 20 -15 0 -15 -21
-23 -33 -11 -13 13 -37 15 -37 2 0 -14 52 -23 63 -12 6 6 25 11 43 11 25 0 31
4 30 20 0 10 -10 26 -21 34 -23 18 -21 18 -57 4z"/>
<path d="M247 10255 c-5 -10 0 -15 14 -15 12 0 19 5 17 12 -6 18 -25 20 -31 3z"/>
<path d="M350 10180 c0 -5 5 -10 11 -10 5 0 7 5 4 10 -3 6 -8 10 -11 10 -2 0
-4 -4 -4 -10z"/>
<path d="M150 10145 c-10 -12 -10 -15 3 -15 9 0 19 5 22 10 3 6 10 10 16 10 5
0 9 -4 9 -10 0 -5 -7 -10 -15 -10 -8 0 -15 -5 -15 -11 0 -6 7 -8 16 -5 9 3 34
6 56 6 39 0 40 1 24 18 -21 24 -98 28 -116 7z"/>
<path d="M180 10010 c0 -5 5 -10 11 -10 5 0 7 5 4 10 -3 6 -8 10 -11 10 -2 0
-4 -4 -4 -10z"/>
<path d="M230 9990 c0 -5 5 -10 10 -10 6 0 10 5 10 10 0 6 -4 10 -10 10 -5 0
-10 -4 -10 -10z"/>
<path d="M215 9930 c3 -5 15 -10 26 -10 10 0 19 5 19 10 0 6 -12 10 -26 10
-14 0 -23 -4 -19 -10z"/>
<path d="M185 9800 c3 -5 8 -10 11 -10 2 0 4 5 4 10 0 6 -5 10 -11 10 -5 0 -7
-4 -4 -10z"/>
<path d="M12073 9785 c0 -19 8 -19 33 0 18 14 18 14 -7 15 -16 0 -26 -5 -26
-15z"/>
<path d="M12120 9761 c0 -5 -9 -11 -20 -13 -31 -5 -29 -23 4 -26 30 -4 62 17
38 25 -6 3 -10 9 -6 14 3 5 0 9 -5 9 -6 0 -11 -4 -11 -9z"/>
<path d="M115 9732 c-24 -13 -26 -17 -12 -20 21 -4 77 19 71 30 -7 11 -24 8
-59 -10z"/>
<path d="M155 9530 c-3 -5 1 -10 10 -10 9 0 13 5 10 10 -3 6 -8 10 -10 10 -2
0 -7 -4 -10 -10z"/>
<path d="M150 9470 c0 -5 11 -10 25 -10 14 0 25 5 25 10 0 6 -11 10 -25 10
-14 0 -25 -4 -25 -10z"/>
<path d="M160 9040 c0 -5 7 -10 15 -10 8 0 15 5 15 10 0 6 -7 10 -15 10 -8 0
-15 -4 -15 -10z"/>
<path d="M100 8631 c0 -5 7 -12 16 -15 22 -9 24 -8 24 9 0 8 -9 15 -20 15 -11
0 -20 -4 -20 -9z"/>
<path d="M105 8590 c3 -5 12 -10 20 -10 8 0 17 5 20 10 4 6 -5 10 -20 10 -15
0 -24 -4 -20 -10z"/>
<path d="M125 8550 c-3 -5 -1 -10 4 -10 6 0 11 5 11 10 0 6 -2 10 -4 10 -3 0
-8 -4 -11 -10z"/>
<path d="M101 8402 c-15 -28 -15 -29 14 -34 34 -7 42 9 17 34 l-20 20 -11 -20z"/>
<path d="M105 8331 c-6 -11 9 -23 19 -14 9 9 7 23 -3 23 -6 0 -12 -4 -16 -9z"/>
<path d="M100 8210 c0 -5 7 -10 15 -10 8 0 15 5 15 10 0 6 -7 10 -15 10 -8 0
-15 -4 -15 -10z"/>
<path d="M165 8120 c-3 -5 1 -10 9 -10 9 0 16 5 16 10 0 6 -4 10 -9 10 -6 0
-13 -4 -16 -10z"/>
<path d="M97 8094 c-9 -9 4 -34 17 -34 6 0 12 9 13 20 2 19 -16 27 -30 14z"/>
<path d="M178 8033 c7 -3 16 -2 19 1 4 3 -2 6 -13 5 -11 0 -14 -3 -6 -6z"/>
<path d="M184 8005 c3 -8 1 -15 -4 -15 -6 0 -10 -4 -10 -10 0 -16 27 -11 34 6
7 18 0 34 -16 34 -5 0 -8 -7 -4 -15z"/>
<path d="M161 7951 c-11 -7 -11 -9 0 -14 10 -3 6 -8 -11 -16 -24 -11 -24 -11
5 -6 17 4 45 9 63 12 17 3 32 9 32 14 0 15 -29 22 -43 10 -8 -6 -17 -7 -23 -1
-5 5 -15 5 -23 1z"/>
<path d="M303 7933 c9 -2 17 -12 17 -21 0 -15 2 -15 10 -2 16 24 12 30 -17 29
-17 -1 -21 -3 -10 -6z"/>
<path d="M372 7829 c2 -6 8 -10 13 -10 5 0 11 4 13 10 2 6 -4 11 -13 11 -9 0
-15 -5 -13 -11z"/>
<path d="M136 7813 c-11 -11 -6 -23 9 -23 8 0 15 4 15 9 0 13 -16 22 -24 14z"/>
<path d="M235 7810 c-3 -5 3 -10 14 -10 11 0 23 5 26 10 3 6 -3 10 -14 10 -11
0 -23 -4 -26 -10z"/>
<path d="M125 7010 c3 -5 10 -10 16 -10 5 0 9 5 9 10 0 6 -7 10 -16 10 -8 0
-12 -4 -9 -10z"/>
<path d="M190 4980 c-13 -8 -12 -10 3 -10 9 0 17 5 17 10 0 12 -1 12 -20 0z"/>
<path d="M350 4969 c0 -5 5 -7 10 -4 6 3 10 8 10 11 0 2 -4 4 -10 4 -5 0 -10
-5 -10 -11z"/>
<path d="M287 4933 c-13 -12 -7 -23 13 -23 13 0 18 5 14 15 -7 16 -17 19 -27
8z"/>
<path d="M140 4870 c19 -13 30 -13 30 0 0 6 -10 10 -22 10 -19 0 -20 -2 -8
-10z"/>
<path d="M135 4830 c3 -5 11 -10 16 -10 6 0 7 5 4 10 -3 6 -11 10 -16 10 -6 0
-7 -4 -4 -10z"/>
<path d="M100 4747 c0 -5 6 -7 13 -4 8 3 20 -3 28 -14 7 -10 21 -19 31 -19 20
0 25 20 6 20 -7 1 -3 6 9 13 19 11 15 12 -33 13 -30 0 -54 -4 -54 -9z"/>
<path d="M76 4661 c-4 -6 -6 -11 -4 -12 29 -6 69 -5 74 2 3 5 -1 9 -8 9 -7 0
-23 3 -34 6 -12 3 -25 1 -28 -5z"/>
<path d="M140 4619 c0 -5 7 -9 15 -9 8 0 15 -4 15 -10 0 -5 9 -10 20 -10 12 0
20 7 20 18 0 12 -9 17 -35 19 -19 1 -35 -3 -35 -8z"/>
<path d="M75 4540 c3 -5 13 -10 21 -10 8 0 14 5 14 10 0 6 -9 10 -21 10 -11 0
-17 -4 -14 -10z"/>
<path d="M120 4350 c0 -5 4 -10 9 -10 6 0 13 5 16 10 3 6 -1 10 -9 10 -9 0
-16 -4 -16 -10z"/>
<path d="M85 4290 c-3 -5 3 -10 14 -10 12 0 21 5 21 10 0 6 -6 10 -14 10 -8 0
-18 -4 -21 -10z"/>
<path d="M79 4254 c-11 -14 -10 -16 9 -12 13 1 23 7 23 13 1 17 -17 16 -32 -1z"/>
<path d="M145 4080 c-3 -5 3 -10 15 -10 12 0 18 5 15 10 -3 6 -10 10 -15 10
-5 0 -12 -4 -15 -10z"/>
<path d="M190 4050 c0 -5 5 -10 10 -10 6 0 10 5 10 10 0 6 -4 10 -10 10 -5 0
-10 -4 -10 -10z"/>
<path d="M195 3950 c4 -6 11 -8 16 -5 14 9 11 15 -7 15 -8 0 -12 -5 -9 -10z"/>
<path d="M205 3870 c-3 -5 1 -10 10 -10 9 0 13 5 10 10 -3 6 -8 10 -10 10 -2
0 -7 -4 -10 -10z"/>
<path d="M145 3860 c-3 -5 1 -10 10 -10 9 0 13 5 10 10 -3 6 -8 10 -10 10 -2
0 -7 -4 -10 -10z"/>
<path d="M195 3470 c3 -5 14 -10 23 -10 15 0 15 2 2 10 -20 13 -33 13 -25 0z"/>
<path d="M130 3441 c0 -5 6 -11 13 -13 17 -7 38 2 31 13 -7 12 -44 12 -44 0z"/>
<path d="M130 3380 c0 -5 4 -10 9 -10 6 0 13 5 16 10 3 6 -1 10 -9 10 -9 0
-16 -4 -16 -10z"/>
<path d="M75 3200 c-3 -5 3 -10 14 -10 11 0 23 -4 26 -10 3 -5 16 -10 28 -10
22 0 22 1 -3 20 -27 21 -55 26 -65 10z"/>
<path d="M220 3130 c0 -5 10 -10 23 -10 18 0 19 2 7 10 -19 13 -30 13 -30 0z"/>
<path d="M165 3120 c-3 -5 -1 -10 4 -10 6 0 11 5 11 10 0 6 -2 10 -4 10 -3 0
-8 -4 -11 -10z"/>
<path d="M328 3013 c6 -2 18 -2 25 0 6 3 1 5 -13 5 -14 0 -19 -2 -12 -5z"/>
<path d="M190 2990 c0 -5 9 -10 19 -10 11 0 23 5 26 10 4 6 -5 10 -19 10 -14
0 -26 -4 -26 -10z"/>
<path d="M205 2940 c-3 -5 3 -10 14 -10 12 0 21 5 21 10 0 6 -6 10 -14 10 -8
0 -18 -4 -21 -10z"/>
<path d="M227 2906 c-10 -8 -16 -20 -15 -27 2 -9 -11 -16 -37 -20 l-40 -6 36
-2 c22 0 39 -7 42 -15 3 -8 16 -17 29 -19 13 -3 1 -5 -27 -5 -27 0 -61 -4 -73
-9 -22 -8 -22 -10 -7 -23 21 -18 79 -14 111 6 15 10 33 14 49 10 23 -6 25 -4
16 11 -10 20 -38 45 -67 61 -17 10 -17 11 9 23 15 7 27 16 27 21 0 13 -33 9
-53 -6z m-47 -116 c0 -5 -4 -10 -9 -10 -6 0 -13 5 -16 10 -3 6 1 10 9 10 9 0
16 -4 16 -10z"/>
<path d="M280 2761 c0 -5 5 -11 12 -13 16 -6 1 -28 -28 -38 -32 -12 -41 -37
-21 -57 14 -14 22 -15 58 -4 30 9 38 16 30 24 -7 7 -7 14 0 24 9 9 7 14 -5 19
-13 5 -14 9 -4 21 9 11 9 16 -3 24 -18 11 -39 12 -39 0z"/>
<path d="M121 2664 c-17 -19 -6 -31 13 -15 11 9 20 10 33 2 16 -9 15 -11 -9
-20 -38 -14 -35 -27 9 -36 29 -5 40 -3 50 11 19 27 16 44 -9 44 -13 0 -32 7
-42 15 -24 18 -28 18 -45 -1z"/>
<path d="M268 2611 c-20 -23 -14 -31 23 -31 29 0 44 21 26 39 -16 16 -30 14
-49 -8z"/>
<path d="M418 2403 c7 -3 16 -2 19 1 4 3 -2 6 -13 5 -11 0 -14 -3 -6 -6z"/>
<path d="M12180 2150 c0 -5 12 -10 26 -10 14 0 23 4 19 10 -3 6 -15 10 -26 10
-10 0 -19 -4 -19 -10z"/>
<path d="M367 1654 c-8 -8 1 -24 14 -24 5 0 9 7 9 15 0 15 -12 20 -23 9z"/>
<path d="M367 1606 c-3 -8 1 -20 9 -26 16 -14 19 -35 4 -25 -5 3 -10 1 -10 -4
0 -6 4 -11 9 -11 5 0 12 -10 14 -22 3 -13 4 4 3 36 -1 57 -17 84 -29 52z"/>
<path d="M8030 1115 c-10 -12 -10 -15 4 -15 9 0 16 7 16 15 0 8 -2 15 -4 15
-2 0 -9 -7 -16 -15z"/>
<path d="M589 1087 c-8 -7 -23 -18 -33 -24 -17 -9 -16 -11 12 -9 38 2 61 21
45 37 -7 7 -14 6 -24 -4z"/>
<path d="M559 1038 c0 -2 -3 -23 -5 -47 -4 -36 -12 -50 -49 -84 -25 -22 -43
-42 -40 -45 11 -11 106 89 103 107 -2 9 5 24 14 33 24 24 23 38 -2 38 -11 0
-20 -1 -21 -2z"/>
<path d="M6725 990 c-3 -5 1 -10 10 -10 9 0 13 5 10 10 -3 6 -8 10 -10 10 -2
0 -7 -4 -10 -10z"/>
<path d="M740 380 c0 -5 5 -10 11 -10 5 0 7 5 4 10 -3 6 -8 10 -11 10 -2 0 -4
-4 -4 -10z"/>
<path d="M1242 362 l-24 -7 30 -22 c26 -19 32 -20 55 -8 14 7 27 12 29 12 2
-1 -1 3 -7 10 -13 16 -55 23 -83 15z"/>
<path d="M9175 289 c-4 -6 -5 -13 -2 -16 7 -7 27 6 27 18 0 12 -17 12 -25 -2z"/>
<path d="M12280 290 c-22 -5 -23 -7 -7 -13 26 -10 57 -9 57 2 0 13 -22 18 -50
11z"/>
<path d="M5290 250 c0 -5 7 -10 15 -10 8 0 15 5 15 10 0 6 -7 10 -15 10 -8 0
-15 -4 -15 -10z"/>
<path d="M8920 251 c0 -5 9 -7 20 -4 11 3 20 7 20 9 0 2 -9 4 -20 4 -11 0 -20
-4 -20 -9z"/>
<path d="M6130 220 c-19 -15 -21 -20 -9 -20 9 0 27 9 40 20 32 26 3 27 -31 0z"/>
<path d="M5749 190 c30 -26 60 -28 40 -4 -12 15 -11 16 6 11 11 -4 27 -2 35 3
11 7 -3 10 -45 10 l-60 -1 24 -19z"/>
<path d="M5040 190 c0 -5 7 -10 15 -10 8 0 15 5 15 10 0 6 -7 10 -15 10 -8 0
-15 -4 -15 -10z"/>
<path d="M5128 163 c7 -3 16 -2 19 1 4 3 -2 6 -13 5 -11 0 -14 -3 -6 -6z"/>
<path d="M4095 149 c-10 -15 1 -23 20 -15 9 3 13 10 10 16 -8 13 -22 13 -30
-1z"/>
<path d="M4730 151 c0 -6 5 -13 10 -16 6 -3 10 1 10 9 0 9 -4 16 -10 16 -5 0
-10 -4 -10 -9z"/>
<path d="M1504 115 c3 -9 6 -19 6 -21 0 -2 7 -4 15 -4 21 0 19 13 -6 29 -19
11 -21 11 -15 -4z"/>
<path d="M2770 100 c0 -14 26 -23 41 -15 8 6 7 10 -2 16 -19 12 -39 11 -39 -1z"/>
<path d="M2950 94 c0 -8 5 -12 10 -9 6 3 10 10 10 16 0 5 -4 9 -10 9 -5 0 -10
-7 -10 -16z"/>
<path d="M188 2363 c6 -2 18 -2 25 0 6 3 1 5 -13 5 -14 0 -19 -2 -12 -5z"/>
</g>
</svg>
